G04 #@! TF.GenerationSoftware,KiCad,Pcbnew,(6.0.6)*
G04 #@! TF.CreationDate,2022-07-02T13:13:47+02:00*
G04 #@! TF.ProjectId,stencil,7374656e-6369-46c2-9e6b-696361645f70,rev?*
G04 #@! TF.SameCoordinates,Original*
G04 #@! TF.FileFunction,Paste,Top*
G04 #@! TF.FilePolarity,Positive*
%FSLAX46Y46*%
G04 Gerber Fmt 4.6, Leading zero omitted, Abs format (unit mm)*
G04 Created by KiCad (PCBNEW (6.0.6)) date 2022-07-02 13:13:47*
%MOMM*%
%LPD*%
G01*
G04 APERTURE LIST*
G04 Aperture macros list*
%AMRoundRect*
0 Rectangle with rounded corners*
0 $1 Rounding radius*
0 $2 $3 $4 $5 $6 $7 $8 $9 X,Y pos of 4 corners*
0 Add a 4 corners polygon primitive as box body*
4,1,4,$2,$3,$4,$5,$6,$7,$8,$9,$2,$3,0*
0 Add four circle primitives for the rounded corners*
1,1,$1+$1,$2,$3*
1,1,$1+$1,$4,$5*
1,1,$1+$1,$6,$7*
1,1,$1+$1,$8,$9*
0 Add four rect primitives between the rounded corners*
20,1,$1+$1,$2,$3,$4,$5,0*
20,1,$1+$1,$4,$5,$6,$7,0*
20,1,$1+$1,$6,$7,$8,$9,0*
20,1,$1+$1,$8,$9,$2,$3,0*%
G04 Aperture macros list end*
%ADD10C,0.500000*%
%ADD11C,1.000000*%
%ADD12C,1.050000*%
%ADD13RoundRect,0.237500X-0.300000X-0.237500X0.300000X-0.237500X0.300000X0.237500X-0.300000X0.237500X0*%
%ADD14RoundRect,0.237500X-0.237500X0.250000X-0.237500X-0.250000X0.237500X-0.250000X0.237500X0.250000X0*%
%ADD15RoundRect,0.237500X-0.237500X0.300000X-0.237500X-0.300000X0.237500X-0.300000X0.237500X0.300000X0*%
%ADD16RoundRect,0.250001X0.624999X-0.462499X0.624999X0.462499X-0.624999X0.462499X-0.624999X-0.462499X0*%
%ADD17R,0.909599X0.254800*%
%ADD18R,0.254800X0.909599*%
%ADD19R,3.098800X3.098800*%
%ADD20RoundRect,0.237500X0.237500X-0.300000X0.237500X0.300000X-0.237500X0.300000X-0.237500X-0.300000X0*%
%ADD21RoundRect,0.237500X0.237500X-0.250000X0.237500X0.250000X-0.237500X0.250000X-0.237500X-0.250000X0*%
%ADD22RoundRect,0.237500X0.300000X0.237500X-0.300000X0.237500X-0.300000X-0.237500X0.300000X-0.237500X0*%
%ADD23RoundRect,0.250000X0.550000X-1.500000X0.550000X1.500000X-0.550000X1.500000X-0.550000X-1.500000X0*%
%ADD24RoundRect,0.237500X0.250000X0.237500X-0.250000X0.237500X-0.250000X-0.237500X0.250000X-0.237500X0*%
%ADD25RoundRect,0.237500X-0.250000X-0.237500X0.250000X-0.237500X0.250000X0.237500X-0.250000X0.237500X0*%
G04 APERTURE END LIST*
D10*
X152000000Y-14000000D02*
G75*
G03*
X151500000Y-14500000I0J-500000D01*
G01*
X176000000Y-98000000D02*
X186000000Y-98000000D01*
X115500000Y-26500000D02*
G75*
G03*
X115000000Y-27000000I0J-500000D01*
G01*
D11*
X118750000Y-56000000D02*
G75*
G03*
X118750000Y-56000000I-500000J0D01*
G01*
D10*
X139500000Y-97500000D02*
G75*
G03*
X140000000Y-98000000I500000J0D01*
G01*
D12*
X118775000Y-17250000D02*
G75*
G03*
X118775000Y-17250000I-525000J0D01*
G01*
D10*
X115000000Y-85000000D02*
G75*
G03*
X115500000Y-85500000I500000J0D01*
G01*
X162500000Y-14500000D02*
G75*
G03*
X162000000Y-14000000I-500000J0D01*
G01*
X199000000Y-63000000D02*
X199000000Y-73000000D01*
X115000000Y-27000000D02*
X115000000Y-37000000D01*
X198000000Y-98000000D02*
G75*
G03*
X199000000Y-97000000I0J1000000D01*
G01*
X138000000Y-98000000D02*
G75*
G03*
X138500000Y-97500000I0J500000D01*
G01*
X198500000Y-73500000D02*
G75*
G03*
X199000000Y-73000000I0J500000D01*
G01*
X199000000Y-51000000D02*
X199000000Y-61000000D01*
X140000000Y-14000000D02*
G75*
G03*
X139500000Y-14500000I0J-500000D01*
G01*
D11*
X196250000Y-75375000D02*
G75*
G03*
X196250000Y-75375000I-500000J0D01*
G01*
D10*
X152000000Y-98000000D02*
X162000000Y-98000000D01*
X152000000Y-14000000D02*
X162000000Y-14000000D01*
X126000000Y-98000000D02*
G75*
G03*
X126500000Y-97500000I0J500000D01*
G01*
X199000000Y-87000000D02*
X199000000Y-97000000D01*
X164000000Y-14000000D02*
G75*
G03*
X163500000Y-14500000I0J-500000D01*
G01*
D11*
X196250000Y-36625000D02*
G75*
G03*
X196250000Y-36625000I-500000J0D01*
G01*
D10*
X116000000Y-98000000D02*
X126000000Y-98000000D01*
D12*
X118775000Y-94750000D02*
G75*
G03*
X118775000Y-94750000I-525000J0D01*
G01*
D10*
X128000000Y-14000000D02*
G75*
G03*
X127500000Y-14500000I0J-500000D01*
G01*
X116000000Y-14000000D02*
X126000000Y-14000000D01*
X187500000Y-97500000D02*
G75*
G03*
X188000000Y-98000000I500000J0D01*
G01*
X199000000Y-63000000D02*
G75*
G03*
X198500000Y-62500000I-500000J0D01*
G01*
X115000000Y-49000000D02*
G75*
G03*
X115500000Y-49500000I500000J0D01*
G01*
X175500000Y-97500000D02*
G75*
G03*
X176000000Y-98000000I500000J0D01*
G01*
X128000000Y-98000000D02*
X138000000Y-98000000D01*
D11*
X118750000Y-75375000D02*
G75*
G03*
X118750000Y-75375000I-500000J0D01*
G01*
D10*
X199000000Y-27000000D02*
X199000000Y-37000000D01*
X162000000Y-98000000D02*
G75*
G03*
X162500000Y-97500000I0J500000D01*
G01*
X115500000Y-74500000D02*
G75*
G03*
X115000000Y-75000000I0J-500000D01*
G01*
X115000000Y-87000000D02*
X115000000Y-97000000D01*
X198500000Y-85500000D02*
G75*
G03*
X199000000Y-85000000I0J500000D01*
G01*
X115500000Y-50500000D02*
G75*
G03*
X115000000Y-51000000I0J-500000D01*
G01*
D11*
X176875000Y-94750000D02*
G75*
G03*
X176875000Y-94750000I-500000J0D01*
G01*
D10*
X115000000Y-39000000D02*
X115000000Y-49000000D01*
D11*
X138125000Y-94750000D02*
G75*
G03*
X138125000Y-94750000I-500000J0D01*
G01*
X196250000Y-56000000D02*
G75*
G03*
X196250000Y-56000000I-500000J0D01*
G01*
D10*
X186000000Y-98000000D02*
G75*
G03*
X186500000Y-97500000I0J500000D01*
G01*
X199000000Y-75000000D02*
G75*
G03*
X198500000Y-74500000I-500000J0D01*
G01*
X199000000Y-87000000D02*
G75*
G03*
X198500000Y-86500000I-500000J0D01*
G01*
X128000000Y-14000000D02*
X138000000Y-14000000D01*
X115500000Y-62500000D02*
G75*
G03*
X115000000Y-63000000I0J-500000D01*
G01*
X115000000Y-63000000D02*
X115000000Y-73000000D01*
D12*
X196275000Y-94750000D02*
G75*
G03*
X196275000Y-94750000I-525000J0D01*
G01*
D10*
X198500000Y-49500000D02*
G75*
G03*
X199000000Y-49000000I0J500000D01*
G01*
X198500000Y-37500000D02*
G75*
G03*
X199000000Y-37000000I0J500000D01*
G01*
X176000000Y-14000000D02*
G75*
G03*
X175500000Y-14500000I0J-500000D01*
G01*
X176000000Y-14000000D02*
X186000000Y-14000000D01*
X199000000Y-51000000D02*
G75*
G03*
X198500000Y-50500000I-500000J0D01*
G01*
X188000000Y-14000000D02*
X198000000Y-14000000D01*
X199000000Y-15000000D02*
G75*
G03*
X198000000Y-14000000I-1000000J0D01*
G01*
X140000000Y-98000000D02*
X150000000Y-98000000D01*
X199000000Y-15000000D02*
X199000000Y-25000000D01*
X115000000Y-15000000D02*
X115000000Y-25000000D01*
X198500000Y-61500000D02*
G75*
G03*
X199000000Y-61000000I0J500000D01*
G01*
X199000000Y-39000000D02*
G75*
G03*
X198500000Y-38500000I-500000J0D01*
G01*
X126500000Y-14500000D02*
G75*
G03*
X126000000Y-14000000I-500000J0D01*
G01*
X151500000Y-97500000D02*
G75*
G03*
X152000000Y-98000000I500000J0D01*
G01*
X115000000Y-51000000D02*
X115000000Y-61000000D01*
X163500000Y-97500000D02*
G75*
G03*
X164000000Y-98000000I500000J0D01*
G01*
D11*
X157500000Y-94750000D02*
G75*
G03*
X157500000Y-94750000I-500000J0D01*
G01*
D10*
X164000000Y-14000000D02*
X174000000Y-14000000D01*
X116000000Y-14000000D02*
G75*
G03*
X115000000Y-15000000I0J-1000000D01*
G01*
X138500000Y-14500000D02*
G75*
G03*
X138000000Y-14000000I-500000J0D01*
G01*
X115500000Y-86500000D02*
G75*
G03*
X115000000Y-87000000I0J-500000D01*
G01*
X115000000Y-25000000D02*
G75*
G03*
X115500000Y-25500000I500000J0D01*
G01*
X150500000Y-14500000D02*
G75*
G03*
X150000000Y-14000000I-500000J0D01*
G01*
X115000000Y-75000000D02*
X115000000Y-85000000D01*
X199000000Y-39000000D02*
X199000000Y-49000000D01*
X188000000Y-14000000D02*
G75*
G03*
X187500000Y-14500000I0J-500000D01*
G01*
X174000000Y-98000000D02*
G75*
G03*
X174500000Y-97500000I0J500000D01*
G01*
X188000000Y-98000000D02*
X198000000Y-98000000D01*
X115500000Y-38500000D02*
G75*
G03*
X115000000Y-39000000I0J-500000D01*
G01*
X174500000Y-14500000D02*
G75*
G03*
X174000000Y-14000000I-500000J0D01*
G01*
X198500000Y-25500000D02*
G75*
G03*
X199000000Y-25000000I0J500000D01*
G01*
D11*
X157500000Y-17250000D02*
G75*
G03*
X157500000Y-17250000I-500000J0D01*
G01*
D10*
X127500000Y-97500000D02*
G75*
G03*
X128000000Y-98000000I500000J0D01*
G01*
X186500000Y-14500000D02*
G75*
G03*
X186000000Y-14000000I-500000J0D01*
G01*
X115000000Y-37000000D02*
G75*
G03*
X115500000Y-37500000I500000J0D01*
G01*
X140000000Y-14000000D02*
X150000000Y-14000000D01*
D12*
X196275000Y-17250000D02*
G75*
G03*
X196275000Y-17250000I-525000J0D01*
G01*
D10*
X115000000Y-61000000D02*
G75*
G03*
X115500000Y-61500000I500000J0D01*
G01*
D11*
X176875000Y-17250000D02*
G75*
G03*
X176875000Y-17250000I-500000J0D01*
G01*
D10*
X115000000Y-97000000D02*
G75*
G03*
X116000000Y-98000000I1000000J0D01*
G01*
D11*
X118750000Y-36625000D02*
G75*
G03*
X118750000Y-36625000I-500000J0D01*
G01*
D10*
X150000000Y-98000000D02*
G75*
G03*
X150500000Y-97500000I0J500000D01*
G01*
X199000000Y-75000000D02*
X199000000Y-85000000D01*
X199000000Y-27000000D02*
G75*
G03*
X198500000Y-26500000I-500000J0D01*
G01*
X115000000Y-73000000D02*
G75*
G03*
X115500000Y-73500000I500000J0D01*
G01*
D11*
X138125000Y-17250000D02*
G75*
G03*
X138125000Y-17250000I-500000J0D01*
G01*
D10*
X164000000Y-98000000D02*
X174000000Y-98000000D01*
D13*
G04 #@! TO.C,C4*
X162137500Y-61000000D03*
X163862500Y-61000000D03*
G04 #@! TD*
D14*
G04 #@! TO.C,R6*
X160500000Y-66087500D03*
X160500000Y-67912500D03*
G04 #@! TD*
D15*
G04 #@! TO.C,C1*
X155750000Y-66137500D03*
X155750000Y-67862500D03*
G04 #@! TD*
D16*
G04 #@! TO.C,STEP1*
X153500000Y-72737500D03*
X153500000Y-69762500D03*
G04 #@! TD*
D17*
G04 #@! TO.C,U1*
X154652900Y-59500000D03*
X154652900Y-59999999D03*
X154652900Y-60500001D03*
X154652900Y-61000000D03*
X154652900Y-61499999D03*
X154652900Y-62000001D03*
X154652900Y-62500000D03*
D18*
X155500000Y-63347100D03*
X155999999Y-63347100D03*
X156500001Y-63347100D03*
X157000000Y-63347100D03*
X157499999Y-63347100D03*
X158000001Y-63347100D03*
X158500000Y-63347100D03*
D17*
X159347100Y-62500000D03*
X159347100Y-62000001D03*
X159347100Y-61499999D03*
X159347100Y-61000000D03*
X159347100Y-60500001D03*
X159347100Y-59999999D03*
X159347100Y-59500000D03*
D18*
X158500000Y-58652900D03*
X158000001Y-58652900D03*
X157499999Y-58652900D03*
X157000000Y-58652900D03*
X156500001Y-58652900D03*
X155999999Y-58652900D03*
X155500000Y-58652900D03*
D19*
X157000000Y-61000000D03*
G04 #@! TD*
D14*
G04 #@! TO.C,R3*
X158250000Y-54087500D03*
X158250000Y-55912500D03*
G04 #@! TD*
G04 #@! TO.C,R8*
X153250000Y-66087500D03*
X153250000Y-67912500D03*
G04 #@! TD*
D20*
G04 #@! TO.C,C5*
X153250000Y-55862500D03*
X153250000Y-54137500D03*
G04 #@! TD*
D16*
G04 #@! TO.C,EN1*
X157500000Y-72737500D03*
X157500000Y-69762500D03*
G04 #@! TD*
D14*
G04 #@! TO.C,R10*
X143000000Y-70587500D03*
X143000000Y-72412500D03*
G04 #@! TD*
D21*
G04 #@! TO.C,R2*
X155750000Y-55912500D03*
X155750000Y-54087500D03*
G04 #@! TD*
D22*
G04 #@! TO.C,C3*
X151862500Y-63500000D03*
X150137500Y-63500000D03*
G04 #@! TD*
D21*
G04 #@! TO.C,R1*
X149500000Y-61412500D03*
X149500000Y-59587500D03*
G04 #@! TD*
G04 #@! TO.C,R7*
X158250000Y-67912500D03*
X158250000Y-66087500D03*
G04 #@! TD*
D20*
G04 #@! TO.C,C2*
X152000000Y-61362500D03*
X152000000Y-59637500D03*
G04 #@! TD*
D23*
G04 #@! TO.C,C7*
X157500000Y-48800000D03*
X157500000Y-43200000D03*
G04 #@! TD*
D20*
G04 #@! TO.C,C6*
X160750000Y-55862500D03*
X160750000Y-54137500D03*
G04 #@! TD*
D24*
G04 #@! TO.C,R5*
X163912500Y-58500000D03*
X162087500Y-58500000D03*
G04 #@! TD*
D25*
G04 #@! TO.C,R4*
X162087500Y-63500000D03*
X163912500Y-63500000D03*
G04 #@! TD*
D21*
G04 #@! TO.C,R9*
X145500000Y-72412500D03*
X145500000Y-70587500D03*
G04 #@! TD*
M02*
