%TF.GenerationSoftware,KiCad,Pcbnew,(6.0.6)*%
%TF.CreationDate,2022-06-26T21:43:02+02:00*%
%TF.ProjectId,tmc2208-breakout,746d6332-3230-4382-9d62-7265616b6f75,rev?*%
%TF.SameCoordinates,Original*%
%TF.FileFunction,Copper,L2,Bot*%
%TF.FilePolarity,Positive*%
%FSLAX46Y46*%
G04 Gerber Fmt 4.6, Leading zero omitted, Abs format (unit mm)*
G04 Created by KiCad (PCBNEW (6.0.6)) date 2022-06-26 21:43:02*
%MOMM*%
%LPD*%
G01*
G04 APERTURE LIST*
G04 Aperture macros list*
%AMRoundRect*
0 Rectangle with rounded corners*
0 $1 Rounding radius*
0 $2 $3 $4 $5 $6 $7 $8 $9 X,Y pos of 4 corners*
0 Add a 4 corners polygon primitive as box body*
4,1,4,$2,$3,$4,$5,$6,$7,$8,$9,$2,$3,0*
0 Add four circle primitives for the rounded corners*
1,1,$1+$1,$2,$3*
1,1,$1+$1,$4,$5*
1,1,$1+$1,$6,$7*
1,1,$1+$1,$8,$9*
0 Add four rect primitives between the rounded corners*
20,1,$1+$1,$2,$3,$4,$5,0*
20,1,$1+$1,$4,$5,$6,$7,0*
20,1,$1+$1,$6,$7,$8,$9,0*
20,1,$1+$1,$8,$9,$2,$3,0*%
G04 Aperture macros list end*
%TA.AperFunction,ComponentPad*%
%ADD10R,1.700000X1.700000*%
%TD*%
%TA.AperFunction,ComponentPad*%
%ADD11O,1.700000X1.700000*%
%TD*%
%TA.AperFunction,ComponentPad*%
%ADD12C,1.000000*%
%TD*%
%TA.AperFunction,ComponentPad*%
%ADD13R,1.000000X1.000000*%
%TD*%
%TA.AperFunction,ComponentPad*%
%ADD14RoundRect,0.250000X-0.725000X0.600000X-0.725000X-0.600000X0.725000X-0.600000X0.725000X0.600000X0*%
%TD*%
%TA.AperFunction,ComponentPad*%
%ADD15O,1.950000X1.700000*%
%TD*%
%TA.AperFunction,ComponentPad*%
%ADD16R,2.600000X2.600000*%
%TD*%
%TA.AperFunction,ComponentPad*%
%ADD17C,2.600000*%
%TD*%
%TA.AperFunction,ViaPad*%
%ADD18C,0.400000*%
%TD*%
%TA.AperFunction,ViaPad*%
%ADD19C,0.600000*%
%TD*%
%TA.AperFunction,Conductor*%
%ADD20C,0.200000*%
%TD*%
%TA.AperFunction,Conductor*%
%ADD21C,0.500000*%
%TD*%
G04 APERTURE END LIST*
D10*
%TO.P,J1,1,Pin_1*%
%TO.N,/DIR*%
X144000000Y-41500000D03*
D11*
%TO.P,J1,2,Pin_2*%
%TO.N,/VREF*%
X144000000Y-44040000D03*
%TO.P,J1,3,Pin_3*%
%TO.N,/STEP*%
X144000000Y-46580000D03*
%TO.P,J1,4,Pin_4*%
%TO.N,/EN#*%
X144000000Y-49120000D03*
%TO.P,J1,5,Pin_5*%
%TO.N,/MS1*%
X144000000Y-51660000D03*
%TO.P,J1,6,Pin_6*%
%TO.N,/MS2*%
X144000000Y-54200000D03*
%TO.P,J1,7,Pin_7*%
%TO.N,/DIAG*%
X144000000Y-56740000D03*
%TO.P,J1,8,Pin_8*%
%TO.N,/INDEX*%
X144000000Y-59280000D03*
%TO.P,J1,9,Pin_9*%
%TO.N,/PDN_UART*%
X144000000Y-61820000D03*
%TO.P,J1,10,Pin_10*%
%TO.N,GND*%
X144000000Y-64360000D03*
%TO.P,J1,11,Pin_11*%
%TO.N,+3V3*%
X144000000Y-66900000D03*
%TD*%
D12*
%TO.P,TP2,1,1*%
%TO.N,/DIR*%
X147300000Y-43900000D03*
%TD*%
D13*
%TO.P,TP20,1,1*%
%TO.N,GND*%
X152500000Y-49100000D03*
%TD*%
D12*
%TO.P,TP15,1,1*%
%TO.N,+5V*%
X153400000Y-71000000D03*
%TD*%
%TO.P,TP4,1,1*%
%TO.N,/MS2*%
X147300000Y-54100000D03*
%TD*%
D14*
%TO.P,J3,1,Pin_1*%
%TO.N,/OB2*%
X169525000Y-58250000D03*
D15*
%TO.P,J3,2,Pin_2*%
%TO.N,/OB1*%
X169525000Y-60750000D03*
%TO.P,J3,3,Pin_3*%
%TO.N,/OA1*%
X169525000Y-63250000D03*
%TO.P,J3,4,Pin_4*%
%TO.N,/OA2*%
X169525000Y-65750000D03*
%TD*%
D12*
%TO.P,TP6,1,1*%
%TO.N,/DIAG*%
X147300000Y-56600000D03*
%TD*%
D13*
%TO.P,TP19,1,1*%
%TO.N,GND*%
X162600000Y-71000000D03*
%TD*%
D12*
%TO.P,TP1,1,1*%
%TO.N,/EN#*%
X147300000Y-49100000D03*
%TD*%
%TO.P,TP7,1,1*%
%TO.N,/INDEX*%
X147300000Y-60500000D03*
%TD*%
%TO.P,TP5,1,1*%
%TO.N,/STEP*%
X147300000Y-46500000D03*
%TD*%
D16*
%TO.P,J4,1,Pin_1*%
%TO.N,/VS*%
X167305000Y-51500000D03*
D17*
%TO.P,J4,2,Pin_2*%
%TO.N,GND*%
X167305000Y-46500000D03*
%TD*%
D12*
%TO.P,TP3,1,1*%
%TO.N,/MS1*%
X147300000Y-51600000D03*
%TD*%
%TO.P,TP14,1,1*%
%TO.N,/VS*%
X152500000Y-51600000D03*
%TD*%
%TO.P,TP12,1,1*%
%TO.N,/VCC_IO*%
X160200000Y-71000000D03*
%TD*%
D13*
%TO.P,TP18,1,1*%
%TO.N,GND*%
X147400000Y-67400000D03*
%TD*%
D12*
%TO.P,TP16,1,1*%
%TO.N,+3V3*%
X144000000Y-71000000D03*
%TD*%
%TO.P,TP8,1,1*%
%TO.N,/PDN_UART*%
X147300000Y-62900000D03*
%TD*%
D18*
%TO.N,/VREF*%
X160600001Y-61499999D03*
%TO.N,GND*%
X153300000Y-60500000D03*
X159500000Y-63500000D03*
X156000000Y-60000000D03*
X158000000Y-62000000D03*
X162217570Y-65617570D03*
X154500000Y-67800000D03*
X159400000Y-67800000D03*
X163000000Y-59700000D03*
X163000000Y-62300000D03*
X158000000Y-60000000D03*
X154500000Y-55200000D03*
X156000000Y-62000000D03*
X150800000Y-61400000D03*
X159500000Y-55200000D03*
X157000000Y-55400000D03*
X160700000Y-59300000D03*
X154500000Y-63500000D03*
X159400000Y-67000000D03*
X154500000Y-67000000D03*
D19*
%TO.N,+3V3*%
X161776089Y-67976089D03*
D18*
%TO.N,/VCC_IO*%
X160693750Y-64893750D03*
D19*
%TO.N,/VS*%
X152000000Y-55000000D03*
X157000000Y-52400000D03*
X162000000Y-55000000D03*
D18*
%TO.N,/EN#*%
X152996218Y-59983164D03*
%TO.N,/DIR*%
X160200000Y-60500000D03*
%TO.N,/MS1*%
X156000000Y-64100000D03*
%TO.N,/MS2*%
X156500000Y-64500000D03*
%TO.N,/STEP*%
X160200000Y-62000000D03*
%TO.N,/DIAG*%
X156985931Y-64891559D03*
%TO.N,/INDEX*%
X157500000Y-65200000D03*
%TO.N,/PDN_UART*%
X158500000Y-64200000D03*
%TO.N,/OA1*%
X157500000Y-57700000D03*
%TO.N,/OA2*%
X159400000Y-58900000D03*
%TO.N,/OB1*%
X156500000Y-57700000D03*
%TO.N,/OB2*%
X154600000Y-58900000D03*
%TD*%
D20*
%TO.N,GND*%
X158000000Y-60000000D02*
X158000000Y-59500000D01*
X156000000Y-60000000D02*
X156000000Y-59500000D01*
%TO.N,/STEP*%
X160200000Y-62000000D02*
X159600000Y-62000000D01*
X158900000Y-61300000D02*
X155020161Y-61300000D01*
X159600000Y-62000000D02*
X158900000Y-61300000D01*
X155020161Y-61300000D02*
X150267157Y-56546996D01*
X150267157Y-56546996D02*
X150267157Y-53367157D01*
X150267157Y-53367157D02*
X144000000Y-47100000D01*
%TO.N,/DIR*%
X160200000Y-60500000D02*
X155351533Y-60500000D01*
X151067157Y-56215624D02*
X151067157Y-48567157D01*
X155351533Y-60500000D02*
X151067157Y-56215624D01*
X151067157Y-48567157D02*
X144000000Y-41500000D01*
%TO.N,/VREF*%
X160600001Y-61499999D02*
X159665685Y-61499999D01*
X159665685Y-61499999D02*
X159065686Y-60900000D01*
X144400000Y-44731371D02*
X144400000Y-44040000D01*
X159065686Y-60900000D02*
X155185847Y-60900000D01*
X155185847Y-60900000D02*
X150667157Y-56381311D01*
X150667157Y-56381311D02*
X150667157Y-50998528D01*
X150667157Y-50998528D02*
X144400000Y-44731371D01*
%TO.N,/EN#*%
X152996218Y-59983164D02*
X152497979Y-59484925D01*
X149817157Y-55317157D02*
X144000000Y-49500000D01*
X152497979Y-59484925D02*
X152484925Y-59484925D01*
X152484925Y-59484925D02*
X149817157Y-56817157D01*
X149817157Y-56817157D02*
X149817157Y-55317157D01*
X144000000Y-49500000D02*
X144000000Y-49005000D01*
D21*
%TO.N,+3V3*%
X161776089Y-67976089D02*
X160623911Y-67976089D01*
X160623911Y-67976089D02*
X159200001Y-69399999D01*
X159200001Y-69399999D02*
X146499999Y-69399999D01*
X146499999Y-69399999D02*
X144000000Y-66900000D01*
D20*
%TO.N,/PDN_UART*%
X158500000Y-64200000D02*
X158500000Y-64907107D01*
X158500000Y-64907107D02*
X157407107Y-66000000D01*
X157407107Y-66000000D02*
X147571571Y-66000000D01*
X147571571Y-66000000D02*
X144000000Y-62428429D01*
X144000000Y-62428429D02*
X144000000Y-61820000D01*
%TO.N,/INDEX*%
X157500000Y-65200000D02*
X157100000Y-65600000D01*
X157100000Y-65600000D02*
X147737257Y-65600000D01*
X147737257Y-65600000D02*
X145200000Y-63062742D01*
X145200000Y-63062742D02*
X145200000Y-60480000D01*
X145200000Y-60480000D02*
X144000000Y-59280000D01*
%TO.N,/DIAG*%
X156985931Y-64891559D02*
X156677490Y-65200000D01*
X156677490Y-65200000D02*
X147902943Y-65200000D01*
X147902943Y-65200000D02*
X145600000Y-62897057D01*
X145600000Y-62897057D02*
X145600000Y-58340000D01*
X145600000Y-58340000D02*
X144000000Y-56740000D01*
%TO.N,/MS2*%
X156500000Y-64500000D02*
X156500000Y-64700000D01*
X156500000Y-64700000D02*
X156400000Y-64800000D01*
X156400000Y-64800000D02*
X148068629Y-64800000D01*
X148068629Y-64800000D02*
X146000000Y-62731371D01*
X146000000Y-62731371D02*
X146000000Y-56085000D01*
X146000000Y-56085000D02*
X144000000Y-54085000D01*
%TO.N,/MS1*%
X156000000Y-64100000D02*
X155700000Y-64400000D01*
X149900000Y-64400000D02*
X148100000Y-62600000D01*
X155700000Y-64400000D02*
X149900000Y-64400000D01*
X148100000Y-62600000D02*
X148100000Y-62568629D01*
X148100000Y-62568629D02*
X147631371Y-62100000D01*
X147631371Y-62100000D02*
X147600000Y-62100000D01*
X146400000Y-60900000D02*
X146400000Y-53945000D01*
X147600000Y-62100000D02*
X146400000Y-60900000D01*
X146400000Y-53945000D02*
X144000000Y-51545000D01*
%TO.N,GND*%
X162800000Y-70800000D02*
X162800000Y-66200000D01*
X162800000Y-66200000D02*
X162217570Y-65617570D01*
X162600000Y-71000000D02*
X162800000Y-70800000D01*
%TO.N,/VCC_IO*%
X160693750Y-64893750D02*
X162376089Y-66576089D01*
X162376089Y-66576089D02*
X162376089Y-68823911D01*
X162376089Y-68823911D02*
X160200000Y-71000000D01*
D21*
%TO.N,/VS*%
X167305000Y-51500000D02*
X157900000Y-51500000D01*
X159400000Y-52400000D02*
X162000000Y-55000000D01*
X157000000Y-52400000D02*
X159400000Y-52400000D01*
X157900000Y-51500000D02*
X157000000Y-52400000D01*
X154600000Y-52400000D02*
X152000000Y-55000000D01*
X157000000Y-52400000D02*
X154600000Y-52400000D01*
D20*
%TO.N,/OA1*%
X169350000Y-63250000D02*
X169525000Y-63250000D01*
X157500000Y-57700000D02*
X166000000Y-57700000D01*
X168200000Y-59900000D02*
X168200000Y-62100000D01*
X168200000Y-62100000D02*
X169350000Y-63250000D01*
X166000000Y-57700000D02*
X168200000Y-59900000D01*
%TO.N,/OA2*%
X159400000Y-58900000D02*
X160200000Y-58100000D01*
X167800000Y-60300000D02*
X167800000Y-64025000D01*
X167800000Y-60065686D02*
X167800000Y-60300000D01*
X167267157Y-59532843D02*
X167800000Y-60065686D01*
X167800000Y-64025000D02*
X169525000Y-65750000D01*
X160200000Y-58100000D02*
X160900000Y-58100000D01*
X165834314Y-58100000D02*
X167267157Y-59532843D01*
X160900000Y-58100000D02*
X165834314Y-58100000D01*
%TO.N,/OB1*%
X169525000Y-60625000D02*
X169525000Y-60750000D01*
X157000000Y-57200000D02*
X166100000Y-57200000D01*
X156500000Y-57700000D02*
X157000000Y-57200000D01*
X166100000Y-57200000D02*
X169525000Y-60625000D01*
%TO.N,/OB2*%
X168075000Y-56800000D02*
X169525000Y-58250000D01*
X154600000Y-58900000D02*
X154600000Y-58892893D01*
X154600000Y-58892893D02*
X156692893Y-56800000D01*
X156692893Y-56800000D02*
X168075000Y-56800000D01*
%TD*%
%TA.AperFunction,Conductor*%
%TO.N,GND*%
G36*
X171470018Y-38510000D02*
G01*
X171484852Y-38512310D01*
X171484855Y-38512310D01*
X171493724Y-38513691D01*
X171502626Y-38512527D01*
X171502750Y-38512511D01*
X171533192Y-38512240D01*
X171540621Y-38513077D01*
X171595264Y-38519234D01*
X171622771Y-38525513D01*
X171699853Y-38552485D01*
X171725274Y-38564727D01*
X171794426Y-38608178D01*
X171816485Y-38625770D01*
X171874230Y-38683515D01*
X171891822Y-38705574D01*
X171935273Y-38774726D01*
X171947515Y-38800147D01*
X171974487Y-38877228D01*
X171980766Y-38904736D01*
X171987018Y-38960226D01*
X171986923Y-38975868D01*
X171987800Y-38975879D01*
X171987690Y-38984851D01*
X171986309Y-38993724D01*
X171987473Y-39002626D01*
X171987473Y-39002628D01*
X171990436Y-39025283D01*
X171991500Y-39041621D01*
X171991500Y-72950633D01*
X171990000Y-72970018D01*
X171986309Y-72993724D01*
X171987473Y-73002626D01*
X171987489Y-73002750D01*
X171987760Y-73033192D01*
X171985430Y-73053870D01*
X171980766Y-73095264D01*
X171974487Y-73122771D01*
X171947515Y-73199853D01*
X171935273Y-73225274D01*
X171891822Y-73294426D01*
X171874230Y-73316485D01*
X171816485Y-73374230D01*
X171794426Y-73391822D01*
X171725274Y-73435273D01*
X171699853Y-73447515D01*
X171622772Y-73474487D01*
X171595264Y-73480766D01*
X171539774Y-73487018D01*
X171524132Y-73486923D01*
X171524121Y-73487800D01*
X171515149Y-73487690D01*
X171506276Y-73486309D01*
X171497374Y-73487473D01*
X171497372Y-73487473D01*
X171486385Y-73488910D01*
X171474714Y-73490436D01*
X171458379Y-73491500D01*
X142549367Y-73491500D01*
X142529982Y-73490000D01*
X142515148Y-73487690D01*
X142515145Y-73487690D01*
X142506276Y-73486309D01*
X142497374Y-73487473D01*
X142497250Y-73487489D01*
X142466808Y-73487760D01*
X142446130Y-73485430D01*
X142404736Y-73480766D01*
X142377229Y-73474487D01*
X142300147Y-73447515D01*
X142274726Y-73435273D01*
X142205574Y-73391822D01*
X142183515Y-73374230D01*
X142125770Y-73316485D01*
X142108178Y-73294426D01*
X142064727Y-73225274D01*
X142052485Y-73199853D01*
X142025513Y-73122772D01*
X142019234Y-73095266D01*
X142013170Y-73041451D01*
X142012888Y-73016640D01*
X142013576Y-73012552D01*
X142013729Y-73000000D01*
X142009773Y-72972376D01*
X142008500Y-72954514D01*
X142008500Y-70985851D01*
X142986719Y-70985851D01*
X143003268Y-71182934D01*
X143057783Y-71373050D01*
X143148187Y-71548956D01*
X143271035Y-71703953D01*
X143275728Y-71707947D01*
X143275729Y-71707948D01*
X143309539Y-71736722D01*
X143421650Y-71832136D01*
X143594294Y-71928624D01*
X143782392Y-71989740D01*
X143978777Y-72013158D01*
X143984912Y-72012686D01*
X143984914Y-72012686D01*
X144169830Y-71998457D01*
X144169834Y-71998456D01*
X144175972Y-71997984D01*
X144366463Y-71944798D01*
X144371967Y-71942018D01*
X144371969Y-71942017D01*
X144537495Y-71858404D01*
X144537497Y-71858403D01*
X144542996Y-71855625D01*
X144698847Y-71733861D01*
X144828078Y-71584145D01*
X144925769Y-71412179D01*
X144988197Y-71224513D01*
X145012985Y-71028295D01*
X145013380Y-71000000D01*
X144994080Y-70803167D01*
X144975050Y-70740135D01*
X144956161Y-70677575D01*
X144936916Y-70613831D01*
X144844066Y-70439204D01*
X144757217Y-70332717D01*
X144722960Y-70290713D01*
X144722957Y-70290710D01*
X144719065Y-70285938D01*
X144712724Y-70280692D01*
X144571425Y-70163799D01*
X144571421Y-70163797D01*
X144566675Y-70159870D01*
X144392701Y-70065802D01*
X144203768Y-70007318D01*
X144197643Y-70006674D01*
X144197642Y-70006674D01*
X144013204Y-69987289D01*
X144013202Y-69987289D01*
X144007075Y-69986645D01*
X143924576Y-69994153D01*
X143816251Y-70004011D01*
X143816248Y-70004012D01*
X143810112Y-70004570D01*
X143804206Y-70006308D01*
X143804202Y-70006309D01*
X143721702Y-70030590D01*
X143620381Y-70060410D01*
X143614923Y-70063263D01*
X143614919Y-70063265D01*
X143568754Y-70087400D01*
X143445110Y-70152040D01*
X143290975Y-70275968D01*
X143287011Y-70280692D01*
X143282609Y-70285938D01*
X143163846Y-70427474D01*
X143160879Y-70432872D01*
X143160875Y-70432877D01*
X143082095Y-70576180D01*
X143068567Y-70600787D01*
X143066706Y-70606654D01*
X143066705Y-70606656D01*
X143021996Y-70747597D01*
X143008765Y-70789306D01*
X142986719Y-70985851D01*
X142008500Y-70985851D01*
X142008500Y-66866695D01*
X142637251Y-66866695D01*
X142637548Y-66871848D01*
X142637548Y-66871851D01*
X142646886Y-67033808D01*
X142650110Y-67089715D01*
X142651247Y-67094761D01*
X142651248Y-67094767D01*
X142666624Y-67162991D01*
X142699222Y-67307639D01*
X142783266Y-67514616D01*
X142785965Y-67519020D01*
X142876983Y-67667548D01*
X142899987Y-67705088D01*
X143046250Y-67873938D01*
X143218126Y-68016632D01*
X143411000Y-68129338D01*
X143619692Y-68209030D01*
X143624760Y-68210061D01*
X143624763Y-68210062D01*
X143732379Y-68231957D01*
X143838597Y-68253567D01*
X143843772Y-68253757D01*
X143843774Y-68253757D01*
X144056673Y-68261564D01*
X144056677Y-68261564D01*
X144061837Y-68261753D01*
X144201908Y-68243809D01*
X144272017Y-68254993D01*
X144307012Y-68279693D01*
X145916229Y-69888910D01*
X145928615Y-69903322D01*
X145937148Y-69914917D01*
X145937153Y-69914922D01*
X145941491Y-69920817D01*
X145947069Y-69925556D01*
X145947072Y-69925559D01*
X145981767Y-69955034D01*
X145989283Y-69961964D01*
X145994978Y-69967659D01*
X145997860Y-69969939D01*
X146017250Y-69985280D01*
X146020654Y-69988071D01*
X146043739Y-70007683D01*
X146076284Y-70035332D01*
X146082800Y-70038660D01*
X146087837Y-70042019D01*
X146092976Y-70045193D01*
X146098715Y-70049733D01*
X146105348Y-70052833D01*
X146164836Y-70080635D01*
X146168790Y-70082568D01*
X146233807Y-70115768D01*
X146240923Y-70117509D01*
X146246553Y-70119603D01*
X146252320Y-70121522D01*
X146258949Y-70124620D01*
X146266109Y-70126109D01*
X146266111Y-70126110D01*
X146330395Y-70139481D01*
X146334679Y-70140451D01*
X146405609Y-70157807D01*
X146411211Y-70158155D01*
X146411214Y-70158155D01*
X146416763Y-70158499D01*
X146416761Y-70158535D01*
X146420751Y-70158774D01*
X146424949Y-70159149D01*
X146432114Y-70160639D01*
X146509503Y-70158545D01*
X146512911Y-70158499D01*
X147918960Y-70158499D01*
X147987081Y-70178501D01*
X148033574Y-70232157D01*
X148043678Y-70302431D01*
X148035369Y-70332717D01*
X147996120Y-70427474D01*
X147965495Y-70501409D01*
X147964340Y-70506221D01*
X147907849Y-70741525D01*
X147906391Y-70747597D01*
X147886526Y-71000000D01*
X147906391Y-71252403D01*
X147907545Y-71257210D01*
X147907546Y-71257216D01*
X147936672Y-71378535D01*
X147965495Y-71498591D01*
X147967388Y-71503162D01*
X147967389Y-71503164D01*
X148050559Y-71703953D01*
X148062384Y-71732502D01*
X148194672Y-71948376D01*
X148359102Y-72140898D01*
X148551624Y-72305328D01*
X148767498Y-72437616D01*
X148772068Y-72439509D01*
X148772072Y-72439511D01*
X148996836Y-72532611D01*
X149001409Y-72534505D01*
X149086032Y-72554821D01*
X149242784Y-72592454D01*
X149242790Y-72592455D01*
X149247597Y-72593609D01*
X149347416Y-72601465D01*
X149434345Y-72608307D01*
X149434352Y-72608307D01*
X149436801Y-72608500D01*
X149563199Y-72608500D01*
X149565648Y-72608307D01*
X149565655Y-72608307D01*
X149652584Y-72601465D01*
X149752403Y-72593609D01*
X149757210Y-72592455D01*
X149757216Y-72592454D01*
X149913968Y-72554821D01*
X149998591Y-72534505D01*
X150003164Y-72532611D01*
X150227928Y-72439511D01*
X150227932Y-72439509D01*
X150232502Y-72437616D01*
X150448376Y-72305328D01*
X150640898Y-72140898D01*
X150805328Y-71948376D01*
X150937616Y-71732502D01*
X150949442Y-71703953D01*
X151032611Y-71503164D01*
X151032612Y-71503162D01*
X151034505Y-71498591D01*
X151063328Y-71378535D01*
X151092454Y-71257216D01*
X151092455Y-71257210D01*
X151093609Y-71252403D01*
X151113474Y-71000000D01*
X151093609Y-70747597D01*
X151092152Y-70741525D01*
X151035660Y-70506221D01*
X151034505Y-70501409D01*
X151003880Y-70427474D01*
X150964631Y-70332717D01*
X150957042Y-70262127D01*
X150988822Y-70198640D01*
X151049880Y-70162413D01*
X151081040Y-70158499D01*
X152519336Y-70158499D01*
X152587457Y-70178501D01*
X152633950Y-70232157D01*
X152644054Y-70302431D01*
X152615857Y-70365490D01*
X152563846Y-70427474D01*
X152560879Y-70432872D01*
X152560875Y-70432877D01*
X152482095Y-70576180D01*
X152468567Y-70600787D01*
X152466706Y-70606654D01*
X152466705Y-70606656D01*
X152421996Y-70747597D01*
X152408765Y-70789306D01*
X152386719Y-70985851D01*
X152403268Y-71182934D01*
X152457783Y-71373050D01*
X152548187Y-71548956D01*
X152671035Y-71703953D01*
X152675728Y-71707947D01*
X152675729Y-71707948D01*
X152709539Y-71736722D01*
X152821650Y-71832136D01*
X152994294Y-71928624D01*
X153182392Y-71989740D01*
X153378777Y-72013158D01*
X153384912Y-72012686D01*
X153384914Y-72012686D01*
X153569830Y-71998457D01*
X153569834Y-71998456D01*
X153575972Y-71997984D01*
X153766463Y-71944798D01*
X153771967Y-71942018D01*
X153771969Y-71942017D01*
X153937495Y-71858404D01*
X153937497Y-71858403D01*
X153942996Y-71855625D01*
X154098847Y-71733861D01*
X154228078Y-71584145D01*
X154325769Y-71412179D01*
X154388197Y-71224513D01*
X154412985Y-71028295D01*
X154413380Y-71000000D01*
X154394080Y-70803167D01*
X154375050Y-70740135D01*
X154356161Y-70677575D01*
X154336916Y-70613831D01*
X154244066Y-70439204D01*
X154182841Y-70364135D01*
X154155287Y-70298703D01*
X154167482Y-70228762D01*
X154215555Y-70176517D01*
X154280484Y-70158499D01*
X159132931Y-70158499D01*
X159151881Y-70159932D01*
X159166116Y-70162098D01*
X159166120Y-70162098D01*
X159173350Y-70163198D01*
X159180642Y-70162605D01*
X159180645Y-70162605D01*
X159226019Y-70158914D01*
X159236234Y-70158499D01*
X159244294Y-70158499D01*
X159261681Y-70156472D01*
X159272508Y-70155210D01*
X159276884Y-70154777D01*
X159315209Y-70151660D01*
X159384727Y-70166074D01*
X159435416Y-70215784D01*
X159451184Y-70285008D01*
X159427023Y-70351767D01*
X159421960Y-70358217D01*
X159363846Y-70427474D01*
X159360879Y-70432872D01*
X159360875Y-70432877D01*
X159282095Y-70576180D01*
X159268567Y-70600787D01*
X159266706Y-70606654D01*
X159266705Y-70606656D01*
X159221996Y-70747597D01*
X159208765Y-70789306D01*
X159186719Y-70985851D01*
X159203268Y-71182934D01*
X159257783Y-71373050D01*
X159348187Y-71548956D01*
X159471035Y-71703953D01*
X159475728Y-71707947D01*
X159475729Y-71707948D01*
X159509539Y-71736722D01*
X159621650Y-71832136D01*
X159794294Y-71928624D01*
X159982392Y-71989740D01*
X160178777Y-72013158D01*
X160184912Y-72012686D01*
X160184914Y-72012686D01*
X160369830Y-71998457D01*
X160369834Y-71998456D01*
X160375972Y-71997984D01*
X160566463Y-71944798D01*
X160571967Y-71942018D01*
X160571969Y-71942017D01*
X160737495Y-71858404D01*
X160737497Y-71858403D01*
X160742996Y-71855625D01*
X160898847Y-71733861D01*
X161028078Y-71584145D01*
X161050504Y-71544669D01*
X161592001Y-71544669D01*
X161592371Y-71551490D01*
X161597895Y-71602352D01*
X161601521Y-71617604D01*
X161646676Y-71738054D01*
X161655214Y-71753649D01*
X161731715Y-71855724D01*
X161744276Y-71868285D01*
X161846351Y-71944786D01*
X161861946Y-71953324D01*
X161982394Y-71998478D01*
X161997649Y-72002105D01*
X162048514Y-72007631D01*
X162055328Y-72008000D01*
X162327885Y-72008000D01*
X162343124Y-72003525D01*
X162344329Y-72002135D01*
X162346000Y-71994452D01*
X162346000Y-71989884D01*
X162854000Y-71989884D01*
X162858475Y-72005123D01*
X162859865Y-72006328D01*
X162867548Y-72007999D01*
X163144669Y-72007999D01*
X163151490Y-72007629D01*
X163202352Y-72002105D01*
X163217604Y-71998479D01*
X163338054Y-71953324D01*
X163353649Y-71944786D01*
X163455724Y-71868285D01*
X163468285Y-71855724D01*
X163544786Y-71753649D01*
X163553324Y-71738054D01*
X163598478Y-71617606D01*
X163602105Y-71602351D01*
X163607631Y-71551486D01*
X163608000Y-71544672D01*
X163608000Y-71272115D01*
X163603525Y-71256876D01*
X163602135Y-71255671D01*
X163594452Y-71254000D01*
X162872115Y-71254000D01*
X162856876Y-71258475D01*
X162855671Y-71259865D01*
X162854000Y-71267548D01*
X162854000Y-71989884D01*
X162346000Y-71989884D01*
X162346000Y-71272115D01*
X162341525Y-71256876D01*
X162340135Y-71255671D01*
X162332452Y-71254000D01*
X161610116Y-71254000D01*
X161594877Y-71258475D01*
X161593672Y-71259865D01*
X161592001Y-71267548D01*
X161592001Y-71544669D01*
X161050504Y-71544669D01*
X161125769Y-71412179D01*
X161188197Y-71224513D01*
X161212985Y-71028295D01*
X161213380Y-71000000D01*
X167386526Y-71000000D01*
X167406391Y-71252403D01*
X167407545Y-71257210D01*
X167407546Y-71257216D01*
X167436672Y-71378535D01*
X167465495Y-71498591D01*
X167467388Y-71503162D01*
X167467389Y-71503164D01*
X167550559Y-71703953D01*
X167562384Y-71732502D01*
X167694672Y-71948376D01*
X167859102Y-72140898D01*
X168051624Y-72305328D01*
X168267498Y-72437616D01*
X168272068Y-72439509D01*
X168272072Y-72439511D01*
X168496836Y-72532611D01*
X168501409Y-72534505D01*
X168586032Y-72554821D01*
X168742784Y-72592454D01*
X168742790Y-72592455D01*
X168747597Y-72593609D01*
X168847416Y-72601465D01*
X168934345Y-72608307D01*
X168934352Y-72608307D01*
X168936801Y-72608500D01*
X169063199Y-72608500D01*
X169065648Y-72608307D01*
X169065655Y-72608307D01*
X169152584Y-72601465D01*
X169252403Y-72593609D01*
X169257210Y-72592455D01*
X169257216Y-72592454D01*
X169413968Y-72554821D01*
X169498591Y-72534505D01*
X169503164Y-72532611D01*
X169727928Y-72439511D01*
X169727932Y-72439509D01*
X169732502Y-72437616D01*
X169948376Y-72305328D01*
X170140898Y-72140898D01*
X170305328Y-71948376D01*
X170437616Y-71732502D01*
X170449442Y-71703953D01*
X170532611Y-71503164D01*
X170532612Y-71503162D01*
X170534505Y-71498591D01*
X170563328Y-71378535D01*
X170592454Y-71257216D01*
X170592455Y-71257210D01*
X170593609Y-71252403D01*
X170613474Y-71000000D01*
X170593609Y-70747597D01*
X170592152Y-70741525D01*
X170535660Y-70506221D01*
X170534505Y-70501409D01*
X170503880Y-70427474D01*
X170439511Y-70272072D01*
X170439509Y-70272068D01*
X170437616Y-70267498D01*
X170305328Y-70051624D01*
X170140898Y-69859102D01*
X169948376Y-69694672D01*
X169732502Y-69562384D01*
X169727932Y-69560491D01*
X169727928Y-69560489D01*
X169503164Y-69467389D01*
X169503162Y-69467388D01*
X169498591Y-69465495D01*
X169413968Y-69445179D01*
X169257216Y-69407546D01*
X169257210Y-69407545D01*
X169252403Y-69406391D01*
X169152584Y-69398535D01*
X169065655Y-69391693D01*
X169065648Y-69391693D01*
X169063199Y-69391500D01*
X168936801Y-69391500D01*
X168934352Y-69391693D01*
X168934345Y-69391693D01*
X168847416Y-69398535D01*
X168747597Y-69406391D01*
X168742790Y-69407545D01*
X168742784Y-69407546D01*
X168586032Y-69445179D01*
X168501409Y-69465495D01*
X168496838Y-69467388D01*
X168496836Y-69467389D01*
X168272072Y-69560489D01*
X168272068Y-69560491D01*
X168267498Y-69562384D01*
X168051624Y-69694672D01*
X167859102Y-69859102D01*
X167694672Y-70051624D01*
X167562384Y-70267498D01*
X167560491Y-70272068D01*
X167560489Y-70272072D01*
X167496120Y-70427474D01*
X167465495Y-70501409D01*
X167464340Y-70506221D01*
X167407849Y-70741525D01*
X167406391Y-70747597D01*
X167386526Y-71000000D01*
X161213380Y-71000000D01*
X161205545Y-70920090D01*
X161218805Y-70850343D01*
X161241849Y-70818700D01*
X161382974Y-70677575D01*
X161445286Y-70643549D01*
X161516101Y-70648614D01*
X161572937Y-70691161D01*
X161592965Y-70731171D01*
X161596475Y-70743124D01*
X161597865Y-70744329D01*
X161605548Y-70746000D01*
X162327885Y-70746000D01*
X162343124Y-70741525D01*
X162344329Y-70740135D01*
X162346000Y-70732452D01*
X162346000Y-70727885D01*
X162854000Y-70727885D01*
X162858475Y-70743124D01*
X162859865Y-70744329D01*
X162867548Y-70746000D01*
X163589884Y-70746000D01*
X163605123Y-70741525D01*
X163606328Y-70740135D01*
X163607999Y-70732452D01*
X163607999Y-70455331D01*
X163607629Y-70448510D01*
X163602105Y-70397648D01*
X163598479Y-70382396D01*
X163553324Y-70261946D01*
X163544786Y-70246351D01*
X163468285Y-70144276D01*
X163455724Y-70131715D01*
X163353649Y-70055214D01*
X163338054Y-70046676D01*
X163217606Y-70001522D01*
X163202351Y-69997895D01*
X163151486Y-69992369D01*
X163144672Y-69992000D01*
X162872115Y-69992000D01*
X162856876Y-69996475D01*
X162855671Y-69997865D01*
X162854000Y-70005548D01*
X162854000Y-70727885D01*
X162346000Y-70727885D01*
X162346000Y-70010116D01*
X162341525Y-69994877D01*
X162339062Y-69992743D01*
X162278865Y-69959873D01*
X162244840Y-69897561D01*
X162249905Y-69826745D01*
X162278866Y-69781683D01*
X162772323Y-69288226D01*
X162784714Y-69277359D01*
X162803526Y-69262924D01*
X162810076Y-69257898D01*
X162834563Y-69225986D01*
X162834567Y-69225982D01*
X162907613Y-69130787D01*
X162968927Y-68982762D01*
X162989840Y-68823911D01*
X162985667Y-68792212D01*
X162984589Y-68775767D01*
X162984589Y-66624233D01*
X162985667Y-66607787D01*
X162988762Y-66584277D01*
X162989840Y-66576089D01*
X162968927Y-66417238D01*
X162907613Y-66269213D01*
X162834567Y-66174018D01*
X162834563Y-66174014D01*
X162834560Y-66174010D01*
X162815105Y-66148655D01*
X162815102Y-66148652D01*
X162810076Y-66142102D01*
X162802869Y-66136572D01*
X162784710Y-66122637D01*
X162772319Y-66111770D01*
X161407733Y-64747184D01*
X161378962Y-64702627D01*
X161328921Y-64570197D01*
X161326237Y-64563094D01*
X161299379Y-64524015D01*
X161233409Y-64428028D01*
X161233408Y-64428026D01*
X161229107Y-64421769D01*
X161223436Y-64416716D01*
X161106743Y-64312746D01*
X161106740Y-64312744D01*
X161101071Y-64307693D01*
X161093075Y-64303459D01*
X160956231Y-64231004D01*
X160956232Y-64231004D01*
X160949519Y-64227450D01*
X160931946Y-64223036D01*
X160790572Y-64187525D01*
X160790568Y-64187525D01*
X160783201Y-64185674D01*
X160775602Y-64185634D01*
X160775600Y-64185634D01*
X160704144Y-64185260D01*
X160611719Y-64184776D01*
X160604339Y-64186548D01*
X160604337Y-64186548D01*
X160452352Y-64223036D01*
X160452348Y-64223037D01*
X160444973Y-64224808D01*
X160292589Y-64303459D01*
X160163365Y-64416189D01*
X160064760Y-64556489D01*
X160002468Y-64716259D01*
X160001476Y-64723792D01*
X160001476Y-64723793D01*
X159981515Y-64875417D01*
X159980085Y-64886276D01*
X159998903Y-65056725D01*
X160001512Y-65063856D01*
X160001513Y-65063858D01*
X160002304Y-65066020D01*
X160057835Y-65217765D01*
X160062072Y-65224071D01*
X160062074Y-65224074D01*
X160072081Y-65238965D01*
X160153480Y-65360099D01*
X160280315Y-65475510D01*
X160431018Y-65557335D01*
X160487181Y-65572069D01*
X160544301Y-65604850D01*
X161730684Y-66791233D01*
X161764710Y-66853545D01*
X161767589Y-66880328D01*
X161767589Y-67050532D01*
X161747587Y-67118653D01*
X161693931Y-67165146D01*
X161654760Y-67175842D01*
X161608377Y-67180717D01*
X161608375Y-67180717D01*
X161601377Y-67181453D01*
X161526544Y-67206928D01*
X161514973Y-67210867D01*
X161474368Y-67217589D01*
X160690981Y-67217589D01*
X160672031Y-67216156D01*
X160657796Y-67213990D01*
X160657792Y-67213990D01*
X160650562Y-67212890D01*
X160643270Y-67213483D01*
X160643267Y-67213483D01*
X160597893Y-67217174D01*
X160587678Y-67217589D01*
X160579618Y-67217589D01*
X160575984Y-67218013D01*
X160575978Y-67218013D01*
X160562953Y-67219532D01*
X160551391Y-67220880D01*
X160547043Y-67221310D01*
X160474275Y-67227229D01*
X160467314Y-67229484D01*
X160461374Y-67230671D01*
X160455499Y-67232060D01*
X160448230Y-67232907D01*
X160379581Y-67257825D01*
X160375453Y-67259242D01*
X160312975Y-67279482D01*
X160312973Y-67279483D01*
X160306012Y-67281738D01*
X160299757Y-67285534D01*
X160294283Y-67288040D01*
X160288853Y-67290759D01*
X160281974Y-67293256D01*
X160275854Y-67297269D01*
X160275853Y-67297269D01*
X160220935Y-67333275D01*
X160217231Y-67335612D01*
X160154804Y-67373494D01*
X160146427Y-67380892D01*
X160146403Y-67380865D01*
X160143411Y-67383518D01*
X160140178Y-67386221D01*
X160134059Y-67390233D01*
X160129027Y-67395545D01*
X160080783Y-67446472D01*
X160078405Y-67448914D01*
X158922725Y-68604594D01*
X158860413Y-68638620D01*
X158833630Y-68641499D01*
X148064400Y-68641499D01*
X147996279Y-68621497D01*
X147949786Y-68567841D01*
X147939682Y-68497567D01*
X147969176Y-68432987D01*
X148020170Y-68397517D01*
X148138054Y-68353324D01*
X148153649Y-68344786D01*
X148255724Y-68268285D01*
X148268285Y-68255724D01*
X148344786Y-68153649D01*
X148353324Y-68138054D01*
X148398478Y-68017606D01*
X148402105Y-68002351D01*
X148407631Y-67951486D01*
X148408000Y-67944672D01*
X148408000Y-67672115D01*
X148403525Y-67656876D01*
X148402135Y-67655671D01*
X148394452Y-67654000D01*
X146410116Y-67654000D01*
X146394877Y-67658475D01*
X146393672Y-67659865D01*
X146392001Y-67667548D01*
X146392001Y-67915130D01*
X146371999Y-67983251D01*
X146318343Y-68029744D01*
X146248069Y-68039848D01*
X146183489Y-68010354D01*
X146176906Y-68004225D01*
X145379609Y-67206928D01*
X145345583Y-67144616D01*
X145343782Y-67101389D01*
X145361529Y-66966590D01*
X145363156Y-66900000D01*
X145344852Y-66677361D01*
X145290431Y-66460702D01*
X145201354Y-66255840D01*
X145127774Y-66142102D01*
X145082822Y-66072617D01*
X145082820Y-66072614D01*
X145080014Y-66068277D01*
X144929670Y-65903051D01*
X144925619Y-65899852D01*
X144925615Y-65899848D01*
X144758414Y-65767800D01*
X144758410Y-65767798D01*
X144754359Y-65764598D01*
X144712569Y-65741529D01*
X144662598Y-65691097D01*
X144647826Y-65621654D01*
X144672942Y-65555248D01*
X144700294Y-65528641D01*
X144875328Y-65403792D01*
X144883200Y-65397139D01*
X145034052Y-65246812D01*
X145040730Y-65238965D01*
X145165003Y-65066020D01*
X145170313Y-65057183D01*
X145264670Y-64866267D01*
X145268468Y-64856675D01*
X145277116Y-64828212D01*
X145316058Y-64768849D01*
X145380912Y-64739962D01*
X145451088Y-64750724D01*
X145486769Y-64775747D01*
X146892460Y-66181438D01*
X146926486Y-66243750D01*
X146921421Y-66314565D01*
X146878874Y-66371401D01*
X146816971Y-66395796D01*
X146797648Y-66397895D01*
X146782396Y-66401521D01*
X146661946Y-66446676D01*
X146646351Y-66455214D01*
X146544276Y-66531715D01*
X146531715Y-66544276D01*
X146455214Y-66646351D01*
X146446676Y-66661946D01*
X146401522Y-66782394D01*
X146397895Y-66797649D01*
X146392369Y-66848514D01*
X146392000Y-66855328D01*
X146392000Y-67127885D01*
X146396475Y-67143124D01*
X146397865Y-67144329D01*
X146405548Y-67146000D01*
X148389884Y-67146000D01*
X148405123Y-67141525D01*
X148406328Y-67140135D01*
X148407999Y-67132452D01*
X148407999Y-66855331D01*
X148407629Y-66848510D01*
X148402105Y-66797648D01*
X148398478Y-66782391D01*
X148397104Y-66778726D01*
X148396881Y-66775673D01*
X148396651Y-66774707D01*
X148396807Y-66774670D01*
X148391923Y-66707919D01*
X148425845Y-66645551D01*
X148488102Y-66611424D01*
X148515087Y-66608500D01*
X157358971Y-66608500D01*
X157375414Y-66609578D01*
X157407107Y-66613750D01*
X157415296Y-66612672D01*
X157446981Y-66608501D01*
X157446991Y-66608500D01*
X157446992Y-66608500D01*
X157546564Y-66595391D01*
X157557771Y-66593916D01*
X157557773Y-66593915D01*
X157565958Y-66592838D01*
X157713983Y-66531524D01*
X157809179Y-66458477D01*
X157809182Y-66458474D01*
X157841094Y-66433987D01*
X157847663Y-66425426D01*
X157860559Y-66408621D01*
X157871426Y-66396230D01*
X158896234Y-65371422D01*
X158908625Y-65360555D01*
X158927437Y-65346120D01*
X158933987Y-65341094D01*
X158958474Y-65309182D01*
X158958480Y-65309176D01*
X159026496Y-65220536D01*
X159026497Y-65220534D01*
X159031524Y-65213983D01*
X159092838Y-65065958D01*
X159094054Y-65056725D01*
X159096476Y-65038323D01*
X159108500Y-64946992D01*
X159108500Y-64946987D01*
X159112672Y-64915296D01*
X159113750Y-64907107D01*
X159109578Y-64875414D01*
X159108500Y-64858971D01*
X159108500Y-64605072D01*
X159123558Y-64546427D01*
X159125424Y-64543830D01*
X159189385Y-64384720D01*
X159200240Y-64308448D01*
X159212966Y-64219031D01*
X159212966Y-64219027D01*
X159213547Y-64214947D01*
X159213704Y-64200000D01*
X159202756Y-64109532D01*
X159194015Y-64037299D01*
X159194014Y-64037296D01*
X159193102Y-64029758D01*
X159149340Y-63913943D01*
X159135171Y-63876447D01*
X159132487Y-63869344D01*
X159099430Y-63821246D01*
X159039659Y-63734278D01*
X159039658Y-63734276D01*
X159035357Y-63728019D01*
X159029686Y-63722966D01*
X158912993Y-63618996D01*
X158912990Y-63618994D01*
X158907321Y-63613943D01*
X158899325Y-63609709D01*
X158772905Y-63542773D01*
X158755769Y-63533700D01*
X158680119Y-63514698D01*
X158596822Y-63493775D01*
X158596818Y-63493775D01*
X158589451Y-63491924D01*
X158581852Y-63491884D01*
X158581850Y-63491884D01*
X158510394Y-63491510D01*
X158417969Y-63491026D01*
X158410589Y-63492798D01*
X158410587Y-63492798D01*
X158258602Y-63529286D01*
X158258598Y-63529287D01*
X158251223Y-63531058D01*
X158098839Y-63609709D01*
X157969615Y-63722439D01*
X157871010Y-63862739D01*
X157851046Y-63913943D01*
X157831646Y-63963703D01*
X157808718Y-64022509D01*
X157807726Y-64030042D01*
X157807726Y-64030043D01*
X157789779Y-64166368D01*
X157786335Y-64192526D01*
X157790341Y-64228813D01*
X157801720Y-64331876D01*
X157804518Y-64357219D01*
X157805153Y-64362975D01*
X157804194Y-64363081D01*
X157800646Y-64427339D01*
X157759028Y-64484858D01*
X157692919Y-64510745D01*
X157651195Y-64507433D01*
X157613339Y-64497924D01*
X157552143Y-64461929D01*
X157540196Y-64447089D01*
X157525589Y-64425836D01*
X157521288Y-64419578D01*
X157515617Y-64414525D01*
X157398924Y-64310555D01*
X157398921Y-64310553D01*
X157393252Y-64305502D01*
X157241700Y-64225259D01*
X157234339Y-64223410D01*
X157234336Y-64223409D01*
X157202325Y-64215369D01*
X157141130Y-64179375D01*
X157129180Y-64164532D01*
X157039659Y-64034278D01*
X157039658Y-64034276D01*
X157035357Y-64028019D01*
X157029686Y-64022966D01*
X156912993Y-63918996D01*
X156912990Y-63918994D01*
X156907321Y-63913943D01*
X156755769Y-63833700D01*
X156706188Y-63821246D01*
X156644993Y-63785251D01*
X156633297Y-63768788D01*
X156632487Y-63769344D01*
X156539659Y-63634278D01*
X156539658Y-63634276D01*
X156535357Y-63628019D01*
X156529686Y-63622966D01*
X156412993Y-63518996D01*
X156412990Y-63518994D01*
X156407321Y-63513943D01*
X156399325Y-63509709D01*
X156262481Y-63437254D01*
X156262482Y-63437254D01*
X156255769Y-63433700D01*
X156238196Y-63429286D01*
X156096822Y-63393775D01*
X156096818Y-63393775D01*
X156089451Y-63391924D01*
X156081852Y-63391884D01*
X156081850Y-63391884D01*
X156010394Y-63391510D01*
X155917969Y-63391026D01*
X155910589Y-63392798D01*
X155910587Y-63392798D01*
X155758602Y-63429286D01*
X155758598Y-63429287D01*
X155751223Y-63431058D01*
X155598839Y-63509709D01*
X155469615Y-63622439D01*
X155458924Y-63637651D01*
X155388431Y-63737951D01*
X155332896Y-63782183D01*
X155285344Y-63791500D01*
X150204239Y-63791500D01*
X150136118Y-63771498D01*
X150115144Y-63754595D01*
X148652906Y-62292357D01*
X148633989Y-62267705D01*
X148631524Y-62261754D01*
X148611722Y-62235947D01*
X148558477Y-62166557D01*
X148558474Y-62166554D01*
X148533987Y-62134642D01*
X148519777Y-62123738D01*
X148508621Y-62115177D01*
X148496230Y-62104310D01*
X148095686Y-61703766D01*
X148084819Y-61691375D01*
X148070384Y-61672563D01*
X148065358Y-61666013D01*
X148033446Y-61641526D01*
X148033443Y-61641523D01*
X147938247Y-61568476D01*
X147932292Y-61566010D01*
X147907641Y-61547092D01*
X147872503Y-61511954D01*
X147838477Y-61449642D01*
X147843542Y-61378827D01*
X147884025Y-61323570D01*
X147993991Y-61237655D01*
X147998847Y-61233861D01*
X148128078Y-61084145D01*
X148225769Y-60912179D01*
X148288197Y-60724513D01*
X148312985Y-60528295D01*
X148313380Y-60500000D01*
X148294080Y-60303167D01*
X148236916Y-60113831D01*
X148144066Y-59939204D01*
X148073709Y-59852938D01*
X148022960Y-59790713D01*
X148022957Y-59790710D01*
X148019065Y-59785938D01*
X147967562Y-59743331D01*
X147871425Y-59663799D01*
X147871421Y-59663797D01*
X147866675Y-59659870D01*
X147692701Y-59565802D01*
X147503768Y-59507318D01*
X147497643Y-59506674D01*
X147497642Y-59506674D01*
X147313204Y-59487289D01*
X147313202Y-59487289D01*
X147307075Y-59486645D01*
X147224499Y-59494160D01*
X147145920Y-59501311D01*
X147076266Y-59487566D01*
X147025102Y-59438344D01*
X147008500Y-59375830D01*
X147008500Y-57722847D01*
X147028502Y-57654726D01*
X147082158Y-57608233D01*
X147149419Y-57597733D01*
X147231306Y-57607497D01*
X147278777Y-57613158D01*
X147284912Y-57612686D01*
X147284914Y-57612686D01*
X147469830Y-57598457D01*
X147469834Y-57598456D01*
X147475972Y-57597984D01*
X147666463Y-57544798D01*
X147671967Y-57542018D01*
X147671969Y-57542017D01*
X147837495Y-57458404D01*
X147837497Y-57458403D01*
X147842996Y-57455625D01*
X147998847Y-57333861D01*
X148128078Y-57184145D01*
X148225769Y-57012179D01*
X148288197Y-56824513D01*
X148312985Y-56628295D01*
X148313380Y-56600000D01*
X148294080Y-56403167D01*
X148275470Y-56341526D01*
X148254932Y-56273504D01*
X148236916Y-56213831D01*
X148144066Y-56039204D01*
X148066348Y-55943913D01*
X148022960Y-55890713D01*
X148022957Y-55890710D01*
X148019065Y-55885938D01*
X148014316Y-55882009D01*
X147871425Y-55763799D01*
X147871421Y-55763797D01*
X147866675Y-55759870D01*
X147692701Y-55665802D01*
X147503768Y-55607318D01*
X147497643Y-55606674D01*
X147497642Y-55606674D01*
X147313204Y-55587289D01*
X147313202Y-55587289D01*
X147307075Y-55586645D01*
X147224499Y-55594160D01*
X147145920Y-55601311D01*
X147076266Y-55587566D01*
X147025102Y-55538344D01*
X147008500Y-55475830D01*
X147008500Y-55222847D01*
X147028502Y-55154726D01*
X147082158Y-55108233D01*
X147149419Y-55097733D01*
X147231306Y-55107497D01*
X147278777Y-55113158D01*
X147284912Y-55112686D01*
X147284914Y-55112686D01*
X147469830Y-55098457D01*
X147469834Y-55098456D01*
X147475972Y-55097984D01*
X147666463Y-55044798D01*
X147671967Y-55042018D01*
X147671969Y-55042017D01*
X147837495Y-54958404D01*
X147837497Y-54958403D01*
X147842996Y-54955625D01*
X147998847Y-54833861D01*
X148128078Y-54684145D01*
X148129632Y-54685487D01*
X148177905Y-54647193D01*
X148248551Y-54640145D01*
X148314324Y-54674873D01*
X149171752Y-55532301D01*
X149205778Y-55594613D01*
X149208657Y-55621396D01*
X149208657Y-56769021D01*
X149207579Y-56785464D01*
X149203407Y-56817157D01*
X149208657Y-56857037D01*
X149208657Y-56857042D01*
X149218225Y-56929715D01*
X149224319Y-56976008D01*
X149285633Y-57124033D01*
X149290660Y-57130584D01*
X149290661Y-57130586D01*
X149358677Y-57219226D01*
X149358683Y-57219232D01*
X149383170Y-57251144D01*
X149389725Y-57256174D01*
X149408536Y-57270609D01*
X149420927Y-57281476D01*
X152020610Y-59881159D01*
X152031477Y-59893550D01*
X152050938Y-59918912D01*
X152057488Y-59923938D01*
X152082846Y-59943396D01*
X152082862Y-59943410D01*
X152132409Y-59981428D01*
X152144800Y-59992295D01*
X152283273Y-60130768D01*
X152312504Y-60176562D01*
X152360303Y-60307179D01*
X152364540Y-60313485D01*
X152364542Y-60313488D01*
X152380543Y-60337299D01*
X152455948Y-60449513D01*
X152582783Y-60564924D01*
X152733486Y-60646749D01*
X152899357Y-60690265D01*
X152986804Y-60691638D01*
X153063221Y-60692839D01*
X153063224Y-60692839D01*
X153070820Y-60692958D01*
X153078224Y-60691262D01*
X153078226Y-60691262D01*
X153186311Y-60666507D01*
X153237977Y-60654674D01*
X153340489Y-60603116D01*
X153410333Y-60590378D01*
X153475977Y-60617422D01*
X153486198Y-60626586D01*
X154555846Y-61696234D01*
X154566713Y-61708625D01*
X154586174Y-61733987D01*
X154592724Y-61739013D01*
X154618082Y-61758471D01*
X154618098Y-61758485D01*
X154654863Y-61786695D01*
X154713285Y-61831524D01*
X154861310Y-61892838D01*
X154869498Y-61893916D01*
X154940736Y-61903295D01*
X155020161Y-61913751D01*
X155051860Y-61909578D01*
X155068305Y-61908500D01*
X158595761Y-61908500D01*
X158663882Y-61928502D01*
X158684856Y-61945405D01*
X159135685Y-62396234D01*
X159146552Y-62408625D01*
X159166013Y-62433987D01*
X159172563Y-62439013D01*
X159197921Y-62458471D01*
X159197928Y-62458477D01*
X159257907Y-62504500D01*
X159293125Y-62531524D01*
X159441150Y-62592838D01*
X159560115Y-62608500D01*
X159560120Y-62608500D01*
X159560129Y-62608501D01*
X159591812Y-62612672D01*
X159600000Y-62613750D01*
X159631693Y-62609578D01*
X159648136Y-62608500D01*
X159803814Y-62608500D01*
X159863936Y-62623769D01*
X159937268Y-62663585D01*
X160103139Y-62707101D01*
X160190586Y-62708474D01*
X160267003Y-62709675D01*
X160267006Y-62709675D01*
X160274602Y-62709794D01*
X160282006Y-62708098D01*
X160282008Y-62708098D01*
X160344846Y-62693706D01*
X160441759Y-62671510D01*
X160594958Y-62594459D01*
X160600729Y-62589530D01*
X160600732Y-62589528D01*
X160719578Y-62488023D01*
X160725355Y-62483089D01*
X160825424Y-62343830D01*
X160889385Y-62184720D01*
X160891967Y-62185758D01*
X160922120Y-62136275D01*
X160950271Y-62116934D01*
X160994959Y-62094458D01*
X161000730Y-62089529D01*
X161000733Y-62089527D01*
X161119579Y-61988022D01*
X161125356Y-61983088D01*
X161225425Y-61843829D01*
X161289386Y-61684719D01*
X161305214Y-61573507D01*
X161312967Y-61519030D01*
X161312967Y-61519026D01*
X161313548Y-61514946D01*
X161313705Y-61499999D01*
X161301384Y-61398187D01*
X161294016Y-61337298D01*
X161294015Y-61337295D01*
X161293103Y-61329757D01*
X161269656Y-61267704D01*
X161235172Y-61176446D01*
X161232488Y-61169343D01*
X161135358Y-61028018D01*
X161057222Y-60958401D01*
X161012994Y-60918995D01*
X161012991Y-60918993D01*
X161007322Y-60913942D01*
X160934369Y-60875315D01*
X160883527Y-60825763D01*
X160867546Y-60756589D01*
X160876423Y-60716965D01*
X160886552Y-60691768D01*
X160886552Y-60691766D01*
X160889385Y-60684720D01*
X160906657Y-60563357D01*
X160912966Y-60519031D01*
X160912966Y-60519027D01*
X160913547Y-60514947D01*
X160913704Y-60500000D01*
X160893102Y-60329758D01*
X160832487Y-60169344D01*
X160811781Y-60139217D01*
X160739659Y-60034278D01*
X160739658Y-60034276D01*
X160735357Y-60028019D01*
X160729686Y-60022966D01*
X160612993Y-59918996D01*
X160612990Y-59918994D01*
X160607321Y-59913943D01*
X160579137Y-59899020D01*
X160527157Y-59871498D01*
X160455769Y-59833700D01*
X160438196Y-59829286D01*
X160296822Y-59793775D01*
X160296818Y-59793775D01*
X160289451Y-59791924D01*
X160281852Y-59791884D01*
X160281850Y-59791884D01*
X160210394Y-59791510D01*
X160117969Y-59791026D01*
X160110589Y-59792798D01*
X160110587Y-59792798D01*
X159958602Y-59829286D01*
X159958598Y-59829287D01*
X159951223Y-59831058D01*
X159872872Y-59871498D01*
X159861309Y-59877466D01*
X159803519Y-59891500D01*
X155655772Y-59891500D01*
X155587651Y-59871498D01*
X155566677Y-59854595D01*
X155188427Y-59476345D01*
X155154401Y-59414033D01*
X155159466Y-59343218D01*
X155175200Y-59313723D01*
X155220992Y-59249998D01*
X155220993Y-59249997D01*
X155225424Y-59243830D01*
X155289385Y-59084720D01*
X155290044Y-59084985D01*
X155319532Y-59033910D01*
X156010388Y-58343054D01*
X156072700Y-58309028D01*
X156143515Y-58314093D01*
X156159604Y-58321418D01*
X156230592Y-58359961D01*
X156230595Y-58359962D01*
X156237268Y-58363585D01*
X156403139Y-58407101D01*
X156490586Y-58408474D01*
X156567003Y-58409675D01*
X156567006Y-58409675D01*
X156574602Y-58409794D01*
X156582006Y-58408098D01*
X156582008Y-58408098D01*
X156695267Y-58382158D01*
X156741759Y-58371510D01*
X156894958Y-58294459D01*
X156900731Y-58289528D01*
X156900736Y-58289525D01*
X156916525Y-58276040D01*
X156981315Y-58247009D01*
X157051515Y-58257614D01*
X157074359Y-58272805D01*
X157074755Y-58272248D01*
X157080949Y-58276649D01*
X157086565Y-58281760D01*
X157237268Y-58363585D01*
X157403139Y-58407101D01*
X157490586Y-58408474D01*
X157567003Y-58409675D01*
X157567006Y-58409675D01*
X157574602Y-58409794D01*
X157582006Y-58408098D01*
X157582008Y-58408098D01*
X157695267Y-58382158D01*
X157741759Y-58371510D01*
X157840329Y-58321935D01*
X157896942Y-58308500D01*
X158707132Y-58308500D01*
X158775253Y-58328502D01*
X158821746Y-58382158D01*
X158831850Y-58452432D01*
X158810218Y-58506951D01*
X158775382Y-58556517D01*
X158775379Y-58556523D01*
X158771010Y-58562739D01*
X158708718Y-58722509D01*
X158686335Y-58892526D01*
X158695744Y-58977751D01*
X158703041Y-59043842D01*
X158705153Y-59062975D01*
X158707762Y-59070106D01*
X158707763Y-59070108D01*
X158730802Y-59133064D01*
X158764085Y-59224015D01*
X158859730Y-59366349D01*
X158893407Y-59396993D01*
X158949989Y-59448478D01*
X158986565Y-59481760D01*
X159137268Y-59563585D01*
X159303139Y-59607101D01*
X159390586Y-59608474D01*
X159467003Y-59609675D01*
X159467006Y-59609675D01*
X159474602Y-59609794D01*
X159482006Y-59608098D01*
X159482008Y-59608098D01*
X159544846Y-59593706D01*
X159641759Y-59571510D01*
X159794958Y-59494459D01*
X159800729Y-59489530D01*
X159800732Y-59489528D01*
X159919578Y-59388023D01*
X159925355Y-59383089D01*
X160025424Y-59243830D01*
X160088894Y-59085940D01*
X160116707Y-59043842D01*
X160415144Y-58745405D01*
X160477456Y-58711379D01*
X160504239Y-58708500D01*
X165530075Y-58708500D01*
X165598196Y-58728502D01*
X165619170Y-58745405D01*
X167154595Y-60280830D01*
X167188621Y-60343142D01*
X167191500Y-60369925D01*
X167191500Y-63976864D01*
X167190422Y-63993307D01*
X167186250Y-64025000D01*
X167191500Y-64064880D01*
X167191500Y-64064885D01*
X167196123Y-64100000D01*
X167207162Y-64183851D01*
X167268476Y-64331876D01*
X167273503Y-64338427D01*
X167273504Y-64338429D01*
X167341520Y-64427069D01*
X167341526Y-64427075D01*
X167366013Y-64458987D01*
X167372568Y-64464017D01*
X167391379Y-64478452D01*
X167403770Y-64489319D01*
X168086454Y-65172003D01*
X168120480Y-65234315D01*
X168117691Y-65298463D01*
X168068393Y-65457227D01*
X168067692Y-65462516D01*
X168041964Y-65656638D01*
X168038102Y-65685774D01*
X168046751Y-65916158D01*
X168094093Y-66141791D01*
X168096051Y-66146750D01*
X168096052Y-66146752D01*
X168144415Y-66269213D01*
X168178776Y-66356221D01*
X168181543Y-66360780D01*
X168181544Y-66360783D01*
X168242177Y-66460702D01*
X168298377Y-66553317D01*
X168301874Y-66557347D01*
X168388438Y-66657103D01*
X168449477Y-66727445D01*
X168453608Y-66730832D01*
X168623627Y-66870240D01*
X168623633Y-66870244D01*
X168627755Y-66873624D01*
X168632391Y-66876263D01*
X168632394Y-66876265D01*
X168674091Y-66900000D01*
X168828114Y-66987675D01*
X169044825Y-67066337D01*
X169050074Y-67067286D01*
X169050077Y-67067287D01*
X169267608Y-67106623D01*
X169267615Y-67106624D01*
X169271692Y-67107361D01*
X169289414Y-67108197D01*
X169294356Y-67108430D01*
X169294363Y-67108430D01*
X169295844Y-67108500D01*
X169707890Y-67108500D01*
X169791731Y-67101386D01*
X169874409Y-67094371D01*
X169874413Y-67094370D01*
X169879720Y-67093920D01*
X169884875Y-67092582D01*
X169884881Y-67092581D01*
X170097703Y-67037343D01*
X170097707Y-67037342D01*
X170102872Y-67036001D01*
X170107738Y-67033809D01*
X170107741Y-67033808D01*
X170308202Y-66943507D01*
X170313075Y-66941312D01*
X170504319Y-66812559D01*
X170526675Y-66791233D01*
X170614010Y-66707919D01*
X170671135Y-66653424D01*
X170676398Y-66646351D01*
X170805568Y-66472740D01*
X170808754Y-66468458D01*
X170812698Y-66460702D01*
X170910822Y-66267704D01*
X170913240Y-66262949D01*
X170915448Y-66255840D01*
X170980024Y-66047871D01*
X170981607Y-66042773D01*
X170982308Y-66037484D01*
X171011198Y-65819511D01*
X171011198Y-65819506D01*
X171011898Y-65814226D01*
X171003249Y-65583842D01*
X170955907Y-65358209D01*
X170898949Y-65213983D01*
X170873185Y-65148744D01*
X170873184Y-65148742D01*
X170871224Y-65143779D01*
X170751623Y-64946683D01*
X170675511Y-64858971D01*
X170604023Y-64776588D01*
X170604021Y-64776586D01*
X170600523Y-64772555D01*
X170531865Y-64716259D01*
X170426373Y-64629760D01*
X170426367Y-64629756D01*
X170422245Y-64626376D01*
X170390750Y-64608448D01*
X170341445Y-64557368D01*
X170327583Y-64487738D01*
X170353566Y-64421667D01*
X170382716Y-64394427D01*
X170440649Y-64355424D01*
X170504319Y-64312559D01*
X170508629Y-64308448D01*
X170606642Y-64214947D01*
X170671135Y-64153424D01*
X170808754Y-63968458D01*
X170846372Y-63894470D01*
X170908893Y-63771498D01*
X170913240Y-63762949D01*
X170923890Y-63728653D01*
X170980024Y-63547871D01*
X170981607Y-63542773D01*
X170985989Y-63509709D01*
X171011198Y-63319511D01*
X171011198Y-63319506D01*
X171011898Y-63314226D01*
X171003249Y-63083842D01*
X170955907Y-62858209D01*
X170880828Y-62668098D01*
X170873185Y-62648744D01*
X170873184Y-62648742D01*
X170871224Y-62643779D01*
X170850471Y-62609578D01*
X170754390Y-62451243D01*
X170751623Y-62446683D01*
X170707846Y-62396234D01*
X170604023Y-62276588D01*
X170604021Y-62276586D01*
X170600523Y-62272555D01*
X170493401Y-62184720D01*
X170426373Y-62129760D01*
X170426367Y-62129756D01*
X170422245Y-62126376D01*
X170390750Y-62108448D01*
X170341445Y-62057368D01*
X170327583Y-61987738D01*
X170353566Y-61921667D01*
X170382716Y-61894427D01*
X170468336Y-61836784D01*
X170504319Y-61812559D01*
X170531432Y-61786695D01*
X170593550Y-61727437D01*
X170671135Y-61653424D01*
X170808754Y-61468458D01*
X170913240Y-61262949D01*
X170923721Y-61229197D01*
X170980024Y-61047871D01*
X170981607Y-61042773D01*
X170992294Y-60962138D01*
X171011198Y-60819511D01*
X171011198Y-60819506D01*
X171011898Y-60814226D01*
X171003249Y-60583842D01*
X170998208Y-60559814D01*
X170957002Y-60363428D01*
X170955907Y-60358209D01*
X170931839Y-60297264D01*
X170873185Y-60148744D01*
X170873184Y-60148742D01*
X170871224Y-60143779D01*
X170856632Y-60119731D01*
X170754390Y-59951243D01*
X170751623Y-59946683D01*
X170699833Y-59887000D01*
X170604023Y-59776588D01*
X170604021Y-59776586D01*
X170600523Y-59772555D01*
X170564880Y-59743330D01*
X170524886Y-59684671D01*
X170522954Y-59613701D01*
X170559698Y-59552952D01*
X170578468Y-59538752D01*
X170718120Y-59452332D01*
X170724348Y-59448478D01*
X170849305Y-59323303D01*
X170902636Y-59236785D01*
X170938275Y-59178968D01*
X170938276Y-59178966D01*
X170942115Y-59172738D01*
X170991260Y-59024570D01*
X170995632Y-59011389D01*
X170995632Y-59011387D01*
X170997797Y-59004861D01*
X171008500Y-58900400D01*
X171008500Y-57599600D01*
X171008163Y-57596350D01*
X170998238Y-57500692D01*
X170998237Y-57500688D01*
X170997526Y-57493834D01*
X170984779Y-57455625D01*
X170943868Y-57333002D01*
X170941550Y-57326054D01*
X170848478Y-57175652D01*
X170723303Y-57050695D01*
X170660819Y-57012179D01*
X170578968Y-56961725D01*
X170578966Y-56961724D01*
X170572738Y-56957885D01*
X170487802Y-56929713D01*
X170411389Y-56904368D01*
X170411387Y-56904368D01*
X170404861Y-56902203D01*
X170398025Y-56901503D01*
X170398022Y-56901502D01*
X170354969Y-56897091D01*
X170300400Y-56891500D01*
X169079239Y-56891500D01*
X169011118Y-56871498D01*
X168990144Y-56854595D01*
X168539315Y-56403766D01*
X168528448Y-56391375D01*
X168514013Y-56372563D01*
X168508987Y-56366013D01*
X168477075Y-56341526D01*
X168477069Y-56341520D01*
X168388429Y-56273504D01*
X168388427Y-56273503D01*
X168381876Y-56268476D01*
X168233851Y-56207162D01*
X168225664Y-56206084D01*
X168225663Y-56206084D01*
X168214458Y-56204609D01*
X168183262Y-56200502D01*
X168114885Y-56191500D01*
X168114882Y-56191500D01*
X168114874Y-56191499D01*
X168083189Y-56187328D01*
X168075000Y-56186250D01*
X168043307Y-56190422D01*
X168026864Y-56191500D01*
X156741037Y-56191500D01*
X156724591Y-56190422D01*
X156701081Y-56187327D01*
X156692893Y-56186249D01*
X156534042Y-56207162D01*
X156386017Y-56268476D01*
X156340198Y-56303634D01*
X156290830Y-56341515D01*
X156290814Y-56341529D01*
X156265459Y-56360984D01*
X156265456Y-56360987D01*
X156258906Y-56366013D01*
X156253876Y-56372568D01*
X156239441Y-56391379D01*
X156228574Y-56403770D01*
X154442231Y-58190113D01*
X154382550Y-58223537D01*
X154358603Y-58229286D01*
X154358601Y-58229287D01*
X154351223Y-58231058D01*
X154198839Y-58309709D01*
X154192978Y-58314822D01*
X154192857Y-58314878D01*
X154186834Y-58318971D01*
X154186152Y-58317967D01*
X154128499Y-58344531D01*
X154058191Y-58334664D01*
X154021052Y-58308970D01*
X151718307Y-56006225D01*
X151684281Y-55943913D01*
X151689346Y-55873098D01*
X151731893Y-55816262D01*
X151798413Y-55791451D01*
X151824066Y-55792237D01*
X151975979Y-55812507D01*
X151975984Y-55812507D01*
X151982961Y-55813438D01*
X151989972Y-55812800D01*
X151989976Y-55812800D01*
X152132459Y-55799832D01*
X152163600Y-55796998D01*
X152170302Y-55794820D01*
X152170304Y-55794820D01*
X152329409Y-55743124D01*
X152329412Y-55743123D01*
X152336108Y-55740947D01*
X152491912Y-55648069D01*
X152623266Y-55522982D01*
X152723643Y-55371902D01*
X152726146Y-55365314D01*
X152726149Y-55365309D01*
X152728059Y-55360280D01*
X152756751Y-55315930D01*
X154877276Y-53195405D01*
X154939588Y-53161379D01*
X154966371Y-53158500D01*
X156697282Y-53158500D01*
X156741202Y-53166403D01*
X156796558Y-53186990D01*
X156796560Y-53186991D01*
X156803168Y-53189448D01*
X156886995Y-53200633D01*
X156975980Y-53212507D01*
X156975984Y-53212507D01*
X156982961Y-53213438D01*
X156989972Y-53212800D01*
X156989976Y-53212800D01*
X157132459Y-53199832D01*
X157163600Y-53196998D01*
X157170302Y-53194820D01*
X157170304Y-53194820D01*
X157263105Y-53164667D01*
X157302041Y-53158500D01*
X159033629Y-53158500D01*
X159101750Y-53178502D01*
X159122724Y-53195405D01*
X161240992Y-55313673D01*
X161260595Y-55341771D01*
X161261418Y-55341273D01*
X161345977Y-55480897D01*
X161355380Y-55496424D01*
X161481382Y-55626902D01*
X161633159Y-55726222D01*
X161639763Y-55728678D01*
X161639765Y-55728679D01*
X161796558Y-55786990D01*
X161796560Y-55786990D01*
X161803168Y-55789448D01*
X161886995Y-55800633D01*
X161975980Y-55812507D01*
X161975984Y-55812507D01*
X161982961Y-55813438D01*
X161989972Y-55812800D01*
X161989976Y-55812800D01*
X162132459Y-55799832D01*
X162163600Y-55796998D01*
X162170302Y-55794820D01*
X162170304Y-55794820D01*
X162329409Y-55743124D01*
X162329412Y-55743123D01*
X162336108Y-55740947D01*
X162491912Y-55648069D01*
X162623266Y-55522982D01*
X162723643Y-55371902D01*
X162788055Y-55202338D01*
X162791582Y-55177240D01*
X162812748Y-55026639D01*
X162812748Y-55026636D01*
X162813299Y-55022717D01*
X162813616Y-55000000D01*
X162793397Y-54819745D01*
X162789944Y-54809829D01*
X162736064Y-54655106D01*
X162736062Y-54655103D01*
X162733745Y-54648448D01*
X162637626Y-54494624D01*
X162630272Y-54487218D01*
X162514778Y-54370915D01*
X162514774Y-54370912D01*
X162509815Y-54365918D01*
X162356666Y-54268727D01*
X162350026Y-54266363D01*
X162347532Y-54265146D01*
X162313675Y-54240994D01*
X160546276Y-52473595D01*
X160512250Y-52411283D01*
X160517315Y-52340468D01*
X160559862Y-52283632D01*
X160626382Y-52258821D01*
X160635371Y-52258500D01*
X165370500Y-52258500D01*
X165438621Y-52278502D01*
X165485114Y-52332158D01*
X165496500Y-52384500D01*
X165496500Y-52848134D01*
X165503255Y-52910316D01*
X165554385Y-53046705D01*
X165641739Y-53163261D01*
X165758295Y-53250615D01*
X165894684Y-53301745D01*
X165956866Y-53308500D01*
X168653134Y-53308500D01*
X168715316Y-53301745D01*
X168851705Y-53250615D01*
X168968261Y-53163261D01*
X169055615Y-53046705D01*
X169106745Y-52910316D01*
X169113500Y-52848134D01*
X169113500Y-50151866D01*
X169106745Y-50089684D01*
X169055615Y-49953295D01*
X168968261Y-49836739D01*
X168851705Y-49749385D01*
X168715316Y-49698255D01*
X168653134Y-49691500D01*
X165956866Y-49691500D01*
X165894684Y-49698255D01*
X165758295Y-49749385D01*
X165641739Y-49836739D01*
X165554385Y-49953295D01*
X165503255Y-50089684D01*
X165496500Y-50151866D01*
X165496500Y-50615500D01*
X165476498Y-50683621D01*
X165422842Y-50730114D01*
X165370500Y-50741500D01*
X157967069Y-50741500D01*
X157948121Y-50740067D01*
X157940780Y-50738950D01*
X157933883Y-50737901D01*
X157933881Y-50737901D01*
X157926651Y-50736801D01*
X157919359Y-50737394D01*
X157919356Y-50737394D01*
X157873982Y-50741085D01*
X157863767Y-50741500D01*
X157855707Y-50741500D01*
X157842417Y-50743049D01*
X157827493Y-50744789D01*
X157823118Y-50745222D01*
X157757661Y-50750546D01*
X157757658Y-50750547D01*
X157750363Y-50751140D01*
X157743399Y-50753396D01*
X157737440Y-50754587D01*
X157731585Y-50755971D01*
X157724319Y-50756818D01*
X157655673Y-50781735D01*
X157651545Y-50783152D01*
X157589064Y-50803393D01*
X157589062Y-50803394D01*
X157582101Y-50805649D01*
X157575846Y-50809445D01*
X157570372Y-50811951D01*
X157564942Y-50814670D01*
X157558063Y-50817167D01*
X157497016Y-50857191D01*
X157493327Y-50859518D01*
X157473135Y-50871771D01*
X157435693Y-50894491D01*
X157435688Y-50894495D01*
X157430892Y-50897405D01*
X157422516Y-50904803D01*
X157422493Y-50904777D01*
X157419503Y-50907426D01*
X157416264Y-50910134D01*
X157410148Y-50914144D01*
X157405121Y-50919451D01*
X157405117Y-50919454D01*
X157356872Y-50970383D01*
X157354494Y-50972825D01*
X156722724Y-51604595D01*
X156660412Y-51638621D01*
X156633629Y-51641500D01*
X154667069Y-51641500D01*
X154648121Y-51640067D01*
X154640780Y-51638950D01*
X154633883Y-51637901D01*
X154633881Y-51637901D01*
X154626651Y-51636801D01*
X154619359Y-51637394D01*
X154619356Y-51637394D01*
X154573982Y-51641085D01*
X154563767Y-51641500D01*
X154555707Y-51641500D01*
X154542417Y-51643049D01*
X154527493Y-51644789D01*
X154523118Y-51645222D01*
X154457661Y-51650546D01*
X154457658Y-51650547D01*
X154450363Y-51651140D01*
X154443399Y-51653396D01*
X154437440Y-51654587D01*
X154431585Y-51655971D01*
X154424319Y-51656818D01*
X154355673Y-51681735D01*
X154351545Y-51683152D01*
X154289064Y-51703393D01*
X154289062Y-51703394D01*
X154282101Y-51705649D01*
X154275846Y-51709445D01*
X154270372Y-51711951D01*
X154264942Y-51714670D01*
X154258063Y-51717167D01*
X154251943Y-51721180D01*
X154251942Y-51721180D01*
X154240966Y-51728376D01*
X154197016Y-51757191D01*
X154193327Y-51759518D01*
X154173135Y-51771771D01*
X154135693Y-51794491D01*
X154135688Y-51794495D01*
X154130892Y-51797405D01*
X154122516Y-51804803D01*
X154122493Y-51804777D01*
X154119503Y-51807426D01*
X154116264Y-51810134D01*
X154110148Y-51814144D01*
X154105121Y-51819451D01*
X154105117Y-51819454D01*
X154056872Y-51870383D01*
X154054494Y-51872825D01*
X151890752Y-54036567D01*
X151828440Y-54070593D01*
X151757625Y-54065528D01*
X151700789Y-54022981D01*
X151675978Y-53956461D01*
X151675657Y-53947472D01*
X151675657Y-52495469D01*
X151695659Y-52427348D01*
X151749315Y-52380855D01*
X151819589Y-52370751D01*
X151883320Y-52399515D01*
X151916024Y-52427348D01*
X151921650Y-52432136D01*
X152094294Y-52528624D01*
X152282392Y-52589740D01*
X152478777Y-52613158D01*
X152484912Y-52612686D01*
X152484914Y-52612686D01*
X152669830Y-52598457D01*
X152669834Y-52598456D01*
X152675972Y-52597984D01*
X152866463Y-52544798D01*
X152871967Y-52542018D01*
X152871969Y-52542017D01*
X153037495Y-52458404D01*
X153037497Y-52458403D01*
X153042996Y-52455625D01*
X153174146Y-52353160D01*
X153193991Y-52337655D01*
X153198847Y-52333861D01*
X153328078Y-52184145D01*
X153425769Y-52012179D01*
X153488197Y-51824513D01*
X153512985Y-51628295D01*
X153513380Y-51600000D01*
X153494080Y-51403167D01*
X153436916Y-51213831D01*
X153344066Y-51039204D01*
X153246400Y-50919454D01*
X153222960Y-50890713D01*
X153222957Y-50890710D01*
X153219065Y-50885938D01*
X153212719Y-50880688D01*
X153071425Y-50763799D01*
X153071421Y-50763797D01*
X153066675Y-50759870D01*
X152892701Y-50665802D01*
X152703768Y-50607318D01*
X152697643Y-50606674D01*
X152697642Y-50606674D01*
X152513204Y-50587289D01*
X152513202Y-50587289D01*
X152507075Y-50586645D01*
X152424576Y-50594153D01*
X152316251Y-50604011D01*
X152316248Y-50604012D01*
X152310112Y-50604570D01*
X152304206Y-50606308D01*
X152304202Y-50606309D01*
X152272974Y-50615500D01*
X152120381Y-50660410D01*
X152114923Y-50663263D01*
X152114919Y-50663265D01*
X152055397Y-50694383D01*
X151945110Y-50752040D01*
X151880607Y-50803902D01*
X151814986Y-50830997D01*
X151745132Y-50818314D01*
X151693224Y-50769877D01*
X151675657Y-50705704D01*
X151675657Y-50202774D01*
X151695659Y-50134653D01*
X151749315Y-50088160D01*
X151819589Y-50078056D01*
X151845887Y-50084792D01*
X151882395Y-50098478D01*
X151897649Y-50102105D01*
X151948514Y-50107631D01*
X151955328Y-50108000D01*
X152227885Y-50108000D01*
X152243124Y-50103525D01*
X152244329Y-50102135D01*
X152246000Y-50094452D01*
X152246000Y-50089884D01*
X152754000Y-50089884D01*
X152758475Y-50105123D01*
X152759865Y-50106328D01*
X152767548Y-50107999D01*
X153044669Y-50107999D01*
X153051490Y-50107629D01*
X153102352Y-50102105D01*
X153117604Y-50098479D01*
X153238054Y-50053324D01*
X153253649Y-50044786D01*
X153355724Y-49968285D01*
X153368285Y-49955724D01*
X153444786Y-49853649D01*
X153453324Y-49838054D01*
X153498478Y-49717606D01*
X153502105Y-49702351D01*
X153507631Y-49651486D01*
X153508000Y-49644672D01*
X153508000Y-49372115D01*
X153503525Y-49356876D01*
X153502135Y-49355671D01*
X153494452Y-49354000D01*
X152772115Y-49354000D01*
X152756876Y-49358475D01*
X152755671Y-49359865D01*
X152754000Y-49367548D01*
X152754000Y-50089884D01*
X152246000Y-50089884D01*
X152246000Y-48827885D01*
X152754000Y-48827885D01*
X152758475Y-48843124D01*
X152759865Y-48844329D01*
X152767548Y-48846000D01*
X153489884Y-48846000D01*
X153505123Y-48841525D01*
X153506328Y-48840135D01*
X153507999Y-48832452D01*
X153507999Y-48555331D01*
X153507629Y-48548510D01*
X153502105Y-48497648D01*
X153498479Y-48482396D01*
X153453324Y-48361946D01*
X153444786Y-48346351D01*
X153368285Y-48244276D01*
X153355724Y-48231715D01*
X153253649Y-48155214D01*
X153238054Y-48146676D01*
X153117606Y-48101522D01*
X153102351Y-48097895D01*
X153051486Y-48092369D01*
X153044672Y-48092000D01*
X152772115Y-48092000D01*
X152756876Y-48096475D01*
X152755671Y-48097865D01*
X152754000Y-48105548D01*
X152754000Y-48827885D01*
X152246000Y-48827885D01*
X152246000Y-48110116D01*
X152241525Y-48094877D01*
X152240135Y-48093672D01*
X152232452Y-48092001D01*
X151955331Y-48092001D01*
X151948510Y-48092371D01*
X151897648Y-48097895D01*
X151882396Y-48101521D01*
X151761946Y-48146676D01*
X151746351Y-48155214D01*
X151701100Y-48189128D01*
X151634593Y-48213976D01*
X151565211Y-48198923D01*
X151525573Y-48165007D01*
X151501144Y-48133170D01*
X151494589Y-48128140D01*
X151475778Y-48113705D01*
X151463387Y-48102838D01*
X151305455Y-47944906D01*
X166224839Y-47944906D01*
X166233553Y-47956427D01*
X166340452Y-48034809D01*
X166348351Y-48039745D01*
X166577905Y-48160519D01*
X166586454Y-48164236D01*
X166831327Y-48249749D01*
X166840336Y-48252163D01*
X167095166Y-48300544D01*
X167104423Y-48301598D01*
X167363607Y-48311783D01*
X167372921Y-48311457D01*
X167630753Y-48283220D01*
X167639930Y-48281519D01*
X167890758Y-48215481D01*
X167899574Y-48212445D01*
X168137880Y-48110062D01*
X168146167Y-48105748D01*
X168366718Y-47969266D01*
X168374268Y-47963780D01*
X168379559Y-47959301D01*
X168387997Y-47946497D01*
X168381935Y-47936145D01*
X167317812Y-46872022D01*
X167303868Y-46864408D01*
X167302035Y-46864539D01*
X167295420Y-46868790D01*
X166231497Y-47932713D01*
X166224839Y-47944906D01*
X151305455Y-47944906D01*
X149817760Y-46457211D01*
X165492775Y-46457211D01*
X165505220Y-46716288D01*
X165506356Y-46725543D01*
X165556961Y-46979945D01*
X165559449Y-46988917D01*
X165647095Y-47233033D01*
X165650895Y-47241568D01*
X165773658Y-47470042D01*
X165778666Y-47477904D01*
X165848720Y-47571716D01*
X165859979Y-47580165D01*
X165872397Y-47573393D01*
X166932978Y-46512812D01*
X166939356Y-46501132D01*
X167669408Y-46501132D01*
X167669539Y-46502965D01*
X167673790Y-46509580D01*
X168741094Y-47576884D01*
X168753474Y-47583644D01*
X168761815Y-47577400D01*
X168895832Y-47369048D01*
X168900275Y-47360864D01*
X169006807Y-47124370D01*
X169009997Y-47115605D01*
X169080402Y-46865972D01*
X169082262Y-46856830D01*
X169115187Y-46598019D01*
X169115668Y-46591733D01*
X169117987Y-46503160D01*
X169117836Y-46496851D01*
X169098501Y-46236663D01*
X169097125Y-46227457D01*
X169039878Y-45974467D01*
X169037154Y-45965556D01*
X168943143Y-45723806D01*
X168939132Y-45715397D01*
X168810422Y-45490202D01*
X168805211Y-45482476D01*
X168761996Y-45427658D01*
X168750071Y-45419187D01*
X168738537Y-45425673D01*
X167677022Y-46487188D01*
X167669408Y-46501132D01*
X166939356Y-46501132D01*
X166940592Y-46498868D01*
X166940461Y-46497035D01*
X166936210Y-46490420D01*
X165870816Y-45425026D01*
X165857507Y-45417758D01*
X165847472Y-45424878D01*
X165831937Y-45443556D01*
X165826531Y-45451135D01*
X165691965Y-45672891D01*
X165687736Y-45681192D01*
X165587432Y-45920389D01*
X165584471Y-45929239D01*
X165520628Y-46180625D01*
X165519006Y-46189822D01*
X165493020Y-46447885D01*
X165492775Y-46457211D01*
X149817760Y-46457211D01*
X148413238Y-45052689D01*
X166222102Y-45052689D01*
X166226675Y-45062465D01*
X167292188Y-46127978D01*
X167306132Y-46135592D01*
X167307965Y-46135461D01*
X167314580Y-46131210D01*
X168379349Y-45066441D01*
X168385733Y-45054751D01*
X168376321Y-45042641D01*
X168229045Y-44940471D01*
X168221010Y-44935738D01*
X167988376Y-44821016D01*
X167979743Y-44817528D01*
X167732703Y-44738450D01*
X167723643Y-44736274D01*
X167467630Y-44694580D01*
X167458343Y-44693768D01*
X167198992Y-44690373D01*
X167189681Y-44690943D01*
X166932682Y-44725919D01*
X166923546Y-44727860D01*
X166674543Y-44800439D01*
X166665800Y-44803707D01*
X166430252Y-44912296D01*
X166422097Y-44916816D01*
X166231240Y-45041947D01*
X166222102Y-45052689D01*
X148413238Y-45052689D01*
X148079584Y-44719035D01*
X148045558Y-44656723D01*
X148050623Y-44585908D01*
X148073297Y-44547610D01*
X148092883Y-44524919D01*
X148128078Y-44484145D01*
X148225769Y-44312179D01*
X148288197Y-44124513D01*
X148312985Y-43928295D01*
X148313380Y-43900000D01*
X148294080Y-43703167D01*
X148236916Y-43513831D01*
X148144066Y-43339204D01*
X148035084Y-43205579D01*
X148022960Y-43190713D01*
X148022957Y-43190710D01*
X148019065Y-43185938D01*
X148014316Y-43182009D01*
X147871425Y-43063799D01*
X147871421Y-43063797D01*
X147866675Y-43059870D01*
X147692701Y-42965802D01*
X147503768Y-42907318D01*
X147497643Y-42906674D01*
X147497642Y-42906674D01*
X147313204Y-42887289D01*
X147313202Y-42887289D01*
X147307075Y-42886645D01*
X147224576Y-42894153D01*
X147116251Y-42904011D01*
X147116248Y-42904012D01*
X147110112Y-42904570D01*
X147104206Y-42906308D01*
X147104202Y-42906309D01*
X146999076Y-42937249D01*
X146920381Y-42960410D01*
X146914923Y-42963263D01*
X146914919Y-42963265D01*
X146824147Y-43010720D01*
X146745110Y-43052040D01*
X146648894Y-43129400D01*
X146583271Y-43156496D01*
X146513417Y-43143812D01*
X146480847Y-43120298D01*
X145395405Y-42034856D01*
X145361379Y-41972544D01*
X145358500Y-41945761D01*
X145358500Y-41000000D01*
X147886526Y-41000000D01*
X147906391Y-41252403D01*
X147965495Y-41498591D01*
X148062384Y-41732502D01*
X148194672Y-41948376D01*
X148359102Y-42140898D01*
X148551624Y-42305328D01*
X148767498Y-42437616D01*
X148772068Y-42439509D01*
X148772072Y-42439511D01*
X148840163Y-42467715D01*
X149001409Y-42534505D01*
X149086032Y-42554821D01*
X149242784Y-42592454D01*
X149242790Y-42592455D01*
X149247597Y-42593609D01*
X149347416Y-42601465D01*
X149434345Y-42608307D01*
X149434352Y-42608307D01*
X149436801Y-42608500D01*
X149563199Y-42608500D01*
X149565648Y-42608307D01*
X149565655Y-42608307D01*
X149652584Y-42601465D01*
X149752403Y-42593609D01*
X149757210Y-42592455D01*
X149757216Y-42592454D01*
X149913968Y-42554821D01*
X149998591Y-42534505D01*
X150159837Y-42467715D01*
X150227928Y-42439511D01*
X150227932Y-42439509D01*
X150232502Y-42437616D01*
X150448376Y-42305328D01*
X150640898Y-42140898D01*
X150805328Y-41948376D01*
X150937616Y-41732502D01*
X151034505Y-41498591D01*
X151093609Y-41252403D01*
X151113474Y-41000000D01*
X167386526Y-41000000D01*
X167406391Y-41252403D01*
X167465495Y-41498591D01*
X167562384Y-41732502D01*
X167694672Y-41948376D01*
X167859102Y-42140898D01*
X168051624Y-42305328D01*
X168267498Y-42437616D01*
X168272068Y-42439509D01*
X168272072Y-42439511D01*
X168340163Y-42467715D01*
X168501409Y-42534505D01*
X168586032Y-42554821D01*
X168742784Y-42592454D01*
X168742790Y-42592455D01*
X168747597Y-42593609D01*
X168847416Y-42601465D01*
X168934345Y-42608307D01*
X168934352Y-42608307D01*
X168936801Y-42608500D01*
X169063199Y-42608500D01*
X169065648Y-42608307D01*
X169065655Y-42608307D01*
X169152584Y-42601465D01*
X169252403Y-42593609D01*
X169257210Y-42592455D01*
X169257216Y-42592454D01*
X169413968Y-42554821D01*
X169498591Y-42534505D01*
X169659837Y-42467715D01*
X169727928Y-42439511D01*
X169727932Y-42439509D01*
X169732502Y-42437616D01*
X169948376Y-42305328D01*
X170140898Y-42140898D01*
X170305328Y-41948376D01*
X170437616Y-41732502D01*
X170534505Y-41498591D01*
X170593609Y-41252403D01*
X170613474Y-41000000D01*
X170593609Y-40747597D01*
X170534505Y-40501409D01*
X170493865Y-40403295D01*
X170439511Y-40272072D01*
X170439509Y-40272068D01*
X170437616Y-40267498D01*
X170305328Y-40051624D01*
X170140898Y-39859102D01*
X169948376Y-39694672D01*
X169732502Y-39562384D01*
X169727932Y-39560491D01*
X169727928Y-39560489D01*
X169503164Y-39467389D01*
X169503162Y-39467388D01*
X169498591Y-39465495D01*
X169413968Y-39445179D01*
X169257216Y-39407546D01*
X169257210Y-39407545D01*
X169252403Y-39406391D01*
X169152584Y-39398535D01*
X169065655Y-39391693D01*
X169065648Y-39391693D01*
X169063199Y-39391500D01*
X168936801Y-39391500D01*
X168934352Y-39391693D01*
X168934345Y-39391693D01*
X168847416Y-39398535D01*
X168747597Y-39406391D01*
X168742790Y-39407545D01*
X168742784Y-39407546D01*
X168586032Y-39445179D01*
X168501409Y-39465495D01*
X168496838Y-39467388D01*
X168496836Y-39467389D01*
X168272072Y-39560489D01*
X168272068Y-39560491D01*
X168267498Y-39562384D01*
X168051624Y-39694672D01*
X167859102Y-39859102D01*
X167694672Y-40051624D01*
X167562384Y-40267498D01*
X167560491Y-40272068D01*
X167560489Y-40272072D01*
X167506135Y-40403295D01*
X167465495Y-40501409D01*
X167406391Y-40747597D01*
X167386526Y-41000000D01*
X151113474Y-41000000D01*
X151093609Y-40747597D01*
X151034505Y-40501409D01*
X150993865Y-40403295D01*
X150939511Y-40272072D01*
X150939509Y-40272068D01*
X150937616Y-40267498D01*
X150805328Y-40051624D01*
X150640898Y-39859102D01*
X150448376Y-39694672D01*
X150232502Y-39562384D01*
X150227932Y-39560491D01*
X150227928Y-39560489D01*
X150003164Y-39467389D01*
X150003162Y-39467388D01*
X149998591Y-39465495D01*
X149913968Y-39445179D01*
X149757216Y-39407546D01*
X149757210Y-39407545D01*
X149752403Y-39406391D01*
X149652584Y-39398535D01*
X149565655Y-39391693D01*
X149565648Y-39391693D01*
X149563199Y-39391500D01*
X149436801Y-39391500D01*
X149434352Y-39391693D01*
X149434345Y-39391693D01*
X149347416Y-39398535D01*
X149247597Y-39406391D01*
X149242790Y-39407545D01*
X149242784Y-39407546D01*
X149086032Y-39445179D01*
X149001409Y-39465495D01*
X148996838Y-39467388D01*
X148996836Y-39467389D01*
X148772072Y-39560489D01*
X148772068Y-39560491D01*
X148767498Y-39562384D01*
X148551624Y-39694672D01*
X148359102Y-39859102D01*
X148194672Y-40051624D01*
X148062384Y-40267498D01*
X148060491Y-40272068D01*
X148060489Y-40272072D01*
X148006135Y-40403295D01*
X147965495Y-40501409D01*
X147906391Y-40747597D01*
X147886526Y-41000000D01*
X145358500Y-41000000D01*
X145358500Y-40601866D01*
X145351745Y-40539684D01*
X145300615Y-40403295D01*
X145213261Y-40286739D01*
X145096705Y-40199385D01*
X144960316Y-40148255D01*
X144898134Y-40141500D01*
X143101866Y-40141500D01*
X143039684Y-40148255D01*
X142903295Y-40199385D01*
X142786739Y-40286739D01*
X142699385Y-40403295D01*
X142648255Y-40539684D01*
X142641500Y-40601866D01*
X142641500Y-42398134D01*
X142648255Y-42460316D01*
X142699385Y-42596705D01*
X142786739Y-42713261D01*
X142903295Y-42800615D01*
X142911704Y-42803767D01*
X142911705Y-42803768D01*
X143020451Y-42844535D01*
X143077216Y-42887176D01*
X143101916Y-42953738D01*
X143086709Y-43023087D01*
X143067316Y-43049568D01*
X142940629Y-43182138D01*
X142937715Y-43186410D01*
X142937714Y-43186411D01*
X142924639Y-43205579D01*
X142814743Y-43366680D01*
X142720688Y-43569305D01*
X142660989Y-43784570D01*
X142637251Y-44006695D01*
X142637548Y-44011848D01*
X142637548Y-44011851D01*
X142649812Y-44224547D01*
X142650110Y-44229715D01*
X142651247Y-44234761D01*
X142651248Y-44234767D01*
X142667375Y-44306326D01*
X142699222Y-44447639D01*
X142735453Y-44536865D01*
X142775629Y-44635807D01*
X142783266Y-44654616D01*
X142785965Y-44659020D01*
X142885236Y-44821016D01*
X142899987Y-44845088D01*
X143046250Y-45013938D01*
X143218126Y-45156632D01*
X143288595Y-45197811D01*
X143291445Y-45199476D01*
X143340169Y-45251114D01*
X143353240Y-45320897D01*
X143326509Y-45386669D01*
X143286055Y-45420027D01*
X143273607Y-45426507D01*
X143269474Y-45429610D01*
X143269471Y-45429612D01*
X143100107Y-45556774D01*
X143094965Y-45560635D01*
X143091393Y-45564373D01*
X142987691Y-45672891D01*
X142940629Y-45722138D01*
X142937715Y-45726410D01*
X142937714Y-45726411D01*
X142852556Y-45851249D01*
X142814743Y-45906680D01*
X142720688Y-46109305D01*
X142660989Y-46324570D01*
X142637251Y-46546695D01*
X142650110Y-46769715D01*
X142651247Y-46774761D01*
X142651248Y-46774767D01*
X142660901Y-46817599D01*
X142699222Y-46987639D01*
X142783266Y-47194616D01*
X142785965Y-47199020D01*
X142890158Y-47369048D01*
X142899987Y-47385088D01*
X143046250Y-47553938D01*
X143218126Y-47696632D01*
X143288595Y-47737811D01*
X143291445Y-47739476D01*
X143340169Y-47791114D01*
X143353240Y-47860897D01*
X143326509Y-47926669D01*
X143286055Y-47960027D01*
X143278846Y-47963780D01*
X143273607Y-47966507D01*
X143269474Y-47969610D01*
X143269471Y-47969612D01*
X143099100Y-48097530D01*
X143094965Y-48100635D01*
X143050967Y-48146676D01*
X142985216Y-48215481D01*
X142940629Y-48262138D01*
X142814743Y-48446680D01*
X142720688Y-48649305D01*
X142660989Y-48864570D01*
X142637251Y-49086695D01*
X142650110Y-49309715D01*
X142651247Y-49314761D01*
X142651248Y-49314767D01*
X142672275Y-49408069D01*
X142699222Y-49527639D01*
X142746744Y-49644672D01*
X142765759Y-49691500D01*
X142783266Y-49734616D01*
X142899987Y-49925088D01*
X143046250Y-50093938D01*
X143218126Y-50236632D01*
X143288595Y-50277811D01*
X143291445Y-50279476D01*
X143340169Y-50331114D01*
X143353240Y-50400897D01*
X143326509Y-50466669D01*
X143286055Y-50500027D01*
X143273607Y-50506507D01*
X143269474Y-50509610D01*
X143269471Y-50509612D01*
X143106371Y-50632071D01*
X143094965Y-50640635D01*
X143091393Y-50644373D01*
X142981554Y-50759313D01*
X142940629Y-50802138D01*
X142937715Y-50806410D01*
X142937714Y-50806411D01*
X142880207Y-50890713D01*
X142814743Y-50986680D01*
X142720688Y-51189305D01*
X142660989Y-51404570D01*
X142637251Y-51626695D01*
X142637548Y-51631848D01*
X142637548Y-51631851D01*
X142644844Y-51758385D01*
X142650110Y-51849715D01*
X142651247Y-51854761D01*
X142651248Y-51854767D01*
X142655318Y-51872825D01*
X142699222Y-52067639D01*
X142783266Y-52274616D01*
X142785965Y-52279020D01*
X142881636Y-52435141D01*
X142899987Y-52465088D01*
X143046250Y-52633938D01*
X143218126Y-52776632D01*
X143288595Y-52817811D01*
X143291445Y-52819476D01*
X143340169Y-52871114D01*
X143353240Y-52940897D01*
X143326509Y-53006669D01*
X143286055Y-53040027D01*
X143273607Y-53046507D01*
X143269474Y-53049610D01*
X143269471Y-53049612D01*
X143118105Y-53163261D01*
X143094965Y-53180635D01*
X142940629Y-53342138D01*
X142814743Y-53526680D01*
X142812564Y-53531375D01*
X142760001Y-53644613D01*
X142720688Y-53729305D01*
X142660989Y-53944570D01*
X142637251Y-54166695D01*
X142637548Y-54171848D01*
X142637548Y-54171851D01*
X142643011Y-54266590D01*
X142650110Y-54389715D01*
X142651247Y-54394761D01*
X142651248Y-54394767D01*
X142672275Y-54488069D01*
X142699222Y-54607639D01*
X142783266Y-54814616D01*
X142899987Y-55005088D01*
X142903367Y-55008990D01*
X142914352Y-55021671D01*
X143046250Y-55173938D01*
X143218126Y-55316632D01*
X143288595Y-55357811D01*
X143291445Y-55359476D01*
X143340169Y-55411114D01*
X143353240Y-55480897D01*
X143326509Y-55546669D01*
X143286055Y-55580027D01*
X143273607Y-55586507D01*
X143269474Y-55589610D01*
X143269471Y-55589612D01*
X143164093Y-55668732D01*
X143094965Y-55720635D01*
X142940629Y-55882138D01*
X142937715Y-55886410D01*
X142937714Y-55886411D01*
X142898489Y-55943913D01*
X142814743Y-56066680D01*
X142720688Y-56269305D01*
X142660989Y-56484570D01*
X142637251Y-56706695D01*
X142637548Y-56711848D01*
X142637548Y-56711851D01*
X142649812Y-56924547D01*
X142650110Y-56929715D01*
X142651247Y-56934761D01*
X142651248Y-56934767D01*
X142662262Y-56983636D01*
X142699222Y-57147639D01*
X142751194Y-57275632D01*
X142774490Y-57333002D01*
X142783266Y-57354616D01*
X142785965Y-57359020D01*
X142868579Y-57493834D01*
X142899987Y-57545088D01*
X143046250Y-57713938D01*
X143218126Y-57856632D01*
X143288595Y-57897811D01*
X143291445Y-57899476D01*
X143340169Y-57951114D01*
X143353240Y-58020897D01*
X143326509Y-58086669D01*
X143286055Y-58120027D01*
X143273607Y-58126507D01*
X143269474Y-58129610D01*
X143269471Y-58129612D01*
X143113113Y-58247009D01*
X143094965Y-58260635D01*
X143071315Y-58285383D01*
X142987391Y-58373205D01*
X142940629Y-58422138D01*
X142937715Y-58426410D01*
X142937714Y-58426411D01*
X142852556Y-58551249D01*
X142814743Y-58606680D01*
X142720688Y-58809305D01*
X142660989Y-59024570D01*
X142637251Y-59246695D01*
X142637548Y-59251848D01*
X142637548Y-59251851D01*
X142649108Y-59452332D01*
X142650110Y-59469715D01*
X142651247Y-59474761D01*
X142651248Y-59474767D01*
X142670448Y-59559962D01*
X142699222Y-59687639D01*
X142783266Y-59894616D01*
X142899987Y-60085088D01*
X143046250Y-60253938D01*
X143218126Y-60396632D01*
X143288595Y-60437811D01*
X143291445Y-60439476D01*
X143340169Y-60491114D01*
X143353240Y-60560897D01*
X143326509Y-60626669D01*
X143286055Y-60660027D01*
X143273607Y-60666507D01*
X143269474Y-60669610D01*
X143269471Y-60669612D01*
X143099100Y-60797530D01*
X143094965Y-60800635D01*
X143091393Y-60804373D01*
X142990082Y-60910389D01*
X142940629Y-60962138D01*
X142937715Y-60966410D01*
X142937714Y-60966411D01*
X142857401Y-61084145D01*
X142814743Y-61146680D01*
X142800926Y-61176446D01*
X142732634Y-61323570D01*
X142720688Y-61349305D01*
X142660989Y-61564570D01*
X142637251Y-61786695D01*
X142650110Y-62009715D01*
X142651247Y-62014761D01*
X142651248Y-62014767D01*
X142660849Y-62057368D01*
X142699222Y-62227639D01*
X142760673Y-62378976D01*
X142770053Y-62402075D01*
X142783266Y-62434616D01*
X142785965Y-62439020D01*
X142889823Y-62608501D01*
X142899987Y-62625088D01*
X143046250Y-62793938D01*
X143218126Y-62936632D01*
X143291955Y-62979774D01*
X143340679Y-63031412D01*
X143353750Y-63101195D01*
X143327019Y-63166967D01*
X143286562Y-63200327D01*
X143278457Y-63204546D01*
X143269738Y-63210036D01*
X143099433Y-63337905D01*
X143091726Y-63344748D01*
X142944590Y-63498717D01*
X142938104Y-63506727D01*
X142818098Y-63682649D01*
X142813000Y-63691623D01*
X142723338Y-63884783D01*
X142719775Y-63894470D01*
X142664389Y-64094183D01*
X142665912Y-64102607D01*
X142678292Y-64106000D01*
X144128000Y-64106000D01*
X144196121Y-64126002D01*
X144242614Y-64179658D01*
X144254000Y-64232000D01*
X144254000Y-64488000D01*
X144233998Y-64556121D01*
X144180342Y-64602614D01*
X144128000Y-64614000D01*
X142683225Y-64614000D01*
X142669694Y-64617973D01*
X142668257Y-64627966D01*
X142698565Y-64762446D01*
X142701645Y-64772275D01*
X142781770Y-64969603D01*
X142786413Y-64978794D01*
X142897694Y-65160388D01*
X142903777Y-65168699D01*
X143043213Y-65329667D01*
X143050580Y-65336883D01*
X143214434Y-65472916D01*
X143222881Y-65478831D01*
X143291969Y-65519203D01*
X143340693Y-65570842D01*
X143353764Y-65640625D01*
X143327033Y-65706396D01*
X143286584Y-65739752D01*
X143273607Y-65746507D01*
X143269474Y-65749610D01*
X143269471Y-65749612D01*
X143099100Y-65877530D01*
X143094965Y-65880635D01*
X142940629Y-66042138D01*
X142937715Y-66046410D01*
X142937714Y-66046411D01*
X142875869Y-66137072D01*
X142814743Y-66226680D01*
X142795000Y-66269213D01*
X142729831Y-66409609D01*
X142720688Y-66429305D01*
X142660989Y-66644570D01*
X142637251Y-66866695D01*
X142008500Y-66866695D01*
X142008500Y-39053250D01*
X142010246Y-39032345D01*
X142012770Y-39017344D01*
X142012770Y-39017341D01*
X142013576Y-39012552D01*
X142013729Y-39000000D01*
X142013040Y-38995188D01*
X142012723Y-38990327D01*
X142013008Y-38990308D01*
X142012607Y-38963549D01*
X142019234Y-38904736D01*
X142025513Y-38877229D01*
X142052485Y-38800147D01*
X142064727Y-38774726D01*
X142108178Y-38705574D01*
X142125770Y-38683515D01*
X142183515Y-38625770D01*
X142205574Y-38608178D01*
X142274726Y-38564727D01*
X142300147Y-38552485D01*
X142377228Y-38525513D01*
X142404736Y-38519234D01*
X142460226Y-38512982D01*
X142475868Y-38513077D01*
X142475879Y-38512200D01*
X142484851Y-38512310D01*
X142493724Y-38513691D01*
X142502626Y-38512527D01*
X142502628Y-38512527D01*
X142517951Y-38510523D01*
X142525286Y-38509564D01*
X142541621Y-38508500D01*
X171450633Y-38508500D01*
X171470018Y-38510000D01*
G37*
%TD.AperFunction*%
%TD*%
M02*
