%TF.GenerationSoftware,KiCad,Pcbnew,(6.0.6)*%
%TF.CreationDate,2022-06-27T18:20:24+02:00*%
%TF.ProjectId,tmc2208-breakout,746d6332-3230-4382-9d62-7265616b6f75,rev?*%
%TF.SameCoordinates,Original*%
%TF.FileFunction,Other,Comment*%
%FSLAX46Y46*%
G04 Gerber Fmt 4.6, Leading zero omitted, Abs format (unit mm)*
G04 Created by KiCad (PCBNEW (6.0.6)) date 2022-06-27 18:20:24*
%MOMM*%
%LPD*%
G01*
G04 APERTURE LIST*
%ADD10C,0.002000*%
%ADD11C,0.150000*%
%ADD12C,0.100000*%
G04 APERTURE END LIST*
D10*
%TO.C,U1*%
X154354166Y-61045357D02*
X154348119Y-61051404D01*
X154329976Y-61057452D01*
X154317880Y-61057452D01*
X154299738Y-61051404D01*
X154287642Y-61039309D01*
X154281595Y-61027214D01*
X154275547Y-61003023D01*
X154275547Y-60984880D01*
X154281595Y-60960690D01*
X154287642Y-60948595D01*
X154299738Y-60936500D01*
X154317880Y-60930452D01*
X154329976Y-60930452D01*
X154348119Y-60936500D01*
X154354166Y-60942547D01*
X154426738Y-61057452D02*
X154414642Y-61051404D01*
X154408595Y-61045357D01*
X154402547Y-61033261D01*
X154402547Y-60996976D01*
X154408595Y-60984880D01*
X154414642Y-60978833D01*
X154426738Y-60972785D01*
X154444880Y-60972785D01*
X154456976Y-60978833D01*
X154463023Y-60984880D01*
X154469071Y-60996976D01*
X154469071Y-61033261D01*
X154463023Y-61045357D01*
X154456976Y-61051404D01*
X154444880Y-61057452D01*
X154426738Y-61057452D01*
X154523500Y-60972785D02*
X154523500Y-61099785D01*
X154523500Y-60978833D02*
X154535595Y-60972785D01*
X154559785Y-60972785D01*
X154571880Y-60978833D01*
X154577928Y-60984880D01*
X154583976Y-60996976D01*
X154583976Y-61033261D01*
X154577928Y-61045357D01*
X154571880Y-61051404D01*
X154559785Y-61057452D01*
X154535595Y-61057452D01*
X154523500Y-61051404D01*
X154626309Y-60972785D02*
X154656547Y-61057452D01*
X154686785Y-60972785D02*
X154656547Y-61057452D01*
X154644452Y-61087690D01*
X154638404Y-61093738D01*
X154626309Y-61099785D01*
X154735166Y-61057452D02*
X154735166Y-60972785D01*
X154735166Y-60996976D02*
X154741214Y-60984880D01*
X154747261Y-60978833D01*
X154759357Y-60972785D01*
X154771452Y-60972785D01*
X154813785Y-61057452D02*
X154813785Y-60972785D01*
X154813785Y-60930452D02*
X154807738Y-60936500D01*
X154813785Y-60942547D01*
X154819833Y-60936500D01*
X154813785Y-60930452D01*
X154813785Y-60942547D01*
X154928690Y-60972785D02*
X154928690Y-61075595D01*
X154922642Y-61087690D01*
X154916595Y-61093738D01*
X154904500Y-61099785D01*
X154886357Y-61099785D01*
X154874261Y-61093738D01*
X154928690Y-61051404D02*
X154916595Y-61057452D01*
X154892404Y-61057452D01*
X154880309Y-61051404D01*
X154874261Y-61045357D01*
X154868214Y-61033261D01*
X154868214Y-60996976D01*
X154874261Y-60984880D01*
X154880309Y-60978833D01*
X154892404Y-60972785D01*
X154916595Y-60972785D01*
X154928690Y-60978833D01*
X154989166Y-61057452D02*
X154989166Y-60930452D01*
X155043595Y-61057452D02*
X155043595Y-60990928D01*
X155037547Y-60978833D01*
X155025452Y-60972785D01*
X155007309Y-60972785D01*
X154995214Y-60978833D01*
X154989166Y-60984880D01*
X155085928Y-60972785D02*
X155134309Y-60972785D01*
X155104071Y-60930452D02*
X155104071Y-61039309D01*
X155110119Y-61051404D01*
X155122214Y-61057452D01*
X155134309Y-61057452D01*
X155267357Y-60942547D02*
X155273404Y-60936500D01*
X155285500Y-60930452D01*
X155315738Y-60930452D01*
X155327833Y-60936500D01*
X155333880Y-60942547D01*
X155339928Y-60954642D01*
X155339928Y-60966738D01*
X155333880Y-60984880D01*
X155261309Y-61057452D01*
X155339928Y-61057452D01*
X155418547Y-60930452D02*
X155430642Y-60930452D01*
X155442738Y-60936500D01*
X155448785Y-60942547D01*
X155454833Y-60954642D01*
X155460880Y-60978833D01*
X155460880Y-61009071D01*
X155454833Y-61033261D01*
X155448785Y-61045357D01*
X155442738Y-61051404D01*
X155430642Y-61057452D01*
X155418547Y-61057452D01*
X155406452Y-61051404D01*
X155400404Y-61045357D01*
X155394357Y-61033261D01*
X155388309Y-61009071D01*
X155388309Y-60978833D01*
X155394357Y-60954642D01*
X155400404Y-60942547D01*
X155406452Y-60936500D01*
X155418547Y-60930452D01*
X155509261Y-60942547D02*
X155515309Y-60936500D01*
X155527404Y-60930452D01*
X155557642Y-60930452D01*
X155569738Y-60936500D01*
X155575785Y-60942547D01*
X155581833Y-60954642D01*
X155581833Y-60966738D01*
X155575785Y-60984880D01*
X155503214Y-61057452D01*
X155581833Y-61057452D01*
X155702785Y-61057452D02*
X155630214Y-61057452D01*
X155666500Y-61057452D02*
X155666500Y-60930452D01*
X155654404Y-60948595D01*
X155642309Y-60960690D01*
X155630214Y-60966738D01*
X155847928Y-61021166D02*
X155908404Y-61021166D01*
X155835833Y-61057452D02*
X155878166Y-60930452D01*
X155920500Y-61057452D01*
X156017261Y-61051404D02*
X156005166Y-61057452D01*
X155980976Y-61057452D01*
X155968880Y-61051404D01*
X155962833Y-61045357D01*
X155956785Y-61033261D01*
X155956785Y-60996976D01*
X155962833Y-60984880D01*
X155968880Y-60978833D01*
X155980976Y-60972785D01*
X156005166Y-60972785D01*
X156017261Y-60978833D01*
X156126119Y-61051404D02*
X156114023Y-61057452D01*
X156089833Y-61057452D01*
X156077738Y-61051404D01*
X156071690Y-61045357D01*
X156065642Y-61033261D01*
X156065642Y-60996976D01*
X156071690Y-60984880D01*
X156077738Y-60978833D01*
X156089833Y-60972785D01*
X156114023Y-60972785D01*
X156126119Y-60978833D01*
X156228928Y-61051404D02*
X156216833Y-61057452D01*
X156192642Y-61057452D01*
X156180547Y-61051404D01*
X156174500Y-61039309D01*
X156174500Y-60990928D01*
X156180547Y-60978833D01*
X156192642Y-60972785D01*
X156216833Y-60972785D01*
X156228928Y-60978833D01*
X156234976Y-60990928D01*
X156234976Y-61003023D01*
X156174500Y-61015119D01*
X156307547Y-61057452D02*
X156295452Y-61051404D01*
X156289404Y-61039309D01*
X156289404Y-60930452D01*
X156404309Y-61051404D02*
X156392214Y-61057452D01*
X156368023Y-61057452D01*
X156355928Y-61051404D01*
X156349880Y-61039309D01*
X156349880Y-60990928D01*
X156355928Y-60978833D01*
X156368023Y-60972785D01*
X156392214Y-60972785D01*
X156404309Y-60978833D01*
X156410357Y-60990928D01*
X156410357Y-61003023D01*
X156349880Y-61015119D01*
X156464785Y-61057452D02*
X156464785Y-60972785D01*
X156464785Y-60996976D02*
X156470833Y-60984880D01*
X156476880Y-60978833D01*
X156488976Y-60972785D01*
X156501071Y-60972785D01*
X156597833Y-61057452D02*
X156597833Y-60990928D01*
X156591785Y-60978833D01*
X156579690Y-60972785D01*
X156555500Y-60972785D01*
X156543404Y-60978833D01*
X156597833Y-61051404D02*
X156585738Y-61057452D01*
X156555500Y-61057452D01*
X156543404Y-61051404D01*
X156537357Y-61039309D01*
X156537357Y-61027214D01*
X156543404Y-61015119D01*
X156555500Y-61009071D01*
X156585738Y-61009071D01*
X156597833Y-61003023D01*
X156640166Y-60972785D02*
X156688547Y-60972785D01*
X156658309Y-60930452D02*
X156658309Y-61039309D01*
X156664357Y-61051404D01*
X156676452Y-61057452D01*
X156688547Y-61057452D01*
X156779261Y-61051404D02*
X156767166Y-61057452D01*
X156742976Y-61057452D01*
X156730880Y-61051404D01*
X156724833Y-61039309D01*
X156724833Y-60990928D01*
X156730880Y-60978833D01*
X156742976Y-60972785D01*
X156767166Y-60972785D01*
X156779261Y-60978833D01*
X156785309Y-60990928D01*
X156785309Y-61003023D01*
X156724833Y-61015119D01*
X156894166Y-61057452D02*
X156894166Y-60930452D01*
X156894166Y-61051404D02*
X156882071Y-61057452D01*
X156857880Y-61057452D01*
X156845785Y-61051404D01*
X156839738Y-61045357D01*
X156833690Y-61033261D01*
X156833690Y-60996976D01*
X156839738Y-60984880D01*
X156845785Y-60978833D01*
X156857880Y-60972785D01*
X156882071Y-60972785D01*
X156894166Y-60978833D01*
X157051404Y-61057452D02*
X157051404Y-60930452D01*
X157081642Y-60930452D01*
X157099785Y-60936500D01*
X157111880Y-60948595D01*
X157117928Y-60960690D01*
X157123976Y-60984880D01*
X157123976Y-61003023D01*
X157117928Y-61027214D01*
X157111880Y-61039309D01*
X157099785Y-61051404D01*
X157081642Y-61057452D01*
X157051404Y-61057452D01*
X157226785Y-61051404D02*
X157214690Y-61057452D01*
X157190500Y-61057452D01*
X157178404Y-61051404D01*
X157172357Y-61039309D01*
X157172357Y-60990928D01*
X157178404Y-60978833D01*
X157190500Y-60972785D01*
X157214690Y-60972785D01*
X157226785Y-60978833D01*
X157232833Y-60990928D01*
X157232833Y-61003023D01*
X157172357Y-61015119D01*
X157281214Y-61051404D02*
X157293309Y-61057452D01*
X157317500Y-61057452D01*
X157329595Y-61051404D01*
X157335642Y-61039309D01*
X157335642Y-61033261D01*
X157329595Y-61021166D01*
X157317500Y-61015119D01*
X157299357Y-61015119D01*
X157287261Y-61009071D01*
X157281214Y-60996976D01*
X157281214Y-60990928D01*
X157287261Y-60978833D01*
X157299357Y-60972785D01*
X157317500Y-60972785D01*
X157329595Y-60978833D01*
X157390071Y-61057452D02*
X157390071Y-60972785D01*
X157390071Y-60930452D02*
X157384023Y-60936500D01*
X157390071Y-60942547D01*
X157396119Y-60936500D01*
X157390071Y-60930452D01*
X157390071Y-60942547D01*
X157504976Y-60972785D02*
X157504976Y-61075595D01*
X157498928Y-61087690D01*
X157492880Y-61093738D01*
X157480785Y-61099785D01*
X157462642Y-61099785D01*
X157450547Y-61093738D01*
X157504976Y-61051404D02*
X157492880Y-61057452D01*
X157468690Y-61057452D01*
X157456595Y-61051404D01*
X157450547Y-61045357D01*
X157444500Y-61033261D01*
X157444500Y-60996976D01*
X157450547Y-60984880D01*
X157456595Y-60978833D01*
X157468690Y-60972785D01*
X157492880Y-60972785D01*
X157504976Y-60978833D01*
X157565452Y-60972785D02*
X157565452Y-61057452D01*
X157565452Y-60984880D02*
X157571500Y-60978833D01*
X157583595Y-60972785D01*
X157601738Y-60972785D01*
X157613833Y-60978833D01*
X157619880Y-60990928D01*
X157619880Y-61057452D01*
X157674309Y-61051404D02*
X157686404Y-61057452D01*
X157710595Y-61057452D01*
X157722690Y-61051404D01*
X157728738Y-61039309D01*
X157728738Y-61033261D01*
X157722690Y-61021166D01*
X157710595Y-61015119D01*
X157692452Y-61015119D01*
X157680357Y-61009071D01*
X157674309Y-60996976D01*
X157674309Y-60990928D01*
X157680357Y-60978833D01*
X157692452Y-60972785D01*
X157710595Y-60972785D01*
X157722690Y-60978833D01*
X157783166Y-61045357D02*
X157789214Y-61051404D01*
X157783166Y-61057452D01*
X157777119Y-61051404D01*
X157783166Y-61045357D01*
X157783166Y-61057452D01*
X157934357Y-61021166D02*
X157994833Y-61021166D01*
X157922261Y-61057452D02*
X157964595Y-60930452D01*
X158006928Y-61057452D01*
X158067404Y-61057452D02*
X158055309Y-61051404D01*
X158049261Y-61039309D01*
X158049261Y-60930452D01*
X158133928Y-61057452D02*
X158121833Y-61051404D01*
X158115785Y-61039309D01*
X158115785Y-60930452D01*
X158279071Y-61057452D02*
X158279071Y-60972785D01*
X158279071Y-60996976D02*
X158285119Y-60984880D01*
X158291166Y-60978833D01*
X158303261Y-60972785D01*
X158315357Y-60972785D01*
X158357690Y-61057452D02*
X158357690Y-60972785D01*
X158357690Y-60930452D02*
X158351642Y-60936500D01*
X158357690Y-60942547D01*
X158363738Y-60936500D01*
X158357690Y-60930452D01*
X158357690Y-60942547D01*
X158472595Y-60972785D02*
X158472595Y-61075595D01*
X158466547Y-61087690D01*
X158460500Y-61093738D01*
X158448404Y-61099785D01*
X158430261Y-61099785D01*
X158418166Y-61093738D01*
X158472595Y-61051404D02*
X158460500Y-61057452D01*
X158436309Y-61057452D01*
X158424214Y-61051404D01*
X158418166Y-61045357D01*
X158412119Y-61033261D01*
X158412119Y-60996976D01*
X158418166Y-60984880D01*
X158424214Y-60978833D01*
X158436309Y-60972785D01*
X158460500Y-60972785D01*
X158472595Y-60978833D01*
X158533071Y-61057452D02*
X158533071Y-60930452D01*
X158587500Y-61057452D02*
X158587500Y-60990928D01*
X158581452Y-60978833D01*
X158569357Y-60972785D01*
X158551214Y-60972785D01*
X158539119Y-60978833D01*
X158533071Y-60984880D01*
X158629833Y-60972785D02*
X158678214Y-60972785D01*
X158647976Y-60930452D02*
X158647976Y-61039309D01*
X158654023Y-61051404D01*
X158666119Y-61057452D01*
X158678214Y-61057452D01*
X158714500Y-61051404D02*
X158726595Y-61057452D01*
X158750785Y-61057452D01*
X158762880Y-61051404D01*
X158768928Y-61039309D01*
X158768928Y-61033261D01*
X158762880Y-61021166D01*
X158750785Y-61015119D01*
X158732642Y-61015119D01*
X158720547Y-61009071D01*
X158714500Y-60996976D01*
X158714500Y-60990928D01*
X158720547Y-60978833D01*
X158732642Y-60972785D01*
X158750785Y-60972785D01*
X158762880Y-60978833D01*
X158920119Y-61057452D02*
X158920119Y-60972785D01*
X158920119Y-60996976D02*
X158926166Y-60984880D01*
X158932214Y-60978833D01*
X158944309Y-60972785D01*
X158956404Y-60972785D01*
X159047119Y-61051404D02*
X159035023Y-61057452D01*
X159010833Y-61057452D01*
X158998738Y-61051404D01*
X158992690Y-61039309D01*
X158992690Y-60990928D01*
X158998738Y-60978833D01*
X159010833Y-60972785D01*
X159035023Y-60972785D01*
X159047119Y-60978833D01*
X159053166Y-60990928D01*
X159053166Y-61003023D01*
X158992690Y-61015119D01*
X159101547Y-61051404D02*
X159113642Y-61057452D01*
X159137833Y-61057452D01*
X159149928Y-61051404D01*
X159155976Y-61039309D01*
X159155976Y-61033261D01*
X159149928Y-61021166D01*
X159137833Y-61015119D01*
X159119690Y-61015119D01*
X159107595Y-61009071D01*
X159101547Y-60996976D01*
X159101547Y-60990928D01*
X159107595Y-60978833D01*
X159119690Y-60972785D01*
X159137833Y-60972785D01*
X159149928Y-60978833D01*
X159258785Y-61051404D02*
X159246690Y-61057452D01*
X159222500Y-61057452D01*
X159210404Y-61051404D01*
X159204357Y-61039309D01*
X159204357Y-60990928D01*
X159210404Y-60978833D01*
X159222500Y-60972785D01*
X159246690Y-60972785D01*
X159258785Y-60978833D01*
X159264833Y-60990928D01*
X159264833Y-61003023D01*
X159204357Y-61015119D01*
X159319261Y-61057452D02*
X159319261Y-60972785D01*
X159319261Y-60996976D02*
X159325309Y-60984880D01*
X159331357Y-60978833D01*
X159343452Y-60972785D01*
X159355547Y-60972785D01*
X159385785Y-60972785D02*
X159416023Y-61057452D01*
X159446261Y-60972785D01*
X159543023Y-61051404D02*
X159530928Y-61057452D01*
X159506738Y-61057452D01*
X159494642Y-61051404D01*
X159488595Y-61039309D01*
X159488595Y-60990928D01*
X159494642Y-60978833D01*
X159506738Y-60972785D01*
X159530928Y-60972785D01*
X159543023Y-60978833D01*
X159549071Y-60990928D01*
X159549071Y-61003023D01*
X159488595Y-61015119D01*
X159657928Y-61057452D02*
X159657928Y-60930452D01*
X159657928Y-61051404D02*
X159645833Y-61057452D01*
X159621642Y-61057452D01*
X159609547Y-61051404D01*
X159603500Y-61045357D01*
X159597452Y-61033261D01*
X159597452Y-60996976D01*
X159603500Y-60984880D01*
X159609547Y-60978833D01*
X159621642Y-60972785D01*
X159645833Y-60972785D01*
X159657928Y-60978833D01*
X159718404Y-61045357D02*
X159724452Y-61051404D01*
X159718404Y-61057452D01*
X159712357Y-61051404D01*
X159718404Y-61045357D01*
X159718404Y-61057452D01*
D11*
X153418528Y-55057280D02*
X153513766Y-55057280D01*
X153609004Y-55104900D01*
X153656623Y-55152519D01*
X153704242Y-55247757D01*
X153751861Y-55438233D01*
X153751861Y-55676328D01*
X153704242Y-55866804D01*
X153656623Y-55962042D01*
X153609004Y-56009661D01*
X153513766Y-56057280D01*
X153418528Y-56057280D01*
X153323290Y-56009661D01*
X153275671Y-55962042D01*
X153228052Y-55866804D01*
X153180433Y-55676328D01*
X153180433Y-55438233D01*
X153228052Y-55247757D01*
X153275671Y-55152519D01*
X153323290Y-55104900D01*
X153418528Y-55057280D01*
X154180433Y-55962042D02*
X154228052Y-56009661D01*
X154180433Y-56057280D01*
X154132814Y-56009661D01*
X154180433Y-55962042D01*
X154180433Y-56057280D01*
X154847100Y-55057280D02*
X154942338Y-55057280D01*
X155037576Y-55104900D01*
X155085195Y-55152519D01*
X155132814Y-55247757D01*
X155180433Y-55438233D01*
X155180433Y-55676328D01*
X155132814Y-55866804D01*
X155085195Y-55962042D01*
X155037576Y-56009661D01*
X154942338Y-56057280D01*
X154847100Y-56057280D01*
X154751861Y-56009661D01*
X154704242Y-55962042D01*
X154656623Y-55866804D01*
X154609004Y-55676328D01*
X154609004Y-55438233D01*
X154656623Y-55247757D01*
X154704242Y-55152519D01*
X154751861Y-55104900D01*
X154847100Y-55057280D01*
X155513766Y-55057280D02*
X156132814Y-55057280D01*
X155799480Y-55438233D01*
X155942338Y-55438233D01*
X156037576Y-55485852D01*
X156085195Y-55533471D01*
X156132814Y-55628709D01*
X156132814Y-55866804D01*
X156085195Y-55962042D01*
X156037576Y-56009661D01*
X155942338Y-56057280D01*
X155656623Y-56057280D01*
X155561385Y-56009661D01*
X155513766Y-55962042D01*
X156989957Y-55057280D02*
X156799480Y-55057280D01*
X156704242Y-55104900D01*
X156656623Y-55152519D01*
X156561385Y-55295376D01*
X156513766Y-55485852D01*
X156513766Y-55866804D01*
X156561385Y-55962042D01*
X156609004Y-56009661D01*
X156704242Y-56057280D01*
X156894719Y-56057280D01*
X156989957Y-56009661D01*
X157037576Y-55962042D01*
X157085195Y-55866804D01*
X157085195Y-55628709D01*
X157037576Y-55533471D01*
X156989957Y-55485852D01*
X156894719Y-55438233D01*
X156704242Y-55438233D01*
X156609004Y-55485852D01*
X156561385Y-55533471D01*
X156513766Y-55628709D01*
X157513766Y-56057280D02*
X157513766Y-55390614D01*
X157513766Y-55057280D02*
X157466147Y-55104900D01*
X157513766Y-55152519D01*
X157561385Y-55104900D01*
X157513766Y-55057280D01*
X157513766Y-55152519D01*
X157989957Y-55390614D02*
X157989957Y-56057280D01*
X157989957Y-55485852D02*
X158037576Y-55438233D01*
X158132814Y-55390614D01*
X158275671Y-55390614D01*
X158370909Y-55438233D01*
X158418528Y-55533471D01*
X158418528Y-56057280D01*
X159609004Y-55009661D02*
X158751861Y-56295376D01*
X160132814Y-55057280D02*
X160228052Y-55057280D01*
X160323290Y-55104900D01*
X160370909Y-55152519D01*
X160418528Y-55247757D01*
X160466147Y-55438233D01*
X160466147Y-55676328D01*
X160418528Y-55866804D01*
X160370909Y-55962042D01*
X160323290Y-56009661D01*
X160228052Y-56057280D01*
X160132814Y-56057280D01*
X160037576Y-56009661D01*
X159989957Y-55962042D01*
X159942338Y-55866804D01*
X159894719Y-55676328D01*
X159894719Y-55438233D01*
X159942338Y-55247757D01*
X159989957Y-55152519D01*
X160037576Y-55104900D01*
X160132814Y-55057280D01*
X160894719Y-55962042D02*
X160942338Y-56009661D01*
X160894719Y-56057280D01*
X160847100Y-56009661D01*
X160894719Y-55962042D01*
X160894719Y-56057280D01*
X161418528Y-56057280D02*
X161609004Y-56057280D01*
X161704242Y-56009661D01*
X161751861Y-55962042D01*
X161847100Y-55819185D01*
X161894719Y-55628709D01*
X161894719Y-55247757D01*
X161847100Y-55152519D01*
X161799480Y-55104900D01*
X161704242Y-55057280D01*
X161513766Y-55057280D01*
X161418528Y-55104900D01*
X161370909Y-55152519D01*
X161323290Y-55247757D01*
X161323290Y-55485852D01*
X161370909Y-55581090D01*
X161418528Y-55628709D01*
X161513766Y-55676328D01*
X161704242Y-55676328D01*
X161799480Y-55628709D01*
X161847100Y-55581090D01*
X161894719Y-55485852D01*
X162847100Y-56057280D02*
X162275671Y-56057280D01*
X162561385Y-56057280D02*
X162561385Y-55057280D01*
X162466147Y-55200138D01*
X162370909Y-55295376D01*
X162275671Y-55342995D01*
X163275671Y-56057280D02*
X163275671Y-55390614D01*
X163275671Y-55485852D02*
X163323290Y-55438233D01*
X163418528Y-55390614D01*
X163561385Y-55390614D01*
X163656623Y-55438233D01*
X163704242Y-55533471D01*
X163704242Y-56057280D01*
X163704242Y-55533471D02*
X163751861Y-55438233D01*
X163847100Y-55390614D01*
X163989957Y-55390614D01*
X164085195Y-55438233D01*
X164132814Y-55533471D01*
X164132814Y-56057280D01*
X164609004Y-56057280D02*
X164609004Y-55390614D01*
X164609004Y-55485852D02*
X164656623Y-55438233D01*
X164751861Y-55390614D01*
X164894719Y-55390614D01*
X164989957Y-55438233D01*
X165037576Y-55533471D01*
X165037576Y-56057280D01*
X165037576Y-55533471D02*
X165085195Y-55438233D01*
X165180433Y-55390614D01*
X165323290Y-55390614D01*
X165418528Y-55438233D01*
X165466147Y-55533471D01*
X165466147Y-56057280D01*
X160942937Y-60452380D02*
X161038175Y-60452380D01*
X161133413Y-60500000D01*
X161181032Y-60547619D01*
X161228651Y-60642857D01*
X161276270Y-60833333D01*
X161276270Y-61071428D01*
X161228651Y-61261904D01*
X161181032Y-61357142D01*
X161133413Y-61404761D01*
X161038175Y-61452380D01*
X160942937Y-61452380D01*
X160847699Y-61404761D01*
X160800079Y-61357142D01*
X160752460Y-61261904D01*
X160704841Y-61071428D01*
X160704841Y-60833333D01*
X160752460Y-60642857D01*
X160800079Y-60547619D01*
X160847699Y-60500000D01*
X160942937Y-60452380D01*
X161704841Y-61357142D02*
X161752460Y-61404761D01*
X161704841Y-61452380D01*
X161657222Y-61404761D01*
X161704841Y-61357142D01*
X161704841Y-61452380D01*
X162704841Y-61452380D02*
X162133413Y-61452380D01*
X162419127Y-61452380D02*
X162419127Y-60452380D01*
X162323889Y-60595238D01*
X162228651Y-60690476D01*
X162133413Y-60738095D01*
X163276270Y-60880952D02*
X163181032Y-60833333D01*
X163133413Y-60785714D01*
X163085794Y-60690476D01*
X163085794Y-60642857D01*
X163133413Y-60547619D01*
X163181032Y-60500000D01*
X163276270Y-60452380D01*
X163466746Y-60452380D01*
X163561984Y-60500000D01*
X163609603Y-60547619D01*
X163657222Y-60642857D01*
X163657222Y-60690476D01*
X163609603Y-60785714D01*
X163561984Y-60833333D01*
X163466746Y-60880952D01*
X163276270Y-60880952D01*
X163181032Y-60928571D01*
X163133413Y-60976190D01*
X163085794Y-61071428D01*
X163085794Y-61261904D01*
X163133413Y-61357142D01*
X163181032Y-61404761D01*
X163276270Y-61452380D01*
X163466746Y-61452380D01*
X163561984Y-61404761D01*
X163609603Y-61357142D01*
X163657222Y-61261904D01*
X163657222Y-61071428D01*
X163609603Y-60976190D01*
X163561984Y-60928571D01*
X163466746Y-60880952D01*
X164561984Y-60452380D02*
X164085794Y-60452380D01*
X164038175Y-60928571D01*
X164085794Y-60880952D01*
X164181032Y-60833333D01*
X164419127Y-60833333D01*
X164514365Y-60880952D01*
X164561984Y-60928571D01*
X164609603Y-61023809D01*
X164609603Y-61261904D01*
X164561984Y-61357142D01*
X164514365Y-61404761D01*
X164419127Y-61452380D01*
X164181032Y-61452380D01*
X164085794Y-61404761D01*
X164038175Y-61357142D01*
X165038175Y-61452380D02*
X165038175Y-60785714D01*
X165038175Y-60452380D02*
X164990556Y-60500000D01*
X165038175Y-60547619D01*
X165085794Y-60500000D01*
X165038175Y-60452380D01*
X165038175Y-60547619D01*
X165514365Y-60785714D02*
X165514365Y-61452380D01*
X165514365Y-60880952D02*
X165561984Y-60833333D01*
X165657222Y-60785714D01*
X165800079Y-60785714D01*
X165895318Y-60833333D01*
X165942937Y-60928571D01*
X165942937Y-61452380D01*
X167133413Y-60404761D02*
X166276270Y-61690476D01*
X167895318Y-60785714D02*
X167895318Y-61452380D01*
X167657222Y-60404761D02*
X167419127Y-61119047D01*
X168038175Y-61119047D01*
X168419127Y-61357142D02*
X168466746Y-61404761D01*
X168419127Y-61452380D01*
X168371508Y-61404761D01*
X168419127Y-61357142D01*
X168419127Y-61452380D01*
X169323889Y-60452380D02*
X169133413Y-60452380D01*
X169038175Y-60500000D01*
X168990556Y-60547619D01*
X168895318Y-60690476D01*
X168847699Y-60880952D01*
X168847699Y-61261904D01*
X168895318Y-61357142D01*
X168942937Y-61404761D01*
X169038175Y-61452380D01*
X169228651Y-61452380D01*
X169323889Y-61404761D01*
X169371508Y-61357142D01*
X169419127Y-61261904D01*
X169419127Y-61023809D01*
X169371508Y-60928571D01*
X169323889Y-60880952D01*
X169228651Y-60833333D01*
X169038175Y-60833333D01*
X168942937Y-60880952D01*
X168895318Y-60928571D01*
X168847699Y-61023809D01*
X169895318Y-61452380D02*
X170085794Y-61452380D01*
X170181032Y-61404761D01*
X170228651Y-61357142D01*
X170323889Y-61214285D01*
X170371508Y-61023809D01*
X170371508Y-60642857D01*
X170323889Y-60547619D01*
X170276270Y-60500000D01*
X170181032Y-60452380D01*
X169990556Y-60452380D01*
X169895318Y-60500000D01*
X169847699Y-60547619D01*
X169800079Y-60642857D01*
X169800079Y-60880952D01*
X169847699Y-60976190D01*
X169895318Y-61023809D01*
X169990556Y-61071428D01*
X170181032Y-61071428D01*
X170276270Y-61023809D01*
X170323889Y-60976190D01*
X170371508Y-60880952D01*
X171228651Y-60785714D02*
X171228651Y-61452380D01*
X170990556Y-60404761D02*
X170752460Y-61119047D01*
X171371508Y-61119047D01*
X171752460Y-61452380D02*
X171752460Y-60785714D01*
X171752460Y-60880952D02*
X171800079Y-60833333D01*
X171895318Y-60785714D01*
X172038175Y-60785714D01*
X172133413Y-60833333D01*
X172181032Y-60928571D01*
X172181032Y-61452380D01*
X172181032Y-60928571D02*
X172228651Y-60833333D01*
X172323889Y-60785714D01*
X172466746Y-60785714D01*
X172561984Y-60833333D01*
X172609603Y-60928571D01*
X172609603Y-61452380D01*
X173085794Y-61452380D02*
X173085794Y-60785714D01*
X173085794Y-60880952D02*
X173133413Y-60833333D01*
X173228651Y-60785714D01*
X173371508Y-60785714D01*
X173466746Y-60833333D01*
X173514365Y-60928571D01*
X173514365Y-61452380D01*
X173514365Y-60928571D02*
X173561984Y-60833333D01*
X173657222Y-60785714D01*
X173800079Y-60785714D01*
X173895318Y-60833333D01*
X173942937Y-60928571D01*
X173942937Y-61452380D01*
X150595238Y-68514880D02*
X150690476Y-68514880D01*
X150785714Y-68562500D01*
X150833333Y-68610119D01*
X150880952Y-68705357D01*
X150928571Y-68895833D01*
X150928571Y-69133928D01*
X150880952Y-69324404D01*
X150833333Y-69419642D01*
X150785714Y-69467261D01*
X150690476Y-69514880D01*
X150595238Y-69514880D01*
X150500000Y-69467261D01*
X150452380Y-69419642D01*
X150404761Y-69324404D01*
X150357142Y-69133928D01*
X150357142Y-68895833D01*
X150404761Y-68705357D01*
X150452380Y-68610119D01*
X150500000Y-68562500D01*
X150595238Y-68514880D01*
X151357142Y-69419642D02*
X151404761Y-69467261D01*
X151357142Y-69514880D01*
X151309523Y-69467261D01*
X151357142Y-69419642D01*
X151357142Y-69514880D01*
X152357142Y-69514880D02*
X151785714Y-69514880D01*
X152071428Y-69514880D02*
X152071428Y-68514880D01*
X151976190Y-68657738D01*
X151880952Y-68752976D01*
X151785714Y-68800595D01*
X152928571Y-68943452D02*
X152833333Y-68895833D01*
X152785714Y-68848214D01*
X152738095Y-68752976D01*
X152738095Y-68705357D01*
X152785714Y-68610119D01*
X152833333Y-68562500D01*
X152928571Y-68514880D01*
X153119047Y-68514880D01*
X153214285Y-68562500D01*
X153261904Y-68610119D01*
X153309523Y-68705357D01*
X153309523Y-68752976D01*
X153261904Y-68848214D01*
X153214285Y-68895833D01*
X153119047Y-68943452D01*
X152928571Y-68943452D01*
X152833333Y-68991071D01*
X152785714Y-69038690D01*
X152738095Y-69133928D01*
X152738095Y-69324404D01*
X152785714Y-69419642D01*
X152833333Y-69467261D01*
X152928571Y-69514880D01*
X153119047Y-69514880D01*
X153214285Y-69467261D01*
X153261904Y-69419642D01*
X153309523Y-69324404D01*
X153309523Y-69133928D01*
X153261904Y-69038690D01*
X153214285Y-68991071D01*
X153119047Y-68943452D01*
X154214285Y-68514880D02*
X153738095Y-68514880D01*
X153690476Y-68991071D01*
X153738095Y-68943452D01*
X153833333Y-68895833D01*
X154071428Y-68895833D01*
X154166666Y-68943452D01*
X154214285Y-68991071D01*
X154261904Y-69086309D01*
X154261904Y-69324404D01*
X154214285Y-69419642D01*
X154166666Y-69467261D01*
X154071428Y-69514880D01*
X153833333Y-69514880D01*
X153738095Y-69467261D01*
X153690476Y-69419642D01*
X154690476Y-69514880D02*
X154690476Y-68848214D01*
X154690476Y-68514880D02*
X154642857Y-68562500D01*
X154690476Y-68610119D01*
X154738095Y-68562500D01*
X154690476Y-68514880D01*
X154690476Y-68610119D01*
X155166666Y-68848214D02*
X155166666Y-69514880D01*
X155166666Y-68943452D02*
X155214285Y-68895833D01*
X155309523Y-68848214D01*
X155452380Y-68848214D01*
X155547619Y-68895833D01*
X155595238Y-68991071D01*
X155595238Y-69514880D01*
X156785714Y-68467261D02*
X155928571Y-69752976D01*
X157547619Y-68848214D02*
X157547619Y-69514880D01*
X157309523Y-68467261D02*
X157071428Y-69181547D01*
X157690476Y-69181547D01*
X158071428Y-69419642D02*
X158119047Y-69467261D01*
X158071428Y-69514880D01*
X158023809Y-69467261D01*
X158071428Y-69419642D01*
X158071428Y-69514880D01*
X158976190Y-68514880D02*
X158785714Y-68514880D01*
X158690476Y-68562500D01*
X158642857Y-68610119D01*
X158547619Y-68752976D01*
X158500000Y-68943452D01*
X158500000Y-69324404D01*
X158547619Y-69419642D01*
X158595238Y-69467261D01*
X158690476Y-69514880D01*
X158880952Y-69514880D01*
X158976190Y-69467261D01*
X159023809Y-69419642D01*
X159071428Y-69324404D01*
X159071428Y-69086309D01*
X159023809Y-68991071D01*
X158976190Y-68943452D01*
X158880952Y-68895833D01*
X158690476Y-68895833D01*
X158595238Y-68943452D01*
X158547619Y-68991071D01*
X158500000Y-69086309D01*
X159547619Y-69514880D02*
X159738095Y-69514880D01*
X159833333Y-69467261D01*
X159880952Y-69419642D01*
X159976190Y-69276785D01*
X160023809Y-69086309D01*
X160023809Y-68705357D01*
X159976190Y-68610119D01*
X159928571Y-68562500D01*
X159833333Y-68514880D01*
X159642857Y-68514880D01*
X159547619Y-68562500D01*
X159500000Y-68610119D01*
X159452380Y-68705357D01*
X159452380Y-68943452D01*
X159500000Y-69038690D01*
X159547619Y-69086309D01*
X159642857Y-69133928D01*
X159833333Y-69133928D01*
X159928571Y-69086309D01*
X159976190Y-69038690D01*
X160023809Y-68943452D01*
X160880952Y-68848214D02*
X160880952Y-69514880D01*
X160642857Y-68467261D02*
X160404761Y-69181547D01*
X161023809Y-69181547D01*
X161404761Y-69514880D02*
X161404761Y-68848214D01*
X161404761Y-68943452D02*
X161452380Y-68895833D01*
X161547619Y-68848214D01*
X161690476Y-68848214D01*
X161785714Y-68895833D01*
X161833333Y-68991071D01*
X161833333Y-69514880D01*
X161833333Y-68991071D02*
X161880952Y-68895833D01*
X161976190Y-68848214D01*
X162119047Y-68848214D01*
X162214285Y-68895833D01*
X162261904Y-68991071D01*
X162261904Y-69514880D01*
X162738095Y-69514880D02*
X162738095Y-68848214D01*
X162738095Y-68943452D02*
X162785714Y-68895833D01*
X162880952Y-68848214D01*
X163023809Y-68848214D01*
X163119047Y-68895833D01*
X163166666Y-68991071D01*
X163166666Y-69514880D01*
X163166666Y-68991071D02*
X163214285Y-68895833D01*
X163309523Y-68848214D01*
X163452380Y-68848214D01*
X163547619Y-68895833D01*
X163595238Y-68991071D01*
X163595238Y-69514880D01*
X152023809Y-65847480D02*
X152119047Y-65847480D01*
X152214285Y-65895100D01*
X152261904Y-65942719D01*
X152309523Y-66037957D01*
X152357142Y-66228433D01*
X152357142Y-66466528D01*
X152309523Y-66657004D01*
X152261904Y-66752242D01*
X152214285Y-66799861D01*
X152119047Y-66847480D01*
X152023809Y-66847480D01*
X151928571Y-66799861D01*
X151880952Y-66752242D01*
X151833333Y-66657004D01*
X151785714Y-66466528D01*
X151785714Y-66228433D01*
X151833333Y-66037957D01*
X151880952Y-65942719D01*
X151928571Y-65895100D01*
X152023809Y-65847480D01*
X152785714Y-66752242D02*
X152833333Y-66799861D01*
X152785714Y-66847480D01*
X152738095Y-66799861D01*
X152785714Y-66752242D01*
X152785714Y-66847480D01*
X153452380Y-65847480D02*
X153547619Y-65847480D01*
X153642857Y-65895100D01*
X153690476Y-65942719D01*
X153738095Y-66037957D01*
X153785714Y-66228433D01*
X153785714Y-66466528D01*
X153738095Y-66657004D01*
X153690476Y-66752242D01*
X153642857Y-66799861D01*
X153547619Y-66847480D01*
X153452380Y-66847480D01*
X153357142Y-66799861D01*
X153309523Y-66752242D01*
X153261904Y-66657004D01*
X153214285Y-66466528D01*
X153214285Y-66228433D01*
X153261904Y-66037957D01*
X153309523Y-65942719D01*
X153357142Y-65895100D01*
X153452380Y-65847480D01*
X154166666Y-65942719D02*
X154214285Y-65895100D01*
X154309523Y-65847480D01*
X154547619Y-65847480D01*
X154642857Y-65895100D01*
X154690476Y-65942719D01*
X154738095Y-66037957D01*
X154738095Y-66133195D01*
X154690476Y-66276052D01*
X154119047Y-66847480D01*
X154738095Y-66847480D01*
X155166666Y-66847480D02*
X155166666Y-66180814D01*
X155166666Y-65847480D02*
X155119047Y-65895100D01*
X155166666Y-65942719D01*
X155214285Y-65895100D01*
X155166666Y-65847480D01*
X155166666Y-65942719D01*
X155642857Y-66180814D02*
X155642857Y-66847480D01*
X155642857Y-66276052D02*
X155690476Y-66228433D01*
X155785714Y-66180814D01*
X155928571Y-66180814D01*
X156023809Y-66228433D01*
X156071428Y-66323671D01*
X156071428Y-66847480D01*
X157261904Y-65799861D02*
X156404761Y-67085576D01*
X157785714Y-65847480D02*
X157880952Y-65847480D01*
X157976190Y-65895100D01*
X158023809Y-65942719D01*
X158071428Y-66037957D01*
X158119047Y-66228433D01*
X158119047Y-66466528D01*
X158071428Y-66657004D01*
X158023809Y-66752242D01*
X157976190Y-66799861D01*
X157880952Y-66847480D01*
X157785714Y-66847480D01*
X157690476Y-66799861D01*
X157642857Y-66752242D01*
X157595238Y-66657004D01*
X157547619Y-66466528D01*
X157547619Y-66228433D01*
X157595238Y-66037957D01*
X157642857Y-65942719D01*
X157690476Y-65895100D01*
X157785714Y-65847480D01*
X158547619Y-66752242D02*
X158595238Y-66799861D01*
X158547619Y-66847480D01*
X158500000Y-66799861D01*
X158547619Y-66752242D01*
X158547619Y-66847480D01*
X159500000Y-65847480D02*
X159023809Y-65847480D01*
X158976190Y-66323671D01*
X159023809Y-66276052D01*
X159119047Y-66228433D01*
X159357142Y-66228433D01*
X159452380Y-66276052D01*
X159500000Y-66323671D01*
X159547619Y-66418909D01*
X159547619Y-66657004D01*
X159500000Y-66752242D01*
X159452380Y-66799861D01*
X159357142Y-66847480D01*
X159119047Y-66847480D01*
X159023809Y-66799861D01*
X158976190Y-66752242D01*
X159976190Y-66847480D02*
X159976190Y-66180814D01*
X159976190Y-66276052D02*
X160023809Y-66228433D01*
X160119047Y-66180814D01*
X160261904Y-66180814D01*
X160357142Y-66228433D01*
X160404761Y-66323671D01*
X160404761Y-66847480D01*
X160404761Y-66323671D02*
X160452380Y-66228433D01*
X160547619Y-66180814D01*
X160690476Y-66180814D01*
X160785714Y-66228433D01*
X160833333Y-66323671D01*
X160833333Y-66847480D01*
X161309523Y-66847480D02*
X161309523Y-66180814D01*
X161309523Y-66276052D02*
X161357142Y-66228433D01*
X161452380Y-66180814D01*
X161595238Y-66180814D01*
X161690476Y-66228433D01*
X161738095Y-66323671D01*
X161738095Y-66847480D01*
X161738095Y-66323671D02*
X161785714Y-66228433D01*
X161880952Y-66180814D01*
X162023809Y-66180814D01*
X162119047Y-66228433D01*
X162166666Y-66323671D01*
X162166666Y-66847480D01*
X146818928Y-58952380D02*
X146914166Y-58952380D01*
X147009404Y-59000000D01*
X147057023Y-59047619D01*
X147104642Y-59142857D01*
X147152261Y-59333333D01*
X147152261Y-59571428D01*
X147104642Y-59761904D01*
X147057023Y-59857142D01*
X147009404Y-59904761D01*
X146914166Y-59952380D01*
X146818928Y-59952380D01*
X146723690Y-59904761D01*
X146676071Y-59857142D01*
X146628452Y-59761904D01*
X146580833Y-59571428D01*
X146580833Y-59333333D01*
X146628452Y-59142857D01*
X146676071Y-59047619D01*
X146723690Y-59000000D01*
X146818928Y-58952380D01*
X147580833Y-59857142D02*
X147628452Y-59904761D01*
X147580833Y-59952380D01*
X147533214Y-59904761D01*
X147580833Y-59857142D01*
X147580833Y-59952380D01*
X148247500Y-58952380D02*
X148342738Y-58952380D01*
X148437976Y-59000000D01*
X148485595Y-59047619D01*
X148533214Y-59142857D01*
X148580833Y-59333333D01*
X148580833Y-59571428D01*
X148533214Y-59761904D01*
X148485595Y-59857142D01*
X148437976Y-59904761D01*
X148342738Y-59952380D01*
X148247500Y-59952380D01*
X148152261Y-59904761D01*
X148104642Y-59857142D01*
X148057023Y-59761904D01*
X148009404Y-59571428D01*
X148009404Y-59333333D01*
X148057023Y-59142857D01*
X148104642Y-59047619D01*
X148152261Y-59000000D01*
X148247500Y-58952380D01*
X149533214Y-59952380D02*
X148961785Y-59952380D01*
X149247500Y-59952380D02*
X149247500Y-58952380D01*
X149152261Y-59095238D01*
X149057023Y-59190476D01*
X148961785Y-59238095D01*
X149961785Y-59952380D02*
X149961785Y-59285714D01*
X149961785Y-58952380D02*
X149914166Y-59000000D01*
X149961785Y-59047619D01*
X150009404Y-59000000D01*
X149961785Y-58952380D01*
X149961785Y-59047619D01*
X150437976Y-59285714D02*
X150437976Y-59952380D01*
X150437976Y-59380952D02*
X150485595Y-59333333D01*
X150580833Y-59285714D01*
X150723690Y-59285714D01*
X150818928Y-59333333D01*
X150866547Y-59428571D01*
X150866547Y-59952380D01*
X152057023Y-58904761D02*
X151199880Y-60190476D01*
X152580833Y-58952380D02*
X152676071Y-58952380D01*
X152771309Y-59000000D01*
X152818928Y-59047619D01*
X152866547Y-59142857D01*
X152914166Y-59333333D01*
X152914166Y-59571428D01*
X152866547Y-59761904D01*
X152818928Y-59857142D01*
X152771309Y-59904761D01*
X152676071Y-59952380D01*
X152580833Y-59952380D01*
X152485595Y-59904761D01*
X152437976Y-59857142D01*
X152390357Y-59761904D01*
X152342738Y-59571428D01*
X152342738Y-59333333D01*
X152390357Y-59142857D01*
X152437976Y-59047619D01*
X152485595Y-59000000D01*
X152580833Y-58952380D01*
X153342738Y-59857142D02*
X153390357Y-59904761D01*
X153342738Y-59952380D01*
X153295119Y-59904761D01*
X153342738Y-59857142D01*
X153342738Y-59952380D01*
X153771309Y-59047619D02*
X153818928Y-59000000D01*
X153914166Y-58952380D01*
X154152261Y-58952380D01*
X154247500Y-59000000D01*
X154295119Y-59047619D01*
X154342738Y-59142857D01*
X154342738Y-59238095D01*
X154295119Y-59380952D01*
X153723690Y-59952380D01*
X154342738Y-59952380D01*
X155247500Y-58952380D02*
X154771309Y-58952380D01*
X154723690Y-59428571D01*
X154771309Y-59380952D01*
X154866547Y-59333333D01*
X155104642Y-59333333D01*
X155199880Y-59380952D01*
X155247500Y-59428571D01*
X155295119Y-59523809D01*
X155295119Y-59761904D01*
X155247500Y-59857142D01*
X155199880Y-59904761D01*
X155104642Y-59952380D01*
X154866547Y-59952380D01*
X154771309Y-59904761D01*
X154723690Y-59857142D01*
X156199880Y-58952380D02*
X155723690Y-58952380D01*
X155676071Y-59428571D01*
X155723690Y-59380952D01*
X155818928Y-59333333D01*
X156057023Y-59333333D01*
X156152261Y-59380952D01*
X156199880Y-59428571D01*
X156247500Y-59523809D01*
X156247500Y-59761904D01*
X156199880Y-59857142D01*
X156152261Y-59904761D01*
X156057023Y-59952380D01*
X155818928Y-59952380D01*
X155723690Y-59904761D01*
X155676071Y-59857142D01*
X156676071Y-59952380D02*
X156676071Y-59285714D01*
X156676071Y-59380952D02*
X156723690Y-59333333D01*
X156818928Y-59285714D01*
X156961785Y-59285714D01*
X157057023Y-59333333D01*
X157104642Y-59428571D01*
X157104642Y-59952380D01*
X157104642Y-59428571D02*
X157152261Y-59333333D01*
X157247500Y-59285714D01*
X157390357Y-59285714D01*
X157485595Y-59333333D01*
X157533214Y-59428571D01*
X157533214Y-59952380D01*
X158009404Y-59952380D02*
X158009404Y-59285714D01*
X158009404Y-59380952D02*
X158057023Y-59333333D01*
X158152261Y-59285714D01*
X158295119Y-59285714D01*
X158390357Y-59333333D01*
X158437976Y-59428571D01*
X158437976Y-59952380D01*
X158437976Y-59428571D02*
X158485595Y-59333333D01*
X158580833Y-59285714D01*
X158723690Y-59285714D01*
X158818928Y-59333333D01*
X158866547Y-59428571D01*
X158866547Y-59952380D01*
%TO.C,H2*%
X151700000Y-71000000D02*
G75*
G03*
X151700000Y-71000000I-2200000J0D01*
G01*
%TO.C,H1*%
X151700000Y-41000000D02*
G75*
G03*
X151700000Y-41000000I-2200000J0D01*
G01*
D12*
%TO.C,U1*%
X154498100Y-53903101D02*
X154752100Y-54030101D01*
X151958100Y-59450600D02*
X151831100Y-59196600D01*
X158549400Y-57228100D02*
X159819400Y-57228100D01*
X158892300Y-55808100D02*
X158638300Y-55935100D01*
X158803400Y-57101100D02*
X158803400Y-57355100D01*
X154498100Y-53903101D02*
X154752100Y-53776101D01*
X158803400Y-64644900D02*
X158803400Y-64898900D01*
X159501900Y-53903101D02*
X159247900Y-53776101D01*
X151831100Y-59196600D02*
X152085100Y-59196600D01*
X154498100Y-66826900D02*
X154752100Y-66699900D01*
X158892300Y-59500000D02*
X158892300Y-55427100D01*
X154498100Y-66826900D02*
X159501900Y-66826900D01*
X149903101Y-58498100D02*
X149776101Y-58752100D01*
X161914900Y-62246000D02*
X162168900Y-62246000D01*
X161914900Y-63755900D02*
X162168900Y-63755900D01*
X154752100Y-66699900D02*
X154752100Y-66953900D01*
X149903101Y-63501900D02*
X150030101Y-63247900D01*
X156365000Y-57228100D02*
X156111000Y-57101100D01*
X151958100Y-59450600D02*
X151958100Y-58180600D01*
X151831100Y-62803400D02*
X152085100Y-62803400D01*
X158549400Y-64771900D02*
X158803400Y-64898900D01*
X154498100Y-53903101D02*
X159501900Y-53903101D01*
X164096899Y-58498100D02*
X164096899Y-63501900D01*
X162191900Y-59500000D02*
X162318900Y-59246000D01*
X151958100Y-62549400D02*
X151958100Y-63819400D01*
X158638300Y-55681100D02*
X158638300Y-55935100D01*
X158549400Y-64771900D02*
X158803400Y-64644900D01*
X149903101Y-58498100D02*
X150030101Y-58752100D01*
X155196600Y-64644900D02*
X155196600Y-64898900D01*
X162191900Y-60000000D02*
X162318900Y-60254000D01*
X162064900Y-60254000D02*
X162318900Y-60254000D01*
X164096899Y-58498100D02*
X163969899Y-58752100D01*
X159755900Y-55681100D02*
X159755900Y-55935100D01*
X151958100Y-62549400D02*
X152085100Y-62803400D01*
X163969899Y-63247900D02*
X164223899Y-63247900D01*
X154498100Y-59500000D02*
X154498100Y-53522101D01*
X155450600Y-62549400D02*
X155450600Y-65152900D01*
X158892300Y-55808100D02*
X157622300Y-55808100D01*
X149776101Y-58752100D02*
X150030101Y-58752100D01*
X159347100Y-60000000D02*
X162572900Y-60000000D01*
X155450600Y-62549400D02*
X151577100Y-62549400D01*
X154498100Y-58498100D02*
X154498100Y-67207900D01*
X163969899Y-58752100D02*
X164223899Y-58752100D01*
X151958100Y-62549400D02*
X151831100Y-62803400D01*
X154498100Y-66826900D02*
X154752100Y-66953900D01*
X149903101Y-63501900D02*
X149776101Y-63247900D01*
X162041900Y-62500000D02*
X162041900Y-61230000D01*
X159501900Y-58498100D02*
X159501900Y-67207900D01*
X159501900Y-66826900D02*
X159247900Y-66953900D01*
X156365000Y-55920000D02*
X156365000Y-57609100D01*
X159501900Y-59500000D02*
X159501900Y-55427100D01*
X159501900Y-55808100D02*
X159755900Y-55681100D01*
X156365000Y-57228100D02*
X155095000Y-57228100D01*
X159501900Y-55808100D02*
X159755900Y-55935100D01*
X158500000Y-63501900D02*
X162422900Y-63501900D01*
X159501900Y-66826900D02*
X159247900Y-66699900D01*
X158549400Y-57228100D02*
X158803400Y-57101100D01*
X155450600Y-64771900D02*
X155196600Y-64644900D01*
X162191900Y-60000000D02*
X162191900Y-61270000D01*
X149903101Y-58498100D02*
X149903101Y-63501900D01*
X159501900Y-53903101D02*
X159247900Y-54030101D01*
X158549400Y-64771900D02*
X159819400Y-64771900D01*
X162064900Y-59246000D02*
X162318900Y-59246000D01*
X158549400Y-62549400D02*
X158549400Y-65152900D01*
X158549400Y-57228100D02*
X158803400Y-57355100D01*
X162041900Y-62500000D02*
X162168900Y-62246000D01*
X156365000Y-57228100D02*
X156111000Y-57355100D01*
X155450600Y-64771900D02*
X155196600Y-64898900D01*
X162041900Y-63501900D02*
X162168900Y-63755900D01*
X159247900Y-53776101D02*
X159247900Y-54030101D01*
X159501900Y-59500000D02*
X159501900Y-53522101D01*
X158892300Y-55808100D02*
X158638300Y-55681100D01*
X164096899Y-63501900D02*
X164223899Y-63247900D01*
X155450600Y-64771900D02*
X154180600Y-64771900D01*
X149776101Y-63247900D02*
X150030101Y-63247900D01*
X159501900Y-63501900D02*
X149522101Y-63501900D01*
X151958100Y-59450600D02*
X152085100Y-59196600D01*
X158500000Y-58498100D02*
X164477899Y-58498100D01*
X159501900Y-62500000D02*
X162422900Y-62500000D01*
X159501900Y-55808100D02*
X160771900Y-55808100D01*
X156111000Y-57101100D02*
X156111000Y-57355100D01*
X159247900Y-66699900D02*
X159247900Y-66953900D01*
X162041900Y-62500000D02*
X161914900Y-62246000D01*
X159501900Y-58498100D02*
X149522101Y-58498100D01*
X154752100Y-53776101D02*
X154752100Y-54030101D01*
X164096899Y-58498100D02*
X164223899Y-58752100D01*
X162041900Y-63501900D02*
X161914900Y-63755900D01*
X155450600Y-59450600D02*
X151577100Y-59450600D01*
X158500000Y-63501900D02*
X164477899Y-63501900D01*
X162191900Y-59500000D02*
X162064900Y-59246000D01*
X162191900Y-60000000D02*
X162064900Y-60254000D01*
X162041900Y-63501900D02*
X162041900Y-64771900D01*
X162191900Y-59500000D02*
X162191900Y-58230000D01*
X159347100Y-59500000D02*
X162572900Y-59500000D01*
X164096899Y-63501900D02*
X163969899Y-63247900D01*
X158549400Y-59450600D02*
X158549400Y-57609100D01*
D11*
%TO.C,H4*%
X171200000Y-41000000D02*
G75*
G03*
X171200000Y-41000000I-2200000J0D01*
G01*
%TO.C,H3*%
X171200000Y-71000000D02*
G75*
G03*
X171200000Y-71000000I-2200000J0D01*
G01*
%TD*%
M02*
