%TF.GenerationSoftware,KiCad,Pcbnew,(6.0.6)*%
%TF.CreationDate,2022-06-26T21:43:02+02:00*%
%TF.ProjectId,tmc2208-breakout,746d6332-3230-4382-9d62-7265616b6f75,rev?*%
%TF.SameCoordinates,Original*%
%TF.FileFunction,Copper,L1,Top*%
%TF.FilePolarity,Positive*%
%FSLAX46Y46*%
G04 Gerber Fmt 4.6, Leading zero omitted, Abs format (unit mm)*
G04 Created by KiCad (PCBNEW (6.0.6)) date 2022-06-26 21:43:02*
%MOMM*%
%LPD*%
G01*
G04 APERTURE LIST*
G04 Aperture macros list*
%AMRoundRect*
0 Rectangle with rounded corners*
0 $1 Rounding radius*
0 $2 $3 $4 $5 $6 $7 $8 $9 X,Y pos of 4 corners*
0 Add a 4 corners polygon primitive as box body*
4,1,4,$2,$3,$4,$5,$6,$7,$8,$9,$2,$3,0*
0 Add four circle primitives for the rounded corners*
1,1,$1+$1,$2,$3*
1,1,$1+$1,$4,$5*
1,1,$1+$1,$6,$7*
1,1,$1+$1,$8,$9*
0 Add four rect primitives between the rounded corners*
20,1,$1+$1,$2,$3,$4,$5,0*
20,1,$1+$1,$4,$5,$6,$7,0*
20,1,$1+$1,$6,$7,$8,$9,0*
20,1,$1+$1,$8,$9,$2,$3,0*%
G04 Aperture macros list end*
%TA.AperFunction,ComponentPad*%
%ADD10R,1.700000X1.700000*%
%TD*%
%TA.AperFunction,ComponentPad*%
%ADD11O,1.700000X1.700000*%
%TD*%
%TA.AperFunction,SMDPad,CuDef*%
%ADD12RoundRect,0.250000X0.550000X-1.500000X0.550000X1.500000X-0.550000X1.500000X-0.550000X-1.500000X0*%
%TD*%
%TA.AperFunction,ComponentPad*%
%ADD13C,1.000000*%
%TD*%
%TA.AperFunction,ComponentPad*%
%ADD14R,1.000000X1.000000*%
%TD*%
%TA.AperFunction,SMDPad,CuDef*%
%ADD15RoundRect,0.237500X-0.300000X-0.237500X0.300000X-0.237500X0.300000X0.237500X-0.300000X0.237500X0*%
%TD*%
%TA.AperFunction,ComponentPad*%
%ADD16RoundRect,0.250000X-0.725000X0.600000X-0.725000X-0.600000X0.725000X-0.600000X0.725000X0.600000X0*%
%TD*%
%TA.AperFunction,ComponentPad*%
%ADD17O,1.950000X1.700000*%
%TD*%
%TA.AperFunction,SMDPad,CuDef*%
%ADD18RoundRect,0.237500X-0.237500X0.250000X-0.237500X-0.250000X0.237500X-0.250000X0.237500X0.250000X0*%
%TD*%
%TA.AperFunction,SMDPad,CuDef*%
%ADD19RoundRect,0.237500X-0.237500X0.300000X-0.237500X-0.300000X0.237500X-0.300000X0.237500X0.300000X0*%
%TD*%
%TA.AperFunction,SMDPad,CuDef*%
%ADD20R,0.909599X0.254800*%
%TD*%
%TA.AperFunction,SMDPad,CuDef*%
%ADD21R,0.254800X0.909599*%
%TD*%
%TA.AperFunction,SMDPad,CuDef*%
%ADD22R,3.098800X3.098800*%
%TD*%
%TA.AperFunction,SMDPad,CuDef*%
%ADD23RoundRect,0.237500X0.237500X-0.300000X0.237500X0.300000X-0.237500X0.300000X-0.237500X-0.300000X0*%
%TD*%
%TA.AperFunction,SMDPad,CuDef*%
%ADD24RoundRect,0.237500X0.237500X-0.250000X0.237500X0.250000X-0.237500X0.250000X-0.237500X-0.250000X0*%
%TD*%
%TA.AperFunction,SMDPad,CuDef*%
%ADD25RoundRect,0.237500X0.300000X0.237500X-0.300000X0.237500X-0.300000X-0.237500X0.300000X-0.237500X0*%
%TD*%
%TA.AperFunction,ComponentPad*%
%ADD26R,2.600000X2.600000*%
%TD*%
%TA.AperFunction,ComponentPad*%
%ADD27C,2.600000*%
%TD*%
%TA.AperFunction,SMDPad,CuDef*%
%ADD28RoundRect,0.237500X0.250000X0.237500X-0.250000X0.237500X-0.250000X-0.237500X0.250000X-0.237500X0*%
%TD*%
%TA.AperFunction,SMDPad,CuDef*%
%ADD29C,0.500000*%
%TD*%
%TA.AperFunction,SMDPad,CuDef*%
%ADD30RoundRect,0.237500X-0.250000X-0.237500X0.250000X-0.237500X0.250000X0.237500X-0.250000X0.237500X0*%
%TD*%
%TA.AperFunction,ViaPad*%
%ADD31C,0.400000*%
%TD*%
%TA.AperFunction,ViaPad*%
%ADD32C,0.600000*%
%TD*%
%TA.AperFunction,Conductor*%
%ADD33C,0.200000*%
%TD*%
%TA.AperFunction,Conductor*%
%ADD34C,0.500000*%
%TD*%
G04 APERTURE END LIST*
D10*
%TO.P,J1,1,Pin_1*%
%TO.N,/DIR*%
X144000000Y-41500000D03*
D11*
%TO.P,J1,2,Pin_2*%
%TO.N,/VREF*%
X144000000Y-44040000D03*
%TO.P,J1,3,Pin_3*%
%TO.N,/STEP*%
X144000000Y-46580000D03*
%TO.P,J1,4,Pin_4*%
%TO.N,/EN#*%
X144000000Y-49120000D03*
%TO.P,J1,5,Pin_5*%
%TO.N,/MS1*%
X144000000Y-51660000D03*
%TO.P,J1,6,Pin_6*%
%TO.N,/MS2*%
X144000000Y-54200000D03*
%TO.P,J1,7,Pin_7*%
%TO.N,/DIAG*%
X144000000Y-56740000D03*
%TO.P,J1,8,Pin_8*%
%TO.N,/INDEX*%
X144000000Y-59280000D03*
%TO.P,J1,9,Pin_9*%
%TO.N,/PDN_UART*%
X144000000Y-61820000D03*
%TO.P,J1,10,Pin_10*%
%TO.N,GND*%
X144000000Y-64360000D03*
%TO.P,J1,11,Pin_11*%
%TO.N,+3V3*%
X144000000Y-66900000D03*
%TD*%
D12*
%TO.P,C7,1*%
%TO.N,/VS*%
X157500000Y-48800000D03*
%TO.P,C7,2*%
%TO.N,GND*%
X157500000Y-43200000D03*
%TD*%
D13*
%TO.P,TP2,1,1*%
%TO.N,/DIR*%
X147300000Y-43900000D03*
%TD*%
D14*
%TO.P,TP20,1,1*%
%TO.N,GND*%
X152500000Y-49100000D03*
%TD*%
D15*
%TO.P,C4,1*%
%TO.N,/VCC_IO*%
X162137500Y-61000000D03*
%TO.P,C4,2*%
%TO.N,GND*%
X163862500Y-61000000D03*
%TD*%
D13*
%TO.P,TP15,1,1*%
%TO.N,+5V*%
X153400000Y-71000000D03*
%TD*%
%TO.P,TP4,1,1*%
%TO.N,/MS2*%
X147300000Y-54100000D03*
%TD*%
D16*
%TO.P,J3,1,Pin_1*%
%TO.N,/OB2*%
X169525000Y-58250000D03*
D17*
%TO.P,J3,2,Pin_2*%
%TO.N,/OB1*%
X169525000Y-60750000D03*
%TO.P,J3,3,Pin_3*%
%TO.N,/OA1*%
X169525000Y-63250000D03*
%TO.P,J3,4,Pin_4*%
%TO.N,/OA2*%
X169525000Y-65750000D03*
%TD*%
D13*
%TO.P,TP6,1,1*%
%TO.N,/DIAG*%
X147300000Y-56600000D03*
%TD*%
D14*
%TO.P,TP19,1,1*%
%TO.N,GND*%
X162600000Y-71000000D03*
%TD*%
D18*
%TO.P,R6,1*%
%TO.N,/VCC_IO*%
X160500000Y-66087500D03*
%TO.P,R6,2*%
%TO.N,+3V3*%
X160500000Y-67912500D03*
%TD*%
D19*
%TO.P,C1,1*%
%TO.N,+5V*%
X155750000Y-66137500D03*
%TO.P,C1,2*%
%TO.N,GND*%
X155750000Y-67862500D03*
%TD*%
D13*
%TO.P,TP1,1,1*%
%TO.N,/EN#*%
X147300000Y-49100000D03*
%TD*%
D20*
%TO.P,U1,1,OB2*%
%TO.N,/OB2*%
X154652900Y-59500000D03*
%TO.P,U1,2,ENN*%
%TO.N,/EN#*%
X154652900Y-59999999D03*
%TO.P,U1,3,GND*%
%TO.N,GND*%
X154652900Y-60500001D03*
%TO.P,U1,4,CPO*%
%TO.N,/CPO*%
X154652900Y-61000000D03*
%TO.P,U1,5,CPI*%
%TO.N,/CPI*%
X154652900Y-61499999D03*
%TO.P,U1,6,VCP*%
%TO.N,/VCP*%
X154652900Y-62000001D03*
%TO.P,U1,7,NC*%
%TO.N,GND*%
X154652900Y-62500000D03*
D21*
%TO.P,U1,8,5VOUT*%
%TO.N,+5V*%
X155500000Y-63347100D03*
%TO.P,U1,9,MS1*%
%TO.N,/MS1*%
X155999999Y-63347100D03*
%TO.P,U1,10,MS2*%
%TO.N,/MS2*%
X156500001Y-63347100D03*
%TO.P,U1,11,DIAG*%
%TO.N,/DIAG*%
X157000000Y-63347100D03*
%TO.P,U1,12,INDEX*%
%TO.N,/INDEX*%
X157499999Y-63347100D03*
%TO.P,U1,13,CLK*%
%TO.N,/CLK*%
X158000001Y-63347100D03*
%TO.P,U1,14,PDN_UART*%
%TO.N,/PDN_UART*%
X158500000Y-63347100D03*
D20*
%TO.P,U1,15,VCC_IO*%
%TO.N,/VCC_IO*%
X159347100Y-62500000D03*
%TO.P,U1,16,STEP*%
%TO.N,/STEP*%
X159347100Y-62000001D03*
%TO.P,U1,17,VREF*%
%TO.N,/VREF*%
X159347100Y-61499999D03*
%TO.P,U1,18,GND*%
%TO.N,GND*%
X159347100Y-61000000D03*
%TO.P,U1,19,DIR*%
%TO.N,/DIR*%
X159347100Y-60500001D03*
%TO.P,U1,20,NC*%
%TO.N,GND*%
X159347100Y-59999999D03*
%TO.P,U1,21,OA2*%
%TO.N,/OA2*%
X159347100Y-59500000D03*
D21*
%TO.P,U1,22,VS*%
%TO.N,/VS*%
X158500000Y-58652900D03*
%TO.P,U1,23,BRA*%
%TO.N,/BRA*%
X158000001Y-58652900D03*
%TO.P,U1,24,OA1*%
%TO.N,/OA1*%
X157499999Y-58652900D03*
%TO.P,U1,25,NC*%
%TO.N,GND*%
X157000000Y-58652900D03*
%TO.P,U1,26,OB1*%
%TO.N,/OB1*%
X156500001Y-58652900D03*
%TO.P,U1,27,BRB*%
%TO.N,/BRB*%
X155999999Y-58652900D03*
%TO.P,U1,28,VS*%
%TO.N,/VS*%
X155500000Y-58652900D03*
D22*
%TO.P,U1,29,GND*%
%TO.N,GND*%
X157000000Y-61000000D03*
%TD*%
D18*
%TO.P,R3,1*%
%TO.N,GND*%
X158250000Y-54087500D03*
%TO.P,R3,2*%
%TO.N,/BRA*%
X158250000Y-55912500D03*
%TD*%
%TO.P,R8,1*%
%TO.N,/VS*%
X153250000Y-66087500D03*
%TO.P,R8,2*%
%TO.N,+5V*%
X153250000Y-67912500D03*
%TD*%
D23*
%TO.P,C5,1*%
%TO.N,/VS*%
X153250000Y-55862500D03*
%TO.P,C5,2*%
%TO.N,GND*%
X153250000Y-54137500D03*
%TD*%
D13*
%TO.P,TP7,1,1*%
%TO.N,/INDEX*%
X147300000Y-60500000D03*
%TD*%
D24*
%TO.P,R2,1*%
%TO.N,/BRB*%
X155750000Y-55912500D03*
%TO.P,R2,2*%
%TO.N,GND*%
X155750000Y-54087500D03*
%TD*%
D25*
%TO.P,C3,1*%
%TO.N,/VCP*%
X151862500Y-63500000D03*
%TO.P,C3,2*%
%TO.N,/VS*%
X150137500Y-63500000D03*
%TD*%
D13*
%TO.P,TP5,1,1*%
%TO.N,/STEP*%
X147300000Y-46500000D03*
%TD*%
D24*
%TO.P,R1,1*%
%TO.N,GND*%
X149500000Y-61412500D03*
%TO.P,R1,2*%
%TO.N,/EN#*%
X149500000Y-59587500D03*
%TD*%
%TO.P,R7,1*%
%TO.N,GND*%
X158250000Y-67912500D03*
%TO.P,R7,2*%
%TO.N,/CLK*%
X158250000Y-66087500D03*
%TD*%
D23*
%TO.P,C2,1*%
%TO.N,/CPI*%
X152000000Y-61362500D03*
%TO.P,C2,2*%
%TO.N,/CPO*%
X152000000Y-59637500D03*
%TD*%
D26*
%TO.P,J4,1,Pin_1*%
%TO.N,/VS*%
X167305000Y-51500000D03*
D27*
%TO.P,J4,2,Pin_2*%
%TO.N,GND*%
X167305000Y-46500000D03*
%TD*%
D13*
%TO.P,TP3,1,1*%
%TO.N,/MS1*%
X147300000Y-51600000D03*
%TD*%
D23*
%TO.P,C6,1*%
%TO.N,/VS*%
X160750000Y-55862500D03*
%TO.P,C6,2*%
%TO.N,GND*%
X160750000Y-54137500D03*
%TD*%
D13*
%TO.P,TP14,1,1*%
%TO.N,/VS*%
X152500000Y-51600000D03*
%TD*%
D28*
%TO.P,R5,1*%
%TO.N,+5V*%
X163912500Y-58500000D03*
%TO.P,R5,2*%
%TO.N,/VREF*%
X162087500Y-58500000D03*
%TD*%
D13*
%TO.P,TP12,1,1*%
%TO.N,/VCC_IO*%
X160200000Y-71000000D03*
%TD*%
D29*
%TO.P,FID1,*%
%TO.N,*%
X153500000Y-41000000D03*
%TD*%
D14*
%TO.P,TP18,1,1*%
%TO.N,GND*%
X147400000Y-67400000D03*
%TD*%
D29*
%TO.P,FID2,*%
%TO.N,*%
X165000000Y-71000000D03*
%TD*%
D30*
%TO.P,R4,1*%
%TO.N,/VCC_IO*%
X162087500Y-63500000D03*
%TO.P,R4,2*%
%TO.N,+5V*%
X163912500Y-63500000D03*
%TD*%
D13*
%TO.P,TP16,1,1*%
%TO.N,+3V3*%
X144000000Y-71000000D03*
%TD*%
%TO.P,TP8,1,1*%
%TO.N,/PDN_UART*%
X147300000Y-62900000D03*
%TD*%
D31*
%TO.N,/VREF*%
X160600001Y-61499999D03*
%TO.N,GND*%
X153300000Y-60500000D03*
X159500000Y-63500000D03*
X156000000Y-60000000D03*
X158000000Y-62000000D03*
X162217570Y-65617570D03*
X154500000Y-67800000D03*
X159400000Y-67800000D03*
X163000000Y-59700000D03*
X163000000Y-62300000D03*
X158000000Y-60000000D03*
X154500000Y-55200000D03*
X156000000Y-62000000D03*
X150800000Y-61400000D03*
X159500000Y-55200000D03*
X157000000Y-55400000D03*
X160700000Y-59300000D03*
X154500000Y-63500000D03*
X159400000Y-67000000D03*
X154500000Y-67000000D03*
D32*
%TO.N,+3V3*%
X161776089Y-67976089D03*
D31*
%TO.N,/VCC_IO*%
X160693750Y-64893750D03*
D32*
%TO.N,/VS*%
X152000000Y-55000000D03*
X157000000Y-52400000D03*
X162000000Y-55000000D03*
D31*
%TO.N,/EN#*%
X152996218Y-59983164D03*
%TO.N,/DIR*%
X160200000Y-60500000D03*
%TO.N,/MS1*%
X156000000Y-64100000D03*
%TO.N,/MS2*%
X156500000Y-64500000D03*
%TO.N,/STEP*%
X160200000Y-62000000D03*
%TO.N,/DIAG*%
X156985931Y-64891559D03*
%TO.N,/INDEX*%
X157500000Y-65200000D03*
%TO.N,/PDN_UART*%
X158500000Y-64200000D03*
%TO.N,/OA1*%
X157500000Y-57700000D03*
%TO.N,/OA2*%
X159400000Y-58900000D03*
%TO.N,/OB1*%
X156500000Y-57700000D03*
%TO.N,/OB2*%
X154600000Y-58900000D03*
%TD*%
D33*
%TO.N,/DIR*%
X146400000Y-43900000D02*
X147300000Y-43900000D01*
X146400000Y-43900000D02*
X144000000Y-41500000D01*
%TO.N,/VREF*%
X160600001Y-61499999D02*
X160736398Y-61499999D01*
X159347100Y-61499999D02*
X160600001Y-61499999D01*
X161100000Y-61136397D02*
X161100000Y-60739860D01*
X160736398Y-61499999D02*
X161100000Y-61136397D01*
X161100000Y-60739860D02*
X162087500Y-59752360D01*
X162087500Y-59752360D02*
X162087500Y-58500000D01*
%TO.N,/EN#*%
X150287500Y-58800000D02*
X149500000Y-59587500D01*
X152460140Y-58800000D02*
X150287500Y-58800000D01*
X152996218Y-59336078D02*
X152460140Y-58800000D01*
X152996218Y-59983164D02*
X152996218Y-59336078D01*
X152996218Y-59983164D02*
X154636065Y-59983164D01*
X154636065Y-59983164D02*
X154652900Y-59999999D01*
D34*
%TO.N,+3V3*%
X144000000Y-66900000D02*
X144000000Y-71000000D01*
D33*
%TO.N,/DIAG*%
X147300000Y-56600000D02*
X144140000Y-56600000D01*
X144140000Y-56600000D02*
X144000000Y-56740000D01*
%TO.N,/PDN_UART*%
X147300000Y-62900000D02*
X145080000Y-62900000D01*
X145080000Y-62900000D02*
X144000000Y-61820000D01*
%TO.N,/INDEX*%
X147300000Y-60500000D02*
X145220000Y-60500000D01*
X145220000Y-60500000D02*
X144000000Y-59280000D01*
%TO.N,/VS*%
X154600000Y-51600000D02*
X157400000Y-48800000D01*
X157400000Y-48800000D02*
X157500000Y-48800000D01*
D34*
X157000000Y-52400000D02*
X157000000Y-49300000D01*
X157000000Y-49300000D02*
X157500000Y-48800000D01*
X157000000Y-49200000D02*
X157500000Y-48700000D01*
D33*
X152500000Y-51600000D02*
X154600000Y-51600000D01*
%TO.N,GND*%
X154652900Y-60500001D02*
X153300000Y-60500000D01*
X160407107Y-61000000D02*
X160700000Y-60707107D01*
X150975000Y-64575000D02*
X151400000Y-65000000D01*
X155500000Y-62500000D02*
X154652900Y-62500000D01*
X160700000Y-60707107D02*
X160700000Y-59300000D01*
X157000000Y-61000000D02*
X156500001Y-60500001D01*
X154652900Y-63347100D02*
X154500000Y-63500000D01*
X163000000Y-64835140D02*
X163000000Y-62300000D01*
X156500001Y-60500001D02*
X154652900Y-60500001D01*
X157000000Y-61000000D02*
X157000000Y-58652900D01*
X162217570Y-65617570D02*
X163000000Y-64835140D01*
X154652900Y-62500000D02*
X154652900Y-63347100D01*
X150975000Y-61575000D02*
X150975000Y-64575000D01*
X163000000Y-59700000D02*
X163000000Y-57400000D01*
X159400000Y-67000000D02*
X160835140Y-67000000D01*
X160835140Y-67000000D02*
X162217570Y-65617570D01*
X157000000Y-58652900D02*
X157000000Y-55400000D01*
X150800000Y-61400000D02*
X150975000Y-61575000D01*
X157000000Y-61000000D02*
X159347100Y-61000000D01*
X158000000Y-60000000D02*
X159347100Y-59999999D01*
X159347100Y-61000000D02*
X160407107Y-61000000D01*
X156000000Y-62000000D02*
X155500000Y-62500000D01*
X154500000Y-67000000D02*
X152200000Y-67000000D01*
D34*
%TO.N,+3V3*%
X161776089Y-67976089D02*
X161712500Y-67912500D01*
X161712500Y-67912500D02*
X160500000Y-67912500D01*
D33*
%TO.N,/VCC_IO*%
X160693750Y-64893750D02*
X162087500Y-63500000D01*
X159347100Y-62500000D02*
X160637500Y-62500000D01*
X162087500Y-63500000D02*
X162087500Y-61050000D01*
X160637500Y-62500000D02*
X162137500Y-61000000D01*
X160500000Y-66087500D02*
X160500000Y-65087500D01*
X162087500Y-61050000D02*
X162137500Y-61000000D01*
X160500000Y-65087500D02*
X160693750Y-64893750D01*
%TO.N,+5V*%
X155500000Y-65887500D02*
X155500000Y-63347100D01*
X164700000Y-59287500D02*
X163912500Y-58500000D01*
X161900000Y-68700000D02*
X157100000Y-68700000D01*
X157100000Y-67487500D02*
X157100000Y-68700000D01*
X153250000Y-67912500D02*
X153400000Y-68062500D01*
X164700000Y-62712500D02*
X164700000Y-59287500D01*
X163912500Y-63500000D02*
X163912500Y-66687500D01*
X153400000Y-68062500D02*
X153400000Y-71000000D01*
X155750000Y-66137500D02*
X155500000Y-65887500D01*
X157100000Y-68700000D02*
X154037500Y-68700000D01*
X163912500Y-66687500D02*
X161900000Y-68700000D01*
X155750000Y-66137500D02*
X157100000Y-67487500D01*
X163912500Y-63500000D02*
X164700000Y-62712500D01*
X154037500Y-68700000D02*
X153250000Y-67912500D01*
%TO.N,/CPI*%
X152137499Y-61499999D02*
X154652900Y-61499999D01*
X152000000Y-61362500D02*
X152137499Y-61499999D01*
%TO.N,/CPO*%
X153000000Y-61000000D02*
X154652900Y-61000000D01*
X152000000Y-60000000D02*
X153000000Y-61000000D01*
X152000000Y-59637500D02*
X152000000Y-60000000D01*
%TO.N,/VCP*%
X153999999Y-62000001D02*
X154652900Y-62000001D01*
X152500000Y-63500000D02*
X153999999Y-62000001D01*
X151862500Y-63500000D02*
X152500000Y-63500000D01*
%TO.N,/VS*%
X158500000Y-57862500D02*
X158500000Y-58652900D01*
X150137500Y-63500000D02*
X150137500Y-63437500D01*
X153000000Y-56152900D02*
X155500000Y-58652900D01*
X148500000Y-57500000D02*
X150137500Y-55862500D01*
X150137500Y-64937500D02*
X151287500Y-66087500D01*
D34*
X152387500Y-55000000D02*
X153250000Y-55862500D01*
X152000000Y-55000000D02*
X152387500Y-55000000D01*
D33*
X150137500Y-55862500D02*
X153250000Y-55862500D01*
X150137500Y-63500000D02*
X150137500Y-64937500D01*
X153250000Y-55862500D02*
X153250000Y-56152900D01*
X150137500Y-63437500D02*
X148500000Y-61800000D01*
X151287500Y-66087500D02*
X153250000Y-66087500D01*
D34*
X162000000Y-55000000D02*
X161612500Y-55000000D01*
D33*
X160500000Y-55862500D02*
X158500000Y-57862500D01*
X148500000Y-61800000D02*
X148500000Y-57500000D01*
D34*
X161612500Y-55000000D02*
X160750000Y-55862500D01*
D33*
%TO.N,/EN#*%
X144000000Y-49005000D02*
X147205000Y-49005000D01*
X147205000Y-49005000D02*
X147300000Y-49100000D01*
%TO.N,/DIR*%
X159347100Y-60500001D02*
X160200000Y-60500000D01*
%TO.N,/MS1*%
X144000000Y-51545000D02*
X147245000Y-51545000D01*
X155999999Y-63347100D02*
X156000000Y-64100000D01*
X147245000Y-51545000D02*
X147300000Y-51600000D01*
%TO.N,/MS2*%
X156500001Y-63347100D02*
X156500000Y-64500000D01*
X147285000Y-54085000D02*
X147300000Y-54100000D01*
X144000000Y-54085000D02*
X147285000Y-54085000D01*
%TO.N,/STEP*%
X147265000Y-46465000D02*
X147300000Y-46500000D01*
X159347100Y-62000001D02*
X160200000Y-62000000D01*
X144000000Y-46465000D02*
X147265000Y-46465000D01*
%TO.N,/DIAG*%
X156985931Y-64891559D02*
X157000000Y-64877490D01*
X157000000Y-64877490D02*
X157000000Y-63347100D01*
%TO.N,/INDEX*%
X157499999Y-63347100D02*
X157500000Y-65200000D01*
%TO.N,/PDN_UART*%
X158500000Y-63347100D02*
X158500000Y-64200000D01*
%TO.N,/OA1*%
X157499999Y-58652900D02*
X157500000Y-57700000D01*
%TO.N,/OA2*%
X159347100Y-59500000D02*
X159347100Y-58952900D01*
X159347100Y-58952900D02*
X159400000Y-58900000D01*
%TO.N,/OB1*%
X156500001Y-58652900D02*
X156500000Y-57700000D01*
%TO.N,/OB2*%
X154652900Y-58952900D02*
X154652900Y-59500000D01*
X154600000Y-58900000D02*
X154652900Y-58952900D01*
%TO.N,/BRB*%
X155999999Y-58652900D02*
X155999999Y-56412499D01*
%TO.N,/BRA*%
X158000001Y-58652900D02*
X158000000Y-55912500D01*
%TO.N,/CLK*%
X158000001Y-65837501D02*
X158250000Y-66087500D01*
X158000001Y-63347100D02*
X158000001Y-65837501D01*
%TD*%
%TA.AperFunction,Conductor*%
%TO.N,GND*%
G36*
X171470018Y-38510000D02*
G01*
X171484852Y-38512310D01*
X171484855Y-38512310D01*
X171493724Y-38513691D01*
X171502626Y-38512527D01*
X171502750Y-38512511D01*
X171533192Y-38512240D01*
X171540621Y-38513077D01*
X171595264Y-38519234D01*
X171622771Y-38525513D01*
X171699853Y-38552485D01*
X171725274Y-38564727D01*
X171794426Y-38608178D01*
X171816485Y-38625770D01*
X171874230Y-38683515D01*
X171891822Y-38705574D01*
X171935273Y-38774726D01*
X171947515Y-38800147D01*
X171974487Y-38877228D01*
X171980766Y-38904736D01*
X171987018Y-38960226D01*
X171986923Y-38975868D01*
X171987800Y-38975879D01*
X171987690Y-38984851D01*
X171986309Y-38993724D01*
X171987473Y-39002626D01*
X171987473Y-39002628D01*
X171990436Y-39025283D01*
X171991500Y-39041621D01*
X171991500Y-72950633D01*
X171990000Y-72970018D01*
X171986309Y-72993724D01*
X171987473Y-73002626D01*
X171987489Y-73002750D01*
X171987760Y-73033192D01*
X171985430Y-73053870D01*
X171980766Y-73095264D01*
X171974487Y-73122771D01*
X171947515Y-73199853D01*
X171935273Y-73225274D01*
X171891822Y-73294426D01*
X171874230Y-73316485D01*
X171816485Y-73374230D01*
X171794426Y-73391822D01*
X171725274Y-73435273D01*
X171699853Y-73447515D01*
X171622772Y-73474487D01*
X171595264Y-73480766D01*
X171539774Y-73487018D01*
X171524132Y-73486923D01*
X171524121Y-73487800D01*
X171515149Y-73487690D01*
X171506276Y-73486309D01*
X171497374Y-73487473D01*
X171497372Y-73487473D01*
X171486385Y-73488910D01*
X171474714Y-73490436D01*
X171458379Y-73491500D01*
X142549367Y-73491500D01*
X142529982Y-73490000D01*
X142515148Y-73487690D01*
X142515145Y-73487690D01*
X142506276Y-73486309D01*
X142497374Y-73487473D01*
X142497250Y-73487489D01*
X142466808Y-73487760D01*
X142446130Y-73485430D01*
X142404736Y-73480766D01*
X142377229Y-73474487D01*
X142300147Y-73447515D01*
X142274726Y-73435273D01*
X142205574Y-73391822D01*
X142183515Y-73374230D01*
X142125770Y-73316485D01*
X142108178Y-73294426D01*
X142064727Y-73225274D01*
X142052485Y-73199853D01*
X142025513Y-73122772D01*
X142019234Y-73095266D01*
X142013170Y-73041451D01*
X142012888Y-73016640D01*
X142013576Y-73012552D01*
X142013729Y-73000000D01*
X142009773Y-72972376D01*
X142008500Y-72954514D01*
X142008500Y-66866695D01*
X142637251Y-66866695D01*
X142637548Y-66871848D01*
X142637548Y-66871851D01*
X142644613Y-66994376D01*
X142650110Y-67089715D01*
X142651247Y-67094761D01*
X142651248Y-67094767D01*
X142671884Y-67186332D01*
X142699222Y-67307639D01*
X142783266Y-67514616D01*
X142785965Y-67519020D01*
X142885936Y-67682158D01*
X142899987Y-67705088D01*
X143046250Y-67873938D01*
X143195985Y-67998250D01*
X143235620Y-68057152D01*
X143241500Y-68095194D01*
X143241500Y-70289071D01*
X143221498Y-70357192D01*
X143212030Y-70370051D01*
X143163846Y-70427474D01*
X143160879Y-70432872D01*
X143160875Y-70432877D01*
X143114226Y-70517733D01*
X143068567Y-70600787D01*
X143066706Y-70606654D01*
X143066705Y-70606656D01*
X143021996Y-70747597D01*
X143008765Y-70789306D01*
X142986719Y-70985851D01*
X142987235Y-70991995D01*
X143001654Y-71163710D01*
X143003268Y-71182934D01*
X143013436Y-71218393D01*
X143051485Y-71351085D01*
X143057783Y-71373050D01*
X143148187Y-71548956D01*
X143271035Y-71703953D01*
X143275728Y-71707947D01*
X143275729Y-71707948D01*
X143330018Y-71754151D01*
X143421650Y-71832136D01*
X143594294Y-71928624D01*
X143782392Y-71989740D01*
X143978777Y-72013158D01*
X143984912Y-72012686D01*
X143984914Y-72012686D01*
X144169830Y-71998457D01*
X144169834Y-71998456D01*
X144175972Y-71997984D01*
X144366463Y-71944798D01*
X144371967Y-71942018D01*
X144371969Y-71942017D01*
X144537495Y-71858404D01*
X144537497Y-71858403D01*
X144542996Y-71855625D01*
X144698847Y-71733861D01*
X144799197Y-71617604D01*
X144824049Y-71588813D01*
X144824050Y-71588811D01*
X144828078Y-71584145D01*
X144925769Y-71412179D01*
X144988197Y-71224513D01*
X145012985Y-71028295D01*
X145013380Y-71000000D01*
X147886526Y-71000000D01*
X147906391Y-71252403D01*
X147907545Y-71257210D01*
X147907546Y-71257216D01*
X147936672Y-71378535D01*
X147965495Y-71498591D01*
X147967388Y-71503162D01*
X147967389Y-71503164D01*
X148050559Y-71703953D01*
X148062384Y-71732502D01*
X148194672Y-71948376D01*
X148359102Y-72140898D01*
X148551624Y-72305328D01*
X148767498Y-72437616D01*
X148772068Y-72439509D01*
X148772072Y-72439511D01*
X148996836Y-72532611D01*
X149001409Y-72534505D01*
X149086032Y-72554821D01*
X149242784Y-72592454D01*
X149242790Y-72592455D01*
X149247597Y-72593609D01*
X149347416Y-72601465D01*
X149434345Y-72608307D01*
X149434352Y-72608307D01*
X149436801Y-72608500D01*
X149563199Y-72608500D01*
X149565648Y-72608307D01*
X149565655Y-72608307D01*
X149652584Y-72601465D01*
X149752403Y-72593609D01*
X149757210Y-72592455D01*
X149757216Y-72592454D01*
X149913968Y-72554821D01*
X149998591Y-72534505D01*
X150003164Y-72532611D01*
X150227928Y-72439511D01*
X150227932Y-72439509D01*
X150232502Y-72437616D01*
X150448376Y-72305328D01*
X150640898Y-72140898D01*
X150805328Y-71948376D01*
X150937616Y-71732502D01*
X150949442Y-71703953D01*
X151032611Y-71503164D01*
X151032612Y-71503162D01*
X151034505Y-71498591D01*
X151063328Y-71378535D01*
X151092454Y-71257216D01*
X151092455Y-71257210D01*
X151093609Y-71252403D01*
X151113474Y-71000000D01*
X151093609Y-70747597D01*
X151092152Y-70741525D01*
X151035660Y-70506221D01*
X151034505Y-70501409D01*
X151003880Y-70427474D01*
X150939511Y-70272072D01*
X150939509Y-70272068D01*
X150937616Y-70267498D01*
X150805328Y-70051624D01*
X150640898Y-69859102D01*
X150448376Y-69694672D01*
X150232502Y-69562384D01*
X150227932Y-69560491D01*
X150227928Y-69560489D01*
X150003164Y-69467389D01*
X150003162Y-69467388D01*
X149998591Y-69465495D01*
X149913968Y-69445179D01*
X149757216Y-69407546D01*
X149757210Y-69407545D01*
X149752403Y-69406391D01*
X149652584Y-69398535D01*
X149565655Y-69391693D01*
X149565648Y-69391693D01*
X149563199Y-69391500D01*
X149436801Y-69391500D01*
X149434352Y-69391693D01*
X149434345Y-69391693D01*
X149347416Y-69398535D01*
X149247597Y-69406391D01*
X149242790Y-69407545D01*
X149242784Y-69407546D01*
X149086032Y-69445179D01*
X149001409Y-69465495D01*
X148996838Y-69467388D01*
X148996836Y-69467389D01*
X148772072Y-69560489D01*
X148772068Y-69560491D01*
X148767498Y-69562384D01*
X148551624Y-69694672D01*
X148359102Y-69859102D01*
X148194672Y-70051624D01*
X148062384Y-70267498D01*
X148060491Y-70272068D01*
X148060489Y-70272072D01*
X147996120Y-70427474D01*
X147965495Y-70501409D01*
X147964340Y-70506221D01*
X147907849Y-70741525D01*
X147906391Y-70747597D01*
X147886526Y-71000000D01*
X145013380Y-71000000D01*
X144994080Y-70803167D01*
X144975050Y-70740135D01*
X144938697Y-70619731D01*
X144936916Y-70613831D01*
X144844066Y-70439204D01*
X144786857Y-70369059D01*
X144759303Y-70303627D01*
X144758500Y-70289423D01*
X144758500Y-68092632D01*
X144778502Y-68024511D01*
X144811331Y-67990054D01*
X144874959Y-67944669D01*
X146392001Y-67944669D01*
X146392371Y-67951490D01*
X146397895Y-68002352D01*
X146401521Y-68017604D01*
X146446676Y-68138054D01*
X146455214Y-68153649D01*
X146531715Y-68255724D01*
X146544276Y-68268285D01*
X146646351Y-68344786D01*
X146661946Y-68353324D01*
X146782394Y-68398478D01*
X146797649Y-68402105D01*
X146848514Y-68407631D01*
X146855328Y-68408000D01*
X147127885Y-68408000D01*
X147143124Y-68403525D01*
X147144329Y-68402135D01*
X147146000Y-68394452D01*
X147146000Y-68389884D01*
X147654000Y-68389884D01*
X147658475Y-68405123D01*
X147659865Y-68406328D01*
X147667548Y-68407999D01*
X147944669Y-68407999D01*
X147951490Y-68407629D01*
X148002352Y-68402105D01*
X148017604Y-68398479D01*
X148138054Y-68353324D01*
X148153649Y-68344786D01*
X148255724Y-68268285D01*
X148268285Y-68255724D01*
X148344786Y-68153649D01*
X148353324Y-68138054D01*
X148398478Y-68017606D01*
X148402105Y-68002351D01*
X148407631Y-67951486D01*
X148408000Y-67944672D01*
X148408000Y-67672115D01*
X148403525Y-67656876D01*
X148402135Y-67655671D01*
X148394452Y-67654000D01*
X147672115Y-67654000D01*
X147656876Y-67658475D01*
X147655671Y-67659865D01*
X147654000Y-67667548D01*
X147654000Y-68389884D01*
X147146000Y-68389884D01*
X147146000Y-67672115D01*
X147141525Y-67656876D01*
X147140135Y-67655671D01*
X147132452Y-67654000D01*
X146410116Y-67654000D01*
X146394877Y-67658475D01*
X146393672Y-67659865D01*
X146392001Y-67667548D01*
X146392001Y-67944669D01*
X144874959Y-67944669D01*
X144879860Y-67941173D01*
X145038096Y-67783489D01*
X145097594Y-67700689D01*
X145165435Y-67606277D01*
X145168453Y-67602077D01*
X145205372Y-67527378D01*
X145265136Y-67406453D01*
X145265137Y-67406451D01*
X145267430Y-67401811D01*
X145315129Y-67244816D01*
X145330865Y-67193023D01*
X145330865Y-67193021D01*
X145332370Y-67188069D01*
X145340294Y-67127885D01*
X146392000Y-67127885D01*
X146396475Y-67143124D01*
X146397865Y-67144329D01*
X146405548Y-67146000D01*
X147127885Y-67146000D01*
X147143124Y-67141525D01*
X147144329Y-67140135D01*
X147146000Y-67132452D01*
X147146000Y-67127885D01*
X147654000Y-67127885D01*
X147658475Y-67143124D01*
X147659865Y-67144329D01*
X147667548Y-67146000D01*
X148389884Y-67146000D01*
X148405123Y-67141525D01*
X148406328Y-67140135D01*
X148407999Y-67132452D01*
X148407999Y-66855331D01*
X148407629Y-66848510D01*
X148402105Y-66797648D01*
X148398479Y-66782396D01*
X148353324Y-66661946D01*
X148344786Y-66646351D01*
X148268285Y-66544276D01*
X148255724Y-66531715D01*
X148153649Y-66455214D01*
X148138054Y-66446676D01*
X148017606Y-66401522D01*
X148002351Y-66397895D01*
X147951486Y-66392369D01*
X147944672Y-66392000D01*
X147672115Y-66392000D01*
X147656876Y-66396475D01*
X147655671Y-66397865D01*
X147654000Y-66405548D01*
X147654000Y-67127885D01*
X147146000Y-67127885D01*
X147146000Y-66410116D01*
X147141525Y-66394877D01*
X147140135Y-66393672D01*
X147132452Y-66392001D01*
X146855331Y-66392001D01*
X146848510Y-66392371D01*
X146797648Y-66397895D01*
X146782396Y-66401521D01*
X146661946Y-66446676D01*
X146646351Y-66455214D01*
X146544276Y-66531715D01*
X146531715Y-66544276D01*
X146455214Y-66646351D01*
X146446676Y-66661946D01*
X146401522Y-66782394D01*
X146397895Y-66797649D01*
X146392369Y-66848514D01*
X146392000Y-66855328D01*
X146392000Y-67127885D01*
X145340294Y-67127885D01*
X145361529Y-66966590D01*
X145361611Y-66963240D01*
X145363074Y-66903365D01*
X145363074Y-66903361D01*
X145363156Y-66900000D01*
X145344852Y-66677361D01*
X145290431Y-66460702D01*
X145201354Y-66255840D01*
X145130782Y-66146752D01*
X145082822Y-66072617D01*
X145082820Y-66072614D01*
X145080014Y-66068277D01*
X144929670Y-65903051D01*
X144925619Y-65899852D01*
X144925615Y-65899848D01*
X144758414Y-65767800D01*
X144758410Y-65767798D01*
X144754359Y-65764598D01*
X144712569Y-65741529D01*
X144662598Y-65691097D01*
X144647826Y-65621654D01*
X144672942Y-65555248D01*
X144700294Y-65528641D01*
X144875328Y-65403792D01*
X144883200Y-65397139D01*
X145034052Y-65246812D01*
X145040730Y-65238965D01*
X145165003Y-65066020D01*
X145170313Y-65057183D01*
X145264670Y-64866267D01*
X145268469Y-64856672D01*
X145330377Y-64652910D01*
X145332555Y-64642837D01*
X145333986Y-64631962D01*
X145331775Y-64617778D01*
X145318617Y-64614000D01*
X142683225Y-64614000D01*
X142669694Y-64617973D01*
X142668257Y-64627966D01*
X142698565Y-64762446D01*
X142701645Y-64772275D01*
X142781770Y-64969603D01*
X142786413Y-64978794D01*
X142897694Y-65160388D01*
X142903777Y-65168699D01*
X143043213Y-65329667D01*
X143050580Y-65336883D01*
X143214434Y-65472916D01*
X143222881Y-65478831D01*
X143291969Y-65519203D01*
X143340693Y-65570842D01*
X143353764Y-65640625D01*
X143327033Y-65706396D01*
X143286584Y-65739752D01*
X143273607Y-65746507D01*
X143269474Y-65749610D01*
X143269471Y-65749612D01*
X143107459Y-65871254D01*
X143094965Y-65880635D01*
X142940629Y-66042138D01*
X142937715Y-66046410D01*
X142937714Y-66046411D01*
X142872650Y-66141791D01*
X142814743Y-66226680D01*
X142767716Y-66327992D01*
X142731716Y-66405548D01*
X142720688Y-66429305D01*
X142660989Y-66644570D01*
X142637251Y-66866695D01*
X142008500Y-66866695D01*
X142008500Y-61786695D01*
X142637251Y-61786695D01*
X142637548Y-61791848D01*
X142637548Y-61791851D01*
X142648551Y-61982672D01*
X142650110Y-62009715D01*
X142651247Y-62014761D01*
X142651248Y-62014767D01*
X142661413Y-62059870D01*
X142699222Y-62227639D01*
X142783266Y-62434616D01*
X142785965Y-62439020D01*
X142891622Y-62611437D01*
X142899987Y-62625088D01*
X143046250Y-62793938D01*
X143218126Y-62936632D01*
X143291955Y-62979774D01*
X143340679Y-63031412D01*
X143353750Y-63101195D01*
X143327019Y-63166967D01*
X143286562Y-63200327D01*
X143278457Y-63204546D01*
X143269738Y-63210036D01*
X143099433Y-63337905D01*
X143091726Y-63344748D01*
X142944590Y-63498717D01*
X142938104Y-63506727D01*
X142818098Y-63682649D01*
X142813000Y-63691623D01*
X142723338Y-63884783D01*
X142719775Y-63894470D01*
X142664389Y-64094183D01*
X142665912Y-64102607D01*
X142678292Y-64106000D01*
X145318344Y-64106000D01*
X145331875Y-64102027D01*
X145333180Y-64092947D01*
X145291214Y-63925875D01*
X145287894Y-63916124D01*
X145202972Y-63720814D01*
X145198107Y-63711742D01*
X145192414Y-63702942D01*
X145172206Y-63634882D01*
X145192001Y-63566701D01*
X145245516Y-63520046D01*
X145298205Y-63508500D01*
X146434470Y-63508500D01*
X146502591Y-63528502D01*
X146533216Y-63556237D01*
X146567202Y-63599118D01*
X146567207Y-63599123D01*
X146571035Y-63603953D01*
X146575728Y-63607947D01*
X146575729Y-63607948D01*
X146708347Y-63720814D01*
X146721650Y-63732136D01*
X146894294Y-63828624D01*
X147082392Y-63889740D01*
X147278777Y-63913158D01*
X147284912Y-63912686D01*
X147284914Y-63912686D01*
X147469830Y-63898457D01*
X147469834Y-63898456D01*
X147475972Y-63897984D01*
X147666463Y-63844798D01*
X147671967Y-63842018D01*
X147671969Y-63842017D01*
X147837495Y-63758404D01*
X147837497Y-63758403D01*
X147842996Y-63755625D01*
X147998847Y-63633861D01*
X148102523Y-63513751D01*
X148124049Y-63488813D01*
X148124050Y-63488811D01*
X148128078Y-63484145D01*
X148225769Y-63312179D01*
X148288197Y-63124513D01*
X148312985Y-62928295D01*
X148313380Y-62900000D01*
X148301401Y-62777834D01*
X148314660Y-62708088D01*
X148363523Y-62656580D01*
X148432475Y-62639667D01*
X148499626Y-62662717D01*
X148515895Y-62676444D01*
X149054595Y-63215144D01*
X149088621Y-63277456D01*
X149091500Y-63304239D01*
X149091500Y-63787072D01*
X149091837Y-63790318D01*
X149091837Y-63790322D01*
X149100317Y-63872047D01*
X149102293Y-63891093D01*
X149104474Y-63897629D01*
X149104474Y-63897631D01*
X149134003Y-63986139D01*
X149157346Y-64056107D01*
X149248884Y-64204031D01*
X149254066Y-64209204D01*
X149366816Y-64321758D01*
X149366821Y-64321762D01*
X149371997Y-64326929D01*
X149378227Y-64330769D01*
X149378228Y-64330770D01*
X149469116Y-64386794D01*
X149516609Y-64439566D01*
X149529000Y-64494054D01*
X149529000Y-64889364D01*
X149527922Y-64905807D01*
X149523750Y-64937500D01*
X149529000Y-64977380D01*
X149529000Y-64977385D01*
X149539157Y-65054534D01*
X149544662Y-65096351D01*
X149605976Y-65244376D01*
X149611003Y-65250927D01*
X149611004Y-65250929D01*
X149679020Y-65339569D01*
X149679026Y-65339575D01*
X149703513Y-65371487D01*
X149710068Y-65376517D01*
X149728879Y-65390952D01*
X149741270Y-65401819D01*
X150823185Y-66483734D01*
X150834052Y-66496125D01*
X150853513Y-66521487D01*
X150860063Y-66526513D01*
X150885421Y-66545971D01*
X150885437Y-66545985D01*
X150900245Y-66557347D01*
X150980624Y-66619024D01*
X151128649Y-66680338D01*
X151287500Y-66701251D01*
X151319199Y-66697078D01*
X151335644Y-66696000D01*
X152286830Y-66696000D01*
X152354951Y-66716002D01*
X152393974Y-66755697D01*
X152423884Y-66804031D01*
X152429066Y-66809204D01*
X152530786Y-66910747D01*
X152564865Y-66973030D01*
X152559862Y-67043850D01*
X152530941Y-67088937D01*
X152428246Y-67191812D01*
X152428242Y-67191817D01*
X152423071Y-67196997D01*
X152419231Y-67203227D01*
X152419230Y-67203228D01*
X152336364Y-67337662D01*
X152331791Y-67345080D01*
X152277026Y-67510191D01*
X152266500Y-67612928D01*
X152266500Y-68212072D01*
X152266837Y-68215318D01*
X152266837Y-68215322D01*
X152272333Y-68268285D01*
X152277293Y-68316093D01*
X152279474Y-68322629D01*
X152279474Y-68322631D01*
X152323768Y-68455395D01*
X152332346Y-68481107D01*
X152423884Y-68629031D01*
X152429066Y-68634204D01*
X152541816Y-68746758D01*
X152541821Y-68746762D01*
X152546997Y-68751929D01*
X152695080Y-68843209D01*
X152702028Y-68845514D01*
X152702029Y-68845514D01*
X152705170Y-68846556D01*
X152707036Y-68847849D01*
X152708662Y-68848607D01*
X152708532Y-68848885D01*
X152763529Y-68886988D01*
X152790764Y-68952553D01*
X152791500Y-68966148D01*
X152791500Y-70134774D01*
X152771498Y-70202895D01*
X152744453Y-70232970D01*
X152695783Y-70272102D01*
X152690975Y-70275968D01*
X152563846Y-70427474D01*
X152560879Y-70432872D01*
X152560875Y-70432877D01*
X152514226Y-70517733D01*
X152468567Y-70600787D01*
X152466706Y-70606654D01*
X152466705Y-70606656D01*
X152421996Y-70747597D01*
X152408765Y-70789306D01*
X152386719Y-70985851D01*
X152387235Y-70991995D01*
X152401654Y-71163710D01*
X152403268Y-71182934D01*
X152413436Y-71218393D01*
X152451485Y-71351085D01*
X152457783Y-71373050D01*
X152548187Y-71548956D01*
X152671035Y-71703953D01*
X152675728Y-71707947D01*
X152675729Y-71707948D01*
X152730018Y-71754151D01*
X152821650Y-71832136D01*
X152994294Y-71928624D01*
X153182392Y-71989740D01*
X153378777Y-72013158D01*
X153384912Y-72012686D01*
X153384914Y-72012686D01*
X153569830Y-71998457D01*
X153569834Y-71998456D01*
X153575972Y-71997984D01*
X153766463Y-71944798D01*
X153771967Y-71942018D01*
X153771969Y-71942017D01*
X153937495Y-71858404D01*
X153937497Y-71858403D01*
X153942996Y-71855625D01*
X154098847Y-71733861D01*
X154199197Y-71617604D01*
X154224049Y-71588813D01*
X154224050Y-71588811D01*
X154228078Y-71584145D01*
X154325769Y-71412179D01*
X154388197Y-71224513D01*
X154412985Y-71028295D01*
X154413380Y-71000000D01*
X154411993Y-70985851D01*
X159186719Y-70985851D01*
X159187235Y-70991995D01*
X159201654Y-71163710D01*
X159203268Y-71182934D01*
X159213436Y-71218393D01*
X159251485Y-71351085D01*
X159257783Y-71373050D01*
X159348187Y-71548956D01*
X159471035Y-71703953D01*
X159475728Y-71707947D01*
X159475729Y-71707948D01*
X159530018Y-71754151D01*
X159621650Y-71832136D01*
X159794294Y-71928624D01*
X159982392Y-71989740D01*
X160178777Y-72013158D01*
X160184912Y-72012686D01*
X160184914Y-72012686D01*
X160369830Y-71998457D01*
X160369834Y-71998456D01*
X160375972Y-71997984D01*
X160566463Y-71944798D01*
X160571967Y-71942018D01*
X160571969Y-71942017D01*
X160737495Y-71858404D01*
X160737497Y-71858403D01*
X160742996Y-71855625D01*
X160898847Y-71733861D01*
X160999197Y-71617604D01*
X161024049Y-71588813D01*
X161024050Y-71588811D01*
X161028078Y-71584145D01*
X161050504Y-71544669D01*
X161592001Y-71544669D01*
X161592371Y-71551490D01*
X161597895Y-71602352D01*
X161601521Y-71617604D01*
X161646676Y-71738054D01*
X161655214Y-71753649D01*
X161731715Y-71855724D01*
X161744276Y-71868285D01*
X161846351Y-71944786D01*
X161861946Y-71953324D01*
X161982394Y-71998478D01*
X161997649Y-72002105D01*
X162048514Y-72007631D01*
X162055328Y-72008000D01*
X162327885Y-72008000D01*
X162343124Y-72003525D01*
X162344329Y-72002135D01*
X162346000Y-71994452D01*
X162346000Y-71989884D01*
X162854000Y-71989884D01*
X162858475Y-72005123D01*
X162859865Y-72006328D01*
X162867548Y-72007999D01*
X163144669Y-72007999D01*
X163151490Y-72007629D01*
X163202352Y-72002105D01*
X163217604Y-71998479D01*
X163338054Y-71953324D01*
X163353649Y-71944786D01*
X163455724Y-71868285D01*
X163468285Y-71855724D01*
X163544786Y-71753649D01*
X163553324Y-71738054D01*
X163598478Y-71617606D01*
X163602105Y-71602351D01*
X163607631Y-71551486D01*
X163608000Y-71544672D01*
X163608000Y-71272115D01*
X163603525Y-71256876D01*
X163602135Y-71255671D01*
X163594452Y-71254000D01*
X162872115Y-71254000D01*
X162856876Y-71258475D01*
X162855671Y-71259865D01*
X162854000Y-71267548D01*
X162854000Y-71989884D01*
X162346000Y-71989884D01*
X162346000Y-71272115D01*
X162341525Y-71256876D01*
X162340135Y-71255671D01*
X162332452Y-71254000D01*
X161610116Y-71254000D01*
X161594877Y-71258475D01*
X161593672Y-71259865D01*
X161592001Y-71267548D01*
X161592001Y-71544669D01*
X161050504Y-71544669D01*
X161125769Y-71412179D01*
X161188197Y-71224513D01*
X161212985Y-71028295D01*
X161213380Y-71000000D01*
X161212346Y-70989455D01*
X164244825Y-70989455D01*
X164245512Y-70996462D01*
X164245512Y-70996465D01*
X164248311Y-71025010D01*
X164261255Y-71157025D01*
X164314402Y-71316791D01*
X164318049Y-71322813D01*
X164318050Y-71322815D01*
X164375419Y-71417542D01*
X164401624Y-71460812D01*
X164406513Y-71465875D01*
X164406514Y-71465876D01*
X164433460Y-71493779D01*
X164518586Y-71581929D01*
X164524483Y-71585788D01*
X164653577Y-71670266D01*
X164653581Y-71670268D01*
X164659475Y-71674125D01*
X164817289Y-71732815D01*
X164824270Y-71733746D01*
X164824272Y-71733747D01*
X164869812Y-71739823D01*
X164984183Y-71755083D01*
X164991194Y-71754445D01*
X164991198Y-71754445D01*
X165144843Y-71740462D01*
X165151864Y-71739823D01*
X165158566Y-71737645D01*
X165158568Y-71737645D01*
X165305298Y-71689970D01*
X165305301Y-71689969D01*
X165311997Y-71687793D01*
X165456623Y-71601578D01*
X165461717Y-71596727D01*
X165461721Y-71596724D01*
X165573454Y-71490322D01*
X165573455Y-71490320D01*
X165578554Y-71485465D01*
X165594934Y-71460812D01*
X165653243Y-71373050D01*
X165671731Y-71345223D01*
X165731521Y-71187823D01*
X165754955Y-71021088D01*
X165755249Y-71000000D01*
X167386526Y-71000000D01*
X167406391Y-71252403D01*
X167407545Y-71257210D01*
X167407546Y-71257216D01*
X167436672Y-71378535D01*
X167465495Y-71498591D01*
X167467388Y-71503162D01*
X167467389Y-71503164D01*
X167550559Y-71703953D01*
X167562384Y-71732502D01*
X167694672Y-71948376D01*
X167859102Y-72140898D01*
X168051624Y-72305328D01*
X168267498Y-72437616D01*
X168272068Y-72439509D01*
X168272072Y-72439511D01*
X168496836Y-72532611D01*
X168501409Y-72534505D01*
X168586032Y-72554821D01*
X168742784Y-72592454D01*
X168742790Y-72592455D01*
X168747597Y-72593609D01*
X168847416Y-72601465D01*
X168934345Y-72608307D01*
X168934352Y-72608307D01*
X168936801Y-72608500D01*
X169063199Y-72608500D01*
X169065648Y-72608307D01*
X169065655Y-72608307D01*
X169152584Y-72601465D01*
X169252403Y-72593609D01*
X169257210Y-72592455D01*
X169257216Y-72592454D01*
X169413968Y-72554821D01*
X169498591Y-72534505D01*
X169503164Y-72532611D01*
X169727928Y-72439511D01*
X169727932Y-72439509D01*
X169732502Y-72437616D01*
X169948376Y-72305328D01*
X170140898Y-72140898D01*
X170305328Y-71948376D01*
X170437616Y-71732502D01*
X170449442Y-71703953D01*
X170532611Y-71503164D01*
X170532612Y-71503162D01*
X170534505Y-71498591D01*
X170563328Y-71378535D01*
X170592454Y-71257216D01*
X170592455Y-71257210D01*
X170593609Y-71252403D01*
X170613474Y-71000000D01*
X170593609Y-70747597D01*
X170592152Y-70741525D01*
X170535660Y-70506221D01*
X170534505Y-70501409D01*
X170503880Y-70427474D01*
X170439511Y-70272072D01*
X170439509Y-70272068D01*
X170437616Y-70267498D01*
X170305328Y-70051624D01*
X170140898Y-69859102D01*
X169948376Y-69694672D01*
X169732502Y-69562384D01*
X169727932Y-69560491D01*
X169727928Y-69560489D01*
X169503164Y-69467389D01*
X169503162Y-69467388D01*
X169498591Y-69465495D01*
X169413968Y-69445179D01*
X169257216Y-69407546D01*
X169257210Y-69407545D01*
X169252403Y-69406391D01*
X169152584Y-69398535D01*
X169065655Y-69391693D01*
X169065648Y-69391693D01*
X169063199Y-69391500D01*
X168936801Y-69391500D01*
X168934352Y-69391693D01*
X168934345Y-69391693D01*
X168847416Y-69398535D01*
X168747597Y-69406391D01*
X168742790Y-69407545D01*
X168742784Y-69407546D01*
X168586032Y-69445179D01*
X168501409Y-69465495D01*
X168496838Y-69467388D01*
X168496836Y-69467389D01*
X168272072Y-69560489D01*
X168272068Y-69560491D01*
X168267498Y-69562384D01*
X168051624Y-69694672D01*
X167859102Y-69859102D01*
X167694672Y-70051624D01*
X167562384Y-70267498D01*
X167560491Y-70272068D01*
X167560489Y-70272072D01*
X167496120Y-70427474D01*
X167465495Y-70501409D01*
X167464340Y-70506221D01*
X167407849Y-70741525D01*
X167406391Y-70747597D01*
X167386526Y-71000000D01*
X165755249Y-71000000D01*
X165736481Y-70832676D01*
X165681108Y-70673668D01*
X165591884Y-70530879D01*
X165583723Y-70522661D01*
X165478205Y-70416403D01*
X165478201Y-70416400D01*
X165473242Y-70411406D01*
X165451565Y-70397649D01*
X165417953Y-70376319D01*
X165331079Y-70321187D01*
X165172462Y-70264706D01*
X165165474Y-70263873D01*
X165165471Y-70263872D01*
X165072300Y-70252762D01*
X165005273Y-70244769D01*
X164998270Y-70245505D01*
X164998269Y-70245505D01*
X164952712Y-70250293D01*
X164837821Y-70262369D01*
X164831155Y-70264638D01*
X164831152Y-70264639D01*
X164685098Y-70314360D01*
X164685095Y-70314361D01*
X164678431Y-70316630D01*
X164672436Y-70320318D01*
X164672432Y-70320320D01*
X164541021Y-70401165D01*
X164541019Y-70401167D01*
X164535022Y-70404856D01*
X164506408Y-70432877D01*
X164441096Y-70496836D01*
X164414724Y-70522661D01*
X164323515Y-70664190D01*
X164321105Y-70670810D01*
X164321104Y-70670813D01*
X164298669Y-70732452D01*
X164265927Y-70822409D01*
X164244825Y-70989455D01*
X161212346Y-70989455D01*
X161194080Y-70803167D01*
X161175050Y-70740135D01*
X161171351Y-70727885D01*
X161592000Y-70727885D01*
X161596475Y-70743124D01*
X161597865Y-70744329D01*
X161605548Y-70746000D01*
X162327885Y-70746000D01*
X162343124Y-70741525D01*
X162344329Y-70740135D01*
X162346000Y-70732452D01*
X162346000Y-70727885D01*
X162854000Y-70727885D01*
X162858475Y-70743124D01*
X162859865Y-70744329D01*
X162867548Y-70746000D01*
X163589884Y-70746000D01*
X163605123Y-70741525D01*
X163606328Y-70740135D01*
X163607999Y-70732452D01*
X163607999Y-70455331D01*
X163607629Y-70448510D01*
X163602105Y-70397648D01*
X163598479Y-70382396D01*
X163553324Y-70261946D01*
X163544786Y-70246351D01*
X163468285Y-70144276D01*
X163455724Y-70131715D01*
X163353649Y-70055214D01*
X163338054Y-70046676D01*
X163217606Y-70001522D01*
X163202351Y-69997895D01*
X163151486Y-69992369D01*
X163144672Y-69992000D01*
X162872115Y-69992000D01*
X162856876Y-69996475D01*
X162855671Y-69997865D01*
X162854000Y-70005548D01*
X162854000Y-70727885D01*
X162346000Y-70727885D01*
X162346000Y-70010116D01*
X162341525Y-69994877D01*
X162340135Y-69993672D01*
X162332452Y-69992001D01*
X162055331Y-69992001D01*
X162048510Y-69992371D01*
X161997648Y-69997895D01*
X161982396Y-70001521D01*
X161861946Y-70046676D01*
X161846351Y-70055214D01*
X161744276Y-70131715D01*
X161731715Y-70144276D01*
X161655214Y-70246351D01*
X161646676Y-70261946D01*
X161601522Y-70382394D01*
X161597895Y-70397649D01*
X161592369Y-70448514D01*
X161592000Y-70455328D01*
X161592000Y-70727885D01*
X161171351Y-70727885D01*
X161138697Y-70619731D01*
X161136916Y-70613831D01*
X161044066Y-70439204D01*
X160950896Y-70324966D01*
X160922960Y-70290713D01*
X160922957Y-70290710D01*
X160919065Y-70285938D01*
X160912724Y-70280692D01*
X160771425Y-70163799D01*
X160771421Y-70163797D01*
X160766675Y-70159870D01*
X160592701Y-70065802D01*
X160403768Y-70007318D01*
X160397643Y-70006674D01*
X160397642Y-70006674D01*
X160213204Y-69987289D01*
X160213202Y-69987289D01*
X160207075Y-69986645D01*
X160144179Y-69992369D01*
X160016251Y-70004011D01*
X160016248Y-70004012D01*
X160010112Y-70004570D01*
X160004206Y-70006308D01*
X160004202Y-70006309D01*
X159899076Y-70037249D01*
X159820381Y-70060410D01*
X159814923Y-70063263D01*
X159814919Y-70063265D01*
X159724147Y-70110720D01*
X159645110Y-70152040D01*
X159490975Y-70275968D01*
X159363846Y-70427474D01*
X159360879Y-70432872D01*
X159360875Y-70432877D01*
X159314226Y-70517733D01*
X159268567Y-70600787D01*
X159266706Y-70606654D01*
X159266705Y-70606656D01*
X159221996Y-70747597D01*
X159208765Y-70789306D01*
X159186719Y-70985851D01*
X154411993Y-70985851D01*
X154394080Y-70803167D01*
X154375050Y-70740135D01*
X154338697Y-70619731D01*
X154336916Y-70613831D01*
X154244066Y-70439204D01*
X154150896Y-70324966D01*
X154122960Y-70290713D01*
X154122957Y-70290710D01*
X154119065Y-70285938D01*
X154112729Y-70280696D01*
X154054185Y-70232265D01*
X154014447Y-70173431D01*
X154008500Y-70135180D01*
X154008500Y-69434500D01*
X154028502Y-69366379D01*
X154082158Y-69319886D01*
X154134500Y-69308500D01*
X157051857Y-69308500D01*
X157068303Y-69309578D01*
X157100000Y-69313751D01*
X157108188Y-69312673D01*
X157131697Y-69309578D01*
X157148143Y-69308500D01*
X161851864Y-69308500D01*
X161868307Y-69309578D01*
X161900000Y-69313750D01*
X161908189Y-69312672D01*
X161939874Y-69308501D01*
X161939884Y-69308500D01*
X161939885Y-69308500D01*
X162039457Y-69295391D01*
X162050664Y-69293916D01*
X162050666Y-69293915D01*
X162058851Y-69292838D01*
X162206876Y-69231524D01*
X162302072Y-69158477D01*
X162302075Y-69158474D01*
X162333987Y-69133987D01*
X162339017Y-69127432D01*
X162353452Y-69108621D01*
X162364319Y-69096230D01*
X164308734Y-67151815D01*
X164321125Y-67140948D01*
X164339937Y-67126513D01*
X164346487Y-67121487D01*
X164370974Y-67089575D01*
X164370978Y-67089571D01*
X164444024Y-66994376D01*
X164505338Y-66846351D01*
X164509787Y-66812559D01*
X164521000Y-66727385D01*
X164521000Y-66727380D01*
X164526250Y-66687500D01*
X164522078Y-66655807D01*
X164521000Y-66639364D01*
X164521000Y-65685774D01*
X168038102Y-65685774D01*
X168046751Y-65916158D01*
X168094093Y-66141791D01*
X168096051Y-66146750D01*
X168096052Y-66146752D01*
X168130921Y-66235044D01*
X168178776Y-66356221D01*
X168181543Y-66360780D01*
X168181544Y-66360783D01*
X168242177Y-66460702D01*
X168298377Y-66553317D01*
X168301874Y-66557347D01*
X168425812Y-66700173D01*
X168449477Y-66727445D01*
X168453608Y-66730832D01*
X168623627Y-66870240D01*
X168623633Y-66870244D01*
X168627755Y-66873624D01*
X168632391Y-66876263D01*
X168632394Y-66876265D01*
X168741422Y-66938327D01*
X168828114Y-66987675D01*
X169044825Y-67066337D01*
X169050074Y-67067286D01*
X169050077Y-67067287D01*
X169267608Y-67106623D01*
X169267615Y-67106624D01*
X169271692Y-67107361D01*
X169289414Y-67108197D01*
X169294356Y-67108430D01*
X169294363Y-67108430D01*
X169295844Y-67108500D01*
X169707890Y-67108500D01*
X169774809Y-67102822D01*
X169874409Y-67094371D01*
X169874413Y-67094370D01*
X169879720Y-67093920D01*
X169884875Y-67092582D01*
X169884881Y-67092581D01*
X170097703Y-67037343D01*
X170097707Y-67037342D01*
X170102872Y-67036001D01*
X170107738Y-67033809D01*
X170107741Y-67033808D01*
X170308202Y-66943507D01*
X170313075Y-66941312D01*
X170504319Y-66812559D01*
X170508907Y-66808183D01*
X170597769Y-66723412D01*
X170671135Y-66653424D01*
X170676398Y-66646351D01*
X170769299Y-66521487D01*
X170808754Y-66468458D01*
X170812698Y-66460702D01*
X170868342Y-66351256D01*
X170913240Y-66262949D01*
X170915448Y-66255840D01*
X170980024Y-66047871D01*
X170981607Y-66042773D01*
X170993317Y-65954419D01*
X171011198Y-65819511D01*
X171011198Y-65819506D01*
X171011898Y-65814226D01*
X171009454Y-65749111D01*
X171004888Y-65627507D01*
X171003249Y-65583842D01*
X170989622Y-65518893D01*
X170957002Y-65363428D01*
X170955907Y-65358209D01*
X170883347Y-65174476D01*
X170873185Y-65148744D01*
X170873184Y-65148742D01*
X170871224Y-65143779D01*
X170857592Y-65121313D01*
X170754390Y-64951243D01*
X170751623Y-64946683D01*
X170729357Y-64921024D01*
X170604023Y-64776588D01*
X170604021Y-64776586D01*
X170600523Y-64772555D01*
X170523229Y-64709178D01*
X170426373Y-64629760D01*
X170426367Y-64629756D01*
X170422245Y-64626376D01*
X170390750Y-64608448D01*
X170341445Y-64557368D01*
X170327583Y-64487738D01*
X170353566Y-64421667D01*
X170382716Y-64394427D01*
X170478457Y-64329970D01*
X170504319Y-64312559D01*
X170508629Y-64308448D01*
X170598163Y-64223036D01*
X170671135Y-64153424D01*
X170808754Y-63968458D01*
X170811235Y-63963580D01*
X170870701Y-63846617D01*
X170913240Y-63762949D01*
X170915515Y-63755625D01*
X170980024Y-63547871D01*
X170981607Y-63542773D01*
X170984619Y-63520046D01*
X171011198Y-63319511D01*
X171011198Y-63319506D01*
X171011898Y-63314226D01*
X171011602Y-63306326D01*
X171005189Y-63135531D01*
X171003249Y-63083842D01*
X170955907Y-62858209D01*
X170899298Y-62714866D01*
X170873185Y-62648744D01*
X170873184Y-62648742D01*
X170871224Y-62643779D01*
X170851599Y-62611437D01*
X170754390Y-62451243D01*
X170751623Y-62446683D01*
X170687310Y-62372568D01*
X170604023Y-62276588D01*
X170604021Y-62276586D01*
X170600523Y-62272555D01*
X170514563Y-62202072D01*
X170426373Y-62129760D01*
X170426367Y-62129756D01*
X170422245Y-62126376D01*
X170390750Y-62108448D01*
X170341445Y-62057368D01*
X170327583Y-61987738D01*
X170353566Y-61921667D01*
X170382716Y-61894427D01*
X170418642Y-61870240D01*
X170504319Y-61812559D01*
X170509237Y-61807868D01*
X170577536Y-61742713D01*
X170671135Y-61653424D01*
X170808754Y-61468458D01*
X170820784Y-61444798D01*
X170876536Y-61335141D01*
X170913240Y-61262949D01*
X170927701Y-61216379D01*
X170980024Y-61047871D01*
X170981607Y-61042773D01*
X170992294Y-60962138D01*
X171011198Y-60819511D01*
X171011198Y-60819506D01*
X171011898Y-60814226D01*
X171003249Y-60583842D01*
X170955907Y-60358209D01*
X170931327Y-60295969D01*
X170873185Y-60148744D01*
X170873184Y-60148742D01*
X170871224Y-60143779D01*
X170860373Y-60125896D01*
X170754390Y-59951243D01*
X170751623Y-59946683D01*
X170702288Y-59889829D01*
X170604023Y-59776588D01*
X170604021Y-59776586D01*
X170600523Y-59772555D01*
X170564880Y-59743330D01*
X170524886Y-59684671D01*
X170522954Y-59613701D01*
X170559698Y-59552952D01*
X170578468Y-59538752D01*
X170718120Y-59452332D01*
X170724348Y-59448478D01*
X170849305Y-59323303D01*
X170866327Y-59295688D01*
X170938275Y-59178968D01*
X170938276Y-59178966D01*
X170942115Y-59172738D01*
X170983104Y-59049159D01*
X170995632Y-59011389D01*
X170995632Y-59011387D01*
X170997797Y-59004861D01*
X171008500Y-58900400D01*
X171008500Y-57599600D01*
X171008163Y-57596350D01*
X170998238Y-57500692D01*
X170998237Y-57500688D01*
X170997526Y-57493834D01*
X170989160Y-57468756D01*
X170943868Y-57333002D01*
X170941550Y-57326054D01*
X170848478Y-57175652D01*
X170723303Y-57050695D01*
X170691446Y-57031058D01*
X170578968Y-56961725D01*
X170578966Y-56961724D01*
X170572738Y-56957885D01*
X170487808Y-56929715D01*
X170411389Y-56904368D01*
X170411387Y-56904368D01*
X170404861Y-56902203D01*
X170398025Y-56901503D01*
X170398022Y-56901502D01*
X170343246Y-56895890D01*
X170300400Y-56891500D01*
X168749600Y-56891500D01*
X168746354Y-56891837D01*
X168746350Y-56891837D01*
X168650692Y-56901762D01*
X168650688Y-56901763D01*
X168643834Y-56902474D01*
X168637298Y-56904655D01*
X168637296Y-56904655D01*
X168547040Y-56934767D01*
X168476054Y-56958450D01*
X168325652Y-57051522D01*
X168200695Y-57176697D01*
X168196855Y-57182927D01*
X168196854Y-57182928D01*
X168151666Y-57256237D01*
X168107885Y-57327262D01*
X168090505Y-57379661D01*
X168067911Y-57447782D01*
X168052203Y-57495139D01*
X168051503Y-57501975D01*
X168051502Y-57501978D01*
X168048772Y-57528624D01*
X168041500Y-57599600D01*
X168041500Y-58900400D01*
X168041837Y-58903646D01*
X168041837Y-58903650D01*
X168051414Y-58995949D01*
X168052474Y-59006166D01*
X168054655Y-59012702D01*
X168054655Y-59012704D01*
X168090021Y-59118709D01*
X168108450Y-59173946D01*
X168201522Y-59324348D01*
X168326697Y-59449305D01*
X168472340Y-59539081D01*
X168519832Y-59591852D01*
X168531256Y-59661924D01*
X168502982Y-59727048D01*
X168493195Y-59737510D01*
X168456459Y-59772555D01*
X168378865Y-59846576D01*
X168375682Y-59850854D01*
X168343122Y-59894616D01*
X168241246Y-60031542D01*
X168238830Y-60036293D01*
X168238828Y-60036297D01*
X168214022Y-60085088D01*
X168136760Y-60237051D01*
X168135178Y-60242145D01*
X168135177Y-60242148D01*
X168082618Y-60411416D01*
X168068393Y-60457227D01*
X168067692Y-60462516D01*
X168040656Y-60666507D01*
X168038102Y-60685774D01*
X168038302Y-60691103D01*
X168038302Y-60691105D01*
X168040255Y-60743124D01*
X168046751Y-60916158D01*
X168094093Y-61141791D01*
X168096051Y-61146750D01*
X168096052Y-61146752D01*
X168174191Y-61344610D01*
X168178776Y-61356221D01*
X168181543Y-61360780D01*
X168181544Y-61360783D01*
X168220887Y-61425618D01*
X168298377Y-61553317D01*
X168301874Y-61557347D01*
X168433311Y-61708815D01*
X168449477Y-61727445D01*
X168453608Y-61730832D01*
X168623627Y-61870240D01*
X168623633Y-61870244D01*
X168627755Y-61873624D01*
X168659250Y-61891552D01*
X168708555Y-61942632D01*
X168722417Y-62012262D01*
X168696434Y-62078333D01*
X168667284Y-62105573D01*
X168545681Y-62187441D01*
X168541824Y-62191120D01*
X168541822Y-62191122D01*
X168508829Y-62222596D01*
X168378865Y-62346576D01*
X168375682Y-62350854D01*
X168346143Y-62390556D01*
X168241246Y-62531542D01*
X168238830Y-62536293D01*
X168238828Y-62536297D01*
X168216594Y-62580028D01*
X168136760Y-62737051D01*
X168135178Y-62742145D01*
X168135177Y-62742148D01*
X168087251Y-62896495D01*
X168068393Y-62957227D01*
X168067692Y-62962516D01*
X168039720Y-63173567D01*
X168038102Y-63185774D01*
X168038302Y-63191103D01*
X168038302Y-63191105D01*
X168039242Y-63216146D01*
X168046751Y-63416158D01*
X168094093Y-63641791D01*
X168096051Y-63646750D01*
X168096052Y-63646752D01*
X168173167Y-63842017D01*
X168178776Y-63856221D01*
X168181543Y-63860780D01*
X168181544Y-63860783D01*
X168240830Y-63958482D01*
X168298377Y-64053317D01*
X168301874Y-64057347D01*
X168442335Y-64219214D01*
X168449477Y-64227445D01*
X168453608Y-64230832D01*
X168623627Y-64370240D01*
X168623633Y-64370244D01*
X168627755Y-64373624D01*
X168659250Y-64391552D01*
X168708555Y-64442632D01*
X168722417Y-64512262D01*
X168696434Y-64578333D01*
X168667284Y-64605573D01*
X168545681Y-64687441D01*
X168378865Y-64846576D01*
X168375682Y-64850854D01*
X168359053Y-64873204D01*
X168241246Y-65031542D01*
X168238830Y-65036293D01*
X168238828Y-65036297D01*
X168189003Y-65134296D01*
X168136760Y-65237051D01*
X168135178Y-65242145D01*
X168135177Y-65242148D01*
X168095358Y-65370385D01*
X168068393Y-65457227D01*
X168067692Y-65462516D01*
X168038962Y-65679289D01*
X168038102Y-65685774D01*
X164521000Y-65685774D01*
X164521000Y-64463170D01*
X164541002Y-64395049D01*
X164580697Y-64356026D01*
X164580780Y-64355975D01*
X164629031Y-64326116D01*
X164646668Y-64308448D01*
X164746758Y-64208184D01*
X164746762Y-64208179D01*
X164751929Y-64203003D01*
X164824946Y-64084548D01*
X164839369Y-64061150D01*
X164839370Y-64061148D01*
X164843209Y-64054920D01*
X164897974Y-63889809D01*
X164908500Y-63787072D01*
X164908500Y-63416739D01*
X164928502Y-63348618D01*
X164945405Y-63327644D01*
X165096234Y-63176815D01*
X165108625Y-63165948D01*
X165127437Y-63151513D01*
X165133987Y-63146487D01*
X165158474Y-63114575D01*
X165158480Y-63114569D01*
X165226496Y-63025929D01*
X165226497Y-63025927D01*
X165231524Y-63019376D01*
X165267306Y-62932990D01*
X165270710Y-62924771D01*
X165289678Y-62878980D01*
X165289679Y-62878977D01*
X165292838Y-62871350D01*
X165308500Y-62752385D01*
X165308500Y-62752378D01*
X165313750Y-62712500D01*
X165309578Y-62680807D01*
X165308500Y-62664364D01*
X165308500Y-59335636D01*
X165309578Y-59319190D01*
X165312672Y-59295688D01*
X165313750Y-59287500D01*
X165308500Y-59247622D01*
X165308500Y-59247615D01*
X165292838Y-59128650D01*
X165288721Y-59118709D01*
X165243418Y-59009339D01*
X165238559Y-58997608D01*
X165231524Y-58980624D01*
X165158477Y-58885428D01*
X165158474Y-58885425D01*
X165133987Y-58853513D01*
X165117292Y-58840702D01*
X165108621Y-58834048D01*
X165096230Y-58823181D01*
X164945405Y-58672356D01*
X164911379Y-58610044D01*
X164908500Y-58583261D01*
X164908500Y-58212928D01*
X164906237Y-58191118D01*
X164898419Y-58115765D01*
X164898418Y-58115761D01*
X164897707Y-58108907D01*
X164892502Y-58093304D01*
X164844972Y-57950841D01*
X164842654Y-57943893D01*
X164751116Y-57795969D01*
X164736062Y-57780941D01*
X164633184Y-57678242D01*
X164633179Y-57678238D01*
X164628003Y-57673071D01*
X164553485Y-57627137D01*
X164486150Y-57585631D01*
X164486148Y-57585630D01*
X164479920Y-57581791D01*
X164314809Y-57527026D01*
X164307973Y-57526326D01*
X164307970Y-57526325D01*
X164256474Y-57521049D01*
X164212072Y-57516500D01*
X163612928Y-57516500D01*
X163609682Y-57516837D01*
X163609678Y-57516837D01*
X163515765Y-57526581D01*
X163515761Y-57526582D01*
X163508907Y-57527293D01*
X163502371Y-57529474D01*
X163502369Y-57529474D01*
X163451465Y-57546457D01*
X163343893Y-57582346D01*
X163195969Y-57673884D01*
X163190796Y-57679066D01*
X163089253Y-57780786D01*
X163026970Y-57814865D01*
X162956150Y-57809862D01*
X162911063Y-57780941D01*
X162808188Y-57678246D01*
X162808183Y-57678242D01*
X162803003Y-57673071D01*
X162728485Y-57627137D01*
X162661150Y-57585631D01*
X162661148Y-57585630D01*
X162654920Y-57581791D01*
X162489809Y-57527026D01*
X162482973Y-57526326D01*
X162482970Y-57526325D01*
X162431474Y-57521049D01*
X162387072Y-57516500D01*
X161787928Y-57516500D01*
X161784682Y-57516837D01*
X161784678Y-57516837D01*
X161690765Y-57526581D01*
X161690761Y-57526582D01*
X161683907Y-57527293D01*
X161677371Y-57529474D01*
X161677369Y-57529474D01*
X161626465Y-57546457D01*
X161518893Y-57582346D01*
X161370969Y-57673884D01*
X161365796Y-57679066D01*
X161253242Y-57791816D01*
X161253238Y-57791821D01*
X161248071Y-57796997D01*
X161244231Y-57803227D01*
X161244230Y-57803228D01*
X161161364Y-57937662D01*
X161156791Y-57945080D01*
X161102026Y-58110191D01*
X161091500Y-58212928D01*
X161091500Y-58787072D01*
X161091837Y-58790318D01*
X161091837Y-58790322D01*
X161099074Y-58860065D01*
X161102293Y-58891093D01*
X161104474Y-58897629D01*
X161104474Y-58897631D01*
X161116609Y-58934003D01*
X161157346Y-59056107D01*
X161248884Y-59204031D01*
X161254066Y-59209204D01*
X161366816Y-59321758D01*
X161366821Y-59321762D01*
X161371997Y-59326929D01*
X161386122Y-59335636D01*
X161409768Y-59350212D01*
X161457260Y-59402985D01*
X161468682Y-59473057D01*
X161440408Y-59538180D01*
X161432745Y-59546566D01*
X160930439Y-60048872D01*
X160868127Y-60082898D01*
X160797312Y-60077833D01*
X160746630Y-60038262D01*
X160744684Y-60039978D01*
X160739658Y-60034277D01*
X160735357Y-60028019D01*
X160722990Y-60017000D01*
X160612993Y-59918996D01*
X160612990Y-59918994D01*
X160607321Y-59913943D01*
X160579137Y-59899020D01*
X160527157Y-59871498D01*
X160455769Y-59833700D01*
X160403952Y-59820685D01*
X160342757Y-59784691D01*
X160310736Y-59721325D01*
X160309384Y-59684880D01*
X160310030Y-59678930D01*
X160310399Y-59675534D01*
X160310399Y-59324466D01*
X160303644Y-59262284D01*
X160252514Y-59125895D01*
X160165160Y-59009339D01*
X160157980Y-59003958D01*
X160151630Y-58997608D01*
X160154075Y-58995163D01*
X160121541Y-58951635D01*
X160113965Y-58908243D01*
X160113887Y-58908247D01*
X160113851Y-58907592D01*
X160113637Y-58906367D01*
X160113661Y-58904132D01*
X160113661Y-58904126D01*
X160113704Y-58900000D01*
X160106528Y-58840702D01*
X160094015Y-58737299D01*
X160094014Y-58737296D01*
X160093102Y-58729758D01*
X160059409Y-58640590D01*
X160035171Y-58576447D01*
X160032487Y-58569344D01*
X159935357Y-58428019D01*
X159929686Y-58422966D01*
X159812993Y-58318996D01*
X159812990Y-58318994D01*
X159807321Y-58313943D01*
X159799325Y-58309709D01*
X159700776Y-58257530D01*
X159655769Y-58233700D01*
X159630433Y-58227336D01*
X159496822Y-58193775D01*
X159496818Y-58193775D01*
X159489451Y-58191924D01*
X159481852Y-58191884D01*
X159481850Y-58191884D01*
X159434125Y-58191634D01*
X159335459Y-58191118D01*
X159267444Y-58170760D01*
X159221233Y-58116862D01*
X159211497Y-58046536D01*
X159241328Y-57982110D01*
X159247024Y-57976025D01*
X160285985Y-56937064D01*
X160348297Y-56903038D01*
X160387921Y-56900815D01*
X160462928Y-56908500D01*
X161037072Y-56908500D01*
X161040318Y-56908163D01*
X161040322Y-56908163D01*
X161134235Y-56898419D01*
X161134239Y-56898418D01*
X161141093Y-56897707D01*
X161147629Y-56895526D01*
X161147631Y-56895526D01*
X161280395Y-56851232D01*
X161306107Y-56842654D01*
X161454031Y-56751116D01*
X161459204Y-56745934D01*
X161571758Y-56633184D01*
X161571762Y-56633179D01*
X161576929Y-56628003D01*
X161591839Y-56603815D01*
X161664369Y-56486150D01*
X161664370Y-56486148D01*
X161668209Y-56479920D01*
X161722974Y-56314809D01*
X161733500Y-56212072D01*
X161733500Y-56003871D01*
X161753502Y-55935750D01*
X161770405Y-55914776D01*
X161840802Y-55844379D01*
X161903114Y-55810353D01*
X161946561Y-55808581D01*
X161957647Y-55810060D01*
X161975981Y-55812507D01*
X161975984Y-55812507D01*
X161982961Y-55813438D01*
X161989972Y-55812800D01*
X161989976Y-55812800D01*
X162132459Y-55799832D01*
X162163600Y-55796998D01*
X162170302Y-55794820D01*
X162170304Y-55794820D01*
X162329409Y-55743124D01*
X162329412Y-55743123D01*
X162336108Y-55740947D01*
X162491912Y-55648069D01*
X162623266Y-55522982D01*
X162723643Y-55371902D01*
X162788055Y-55202338D01*
X162791582Y-55177240D01*
X162812748Y-55026639D01*
X162812748Y-55026636D01*
X162813299Y-55022717D01*
X162813616Y-55000000D01*
X162793397Y-54819745D01*
X162789617Y-54808890D01*
X162736064Y-54655106D01*
X162736062Y-54655103D01*
X162733745Y-54648448D01*
X162693556Y-54584132D01*
X162641359Y-54500598D01*
X162637626Y-54494624D01*
X162623941Y-54480843D01*
X162514778Y-54370915D01*
X162514774Y-54370912D01*
X162509815Y-54365918D01*
X162498697Y-54358862D01*
X162379396Y-54283152D01*
X162356666Y-54268727D01*
X162305608Y-54250546D01*
X162192425Y-54210243D01*
X162192420Y-54210242D01*
X162185790Y-54207881D01*
X162178802Y-54207048D01*
X162178799Y-54207047D01*
X162055698Y-54192368D01*
X162005680Y-54186404D01*
X161998677Y-54187140D01*
X161998676Y-54187140D01*
X161832288Y-54204628D01*
X161832286Y-54204629D01*
X161825288Y-54205364D01*
X161740585Y-54234199D01*
X161738884Y-54234778D01*
X161698279Y-54241500D01*
X161679569Y-54241500D01*
X161660621Y-54240067D01*
X161653280Y-54238950D01*
X161646383Y-54237901D01*
X161646381Y-54237901D01*
X161639151Y-54236801D01*
X161631859Y-54237394D01*
X161631856Y-54237394D01*
X161586482Y-54241085D01*
X161576267Y-54241500D01*
X161568207Y-54241500D01*
X161554917Y-54243049D01*
X161539993Y-54244789D01*
X161535618Y-54245222D01*
X161470161Y-54250546D01*
X161470158Y-54250547D01*
X161462863Y-54251140D01*
X161455899Y-54253396D01*
X161449940Y-54254587D01*
X161444085Y-54255971D01*
X161436819Y-54256818D01*
X161368173Y-54281735D01*
X161364045Y-54283152D01*
X161301564Y-54303393D01*
X161301562Y-54303394D01*
X161294601Y-54305649D01*
X161288346Y-54309445D01*
X161282872Y-54311951D01*
X161277442Y-54314670D01*
X161270563Y-54317167D01*
X161209516Y-54357191D01*
X161205810Y-54359529D01*
X161183247Y-54373220D01*
X161117884Y-54391500D01*
X159785115Y-54391500D01*
X159769876Y-54395975D01*
X159768671Y-54397365D01*
X159767000Y-54405048D01*
X159767000Y-54483766D01*
X159767337Y-54490282D01*
X159777075Y-54584132D01*
X159779968Y-54597528D01*
X159830488Y-54748953D01*
X159836653Y-54762115D01*
X159920426Y-54897492D01*
X159929464Y-54908894D01*
X159931139Y-54910567D01*
X159931919Y-54911993D01*
X159934007Y-54914627D01*
X159933556Y-54914984D01*
X159965219Y-54972849D01*
X159960216Y-55043669D01*
X159931299Y-55088754D01*
X159929260Y-55090797D01*
X159923071Y-55096997D01*
X159919231Y-55103227D01*
X159919230Y-55103228D01*
X159836364Y-55237662D01*
X159831791Y-55245080D01*
X159777026Y-55410191D01*
X159766500Y-55512928D01*
X159766500Y-55683261D01*
X159746498Y-55751382D01*
X159729595Y-55772356D01*
X159448595Y-56053356D01*
X159386283Y-56087382D01*
X159315468Y-56082317D01*
X159258632Y-56039770D01*
X159233821Y-55973250D01*
X159233500Y-55964261D01*
X159233500Y-55612928D01*
X159230270Y-55581797D01*
X159223419Y-55515765D01*
X159223418Y-55515761D01*
X159222707Y-55508907D01*
X159206533Y-55460426D01*
X159169972Y-55350841D01*
X159167654Y-55343893D01*
X159076116Y-55195969D01*
X158968859Y-55088899D01*
X158934780Y-55026618D01*
X158939783Y-54955798D01*
X158968704Y-54910709D01*
X159071363Y-54807871D01*
X159080375Y-54796460D01*
X159163912Y-54660937D01*
X159170056Y-54647759D01*
X159220315Y-54496234D01*
X159223181Y-54482868D01*
X159232672Y-54390230D01*
X159233000Y-54383815D01*
X159233000Y-54359615D01*
X159228525Y-54344376D01*
X159227135Y-54343171D01*
X159219452Y-54341500D01*
X157285115Y-54341500D01*
X157269876Y-54345975D01*
X157268671Y-54347365D01*
X157267000Y-54355048D01*
X157267000Y-54383766D01*
X157267337Y-54390282D01*
X157277075Y-54484132D01*
X157279968Y-54497528D01*
X157330488Y-54648953D01*
X157336653Y-54662115D01*
X157420426Y-54797492D01*
X157429460Y-54808890D01*
X157531140Y-54910393D01*
X157565219Y-54972676D01*
X157560216Y-55043496D01*
X157531296Y-55088583D01*
X157423071Y-55196997D01*
X157419231Y-55203227D01*
X157419230Y-55203228D01*
X157336364Y-55337662D01*
X157331791Y-55345080D01*
X157277026Y-55510191D01*
X157276326Y-55517027D01*
X157276325Y-55517030D01*
X157271049Y-55568526D01*
X157266500Y-55612928D01*
X157266500Y-56212072D01*
X157266837Y-56215318D01*
X157266837Y-56215322D01*
X157273018Y-56274887D01*
X157277293Y-56316093D01*
X157332346Y-56481107D01*
X157336202Y-56487338D01*
X157372644Y-56546228D01*
X157391500Y-56612531D01*
X157391500Y-56898050D01*
X157371498Y-56966171D01*
X157317842Y-57012664D01*
X157294913Y-57020569D01*
X157294584Y-57020648D01*
X157251223Y-57031058D01*
X157098839Y-57109709D01*
X157093122Y-57114696D01*
X157093115Y-57114701D01*
X157083375Y-57123198D01*
X157018892Y-57152905D01*
X156948585Y-57143035D01*
X156916730Y-57122326D01*
X156912993Y-57118996D01*
X156912990Y-57118994D01*
X156907321Y-57113943D01*
X156899325Y-57109709D01*
X156762481Y-57037254D01*
X156762482Y-57037254D01*
X156755769Y-57033700D01*
X156703804Y-57020648D01*
X156642609Y-56984654D01*
X156610587Y-56921289D01*
X156608499Y-56898444D01*
X156608499Y-56612501D01*
X156627239Y-56546385D01*
X156664369Y-56486150D01*
X156664370Y-56486148D01*
X156668209Y-56479920D01*
X156722974Y-56314809D01*
X156733500Y-56212072D01*
X156733500Y-55612928D01*
X156730270Y-55581797D01*
X156723419Y-55515765D01*
X156723418Y-55515761D01*
X156722707Y-55508907D01*
X156706533Y-55460426D01*
X156669972Y-55350841D01*
X156667654Y-55343893D01*
X156576116Y-55195969D01*
X156468859Y-55088899D01*
X156434780Y-55026618D01*
X156439783Y-54955798D01*
X156468704Y-54910709D01*
X156571363Y-54807871D01*
X156580375Y-54796460D01*
X156663912Y-54660937D01*
X156670056Y-54647759D01*
X156720315Y-54496234D01*
X156723181Y-54482868D01*
X156732672Y-54390230D01*
X156733000Y-54383815D01*
X156733000Y-54359615D01*
X156728525Y-54344376D01*
X156727135Y-54343171D01*
X156719452Y-54341500D01*
X154785115Y-54341500D01*
X154769876Y-54345975D01*
X154768671Y-54347365D01*
X154767000Y-54355048D01*
X154767000Y-54383766D01*
X154767337Y-54390282D01*
X154777075Y-54484132D01*
X154779968Y-54497528D01*
X154830488Y-54648953D01*
X154836653Y-54662115D01*
X154920426Y-54797492D01*
X154929460Y-54808890D01*
X155031140Y-54910393D01*
X155065219Y-54972676D01*
X155060216Y-55043496D01*
X155031296Y-55088583D01*
X154923071Y-55196997D01*
X154919231Y-55203227D01*
X154919230Y-55203228D01*
X154836364Y-55337662D01*
X154831791Y-55345080D01*
X154777026Y-55510191D01*
X154776326Y-55517027D01*
X154776325Y-55517030D01*
X154771049Y-55568526D01*
X154766500Y-55612928D01*
X154766500Y-56212072D01*
X154766837Y-56215318D01*
X154766837Y-56215322D01*
X154773018Y-56274887D01*
X154777293Y-56316093D01*
X154832346Y-56481107D01*
X154923884Y-56629031D01*
X154929066Y-56634204D01*
X155041816Y-56746758D01*
X155041821Y-56746762D01*
X155046997Y-56751929D01*
X155053227Y-56755769D01*
X155053228Y-56755770D01*
X155164750Y-56824513D01*
X155195080Y-56843209D01*
X155301613Y-56878544D01*
X155305166Y-56879723D01*
X155363526Y-56920154D01*
X155390763Y-56985718D01*
X155391499Y-56999316D01*
X155391499Y-57379661D01*
X155371497Y-57447782D01*
X155317841Y-57494275D01*
X155247567Y-57504379D01*
X155182987Y-57474885D01*
X155176420Y-57468772D01*
X154228002Y-56520353D01*
X154193978Y-56458043D01*
X154197506Y-56391593D01*
X154205087Y-56368737D01*
X154222974Y-56314809D01*
X154233500Y-56212072D01*
X154233500Y-55512928D01*
X154232539Y-55503665D01*
X154223419Y-55415765D01*
X154223418Y-55415761D01*
X154222707Y-55408907D01*
X154218240Y-55395516D01*
X154169972Y-55250841D01*
X154167654Y-55243893D01*
X154076116Y-55095969D01*
X154068861Y-55088726D01*
X154067895Y-55086962D01*
X154066387Y-55085059D01*
X154066713Y-55084801D01*
X154034781Y-55026446D01*
X154039782Y-54955625D01*
X154068708Y-54910530D01*
X154071364Y-54907869D01*
X154080375Y-54896460D01*
X154163912Y-54760937D01*
X154170056Y-54747759D01*
X154220315Y-54596234D01*
X154223181Y-54582868D01*
X154232672Y-54490230D01*
X154233000Y-54483815D01*
X154233000Y-54409615D01*
X154228525Y-54394376D01*
X154227135Y-54393171D01*
X154219452Y-54391500D01*
X152888083Y-54391500D01*
X152818170Y-54370324D01*
X152816791Y-54369404D01*
X152811215Y-54364667D01*
X152804700Y-54361340D01*
X152799662Y-54357980D01*
X152794523Y-54354806D01*
X152788784Y-54350266D01*
X152722625Y-54319345D01*
X152718725Y-54317439D01*
X152653692Y-54284231D01*
X152646584Y-54282492D01*
X152640941Y-54280393D01*
X152635178Y-54278476D01*
X152628550Y-54275378D01*
X152614743Y-54272506D01*
X152572973Y-54263818D01*
X152557083Y-54260513D01*
X152552799Y-54259543D01*
X152518458Y-54251140D01*
X152481890Y-54242192D01*
X152476288Y-54241844D01*
X152476285Y-54241844D01*
X152470736Y-54241500D01*
X152470738Y-54241464D01*
X152466745Y-54241225D01*
X152462553Y-54240851D01*
X152455385Y-54239360D01*
X152391620Y-54241085D01*
X152377979Y-54241454D01*
X152374572Y-54241500D01*
X152301966Y-54241500D01*
X152259699Y-54234199D01*
X152192424Y-54210243D01*
X152192422Y-54210242D01*
X152185790Y-54207881D01*
X152178802Y-54207048D01*
X152178799Y-54207047D01*
X152055698Y-54192368D01*
X152005680Y-54186404D01*
X151998677Y-54187140D01*
X151998676Y-54187140D01*
X151832288Y-54204628D01*
X151832286Y-54204629D01*
X151825288Y-54205364D01*
X151718128Y-54241844D01*
X151663285Y-54260514D01*
X151653579Y-54263818D01*
X151614987Y-54287560D01*
X151505095Y-54355166D01*
X151505092Y-54355168D01*
X151499088Y-54358862D01*
X151494053Y-54363793D01*
X151494050Y-54363795D01*
X151383966Y-54471598D01*
X151369493Y-54485771D01*
X151271235Y-54638238D01*
X151268826Y-54644858D01*
X151268824Y-54644861D01*
X151213271Y-54797492D01*
X151209197Y-54808685D01*
X151186463Y-54988640D01*
X151198601Y-55112429D01*
X151198922Y-55115704D01*
X151185663Y-55185452D01*
X151136800Y-55236959D01*
X151073523Y-55254000D01*
X150185644Y-55254000D01*
X150169198Y-55252922D01*
X150157443Y-55251374D01*
X150137500Y-55248749D01*
X149978649Y-55269662D01*
X149830624Y-55330976D01*
X149804736Y-55350841D01*
X149735437Y-55404015D01*
X149735421Y-55404029D01*
X149710066Y-55423484D01*
X149710063Y-55423487D01*
X149703513Y-55428513D01*
X149698483Y-55435068D01*
X149684048Y-55453879D01*
X149673181Y-55466270D01*
X148522050Y-56617401D01*
X148459738Y-56651427D01*
X148388923Y-56646362D01*
X148332087Y-56603815D01*
X148307556Y-56540602D01*
X148301013Y-56473879D01*
X148294080Y-56403167D01*
X148236916Y-56213831D01*
X148144066Y-56039204D01*
X148040824Y-55912617D01*
X148022960Y-55890713D01*
X148022957Y-55890710D01*
X148019065Y-55885938D01*
X148012726Y-55880694D01*
X147871425Y-55763799D01*
X147871421Y-55763797D01*
X147866675Y-55759870D01*
X147692701Y-55665802D01*
X147503768Y-55607318D01*
X147497643Y-55606674D01*
X147497642Y-55606674D01*
X147313204Y-55587289D01*
X147313202Y-55587289D01*
X147307075Y-55586645D01*
X147224576Y-55594153D01*
X147116251Y-55604011D01*
X147116248Y-55604012D01*
X147110112Y-55604570D01*
X147104206Y-55606308D01*
X147104202Y-55606309D01*
X147070616Y-55616194D01*
X146920381Y-55660410D01*
X146914923Y-55663263D01*
X146914919Y-55663265D01*
X146876671Y-55683261D01*
X146745110Y-55752040D01*
X146590975Y-55875968D01*
X146587016Y-55880686D01*
X146587008Y-55880694D01*
X146531798Y-55946491D01*
X146472689Y-55985818D01*
X146435277Y-55991500D01*
X145202408Y-55991500D01*
X145134287Y-55971498D01*
X145096616Y-55933940D01*
X145082822Y-55912617D01*
X145082820Y-55912614D01*
X145080014Y-55908277D01*
X144929670Y-55743051D01*
X144925619Y-55739852D01*
X144925615Y-55739848D01*
X144758414Y-55607800D01*
X144758410Y-55607798D01*
X144754359Y-55604598D01*
X144713053Y-55581796D01*
X144663084Y-55531364D01*
X144648312Y-55461921D01*
X144673428Y-55395516D01*
X144700780Y-55368909D01*
X144758390Y-55327816D01*
X144879860Y-55241173D01*
X144918973Y-55202197D01*
X145018288Y-55103228D01*
X145038096Y-55083489D01*
X145066710Y-55043669D01*
X145165435Y-54906277D01*
X145168453Y-54902077D01*
X145236856Y-54763673D01*
X145284969Y-54711466D01*
X145349813Y-54693500D01*
X146422581Y-54693500D01*
X146490702Y-54713502D01*
X146521326Y-54741235D01*
X146571035Y-54803953D01*
X146575728Y-54807947D01*
X146575729Y-54807948D01*
X146703278Y-54916500D01*
X146721650Y-54932136D01*
X146894294Y-55028624D01*
X147082392Y-55089740D01*
X147278777Y-55113158D01*
X147284912Y-55112686D01*
X147284914Y-55112686D01*
X147469830Y-55098457D01*
X147469834Y-55098456D01*
X147475972Y-55097984D01*
X147666463Y-55044798D01*
X147671967Y-55042018D01*
X147671969Y-55042017D01*
X147837495Y-54958404D01*
X147837497Y-54958403D01*
X147842996Y-54955625D01*
X147998847Y-54833861D01*
X148128078Y-54684145D01*
X148225769Y-54512179D01*
X148288197Y-54324513D01*
X148312985Y-54128295D01*
X148313380Y-54100000D01*
X148294080Y-53903167D01*
X148286372Y-53877635D01*
X148282673Y-53865385D01*
X152267000Y-53865385D01*
X152271475Y-53880624D01*
X152272865Y-53881829D01*
X152280548Y-53883500D01*
X152977885Y-53883500D01*
X152993124Y-53879025D01*
X152994329Y-53877635D01*
X152996000Y-53869952D01*
X152996000Y-53865385D01*
X153504000Y-53865385D01*
X153508475Y-53880624D01*
X153509865Y-53881829D01*
X153517548Y-53883500D01*
X154214885Y-53883500D01*
X154230124Y-53879025D01*
X154231329Y-53877635D01*
X154233000Y-53869952D01*
X154233000Y-53865385D01*
X159767000Y-53865385D01*
X159771475Y-53880624D01*
X159772865Y-53881829D01*
X159780548Y-53883500D01*
X160477885Y-53883500D01*
X160493124Y-53879025D01*
X160494329Y-53877635D01*
X160496000Y-53869952D01*
X160496000Y-53865385D01*
X161004000Y-53865385D01*
X161008475Y-53880624D01*
X161009865Y-53881829D01*
X161017548Y-53883500D01*
X161714885Y-53883500D01*
X161730124Y-53879025D01*
X161731329Y-53877635D01*
X161733000Y-53869952D01*
X161733000Y-53791234D01*
X161732663Y-53784718D01*
X161722925Y-53690868D01*
X161720032Y-53677472D01*
X161669512Y-53526047D01*
X161663347Y-53512885D01*
X161579574Y-53377508D01*
X161570540Y-53366110D01*
X161457871Y-53253637D01*
X161446460Y-53244625D01*
X161310937Y-53161088D01*
X161297759Y-53154944D01*
X161146234Y-53104685D01*
X161132868Y-53101819D01*
X161040230Y-53092328D01*
X161033815Y-53092000D01*
X161022115Y-53092000D01*
X161006876Y-53096475D01*
X161005671Y-53097865D01*
X161004000Y-53105548D01*
X161004000Y-53865385D01*
X160496000Y-53865385D01*
X160496000Y-53110115D01*
X160491525Y-53094876D01*
X160490135Y-53093671D01*
X160482452Y-53092000D01*
X160466234Y-53092000D01*
X160459718Y-53092337D01*
X160365868Y-53102075D01*
X160352472Y-53104968D01*
X160201047Y-53155488D01*
X160187885Y-53161653D01*
X160052508Y-53245426D01*
X160041110Y-53254460D01*
X159928637Y-53367129D01*
X159919625Y-53378540D01*
X159836088Y-53514063D01*
X159829944Y-53527241D01*
X159779685Y-53678766D01*
X159776819Y-53692132D01*
X159767328Y-53784770D01*
X159767000Y-53791185D01*
X159767000Y-53865385D01*
X154233000Y-53865385D01*
X154233000Y-53815385D01*
X154767000Y-53815385D01*
X154771475Y-53830624D01*
X154772865Y-53831829D01*
X154780548Y-53833500D01*
X155477885Y-53833500D01*
X155493124Y-53829025D01*
X155494329Y-53827635D01*
X155496000Y-53819952D01*
X155496000Y-53110115D01*
X155491525Y-53094876D01*
X155490135Y-53093671D01*
X155482452Y-53092000D01*
X155466234Y-53092000D01*
X155459718Y-53092337D01*
X155365868Y-53102075D01*
X155352472Y-53104968D01*
X155201047Y-53155488D01*
X155187885Y-53161653D01*
X155052508Y-53245426D01*
X155041110Y-53254460D01*
X154928637Y-53367129D01*
X154919625Y-53378540D01*
X154836088Y-53514063D01*
X154829944Y-53527241D01*
X154779685Y-53678766D01*
X154776819Y-53692132D01*
X154767328Y-53784770D01*
X154767000Y-53791185D01*
X154767000Y-53815385D01*
X154233000Y-53815385D01*
X154233000Y-53791234D01*
X154232663Y-53784718D01*
X154222925Y-53690868D01*
X154220032Y-53677472D01*
X154169512Y-53526047D01*
X154163347Y-53512885D01*
X154079574Y-53377508D01*
X154070540Y-53366110D01*
X153957871Y-53253637D01*
X153946460Y-53244625D01*
X153810937Y-53161088D01*
X153797759Y-53154944D01*
X153646234Y-53104685D01*
X153632868Y-53101819D01*
X153540230Y-53092328D01*
X153533815Y-53092000D01*
X153522115Y-53092000D01*
X153506876Y-53096475D01*
X153505671Y-53097865D01*
X153504000Y-53105548D01*
X153504000Y-53865385D01*
X152996000Y-53865385D01*
X152996000Y-53110115D01*
X152991525Y-53094876D01*
X152990135Y-53093671D01*
X152982452Y-53092000D01*
X152966234Y-53092000D01*
X152959718Y-53092337D01*
X152865868Y-53102075D01*
X152852472Y-53104968D01*
X152701047Y-53155488D01*
X152687885Y-53161653D01*
X152552508Y-53245426D01*
X152541110Y-53254460D01*
X152428637Y-53367129D01*
X152419625Y-53378540D01*
X152336088Y-53514063D01*
X152329944Y-53527241D01*
X152279685Y-53678766D01*
X152276819Y-53692132D01*
X152267328Y-53784770D01*
X152267000Y-53791185D01*
X152267000Y-53865385D01*
X148282673Y-53865385D01*
X148260285Y-53791234D01*
X148236916Y-53713831D01*
X148144066Y-53539204D01*
X148045982Y-53418941D01*
X148022960Y-53390713D01*
X148022957Y-53390710D01*
X148019065Y-53385938D01*
X148012720Y-53380689D01*
X147871425Y-53263799D01*
X147871421Y-53263797D01*
X147866675Y-53259870D01*
X147692701Y-53165802D01*
X147503768Y-53107318D01*
X147497643Y-53106674D01*
X147497642Y-53106674D01*
X147313204Y-53087289D01*
X147313202Y-53087289D01*
X147307075Y-53086645D01*
X147229872Y-53093671D01*
X147116251Y-53104011D01*
X147116248Y-53104012D01*
X147110112Y-53104570D01*
X147104206Y-53106308D01*
X147104202Y-53106309D01*
X146999076Y-53137249D01*
X146920381Y-53160410D01*
X146914923Y-53163263D01*
X146914919Y-53163265D01*
X146838817Y-53203051D01*
X146745110Y-53252040D01*
X146590975Y-53375968D01*
X146567159Y-53404350D01*
X146544384Y-53431492D01*
X146485274Y-53470818D01*
X146447863Y-53476500D01*
X145218582Y-53476500D01*
X145150461Y-53456498D01*
X145112791Y-53418941D01*
X145082824Y-53372620D01*
X145082822Y-53372617D01*
X145080014Y-53368277D01*
X144929670Y-53203051D01*
X144925619Y-53199852D01*
X144925615Y-53199848D01*
X144758414Y-53067800D01*
X144758410Y-53067798D01*
X144754359Y-53064598D01*
X144713053Y-53041796D01*
X144663084Y-52991364D01*
X144648312Y-52921921D01*
X144673428Y-52855516D01*
X144700780Y-52828909D01*
X144744603Y-52797650D01*
X144879860Y-52701173D01*
X145038096Y-52543489D01*
X145047410Y-52530528D01*
X145165435Y-52366277D01*
X145168453Y-52362077D01*
X145197180Y-52303953D01*
X145236856Y-52223673D01*
X145284969Y-52171466D01*
X145349813Y-52153500D01*
X146390877Y-52153500D01*
X146458998Y-52173502D01*
X146489623Y-52201236D01*
X146567206Y-52299123D01*
X146567211Y-52299128D01*
X146571035Y-52303953D01*
X146575728Y-52307947D01*
X146575729Y-52307948D01*
X146710583Y-52422717D01*
X146721650Y-52432136D01*
X146894294Y-52528624D01*
X147082392Y-52589740D01*
X147278777Y-52613158D01*
X147284912Y-52612686D01*
X147284914Y-52612686D01*
X147469830Y-52598457D01*
X147469834Y-52598456D01*
X147475972Y-52597984D01*
X147666463Y-52544798D01*
X147671967Y-52542018D01*
X147671969Y-52542017D01*
X147837495Y-52458404D01*
X147837497Y-52458403D01*
X147842996Y-52455625D01*
X147998847Y-52333861D01*
X148107055Y-52208501D01*
X148124049Y-52188813D01*
X148124050Y-52188811D01*
X148128078Y-52184145D01*
X148225769Y-52012179D01*
X148288197Y-51824513D01*
X148312985Y-51628295D01*
X148313380Y-51600000D01*
X148311993Y-51585851D01*
X151486719Y-51585851D01*
X151503268Y-51782934D01*
X151557783Y-51973050D01*
X151560602Y-51978535D01*
X151644002Y-52140812D01*
X151648187Y-52148956D01*
X151771035Y-52303953D01*
X151775728Y-52307947D01*
X151775729Y-52307948D01*
X151910583Y-52422717D01*
X151921650Y-52432136D01*
X152094294Y-52528624D01*
X152282392Y-52589740D01*
X152478777Y-52613158D01*
X152484912Y-52612686D01*
X152484914Y-52612686D01*
X152669830Y-52598457D01*
X152669834Y-52598456D01*
X152675972Y-52597984D01*
X152866463Y-52544798D01*
X152871967Y-52542018D01*
X152871969Y-52542017D01*
X153037495Y-52458404D01*
X153037497Y-52458403D01*
X153042996Y-52455625D01*
X153198847Y-52333861D01*
X153269361Y-52252169D01*
X153329014Y-52213672D01*
X153364743Y-52208500D01*
X154551864Y-52208500D01*
X154568307Y-52209578D01*
X154600000Y-52213750D01*
X154608189Y-52212672D01*
X154639874Y-52208501D01*
X154639884Y-52208500D01*
X154639885Y-52208500D01*
X154739457Y-52195391D01*
X154750664Y-52193916D01*
X154750666Y-52193915D01*
X154758851Y-52192838D01*
X154906876Y-52131524D01*
X154921981Y-52119934D01*
X155002072Y-52058477D01*
X155002075Y-52058474D01*
X155027434Y-52039015D01*
X155033987Y-52033987D01*
X155046606Y-52017542D01*
X155053452Y-52008621D01*
X155064319Y-51996230D01*
X156026405Y-51034144D01*
X156088717Y-51000118D01*
X156159532Y-51005183D01*
X156216368Y-51047730D01*
X156241179Y-51114250D01*
X156241500Y-51123239D01*
X156241500Y-52097717D01*
X156233901Y-52140812D01*
X156214573Y-52193916D01*
X156209197Y-52208685D01*
X156186463Y-52388640D01*
X156204163Y-52569160D01*
X156261418Y-52741273D01*
X156265065Y-52747295D01*
X156265066Y-52747297D01*
X156351089Y-52889338D01*
X156355380Y-52896424D01*
X156360270Y-52901488D01*
X156360271Y-52901489D01*
X156394155Y-52936577D01*
X156427087Y-52999474D01*
X156420787Y-53070191D01*
X156377255Y-53126275D01*
X156310311Y-53149921D01*
X156263851Y-53143697D01*
X156146234Y-53104685D01*
X156132868Y-53101819D01*
X156040230Y-53092328D01*
X156033815Y-53092000D01*
X156022115Y-53092000D01*
X156006876Y-53096475D01*
X156005671Y-53097865D01*
X156004000Y-53105548D01*
X156004000Y-53815385D01*
X156008475Y-53830624D01*
X156009865Y-53831829D01*
X156017548Y-53833500D01*
X156714885Y-53833500D01*
X156730124Y-53829025D01*
X156731329Y-53827635D01*
X156733000Y-53819952D01*
X156733000Y-53791234D01*
X156732663Y-53784718D01*
X156722925Y-53690868D01*
X156720032Y-53677472D01*
X156669512Y-53526047D01*
X156663347Y-53512885D01*
X156579574Y-53377508D01*
X156570540Y-53366110D01*
X156560216Y-53355804D01*
X156526137Y-53293522D01*
X156531140Y-53222701D01*
X156573637Y-53165829D01*
X156640136Y-53140960D01*
X156693154Y-53148534D01*
X156796558Y-53186990D01*
X156796560Y-53186990D01*
X156803168Y-53189448D01*
X156881111Y-53199848D01*
X156975980Y-53212507D01*
X156975984Y-53212507D01*
X156982961Y-53213438D01*
X156989972Y-53212800D01*
X156989976Y-53212800D01*
X157132459Y-53199832D01*
X157163600Y-53196998D01*
X157170302Y-53194820D01*
X157170304Y-53194820D01*
X157250871Y-53168642D01*
X157309055Y-53149737D01*
X157380021Y-53147709D01*
X157440819Y-53184372D01*
X157472145Y-53248084D01*
X157464052Y-53318618D01*
X157437163Y-53358587D01*
X157428641Y-53367124D01*
X157419625Y-53378540D01*
X157336088Y-53514063D01*
X157329944Y-53527241D01*
X157279685Y-53678766D01*
X157276819Y-53692132D01*
X157267328Y-53784770D01*
X157267000Y-53791185D01*
X157267000Y-53815385D01*
X157271475Y-53830624D01*
X157272865Y-53831829D01*
X157280548Y-53833500D01*
X157977885Y-53833500D01*
X157993124Y-53829025D01*
X157994329Y-53827635D01*
X157996000Y-53819952D01*
X157996000Y-53815385D01*
X158504000Y-53815385D01*
X158508475Y-53830624D01*
X158509865Y-53831829D01*
X158517548Y-53833500D01*
X159214885Y-53833500D01*
X159230124Y-53829025D01*
X159231329Y-53827635D01*
X159233000Y-53819952D01*
X159233000Y-53791234D01*
X159232663Y-53784718D01*
X159222925Y-53690868D01*
X159220032Y-53677472D01*
X159169512Y-53526047D01*
X159163347Y-53512885D01*
X159079574Y-53377508D01*
X159070540Y-53366110D01*
X158957871Y-53253637D01*
X158946460Y-53244625D01*
X158810937Y-53161088D01*
X158797759Y-53154944D01*
X158646234Y-53104685D01*
X158632868Y-53101819D01*
X158540230Y-53092328D01*
X158533815Y-53092000D01*
X158522115Y-53092000D01*
X158506876Y-53096475D01*
X158505671Y-53097865D01*
X158504000Y-53105548D01*
X158504000Y-53815385D01*
X157996000Y-53815385D01*
X157996000Y-53110115D01*
X157991525Y-53094876D01*
X157990135Y-53093671D01*
X157982452Y-53092000D01*
X157966234Y-53092000D01*
X157959718Y-53092337D01*
X157865868Y-53102075D01*
X157852472Y-53104968D01*
X157741318Y-53142052D01*
X157670369Y-53144636D01*
X157609285Y-53108452D01*
X157577460Y-53044988D01*
X157584999Y-52974393D01*
X157614551Y-52931282D01*
X157618160Y-52927846D01*
X157618167Y-52927838D01*
X157623266Y-52922982D01*
X157672995Y-52848134D01*
X165496500Y-52848134D01*
X165503255Y-52910316D01*
X165554385Y-53046705D01*
X165641739Y-53163261D01*
X165758295Y-53250615D01*
X165894684Y-53301745D01*
X165956866Y-53308500D01*
X168653134Y-53308500D01*
X168715316Y-53301745D01*
X168851705Y-53250615D01*
X168968261Y-53163261D01*
X169055615Y-53046705D01*
X169106745Y-52910316D01*
X169113500Y-52848134D01*
X169113500Y-50151866D01*
X169106745Y-50089684D01*
X169055615Y-49953295D01*
X168968261Y-49836739D01*
X168851705Y-49749385D01*
X168715316Y-49698255D01*
X168653134Y-49691500D01*
X165956866Y-49691500D01*
X165894684Y-49698255D01*
X165758295Y-49749385D01*
X165641739Y-49836739D01*
X165554385Y-49953295D01*
X165503255Y-50089684D01*
X165496500Y-50151866D01*
X165496500Y-52848134D01*
X157672995Y-52848134D01*
X157723643Y-52771902D01*
X157788055Y-52602338D01*
X157790093Y-52587836D01*
X157812748Y-52426639D01*
X157812748Y-52426636D01*
X157813299Y-52422717D01*
X157813616Y-52400000D01*
X157793397Y-52219745D01*
X157789857Y-52209578D01*
X157765509Y-52139662D01*
X157758500Y-52098225D01*
X157758500Y-51184500D01*
X157778502Y-51116379D01*
X157832158Y-51069886D01*
X157884500Y-51058500D01*
X158100400Y-51058500D01*
X158103646Y-51058163D01*
X158103650Y-51058163D01*
X158199308Y-51048238D01*
X158199312Y-51048237D01*
X158206166Y-51047526D01*
X158212702Y-51045345D01*
X158212704Y-51045345D01*
X158366998Y-50993868D01*
X158373946Y-50991550D01*
X158524348Y-50898478D01*
X158532100Y-50890713D01*
X158644134Y-50778483D01*
X158649305Y-50773303D01*
X158653146Y-50767072D01*
X158738275Y-50628968D01*
X158738276Y-50628966D01*
X158742115Y-50622738D01*
X158782816Y-50500027D01*
X158795632Y-50461389D01*
X158795632Y-50461387D01*
X158797797Y-50454861D01*
X158808500Y-50350400D01*
X158808500Y-47944906D01*
X166224839Y-47944906D01*
X166233553Y-47956427D01*
X166340452Y-48034809D01*
X166348351Y-48039745D01*
X166577905Y-48160519D01*
X166586454Y-48164236D01*
X166831327Y-48249749D01*
X166840336Y-48252163D01*
X167095166Y-48300544D01*
X167104423Y-48301598D01*
X167363607Y-48311783D01*
X167372921Y-48311457D01*
X167630753Y-48283220D01*
X167639930Y-48281519D01*
X167890758Y-48215481D01*
X167899574Y-48212445D01*
X168137880Y-48110062D01*
X168146167Y-48105748D01*
X168366718Y-47969266D01*
X168374268Y-47963780D01*
X168379559Y-47959301D01*
X168387997Y-47946497D01*
X168381935Y-47936145D01*
X167317812Y-46872022D01*
X167303868Y-46864408D01*
X167302035Y-46864539D01*
X167295420Y-46868790D01*
X166231497Y-47932713D01*
X166224839Y-47944906D01*
X158808500Y-47944906D01*
X158808500Y-47249600D01*
X158806383Y-47229197D01*
X158798238Y-47150692D01*
X158798237Y-47150688D01*
X158797526Y-47143834D01*
X158791033Y-47124370D01*
X158743868Y-46983002D01*
X158741550Y-46976054D01*
X158648478Y-46825652D01*
X158523303Y-46700695D01*
X158517072Y-46696854D01*
X158378968Y-46611725D01*
X158378966Y-46611724D01*
X158372738Y-46607885D01*
X158212254Y-46554655D01*
X158211389Y-46554368D01*
X158211387Y-46554368D01*
X158204861Y-46552203D01*
X158198025Y-46551503D01*
X158198022Y-46551502D01*
X158151103Y-46546695D01*
X158100400Y-46541500D01*
X156899600Y-46541500D01*
X156896354Y-46541837D01*
X156896350Y-46541837D01*
X156800692Y-46551762D01*
X156800688Y-46551763D01*
X156793834Y-46552474D01*
X156787298Y-46554655D01*
X156787296Y-46554655D01*
X156676161Y-46591733D01*
X156626054Y-46608450D01*
X156475652Y-46701522D01*
X156350695Y-46826697D01*
X156346855Y-46832927D01*
X156346854Y-46832928D01*
X156327450Y-46864408D01*
X156257885Y-46977262D01*
X156202203Y-47145139D01*
X156191500Y-47249600D01*
X156191500Y-49095761D01*
X156171498Y-49163882D01*
X156154595Y-49184856D01*
X154384856Y-50954595D01*
X154322544Y-50988621D01*
X154295761Y-50991500D01*
X153364989Y-50991500D01*
X153296868Y-50971498D01*
X153267346Y-50945136D01*
X153222960Y-50890713D01*
X153222957Y-50890710D01*
X153219065Y-50885938D01*
X153210607Y-50878941D01*
X153071425Y-50763799D01*
X153071421Y-50763797D01*
X153066675Y-50759870D01*
X152892701Y-50665802D01*
X152703768Y-50607318D01*
X152697643Y-50606674D01*
X152697642Y-50606674D01*
X152513204Y-50587289D01*
X152513202Y-50587289D01*
X152507075Y-50586645D01*
X152424576Y-50594153D01*
X152316251Y-50604011D01*
X152316248Y-50604012D01*
X152310112Y-50604570D01*
X152304206Y-50606308D01*
X152304202Y-50606309D01*
X152248381Y-50622738D01*
X152120381Y-50660410D01*
X152114923Y-50663263D01*
X152114919Y-50663265D01*
X152024147Y-50710720D01*
X151945110Y-50752040D01*
X151790975Y-50875968D01*
X151663846Y-51027474D01*
X151660879Y-51032872D01*
X151660875Y-51032877D01*
X151616141Y-51114250D01*
X151568567Y-51200787D01*
X151566706Y-51206654D01*
X151566705Y-51206656D01*
X151510627Y-51383436D01*
X151508765Y-51389306D01*
X151486719Y-51585851D01*
X148311993Y-51585851D01*
X148294080Y-51403167D01*
X148236916Y-51213831D01*
X148144066Y-51039204D01*
X148067346Y-50945136D01*
X148022960Y-50890713D01*
X148022957Y-50890710D01*
X148019065Y-50885938D01*
X148010607Y-50878941D01*
X147871425Y-50763799D01*
X147871421Y-50763797D01*
X147866675Y-50759870D01*
X147692701Y-50665802D01*
X147503768Y-50607318D01*
X147497643Y-50606674D01*
X147497642Y-50606674D01*
X147313204Y-50587289D01*
X147313202Y-50587289D01*
X147307075Y-50586645D01*
X147224576Y-50594153D01*
X147116251Y-50604011D01*
X147116248Y-50604012D01*
X147110112Y-50604570D01*
X147104206Y-50606308D01*
X147104202Y-50606309D01*
X147048381Y-50622738D01*
X146920381Y-50660410D01*
X146914923Y-50663263D01*
X146914919Y-50663265D01*
X146824147Y-50710720D01*
X146745110Y-50752040D01*
X146590975Y-50875968D01*
X146577949Y-50891492D01*
X146518841Y-50930817D01*
X146481428Y-50936500D01*
X145218582Y-50936500D01*
X145150461Y-50916498D01*
X145112791Y-50878941D01*
X145082824Y-50832620D01*
X145082822Y-50832617D01*
X145080014Y-50828277D01*
X144929670Y-50663051D01*
X144925619Y-50659852D01*
X144925615Y-50659848D01*
X144758414Y-50527800D01*
X144758410Y-50527798D01*
X144754359Y-50524598D01*
X144713053Y-50501796D01*
X144663084Y-50451364D01*
X144648312Y-50381921D01*
X144673428Y-50315516D01*
X144700780Y-50288909D01*
X144744603Y-50257650D01*
X144879860Y-50161173D01*
X144933590Y-50107631D01*
X144961209Y-50080107D01*
X145038096Y-50003489D01*
X145063393Y-49968285D01*
X145165435Y-49826277D01*
X145168453Y-49822077D01*
X145177411Y-49803953D01*
X145236856Y-49683673D01*
X145284969Y-49631466D01*
X145349813Y-49613500D01*
X146359174Y-49613500D01*
X146427295Y-49633502D01*
X146457920Y-49661236D01*
X146571035Y-49803953D01*
X146575728Y-49807947D01*
X146575729Y-49807948D01*
X146713369Y-49925088D01*
X146721650Y-49932136D01*
X146894294Y-50028624D01*
X147082392Y-50089740D01*
X147278777Y-50113158D01*
X147284912Y-50112686D01*
X147284914Y-50112686D01*
X147469830Y-50098457D01*
X147469834Y-50098456D01*
X147475972Y-50097984D01*
X147666463Y-50044798D01*
X147671967Y-50042018D01*
X147671969Y-50042017D01*
X147837495Y-49958404D01*
X147837497Y-49958403D01*
X147842996Y-49955625D01*
X147998847Y-49833861D01*
X148121411Y-49691869D01*
X148124049Y-49688813D01*
X148124050Y-49688811D01*
X148128078Y-49684145D01*
X148150504Y-49644669D01*
X151492001Y-49644669D01*
X151492371Y-49651490D01*
X151497895Y-49702352D01*
X151501521Y-49717604D01*
X151546676Y-49838054D01*
X151555214Y-49853649D01*
X151631715Y-49955724D01*
X151644276Y-49968285D01*
X151746351Y-50044786D01*
X151761946Y-50053324D01*
X151882394Y-50098478D01*
X151897649Y-50102105D01*
X151948514Y-50107631D01*
X151955328Y-50108000D01*
X152227885Y-50108000D01*
X152243124Y-50103525D01*
X152244329Y-50102135D01*
X152246000Y-50094452D01*
X152246000Y-50089884D01*
X152754000Y-50089884D01*
X152758475Y-50105123D01*
X152759865Y-50106328D01*
X152767548Y-50107999D01*
X153044669Y-50107999D01*
X153051490Y-50107629D01*
X153102352Y-50102105D01*
X153117604Y-50098479D01*
X153238054Y-50053324D01*
X153253649Y-50044786D01*
X153355724Y-49968285D01*
X153368285Y-49955724D01*
X153444786Y-49853649D01*
X153453324Y-49838054D01*
X153498478Y-49717606D01*
X153502105Y-49702351D01*
X153507631Y-49651486D01*
X153508000Y-49644672D01*
X153508000Y-49372115D01*
X153503525Y-49356876D01*
X153502135Y-49355671D01*
X153494452Y-49354000D01*
X152772115Y-49354000D01*
X152756876Y-49358475D01*
X152755671Y-49359865D01*
X152754000Y-49367548D01*
X152754000Y-50089884D01*
X152246000Y-50089884D01*
X152246000Y-49372115D01*
X152241525Y-49356876D01*
X152240135Y-49355671D01*
X152232452Y-49354000D01*
X151510116Y-49354000D01*
X151494877Y-49358475D01*
X151493672Y-49359865D01*
X151492001Y-49367548D01*
X151492001Y-49644669D01*
X148150504Y-49644669D01*
X148225769Y-49512179D01*
X148288197Y-49324513D01*
X148312985Y-49128295D01*
X148313380Y-49100000D01*
X148294080Y-48903167D01*
X148275050Y-48840135D01*
X148271351Y-48827885D01*
X151492000Y-48827885D01*
X151496475Y-48843124D01*
X151497865Y-48844329D01*
X151505548Y-48846000D01*
X152227885Y-48846000D01*
X152243124Y-48841525D01*
X152244329Y-48840135D01*
X152246000Y-48832452D01*
X152246000Y-48827885D01*
X152754000Y-48827885D01*
X152758475Y-48843124D01*
X152759865Y-48844329D01*
X152767548Y-48846000D01*
X153489884Y-48846000D01*
X153505123Y-48841525D01*
X153506328Y-48840135D01*
X153507999Y-48832452D01*
X153507999Y-48555331D01*
X153507629Y-48548510D01*
X153502105Y-48497648D01*
X153498479Y-48482396D01*
X153453324Y-48361946D01*
X153444786Y-48346351D01*
X153368285Y-48244276D01*
X153355724Y-48231715D01*
X153253649Y-48155214D01*
X153238054Y-48146676D01*
X153117606Y-48101522D01*
X153102351Y-48097895D01*
X153051486Y-48092369D01*
X153044672Y-48092000D01*
X152772115Y-48092000D01*
X152756876Y-48096475D01*
X152755671Y-48097865D01*
X152754000Y-48105548D01*
X152754000Y-48827885D01*
X152246000Y-48827885D01*
X152246000Y-48110116D01*
X152241525Y-48094877D01*
X152240135Y-48093672D01*
X152232452Y-48092001D01*
X151955331Y-48092001D01*
X151948510Y-48092371D01*
X151897648Y-48097895D01*
X151882396Y-48101521D01*
X151761946Y-48146676D01*
X151746351Y-48155214D01*
X151644276Y-48231715D01*
X151631715Y-48244276D01*
X151555214Y-48346351D01*
X151546676Y-48361946D01*
X151501522Y-48482394D01*
X151497895Y-48497649D01*
X151492369Y-48548514D01*
X151492000Y-48555328D01*
X151492000Y-48827885D01*
X148271351Y-48827885D01*
X148238697Y-48719731D01*
X148236916Y-48713831D01*
X148144066Y-48539204D01*
X148065115Y-48442401D01*
X148022960Y-48390713D01*
X148022957Y-48390710D01*
X148019065Y-48385938D01*
X148007654Y-48376498D01*
X147871425Y-48263799D01*
X147871421Y-48263797D01*
X147866675Y-48259870D01*
X147692701Y-48165802D01*
X147503768Y-48107318D01*
X147497643Y-48106674D01*
X147497642Y-48106674D01*
X147313204Y-48087289D01*
X147313202Y-48087289D01*
X147307075Y-48086645D01*
X147244179Y-48092369D01*
X147116251Y-48104011D01*
X147116248Y-48104012D01*
X147110112Y-48104570D01*
X147104206Y-48106308D01*
X147104202Y-48106309D01*
X146999076Y-48137249D01*
X146920381Y-48160410D01*
X146914923Y-48163263D01*
X146914919Y-48163265D01*
X146824147Y-48210720D01*
X146745110Y-48252040D01*
X146608415Y-48361946D01*
X146600020Y-48368696D01*
X146534398Y-48395793D01*
X146521068Y-48396500D01*
X145218582Y-48396500D01*
X145150461Y-48376498D01*
X145112791Y-48338941D01*
X145082824Y-48292620D01*
X145082822Y-48292617D01*
X145080014Y-48288277D01*
X144929670Y-48123051D01*
X144925619Y-48119852D01*
X144925615Y-48119848D01*
X144758414Y-47987800D01*
X144758410Y-47987798D01*
X144754359Y-47984598D01*
X144713053Y-47961796D01*
X144663084Y-47911364D01*
X144648312Y-47841921D01*
X144673428Y-47775516D01*
X144700780Y-47748909D01*
X144744603Y-47717650D01*
X144879860Y-47621173D01*
X144917521Y-47583644D01*
X144988985Y-47512429D01*
X145038096Y-47463489D01*
X145097594Y-47380689D01*
X145165435Y-47286277D01*
X145168453Y-47282077D01*
X145236856Y-47143673D01*
X145284969Y-47091466D01*
X145349813Y-47073500D01*
X146406729Y-47073500D01*
X146474850Y-47093502D01*
X146505474Y-47121235D01*
X146571035Y-47203953D01*
X146575728Y-47207947D01*
X146575729Y-47207948D01*
X146667766Y-47286277D01*
X146721650Y-47332136D01*
X146894294Y-47428624D01*
X147082392Y-47489740D01*
X147278777Y-47513158D01*
X147284912Y-47512686D01*
X147284914Y-47512686D01*
X147469830Y-47498457D01*
X147469834Y-47498456D01*
X147475972Y-47497984D01*
X147666463Y-47444798D01*
X147671967Y-47442018D01*
X147671969Y-47442017D01*
X147837495Y-47358404D01*
X147837497Y-47358403D01*
X147842996Y-47355625D01*
X147982862Y-47246350D01*
X147993991Y-47237655D01*
X147998847Y-47233861D01*
X148100923Y-47115605D01*
X148124049Y-47088813D01*
X148124050Y-47088811D01*
X148128078Y-47084145D01*
X148225769Y-46912179D01*
X148288197Y-46724513D01*
X148312985Y-46528295D01*
X148313380Y-46500000D01*
X148309184Y-46457211D01*
X165492775Y-46457211D01*
X165505220Y-46716288D01*
X165506356Y-46725543D01*
X165556961Y-46979945D01*
X165559449Y-46988917D01*
X165647095Y-47233033D01*
X165650895Y-47241568D01*
X165773658Y-47470042D01*
X165778666Y-47477904D01*
X165848720Y-47571716D01*
X165859979Y-47580165D01*
X165872397Y-47573393D01*
X166932978Y-46512812D01*
X166939356Y-46501132D01*
X167669408Y-46501132D01*
X167669539Y-46502965D01*
X167673790Y-46509580D01*
X168741094Y-47576884D01*
X168753474Y-47583644D01*
X168761815Y-47577400D01*
X168895832Y-47369048D01*
X168900275Y-47360864D01*
X169006807Y-47124370D01*
X169009997Y-47115605D01*
X169080402Y-46865972D01*
X169082262Y-46856830D01*
X169115187Y-46598019D01*
X169115668Y-46591733D01*
X169117987Y-46503160D01*
X169117836Y-46496851D01*
X169098501Y-46236663D01*
X169097125Y-46227457D01*
X169039878Y-45974467D01*
X169037154Y-45965556D01*
X168943143Y-45723806D01*
X168939132Y-45715397D01*
X168810422Y-45490202D01*
X168805211Y-45482476D01*
X168761996Y-45427658D01*
X168750071Y-45419187D01*
X168738537Y-45425673D01*
X167677022Y-46487188D01*
X167669408Y-46501132D01*
X166939356Y-46501132D01*
X166940592Y-46498868D01*
X166940461Y-46497035D01*
X166936210Y-46490420D01*
X165870816Y-45425026D01*
X165857507Y-45417758D01*
X165847472Y-45424878D01*
X165831937Y-45443556D01*
X165826531Y-45451135D01*
X165691965Y-45672891D01*
X165687736Y-45681192D01*
X165587432Y-45920389D01*
X165584471Y-45929239D01*
X165520628Y-46180625D01*
X165519006Y-46189822D01*
X165493020Y-46447885D01*
X165492775Y-46457211D01*
X148309184Y-46457211D01*
X148294080Y-46303167D01*
X148236916Y-46113831D01*
X148144066Y-45939204D01*
X148039906Y-45811491D01*
X148022960Y-45790713D01*
X148022957Y-45790710D01*
X148019065Y-45785938D01*
X148012718Y-45780687D01*
X147871425Y-45663799D01*
X147871421Y-45663797D01*
X147866675Y-45659870D01*
X147692701Y-45565802D01*
X147503768Y-45507318D01*
X147497643Y-45506674D01*
X147497642Y-45506674D01*
X147313204Y-45487289D01*
X147313202Y-45487289D01*
X147307075Y-45486645D01*
X147224576Y-45494153D01*
X147116251Y-45504011D01*
X147116248Y-45504012D01*
X147110112Y-45504570D01*
X147104206Y-45506308D01*
X147104202Y-45506309D01*
X146999076Y-45537249D01*
X146920381Y-45560410D01*
X146914923Y-45563263D01*
X146914919Y-45563265D01*
X146869768Y-45586870D01*
X146745110Y-45652040D01*
X146590975Y-45775968D01*
X146561167Y-45811492D01*
X146502058Y-45850818D01*
X146464646Y-45856500D01*
X145218582Y-45856500D01*
X145150461Y-45836498D01*
X145112791Y-45798941D01*
X145082824Y-45752620D01*
X145082822Y-45752617D01*
X145080014Y-45748277D01*
X144929670Y-45583051D01*
X144925619Y-45579852D01*
X144925615Y-45579848D01*
X144758414Y-45447800D01*
X144758410Y-45447798D01*
X144754359Y-45444598D01*
X144713053Y-45421796D01*
X144663084Y-45371364D01*
X144648312Y-45301921D01*
X144673428Y-45235516D01*
X144700780Y-45208909D01*
X144759871Y-45166760D01*
X144879860Y-45081173D01*
X144898634Y-45062465D01*
X144961209Y-45000107D01*
X145038096Y-44923489D01*
X145046044Y-44912429D01*
X145165435Y-44746277D01*
X145168453Y-44742077D01*
X145175480Y-44727860D01*
X145265136Y-44546453D01*
X145265137Y-44546451D01*
X145267430Y-44541811D01*
X145332370Y-44328069D01*
X145361529Y-44106590D01*
X145363156Y-44040000D01*
X145362880Y-44036647D01*
X145362784Y-44033304D01*
X145363856Y-44033273D01*
X145377300Y-43968087D01*
X145426957Y-43917345D01*
X145496163Y-43901504D01*
X145562948Y-43925594D01*
X145577629Y-43938178D01*
X145935685Y-44296234D01*
X145946552Y-44308625D01*
X145966013Y-44333987D01*
X145972563Y-44339013D01*
X145997921Y-44358471D01*
X145997937Y-44358485D01*
X146047305Y-44396366D01*
X146093124Y-44431524D01*
X146241149Y-44492838D01*
X146400000Y-44513751D01*
X146419316Y-44511208D01*
X146489464Y-44522147D01*
X146534507Y-44557865D01*
X146571035Y-44603953D01*
X146575728Y-44607947D01*
X146575729Y-44607948D01*
X146716626Y-44727860D01*
X146721650Y-44732136D01*
X146894294Y-44828624D01*
X147082392Y-44889740D01*
X147278777Y-44913158D01*
X147284912Y-44912686D01*
X147284914Y-44912686D01*
X147469830Y-44898457D01*
X147469834Y-44898456D01*
X147475972Y-44897984D01*
X147666463Y-44844798D01*
X147671967Y-44842018D01*
X147671969Y-44842017D01*
X147837495Y-44758404D01*
X147837497Y-44758403D01*
X147842996Y-44755625D01*
X147853914Y-44747095D01*
X156192001Y-44747095D01*
X156192338Y-44753614D01*
X156202257Y-44849206D01*
X156205149Y-44862600D01*
X156256588Y-45016784D01*
X156262761Y-45029962D01*
X156348063Y-45167807D01*
X156357099Y-45179208D01*
X156471829Y-45293739D01*
X156483240Y-45302751D01*
X156621243Y-45387816D01*
X156634424Y-45393963D01*
X156788710Y-45445138D01*
X156802086Y-45448005D01*
X156896438Y-45457672D01*
X156902854Y-45458000D01*
X157227885Y-45458000D01*
X157243124Y-45453525D01*
X157244329Y-45452135D01*
X157246000Y-45444452D01*
X157246000Y-45439884D01*
X157754000Y-45439884D01*
X157758475Y-45455123D01*
X157759865Y-45456328D01*
X157767548Y-45457999D01*
X158097095Y-45457999D01*
X158103614Y-45457662D01*
X158199206Y-45447743D01*
X158212600Y-45444851D01*
X158366784Y-45393412D01*
X158379962Y-45387239D01*
X158517807Y-45301937D01*
X158529208Y-45292901D01*
X158643739Y-45178171D01*
X158652751Y-45166760D01*
X158723064Y-45052689D01*
X166222102Y-45052689D01*
X166226675Y-45062465D01*
X167292188Y-46127978D01*
X167306132Y-46135592D01*
X167307965Y-46135461D01*
X167314580Y-46131210D01*
X168379349Y-45066441D01*
X168385733Y-45054751D01*
X168376321Y-45042641D01*
X168229045Y-44940471D01*
X168221010Y-44935738D01*
X167988376Y-44821016D01*
X167979743Y-44817528D01*
X167732703Y-44738450D01*
X167723643Y-44736274D01*
X167467630Y-44694580D01*
X167458343Y-44693768D01*
X167198992Y-44690373D01*
X167189681Y-44690943D01*
X166932682Y-44725919D01*
X166923546Y-44727860D01*
X166674543Y-44800439D01*
X166665800Y-44803707D01*
X166430252Y-44912296D01*
X166422097Y-44916816D01*
X166231240Y-45041947D01*
X166222102Y-45052689D01*
X158723064Y-45052689D01*
X158737816Y-45028757D01*
X158743963Y-45015576D01*
X158795138Y-44861290D01*
X158798005Y-44847914D01*
X158807672Y-44753562D01*
X158808000Y-44747146D01*
X158808000Y-43472115D01*
X158803525Y-43456876D01*
X158802135Y-43455671D01*
X158794452Y-43454000D01*
X157772115Y-43454000D01*
X157756876Y-43458475D01*
X157755671Y-43459865D01*
X157754000Y-43467548D01*
X157754000Y-45439884D01*
X157246000Y-45439884D01*
X157246000Y-43472115D01*
X157241525Y-43456876D01*
X157240135Y-43455671D01*
X157232452Y-43454000D01*
X156210116Y-43454000D01*
X156194877Y-43458475D01*
X156193672Y-43459865D01*
X156192001Y-43467548D01*
X156192001Y-44747095D01*
X147853914Y-44747095D01*
X147998847Y-44633861D01*
X148104718Y-44511208D01*
X148124049Y-44488813D01*
X148124050Y-44488811D01*
X148128078Y-44484145D01*
X148225769Y-44312179D01*
X148288197Y-44124513D01*
X148312985Y-43928295D01*
X148313380Y-43900000D01*
X148294080Y-43703167D01*
X148236916Y-43513831D01*
X148144066Y-43339204D01*
X148035084Y-43205579D01*
X148022960Y-43190713D01*
X148022957Y-43190710D01*
X148019065Y-43185938D01*
X148014316Y-43182009D01*
X147871425Y-43063799D01*
X147871421Y-43063797D01*
X147866675Y-43059870D01*
X147692701Y-42965802D01*
X147570210Y-42927885D01*
X156192000Y-42927885D01*
X156196475Y-42943124D01*
X156197865Y-42944329D01*
X156205548Y-42946000D01*
X157227885Y-42946000D01*
X157243124Y-42941525D01*
X157244329Y-42940135D01*
X157246000Y-42932452D01*
X157246000Y-42927885D01*
X157754000Y-42927885D01*
X157758475Y-42943124D01*
X157759865Y-42944329D01*
X157767548Y-42946000D01*
X158789884Y-42946000D01*
X158805123Y-42941525D01*
X158806328Y-42940135D01*
X158807999Y-42932452D01*
X158807999Y-41652905D01*
X158807662Y-41646386D01*
X158797743Y-41550794D01*
X158794851Y-41537400D01*
X158743412Y-41383216D01*
X158737239Y-41370038D01*
X158651937Y-41232193D01*
X158642901Y-41220792D01*
X158528171Y-41106261D01*
X158516760Y-41097249D01*
X158378757Y-41012184D01*
X158365576Y-41006037D01*
X158347375Y-41000000D01*
X167386526Y-41000000D01*
X167406391Y-41252403D01*
X167407545Y-41257210D01*
X167407546Y-41257216D01*
X167421849Y-41316791D01*
X167465495Y-41498591D01*
X167467388Y-41503162D01*
X167467389Y-41503164D01*
X167544767Y-41689970D01*
X167562384Y-41732502D01*
X167694672Y-41948376D01*
X167859102Y-42140898D01*
X168051624Y-42305328D01*
X168267498Y-42437616D01*
X168272068Y-42439509D01*
X168272072Y-42439511D01*
X168340163Y-42467715D01*
X168501409Y-42534505D01*
X168586032Y-42554821D01*
X168742784Y-42592454D01*
X168742790Y-42592455D01*
X168747597Y-42593609D01*
X168847416Y-42601465D01*
X168934345Y-42608307D01*
X168934352Y-42608307D01*
X168936801Y-42608500D01*
X169063199Y-42608500D01*
X169065648Y-42608307D01*
X169065655Y-42608307D01*
X169152584Y-42601465D01*
X169252403Y-42593609D01*
X169257210Y-42592455D01*
X169257216Y-42592454D01*
X169413968Y-42554821D01*
X169498591Y-42534505D01*
X169659837Y-42467715D01*
X169727928Y-42439511D01*
X169727932Y-42439509D01*
X169732502Y-42437616D01*
X169948376Y-42305328D01*
X170140898Y-42140898D01*
X170305328Y-41948376D01*
X170437616Y-41732502D01*
X170455234Y-41689970D01*
X170532611Y-41503164D01*
X170532612Y-41503162D01*
X170534505Y-41498591D01*
X170578151Y-41316791D01*
X170592454Y-41257216D01*
X170592455Y-41257210D01*
X170593609Y-41252403D01*
X170613474Y-41000000D01*
X170593609Y-40747597D01*
X170575861Y-40673668D01*
X170543014Y-40536853D01*
X170534505Y-40501409D01*
X170532611Y-40496836D01*
X170439511Y-40272072D01*
X170439509Y-40272068D01*
X170437616Y-40267498D01*
X170305328Y-40051624D01*
X170140898Y-39859102D01*
X169948376Y-39694672D01*
X169732502Y-39562384D01*
X169727932Y-39560491D01*
X169727928Y-39560489D01*
X169503164Y-39467389D01*
X169503162Y-39467388D01*
X169498591Y-39465495D01*
X169413968Y-39445179D01*
X169257216Y-39407546D01*
X169257210Y-39407545D01*
X169252403Y-39406391D01*
X169152584Y-39398535D01*
X169065655Y-39391693D01*
X169065648Y-39391693D01*
X169063199Y-39391500D01*
X168936801Y-39391500D01*
X168934352Y-39391693D01*
X168934345Y-39391693D01*
X168847416Y-39398535D01*
X168747597Y-39406391D01*
X168742790Y-39407545D01*
X168742784Y-39407546D01*
X168586032Y-39445179D01*
X168501409Y-39465495D01*
X168496838Y-39467388D01*
X168496836Y-39467389D01*
X168272072Y-39560489D01*
X168272068Y-39560491D01*
X168267498Y-39562384D01*
X168051624Y-39694672D01*
X167859102Y-39859102D01*
X167694672Y-40051624D01*
X167562384Y-40267498D01*
X167560491Y-40272068D01*
X167560489Y-40272072D01*
X167467389Y-40496836D01*
X167465495Y-40501409D01*
X167456986Y-40536853D01*
X167424140Y-40673668D01*
X167406391Y-40747597D01*
X167386526Y-41000000D01*
X158347375Y-41000000D01*
X158211290Y-40954862D01*
X158197914Y-40951995D01*
X158103562Y-40942328D01*
X158097145Y-40942000D01*
X157772115Y-40942000D01*
X157756876Y-40946475D01*
X157755671Y-40947865D01*
X157754000Y-40955548D01*
X157754000Y-42927885D01*
X157246000Y-42927885D01*
X157246000Y-40960116D01*
X157241525Y-40944877D01*
X157240135Y-40943672D01*
X157232452Y-40942001D01*
X156902905Y-40942001D01*
X156896386Y-40942338D01*
X156800794Y-40952257D01*
X156787400Y-40955149D01*
X156633216Y-41006588D01*
X156620038Y-41012761D01*
X156482193Y-41098063D01*
X156470792Y-41107099D01*
X156356261Y-41221829D01*
X156347249Y-41233240D01*
X156262184Y-41371243D01*
X156256037Y-41384424D01*
X156204862Y-41538710D01*
X156201995Y-41552086D01*
X156192328Y-41646438D01*
X156192000Y-41652855D01*
X156192000Y-42927885D01*
X147570210Y-42927885D01*
X147503768Y-42907318D01*
X147497643Y-42906674D01*
X147497642Y-42906674D01*
X147313204Y-42887289D01*
X147313202Y-42887289D01*
X147307075Y-42886645D01*
X147224576Y-42894153D01*
X147116251Y-42904011D01*
X147116248Y-42904012D01*
X147110112Y-42904570D01*
X147104206Y-42906308D01*
X147104202Y-42906309D01*
X146999076Y-42937249D01*
X146920381Y-42960410D01*
X146914923Y-42963263D01*
X146914919Y-42963265D01*
X146824147Y-43010720D01*
X146745110Y-43052040D01*
X146648894Y-43129400D01*
X146583271Y-43156496D01*
X146513417Y-43143812D01*
X146480847Y-43120298D01*
X145395405Y-42034856D01*
X145361379Y-41972544D01*
X145358500Y-41945761D01*
X145358500Y-41000000D01*
X147886526Y-41000000D01*
X147906391Y-41252403D01*
X147907545Y-41257210D01*
X147907546Y-41257216D01*
X147921849Y-41316791D01*
X147965495Y-41498591D01*
X147967388Y-41503162D01*
X147967389Y-41503164D01*
X148044767Y-41689970D01*
X148062384Y-41732502D01*
X148194672Y-41948376D01*
X148359102Y-42140898D01*
X148551624Y-42305328D01*
X148767498Y-42437616D01*
X148772068Y-42439509D01*
X148772072Y-42439511D01*
X148840163Y-42467715D01*
X149001409Y-42534505D01*
X149086032Y-42554821D01*
X149242784Y-42592454D01*
X149242790Y-42592455D01*
X149247597Y-42593609D01*
X149347416Y-42601465D01*
X149434345Y-42608307D01*
X149434352Y-42608307D01*
X149436801Y-42608500D01*
X149563199Y-42608500D01*
X149565648Y-42608307D01*
X149565655Y-42608307D01*
X149652584Y-42601465D01*
X149752403Y-42593609D01*
X149757210Y-42592455D01*
X149757216Y-42592454D01*
X149913968Y-42554821D01*
X149998591Y-42534505D01*
X150159837Y-42467715D01*
X150227928Y-42439511D01*
X150227932Y-42439509D01*
X150232502Y-42437616D01*
X150448376Y-42305328D01*
X150640898Y-42140898D01*
X150805328Y-41948376D01*
X150937616Y-41732502D01*
X150955234Y-41689970D01*
X151032611Y-41503164D01*
X151032612Y-41503162D01*
X151034505Y-41498591D01*
X151078151Y-41316791D01*
X151092454Y-41257216D01*
X151092455Y-41257210D01*
X151093609Y-41252403D01*
X151113474Y-41000000D01*
X151112644Y-40989455D01*
X152744825Y-40989455D01*
X152745512Y-40996462D01*
X152745512Y-40996465D01*
X152748311Y-41025010D01*
X152761255Y-41157025D01*
X152814402Y-41316791D01*
X152901624Y-41460812D01*
X152906513Y-41465875D01*
X152906514Y-41465876D01*
X152933460Y-41493779D01*
X153018586Y-41581929D01*
X153024483Y-41585788D01*
X153153577Y-41670266D01*
X153153581Y-41670268D01*
X153159475Y-41674125D01*
X153317289Y-41732815D01*
X153324270Y-41733746D01*
X153324272Y-41733747D01*
X153369812Y-41739823D01*
X153484183Y-41755083D01*
X153491194Y-41754445D01*
X153491198Y-41754445D01*
X153644843Y-41740462D01*
X153651864Y-41739823D01*
X153658566Y-41737645D01*
X153658568Y-41737645D01*
X153805298Y-41689970D01*
X153805301Y-41689969D01*
X153811997Y-41687793D01*
X153956623Y-41601578D01*
X153961717Y-41596727D01*
X153961721Y-41596724D01*
X154073454Y-41490322D01*
X154073455Y-41490320D01*
X154078554Y-41485465D01*
X154094934Y-41460812D01*
X154167836Y-41351085D01*
X154171731Y-41345223D01*
X154231521Y-41187823D01*
X154254955Y-41021088D01*
X154255249Y-41000000D01*
X154249894Y-40952257D01*
X154237266Y-40839672D01*
X154237265Y-40839669D01*
X154236481Y-40832676D01*
X154181108Y-40673668D01*
X154091884Y-40530879D01*
X154083723Y-40522661D01*
X153978205Y-40416403D01*
X153978201Y-40416400D01*
X153973242Y-40411406D01*
X153831079Y-40321187D01*
X153672462Y-40264706D01*
X153665474Y-40263873D01*
X153665471Y-40263872D01*
X153572300Y-40252762D01*
X153505273Y-40244769D01*
X153498270Y-40245505D01*
X153498269Y-40245505D01*
X153452712Y-40250293D01*
X153337821Y-40262369D01*
X153331155Y-40264638D01*
X153331152Y-40264639D01*
X153185098Y-40314360D01*
X153185095Y-40314361D01*
X153178431Y-40316630D01*
X153172436Y-40320318D01*
X153172432Y-40320320D01*
X153041021Y-40401165D01*
X153041019Y-40401167D01*
X153035022Y-40404856D01*
X153028030Y-40411703D01*
X152941096Y-40496836D01*
X152914724Y-40522661D01*
X152823515Y-40664190D01*
X152765927Y-40822409D01*
X152744825Y-40989455D01*
X151112644Y-40989455D01*
X151093609Y-40747597D01*
X151075861Y-40673668D01*
X151043014Y-40536853D01*
X151034505Y-40501409D01*
X151032611Y-40496836D01*
X150939511Y-40272072D01*
X150939509Y-40272068D01*
X150937616Y-40267498D01*
X150805328Y-40051624D01*
X150640898Y-39859102D01*
X150448376Y-39694672D01*
X150232502Y-39562384D01*
X150227932Y-39560491D01*
X150227928Y-39560489D01*
X150003164Y-39467389D01*
X150003162Y-39467388D01*
X149998591Y-39465495D01*
X149913968Y-39445179D01*
X149757216Y-39407546D01*
X149757210Y-39407545D01*
X149752403Y-39406391D01*
X149652584Y-39398535D01*
X149565655Y-39391693D01*
X149565648Y-39391693D01*
X149563199Y-39391500D01*
X149436801Y-39391500D01*
X149434352Y-39391693D01*
X149434345Y-39391693D01*
X149347416Y-39398535D01*
X149247597Y-39406391D01*
X149242790Y-39407545D01*
X149242784Y-39407546D01*
X149086032Y-39445179D01*
X149001409Y-39465495D01*
X148996838Y-39467388D01*
X148996836Y-39467389D01*
X148772072Y-39560489D01*
X148772068Y-39560491D01*
X148767498Y-39562384D01*
X148551624Y-39694672D01*
X148359102Y-39859102D01*
X148194672Y-40051624D01*
X148062384Y-40267498D01*
X148060491Y-40272068D01*
X148060489Y-40272072D01*
X147967389Y-40496836D01*
X147965495Y-40501409D01*
X147956986Y-40536853D01*
X147924140Y-40673668D01*
X147906391Y-40747597D01*
X147886526Y-41000000D01*
X145358500Y-41000000D01*
X145358500Y-40601866D01*
X145351745Y-40539684D01*
X145300615Y-40403295D01*
X145213261Y-40286739D01*
X145096705Y-40199385D01*
X144960316Y-40148255D01*
X144898134Y-40141500D01*
X143101866Y-40141500D01*
X143039684Y-40148255D01*
X142903295Y-40199385D01*
X142786739Y-40286739D01*
X142699385Y-40403295D01*
X142648255Y-40539684D01*
X142641500Y-40601866D01*
X142641500Y-42398134D01*
X142648255Y-42460316D01*
X142699385Y-42596705D01*
X142786739Y-42713261D01*
X142903295Y-42800615D01*
X142911704Y-42803767D01*
X142911705Y-42803768D01*
X143020451Y-42844535D01*
X143077216Y-42887176D01*
X143101916Y-42953738D01*
X143086709Y-43023087D01*
X143067316Y-43049568D01*
X142940629Y-43182138D01*
X142937715Y-43186410D01*
X142937714Y-43186411D01*
X142924639Y-43205579D01*
X142814743Y-43366680D01*
X142720688Y-43569305D01*
X142660989Y-43784570D01*
X142637251Y-44006695D01*
X142637548Y-44011848D01*
X142637548Y-44011851D01*
X142649812Y-44224547D01*
X142650110Y-44229715D01*
X142651247Y-44234761D01*
X142651248Y-44234767D01*
X142665101Y-44296234D01*
X142699222Y-44447639D01*
X142783266Y-44654616D01*
X142785965Y-44659020D01*
X142891065Y-44830528D01*
X142899987Y-44845088D01*
X143046250Y-45013938D01*
X143218126Y-45156632D01*
X143288595Y-45197811D01*
X143291445Y-45199476D01*
X143340169Y-45251114D01*
X143353240Y-45320897D01*
X143326509Y-45386669D01*
X143286055Y-45420027D01*
X143273607Y-45426507D01*
X143269474Y-45429610D01*
X143269471Y-45429612D01*
X143163550Y-45509140D01*
X143094965Y-45560635D01*
X143091393Y-45564373D01*
X142987691Y-45672891D01*
X142940629Y-45722138D01*
X142937715Y-45726410D01*
X142937714Y-45726411D01*
X142862618Y-45836498D01*
X142814743Y-45906680D01*
X142720688Y-46109305D01*
X142660989Y-46324570D01*
X142637251Y-46546695D01*
X142637548Y-46551848D01*
X142637548Y-46551851D01*
X142646477Y-46706704D01*
X142650110Y-46769715D01*
X142651247Y-46774761D01*
X142651248Y-46774767D01*
X142664356Y-46832928D01*
X142699222Y-46987639D01*
X142783266Y-47194616D01*
X142818962Y-47252866D01*
X142890158Y-47369048D01*
X142899987Y-47385088D01*
X143046250Y-47553938D01*
X143218126Y-47696632D01*
X143288595Y-47737811D01*
X143291445Y-47739476D01*
X143340169Y-47791114D01*
X143353240Y-47860897D01*
X143326509Y-47926669D01*
X143286055Y-47960027D01*
X143278846Y-47963780D01*
X143273607Y-47966507D01*
X143269474Y-47969610D01*
X143269471Y-47969612D01*
X143099100Y-48097530D01*
X143094965Y-48100635D01*
X143085956Y-48110062D01*
X142985216Y-48215481D01*
X142940629Y-48262138D01*
X142937715Y-48266410D01*
X142937714Y-48266411D01*
X142883183Y-48346351D01*
X142814743Y-48446680D01*
X142720688Y-48649305D01*
X142660989Y-48864570D01*
X142637251Y-49086695D01*
X142637548Y-49091848D01*
X142637548Y-49091851D01*
X142640783Y-49147951D01*
X142650110Y-49309715D01*
X142651247Y-49314761D01*
X142651248Y-49314767D01*
X142675304Y-49421508D01*
X142699222Y-49527639D01*
X142742208Y-49633502D01*
X142765759Y-49691500D01*
X142783266Y-49734616D01*
X142899987Y-49925088D01*
X143046250Y-50093938D01*
X143218126Y-50236632D01*
X143288595Y-50277811D01*
X143291445Y-50279476D01*
X143340169Y-50331114D01*
X143353240Y-50400897D01*
X143326509Y-50466669D01*
X143286055Y-50500027D01*
X143273607Y-50506507D01*
X143269474Y-50509610D01*
X143269471Y-50509612D01*
X143110504Y-50628968D01*
X143094965Y-50640635D01*
X142940629Y-50802138D01*
X142937715Y-50806410D01*
X142937714Y-50806411D01*
X142878445Y-50893296D01*
X142814743Y-50986680D01*
X142720688Y-51189305D01*
X142660989Y-51404570D01*
X142637251Y-51626695D01*
X142637548Y-51631848D01*
X142637548Y-51631851D01*
X142646601Y-51788858D01*
X142650110Y-51849715D01*
X142651247Y-51854761D01*
X142651248Y-51854767D01*
X142675304Y-51961508D01*
X142699222Y-52067639D01*
X142783266Y-52274616D01*
X142785965Y-52279020D01*
X142881636Y-52435141D01*
X142899987Y-52465088D01*
X143046250Y-52633938D01*
X143218126Y-52776632D01*
X143288595Y-52817811D01*
X143291445Y-52819476D01*
X143340169Y-52871114D01*
X143353240Y-52940897D01*
X143326509Y-53006669D01*
X143286055Y-53040027D01*
X143273607Y-53046507D01*
X143269474Y-53049610D01*
X143269471Y-53049612D01*
X143110938Y-53168642D01*
X143094965Y-53180635D01*
X142940629Y-53342138D01*
X142937715Y-53346410D01*
X142937714Y-53346411D01*
X142879676Y-53431492D01*
X142814743Y-53526680D01*
X142812564Y-53531375D01*
X142727871Y-53713831D01*
X142720688Y-53729305D01*
X142660989Y-53944570D01*
X142637251Y-54166695D01*
X142637548Y-54171848D01*
X142637548Y-54171851D01*
X142648374Y-54359615D01*
X142650110Y-54389715D01*
X142651247Y-54394761D01*
X142651248Y-54394767D01*
X142670647Y-54480843D01*
X142699222Y-54607639D01*
X142742208Y-54713502D01*
X142780858Y-54808685D01*
X142783266Y-54814616D01*
X142797384Y-54837655D01*
X142894205Y-54995652D01*
X142899987Y-55005088D01*
X142903367Y-55008990D01*
X142914352Y-55021671D01*
X143046250Y-55173938D01*
X143218126Y-55316632D01*
X143242673Y-55330976D01*
X143291445Y-55359476D01*
X143340169Y-55411114D01*
X143353240Y-55480897D01*
X143326509Y-55546669D01*
X143286055Y-55580027D01*
X143273607Y-55586507D01*
X143269474Y-55589610D01*
X143269471Y-55589612D01*
X143099100Y-55717530D01*
X143094965Y-55720635D01*
X142940629Y-55882138D01*
X142937715Y-55886410D01*
X142937714Y-55886411D01*
X142925404Y-55904457D01*
X142814743Y-56066680D01*
X142767716Y-56167992D01*
X142745770Y-56215271D01*
X142720688Y-56269305D01*
X142660989Y-56484570D01*
X142637251Y-56706695D01*
X142637548Y-56711848D01*
X142637548Y-56711851D01*
X142648665Y-56904655D01*
X142650110Y-56929715D01*
X142651247Y-56934761D01*
X142651248Y-56934767D01*
X142670585Y-57020569D01*
X142699222Y-57147639D01*
X142723935Y-57208500D01*
X142774980Y-57334209D01*
X142783266Y-57354616D01*
X142785965Y-57359020D01*
X142896796Y-57539880D01*
X142899987Y-57545088D01*
X143046250Y-57713938D01*
X143218126Y-57856632D01*
X143288595Y-57897811D01*
X143291445Y-57899476D01*
X143340169Y-57951114D01*
X143353240Y-58020897D01*
X143326509Y-58086669D01*
X143286055Y-58120027D01*
X143273607Y-58126507D01*
X143269474Y-58129610D01*
X143269471Y-58129612D01*
X143123824Y-58238967D01*
X143094965Y-58260635D01*
X143091393Y-58264373D01*
X142945117Y-58417442D01*
X142940629Y-58422138D01*
X142814743Y-58606680D01*
X142799003Y-58640590D01*
X142729500Y-58790322D01*
X142720688Y-58809305D01*
X142660989Y-59024570D01*
X142637251Y-59246695D01*
X142637548Y-59251848D01*
X142637548Y-59251851D01*
X142648933Y-59449305D01*
X142650110Y-59469715D01*
X142651247Y-59474761D01*
X142651248Y-59474767D01*
X142673392Y-59573022D01*
X142699222Y-59687639D01*
X142741696Y-59792240D01*
X142779694Y-59885818D01*
X142783266Y-59894616D01*
X142795110Y-59913943D01*
X142872344Y-60039978D01*
X142899987Y-60085088D01*
X143046250Y-60253938D01*
X143218126Y-60396632D01*
X143230788Y-60404031D01*
X143291445Y-60439476D01*
X143340169Y-60491114D01*
X143353240Y-60560897D01*
X143326509Y-60626669D01*
X143286055Y-60660027D01*
X143273607Y-60666507D01*
X143269474Y-60669610D01*
X143269471Y-60669612D01*
X143099100Y-60797530D01*
X143094965Y-60800635D01*
X143091393Y-60804373D01*
X142984569Y-60916158D01*
X142940629Y-60962138D01*
X142937715Y-60966410D01*
X142937714Y-60966411D01*
X142882146Y-61047871D01*
X142814743Y-61146680D01*
X142783357Y-61214296D01*
X142727263Y-61335141D01*
X142720688Y-61349305D01*
X142660989Y-61564570D01*
X142637251Y-61786695D01*
X142008500Y-61786695D01*
X142008500Y-39053250D01*
X142010246Y-39032345D01*
X142012770Y-39017344D01*
X142012770Y-39017341D01*
X142013576Y-39012552D01*
X142013729Y-39000000D01*
X142013040Y-38995188D01*
X142012723Y-38990327D01*
X142013008Y-38990308D01*
X142012607Y-38963549D01*
X142019234Y-38904736D01*
X142025513Y-38877229D01*
X142052485Y-38800147D01*
X142064727Y-38774726D01*
X142108178Y-38705574D01*
X142125770Y-38683515D01*
X142183515Y-38625770D01*
X142205574Y-38608178D01*
X142274726Y-38564727D01*
X142300147Y-38552485D01*
X142377228Y-38525513D01*
X142404736Y-38519234D01*
X142460226Y-38512982D01*
X142475868Y-38513077D01*
X142475879Y-38512200D01*
X142484851Y-38512310D01*
X142493724Y-38513691D01*
X142502626Y-38512527D01*
X142502628Y-38512527D01*
X142517951Y-38510523D01*
X142525286Y-38509564D01*
X142541621Y-38508500D01*
X171450633Y-38508500D01*
X171470018Y-38510000D01*
G37*
%TD.AperFunction*%
%TA.AperFunction,Conductor*%
G36*
X161056423Y-63064839D02*
G01*
X161092650Y-63125897D01*
X161095908Y-63169899D01*
X161094694Y-63181753D01*
X161091500Y-63212928D01*
X161091500Y-63583261D01*
X161071498Y-63651382D01*
X161054595Y-63672356D01*
X160545333Y-64181618D01*
X160485652Y-64215042D01*
X160452352Y-64223036D01*
X160452348Y-64223037D01*
X160444973Y-64224808D01*
X160292589Y-64303459D01*
X160163365Y-64416189D01*
X160064760Y-64556489D01*
X160002468Y-64716259D01*
X160001831Y-64721098D01*
X159980467Y-64764998D01*
X159968476Y-64780624D01*
X159914972Y-64909794D01*
X159907162Y-64928650D01*
X159906085Y-64936834D01*
X159906084Y-64936836D01*
X159900746Y-64977385D01*
X159891500Y-65047615D01*
X159891500Y-65047620D01*
X159886250Y-65087500D01*
X159888466Y-65104330D01*
X159877528Y-65174476D01*
X159829846Y-65227920D01*
X159802192Y-65245032D01*
X159802186Y-65245037D01*
X159795969Y-65248884D01*
X159790800Y-65254062D01*
X159678242Y-65366816D01*
X159678238Y-65366821D01*
X159673071Y-65371997D01*
X159669231Y-65378227D01*
X159669230Y-65378228D01*
X159586364Y-65512662D01*
X159581791Y-65520080D01*
X159527026Y-65685191D01*
X159516500Y-65787928D01*
X159516500Y-66387072D01*
X159516837Y-66390318D01*
X159516837Y-66390322D01*
X159526537Y-66483806D01*
X159527293Y-66491093D01*
X159529474Y-66497629D01*
X159529474Y-66497631D01*
X159549333Y-66557154D01*
X159582346Y-66656107D01*
X159673884Y-66804031D01*
X159679066Y-66809204D01*
X159780786Y-66910747D01*
X159814865Y-66973030D01*
X159809862Y-67043850D01*
X159780941Y-67088937D01*
X159678246Y-67191812D01*
X159678242Y-67191817D01*
X159673071Y-67196997D01*
X159669231Y-67203227D01*
X159669230Y-67203228D01*
X159586364Y-67337662D01*
X159581791Y-67345080D01*
X159527026Y-67510191D01*
X159516500Y-67612928D01*
X159516500Y-67965500D01*
X159496498Y-68033621D01*
X159442842Y-68080114D01*
X159390500Y-68091500D01*
X158122000Y-68091500D01*
X158053879Y-68071498D01*
X158007386Y-68017842D01*
X157996000Y-67965500D01*
X157996000Y-67784500D01*
X158016002Y-67716379D01*
X158069658Y-67669886D01*
X158122000Y-67658500D01*
X159214885Y-67658500D01*
X159230124Y-67654025D01*
X159231329Y-67652635D01*
X159233000Y-67644952D01*
X159233000Y-67616234D01*
X159232663Y-67609718D01*
X159222925Y-67515868D01*
X159220032Y-67502472D01*
X159169512Y-67351047D01*
X159163347Y-67337885D01*
X159079574Y-67202508D01*
X159070540Y-67191110D01*
X158968860Y-67089607D01*
X158934781Y-67027324D01*
X158939784Y-66956504D01*
X158968705Y-66911416D01*
X158969058Y-66911063D01*
X159076929Y-66803003D01*
X159080770Y-66796772D01*
X159164369Y-66661150D01*
X159164370Y-66661148D01*
X159168209Y-66654920D01*
X159222974Y-66489809D01*
X159226519Y-66455214D01*
X159231607Y-66405548D01*
X159233500Y-66387072D01*
X159233500Y-65787928D01*
X159231412Y-65767800D01*
X159223419Y-65690765D01*
X159223418Y-65690761D01*
X159222707Y-65683907D01*
X159218554Y-65671457D01*
X159169972Y-65525841D01*
X159167654Y-65518893D01*
X159076116Y-65370969D01*
X159044661Y-65339569D01*
X158958184Y-65253242D01*
X158958179Y-65253238D01*
X158953003Y-65248071D01*
X158943394Y-65242148D01*
X158811150Y-65160631D01*
X158811148Y-65160630D01*
X158804920Y-65156791D01*
X158697955Y-65121312D01*
X158639596Y-65080883D01*
X158612359Y-65015319D01*
X158624892Y-64945437D01*
X158673217Y-64893425D01*
X158709492Y-64878900D01*
X158741759Y-64871510D01*
X158894958Y-64794459D01*
X158900729Y-64789530D01*
X158900732Y-64789528D01*
X159019578Y-64688023D01*
X159025355Y-64683089D01*
X159115696Y-64557368D01*
X159120992Y-64549998D01*
X159120993Y-64549997D01*
X159125424Y-64543830D01*
X159189385Y-64384720D01*
X159197610Y-64326929D01*
X159212966Y-64219031D01*
X159212966Y-64219027D01*
X159213547Y-64214947D01*
X159213704Y-64200000D01*
X159205905Y-64135551D01*
X159194015Y-64037301D01*
X159194015Y-64037300D01*
X159193102Y-64029758D01*
X159143780Y-63899230D01*
X159136167Y-63850033D01*
X159135900Y-63850033D01*
X159135900Y-63261900D01*
X159155902Y-63193779D01*
X159209558Y-63147286D01*
X159261900Y-63135900D01*
X159850033Y-63135900D01*
X159912215Y-63129145D01*
X159945897Y-63116518D01*
X159990127Y-63108500D01*
X160589364Y-63108500D01*
X160605807Y-63109578D01*
X160637500Y-63113750D01*
X160645689Y-63112672D01*
X160677374Y-63108501D01*
X160677384Y-63108500D01*
X160677385Y-63108500D01*
X160776957Y-63095391D01*
X160788164Y-63093916D01*
X160788166Y-63093915D01*
X160796351Y-63092838D01*
X160922346Y-63040649D01*
X160992936Y-63033060D01*
X161056423Y-63064839D01*
G37*
%TD.AperFunction*%
%TA.AperFunction,Conductor*%
G36*
X154722421Y-62655903D02*
G01*
X154768914Y-62709559D01*
X154780300Y-62761901D01*
X154780300Y-63117284D01*
X154784775Y-63132523D01*
X154807981Y-63152631D01*
X154827193Y-63163121D01*
X154861220Y-63225433D01*
X154864100Y-63252219D01*
X154864100Y-63850033D01*
X154870855Y-63912215D01*
X154873629Y-63919614D01*
X154883482Y-63945897D01*
X154891500Y-63990127D01*
X154891500Y-65387500D01*
X154872760Y-65453616D01*
X154836364Y-65512662D01*
X154831791Y-65520080D01*
X154777026Y-65685191D01*
X154766500Y-65787928D01*
X154766500Y-66487072D01*
X154766837Y-66490318D01*
X154766837Y-66490322D01*
X154773792Y-66557347D01*
X154777293Y-66591093D01*
X154779474Y-66597629D01*
X154779474Y-66597631D01*
X154796152Y-66647620D01*
X154832346Y-66756107D01*
X154923884Y-66904031D01*
X154930929Y-66911063D01*
X154931139Y-66911273D01*
X154932105Y-66913038D01*
X154933613Y-66914941D01*
X154933287Y-66915199D01*
X154965219Y-66973554D01*
X154960218Y-67044375D01*
X154931292Y-67089470D01*
X154928636Y-67092131D01*
X154919625Y-67103540D01*
X154836088Y-67239063D01*
X154829944Y-67252241D01*
X154779685Y-67403766D01*
X154776819Y-67417132D01*
X154767328Y-67509770D01*
X154767000Y-67516185D01*
X154767000Y-67590385D01*
X154771475Y-67605624D01*
X154772865Y-67606829D01*
X154780548Y-67608500D01*
X155878000Y-67608500D01*
X155946121Y-67628502D01*
X155992614Y-67682158D01*
X156004000Y-67734500D01*
X156004000Y-67965500D01*
X155983998Y-68033621D01*
X155930342Y-68080114D01*
X155878000Y-68091500D01*
X154359500Y-68091500D01*
X154291379Y-68071498D01*
X154244886Y-68017842D01*
X154233500Y-67965500D01*
X154233500Y-67612928D01*
X154224624Y-67527378D01*
X154223419Y-67515765D01*
X154223418Y-67515761D01*
X154222707Y-67508907D01*
X154202259Y-67447615D01*
X154169972Y-67350841D01*
X154167654Y-67343893D01*
X154076116Y-67195969D01*
X154034038Y-67153964D01*
X153969214Y-67089253D01*
X153935135Y-67026970D01*
X153940138Y-66956150D01*
X153969059Y-66911063D01*
X154071754Y-66808188D01*
X154071758Y-66808183D01*
X154076929Y-66803003D01*
X154080770Y-66796772D01*
X154164369Y-66661150D01*
X154164370Y-66661148D01*
X154168209Y-66654920D01*
X154222974Y-66489809D01*
X154226519Y-66455214D01*
X154231607Y-66405548D01*
X154233500Y-66387072D01*
X154233500Y-65787928D01*
X154231412Y-65767800D01*
X154223419Y-65690765D01*
X154223418Y-65690761D01*
X154222707Y-65683907D01*
X154218554Y-65671457D01*
X154169972Y-65525841D01*
X154167654Y-65518893D01*
X154076116Y-65370969D01*
X154044661Y-65339569D01*
X153958184Y-65253242D01*
X153958179Y-65253238D01*
X153953003Y-65248071D01*
X153943394Y-65242148D01*
X153811150Y-65160631D01*
X153811148Y-65160630D01*
X153804920Y-65156791D01*
X153639809Y-65102026D01*
X153632973Y-65101326D01*
X153632970Y-65101325D01*
X153577909Y-65095684D01*
X153537072Y-65091500D01*
X152962928Y-65091500D01*
X152959682Y-65091837D01*
X152959678Y-65091837D01*
X152865765Y-65101581D01*
X152865761Y-65101582D01*
X152858907Y-65102293D01*
X152852371Y-65104474D01*
X152852369Y-65104474D01*
X152801897Y-65121313D01*
X152693893Y-65157346D01*
X152545969Y-65248884D01*
X152540796Y-65254066D01*
X152428242Y-65366816D01*
X152428238Y-65366821D01*
X152423071Y-65371997D01*
X152419230Y-65378228D01*
X152419228Y-65378231D01*
X152394025Y-65419117D01*
X152341253Y-65466610D01*
X152286766Y-65479000D01*
X151591739Y-65479000D01*
X151523618Y-65458998D01*
X151502644Y-65442095D01*
X150782905Y-64722356D01*
X150748879Y-64660044D01*
X150746000Y-64633261D01*
X150746000Y-64494111D01*
X150766002Y-64425990D01*
X150805697Y-64386967D01*
X150897805Y-64329969D01*
X150897806Y-64329968D01*
X150904031Y-64326116D01*
X150910923Y-64319212D01*
X150912387Y-64318411D01*
X150914938Y-64316389D01*
X150915284Y-64316826D01*
X150973204Y-64285134D01*
X151044024Y-64290137D01*
X151089110Y-64319056D01*
X151091616Y-64321557D01*
X151096997Y-64326929D01*
X151103227Y-64330769D01*
X151103228Y-64330770D01*
X151229730Y-64408747D01*
X151245080Y-64418209D01*
X151410191Y-64472974D01*
X151417027Y-64473674D01*
X151417030Y-64473675D01*
X151468526Y-64478951D01*
X151512928Y-64483500D01*
X152212072Y-64483500D01*
X152215318Y-64483163D01*
X152215322Y-64483163D01*
X152309235Y-64473419D01*
X152309239Y-64473418D01*
X152316093Y-64472707D01*
X152322629Y-64470526D01*
X152322631Y-64470526D01*
X152456121Y-64425990D01*
X152481107Y-64417654D01*
X152629031Y-64326116D01*
X152646668Y-64308448D01*
X152746758Y-64208184D01*
X152746762Y-64208179D01*
X152751929Y-64203003D01*
X152843209Y-64054920D01*
X152853839Y-64022872D01*
X152893925Y-63966515D01*
X152893314Y-63965854D01*
X152893327Y-63965842D01*
X152896012Y-63963580D01*
X152896721Y-63962584D01*
X152902066Y-63958482D01*
X152902078Y-63958472D01*
X152933987Y-63933987D01*
X152953447Y-63908627D01*
X152964312Y-63896237D01*
X153777986Y-63082563D01*
X153840298Y-63048538D01*
X153911113Y-63053602D01*
X153942647Y-63070832D01*
X153944457Y-63072188D01*
X153960047Y-63080724D01*
X154080495Y-63125878D01*
X154095750Y-63129505D01*
X154146615Y-63135031D01*
X154153429Y-63135400D01*
X154507385Y-63135400D01*
X154522624Y-63130925D01*
X154523829Y-63129535D01*
X154525500Y-63121852D01*
X154525500Y-62761901D01*
X154545502Y-62693780D01*
X154599158Y-62647287D01*
X154651500Y-62635901D01*
X154654300Y-62635901D01*
X154722421Y-62655903D01*
G37*
%TD.AperFunction*%
%TA.AperFunction,Conductor*%
G36*
X163043850Y-64190138D02*
G01*
X163088937Y-64219059D01*
X163191812Y-64321754D01*
X163191816Y-64321757D01*
X163196997Y-64326929D01*
X163203228Y-64330770D01*
X163203231Y-64330772D01*
X163244117Y-64355975D01*
X163291610Y-64408747D01*
X163304000Y-64463234D01*
X163304000Y-66383261D01*
X163283998Y-66451382D01*
X163267095Y-66472356D01*
X162425519Y-67313932D01*
X162363207Y-67347958D01*
X162292392Y-67342893D01*
X162268915Y-67331225D01*
X162132755Y-67244816D01*
X162103552Y-67234417D01*
X161968514Y-67186332D01*
X161968509Y-67186331D01*
X161961879Y-67183970D01*
X161954891Y-67183137D01*
X161954888Y-67183136D01*
X161903738Y-67177037D01*
X161893002Y-67175283D01*
X161882087Y-67173013D01*
X161877811Y-67172046D01*
X161806890Y-67154692D01*
X161801288Y-67154344D01*
X161801285Y-67154344D01*
X161795736Y-67154000D01*
X161795738Y-67153964D01*
X161791745Y-67153725D01*
X161787553Y-67153351D01*
X161780385Y-67151860D01*
X161714175Y-67153651D01*
X161702979Y-67153954D01*
X161699572Y-67154000D01*
X161336200Y-67154000D01*
X161268079Y-67133998D01*
X161247181Y-67117172D01*
X161237549Y-67107556D01*
X161236417Y-67106426D01*
X161219213Y-67089252D01*
X161185135Y-67026969D01*
X161190139Y-66956149D01*
X161219059Y-66911063D01*
X161321754Y-66808188D01*
X161321758Y-66808183D01*
X161326929Y-66803003D01*
X161330770Y-66796772D01*
X161414369Y-66661150D01*
X161414370Y-66661148D01*
X161418209Y-66654920D01*
X161472974Y-66489809D01*
X161476519Y-66455214D01*
X161481607Y-66405548D01*
X161483500Y-66387072D01*
X161483500Y-65787928D01*
X161481412Y-65767800D01*
X161473419Y-65690765D01*
X161473418Y-65690761D01*
X161472707Y-65683907D01*
X161468554Y-65671457D01*
X161419972Y-65525841D01*
X161417654Y-65518893D01*
X161379494Y-65457227D01*
X161329971Y-65377198D01*
X161329969Y-65377196D01*
X161326116Y-65370969D01*
X161327060Y-65370385D01*
X161303022Y-65310989D01*
X161317594Y-65239779D01*
X161319174Y-65237580D01*
X161382644Y-65079690D01*
X161410457Y-65037592D01*
X161927644Y-64520405D01*
X161989956Y-64486379D01*
X162016739Y-64483500D01*
X162387072Y-64483500D01*
X162390318Y-64483163D01*
X162390322Y-64483163D01*
X162484235Y-64473419D01*
X162484239Y-64473418D01*
X162491093Y-64472707D01*
X162497629Y-64470526D01*
X162497631Y-64470526D01*
X162631121Y-64425990D01*
X162656107Y-64417654D01*
X162804031Y-64326116D01*
X162821668Y-64308448D01*
X162910747Y-64219214D01*
X162973030Y-64185135D01*
X163043850Y-64190138D01*
G37*
%TD.AperFunction*%
%TA.AperFunction,Conductor*%
G36*
X163043850Y-59190138D02*
G01*
X163088937Y-59219059D01*
X163191812Y-59321754D01*
X163191817Y-59321758D01*
X163196997Y-59326929D01*
X163203227Y-59330769D01*
X163203228Y-59330770D01*
X163307508Y-59395049D01*
X163345080Y-59418209D01*
X163510191Y-59472974D01*
X163517027Y-59473674D01*
X163517030Y-59473675D01*
X163568526Y-59478951D01*
X163612928Y-59483500D01*
X163965500Y-59483500D01*
X164033621Y-59503502D01*
X164080114Y-59557158D01*
X164091500Y-59609500D01*
X164091500Y-62390500D01*
X164071498Y-62458621D01*
X164017842Y-62505114D01*
X163965500Y-62516500D01*
X163612928Y-62516500D01*
X163609682Y-62516837D01*
X163609678Y-62516837D01*
X163515765Y-62526581D01*
X163515761Y-62526582D01*
X163508907Y-62527293D01*
X163502371Y-62529474D01*
X163502369Y-62529474D01*
X163369605Y-62573768D01*
X163343893Y-62582346D01*
X163195969Y-62673884D01*
X163190796Y-62679066D01*
X163089253Y-62780786D01*
X163026970Y-62814865D01*
X162956150Y-62809862D01*
X162911063Y-62780941D01*
X162808188Y-62678246D01*
X162808183Y-62678242D01*
X162803003Y-62673071D01*
X162786206Y-62662717D01*
X162755883Y-62644025D01*
X162708390Y-62591253D01*
X162696000Y-62536766D01*
X162696000Y-62024990D01*
X162716002Y-61956869D01*
X162757764Y-61920331D01*
X162756107Y-61917654D01*
X162772810Y-61907318D01*
X162904031Y-61826116D01*
X162911274Y-61818861D01*
X162913038Y-61817895D01*
X162914941Y-61816387D01*
X162915199Y-61816713D01*
X162973554Y-61784781D01*
X163044375Y-61789782D01*
X163089470Y-61818708D01*
X163092131Y-61821364D01*
X163103540Y-61830375D01*
X163239063Y-61913912D01*
X163252241Y-61920056D01*
X163403766Y-61970315D01*
X163417132Y-61973181D01*
X163509770Y-61982672D01*
X163516185Y-61983000D01*
X163590385Y-61983000D01*
X163605624Y-61978525D01*
X163606829Y-61977135D01*
X163608500Y-61969452D01*
X163608500Y-60035115D01*
X163604025Y-60019876D01*
X163602635Y-60018671D01*
X163594952Y-60017000D01*
X163516234Y-60017000D01*
X163509718Y-60017337D01*
X163415868Y-60027075D01*
X163402472Y-60029968D01*
X163251047Y-60080488D01*
X163237885Y-60086653D01*
X163102508Y-60170426D01*
X163091106Y-60179464D01*
X163089433Y-60181139D01*
X163088007Y-60181919D01*
X163085373Y-60184007D01*
X163085016Y-60183556D01*
X163027151Y-60215219D01*
X162956331Y-60210216D01*
X162911246Y-60181299D01*
X162908185Y-60178244D01*
X162903003Y-60173071D01*
X162873557Y-60154920D01*
X162761154Y-60085633D01*
X162761149Y-60085631D01*
X162754920Y-60081791D01*
X162747969Y-60079485D01*
X162742188Y-60076790D01*
X162688902Y-60029873D01*
X162669440Y-59961596D01*
X162676425Y-59927190D01*
X162675040Y-59926819D01*
X162677178Y-59918840D01*
X162680338Y-59911211D01*
X162688847Y-59846576D01*
X162696000Y-59792245D01*
X162696000Y-59792240D01*
X162701250Y-59752360D01*
X162697078Y-59720667D01*
X162696000Y-59704224D01*
X162696000Y-59463170D01*
X162716002Y-59395049D01*
X162755697Y-59356026D01*
X162765093Y-59350212D01*
X162804031Y-59326116D01*
X162842580Y-59287500D01*
X162910747Y-59219214D01*
X162973030Y-59185135D01*
X163043850Y-59190138D01*
G37*
%TD.AperFunction*%
%TA.AperFunction,Conductor*%
G36*
X150958621Y-59428502D02*
G01*
X151005114Y-59482158D01*
X151016500Y-59534500D01*
X151016500Y-59987072D01*
X151016837Y-59990318D01*
X151016837Y-59990322D01*
X151026443Y-60082898D01*
X151027293Y-60091093D01*
X151029474Y-60097629D01*
X151029474Y-60097631D01*
X151067036Y-60210216D01*
X151082346Y-60256107D01*
X151086202Y-60262338D01*
X151155365Y-60374104D01*
X151173884Y-60404031D01*
X151180788Y-60410923D01*
X151181589Y-60412387D01*
X151183611Y-60414938D01*
X151183174Y-60415284D01*
X151214866Y-60473204D01*
X151209863Y-60544024D01*
X151180944Y-60589110D01*
X151173071Y-60596997D01*
X151169231Y-60603227D01*
X151169230Y-60603228D01*
X151086330Y-60737717D01*
X151081791Y-60745080D01*
X151027026Y-60910191D01*
X151026326Y-60917027D01*
X151026325Y-60917030D01*
X151022087Y-60958401D01*
X151016500Y-61012928D01*
X151016500Y-61712072D01*
X151016837Y-61715318D01*
X151016837Y-61715322D01*
X151026473Y-61808189D01*
X151027293Y-61816093D01*
X151029474Y-61822629D01*
X151029474Y-61822631D01*
X151062515Y-61921667D01*
X151082346Y-61981107D01*
X151173884Y-62129031D01*
X151179066Y-62134204D01*
X151291816Y-62246758D01*
X151291821Y-62246762D01*
X151296997Y-62251929D01*
X151303227Y-62255769D01*
X151303228Y-62255770D01*
X151396646Y-62313354D01*
X151444140Y-62366127D01*
X151455563Y-62436198D01*
X151427289Y-62501322D01*
X151370406Y-62540138D01*
X151243893Y-62582346D01*
X151204001Y-62607032D01*
X151103490Y-62669230D01*
X151095969Y-62673884D01*
X151089077Y-62680788D01*
X151087613Y-62681589D01*
X151085062Y-62683611D01*
X151084716Y-62683174D01*
X151026796Y-62714866D01*
X150955976Y-62709863D01*
X150910890Y-62680944D01*
X150908184Y-62678243D01*
X150903003Y-62673071D01*
X150876250Y-62656580D01*
X150761150Y-62585631D01*
X150761148Y-62585630D01*
X150754920Y-62581791D01*
X150589809Y-62527026D01*
X150582973Y-62526326D01*
X150582970Y-62526325D01*
X150531474Y-62521049D01*
X150487072Y-62516500D01*
X150217284Y-62516500D01*
X150149163Y-62496498D01*
X150102670Y-62442842D01*
X150092566Y-62372568D01*
X150122060Y-62307988D01*
X150150981Y-62283356D01*
X150197490Y-62254575D01*
X150208890Y-62245540D01*
X150321363Y-62132871D01*
X150330375Y-62121460D01*
X150413912Y-61985937D01*
X150420056Y-61972759D01*
X150470315Y-61821234D01*
X150473181Y-61807868D01*
X150482672Y-61715230D01*
X150483000Y-61708815D01*
X150483000Y-61684615D01*
X150478525Y-61669376D01*
X150477135Y-61668171D01*
X150469452Y-61666500D01*
X149372000Y-61666500D01*
X149303879Y-61646498D01*
X149257386Y-61592842D01*
X149246000Y-61540500D01*
X149246000Y-61284500D01*
X149266002Y-61216379D01*
X149319658Y-61169886D01*
X149372000Y-61158500D01*
X150464885Y-61158500D01*
X150480124Y-61154025D01*
X150481329Y-61152635D01*
X150483000Y-61144952D01*
X150483000Y-61116234D01*
X150482663Y-61109718D01*
X150472925Y-61015868D01*
X150470032Y-61002472D01*
X150419512Y-60851047D01*
X150413347Y-60837885D01*
X150329574Y-60702508D01*
X150320540Y-60691110D01*
X150218860Y-60589607D01*
X150184781Y-60527324D01*
X150189784Y-60456504D01*
X150218705Y-60411416D01*
X150232293Y-60397805D01*
X150326929Y-60303003D01*
X150331265Y-60295969D01*
X150414369Y-60161150D01*
X150414370Y-60161148D01*
X150418209Y-60154920D01*
X150472974Y-59989809D01*
X150483500Y-59887072D01*
X150483500Y-59534500D01*
X150503502Y-59466379D01*
X150557158Y-59419886D01*
X150609500Y-59408500D01*
X150890500Y-59408500D01*
X150958621Y-59428502D01*
G37*
%TD.AperFunction*%
%TA.AperFunction,Conductor*%
G36*
X157060323Y-59510799D02*
G01*
X157075555Y-59520587D01*
X157125894Y-59558314D01*
X157134302Y-59561466D01*
X157172230Y-59575685D01*
X157228995Y-59618327D01*
X157253694Y-59684889D01*
X157254000Y-59693667D01*
X157254000Y-60727885D01*
X157258475Y-60743124D01*
X157259865Y-60744329D01*
X157267548Y-60746000D01*
X158306333Y-60746000D01*
X158374454Y-60766002D01*
X158420947Y-60819658D01*
X158424315Y-60827770D01*
X158437802Y-60863745D01*
X158441686Y-60874106D01*
X158479407Y-60924437D01*
X158504254Y-60990941D01*
X158489201Y-61060323D01*
X158479413Y-61075555D01*
X158441686Y-61125894D01*
X158438534Y-61134302D01*
X158424315Y-61172230D01*
X158381673Y-61228995D01*
X158315111Y-61253694D01*
X158306333Y-61254000D01*
X156872000Y-61254000D01*
X156803879Y-61233998D01*
X156757386Y-61180342D01*
X156746000Y-61128000D01*
X156746000Y-59693667D01*
X156766002Y-59625546D01*
X156819658Y-59579053D01*
X156827770Y-59575685D01*
X156865698Y-59561466D01*
X156874106Y-59558314D01*
X156924437Y-59520593D01*
X156990941Y-59495746D01*
X157060323Y-59510799D01*
G37*
%TD.AperFunction*%
%TD*%
M02*
