%TF.GenerationSoftware,KiCad,Pcbnew,(6.0.6)*%
%TF.CreationDate,2022-06-27T18:20:24+02:00*%
%TF.ProjectId,tmc2208-breakout,746d6332-3230-4382-9d62-7265616b6f75,rev?*%
%TF.SameCoordinates,Original*%
%TF.FileFunction,Legend,Top*%
%TF.FilePolarity,Positive*%
%FSLAX46Y46*%
G04 Gerber Fmt 4.6, Leading zero omitted, Abs format (unit mm)*
G04 Created by KiCad (PCBNEW (6.0.6)) date 2022-06-27 18:20:24*
%MOMM*%
%LPD*%
G01*
G04 APERTURE LIST*
G04 Aperture macros list*
%AMRoundRect*
0 Rectangle with rounded corners*
0 $1 Rounding radius*
0 $2 $3 $4 $5 $6 $7 $8 $9 X,Y pos of 4 corners*
0 Add a 4 corners polygon primitive as box body*
4,1,4,$2,$3,$4,$5,$6,$7,$8,$9,$2,$3,0*
0 Add four circle primitives for the rounded corners*
1,1,$1+$1,$2,$3*
1,1,$1+$1,$4,$5*
1,1,$1+$1,$6,$7*
1,1,$1+$1,$8,$9*
0 Add four rect primitives between the rounded corners*
20,1,$1+$1,$2,$3,$4,$5,0*
20,1,$1+$1,$4,$5,$6,$7,0*
20,1,$1+$1,$6,$7,$8,$9,0*
20,1,$1+$1,$8,$9,$2,$3,0*%
G04 Aperture macros list end*
%ADD10C,0.300000*%
%ADD11C,0.150000*%
%ADD12C,0.120000*%
%ADD13C,0.100000*%
%ADD14C,1.000000*%
%ADD15RoundRect,0.250001X0.624999X-0.462499X0.624999X0.462499X-0.624999X0.462499X-0.624999X-0.462499X0*%
%ADD16RoundRect,0.237500X-0.237500X0.250000X-0.237500X-0.250000X0.237500X-0.250000X0.237500X0.250000X0*%
%ADD17RoundRect,0.237500X0.237500X-0.250000X0.237500X0.250000X-0.237500X0.250000X-0.237500X-0.250000X0*%
%ADD18R,1.700000X1.700000*%
%ADD19O,1.700000X1.700000*%
%ADD20RoundRect,0.250000X0.550000X-1.500000X0.550000X1.500000X-0.550000X1.500000X-0.550000X-1.500000X0*%
%ADD21R,1.000000X1.000000*%
%ADD22C,2.200000*%
%ADD23RoundRect,0.237500X-0.300000X-0.237500X0.300000X-0.237500X0.300000X0.237500X-0.300000X0.237500X0*%
%ADD24RoundRect,0.250000X-0.725000X0.600000X-0.725000X-0.600000X0.725000X-0.600000X0.725000X0.600000X0*%
%ADD25O,1.950000X1.700000*%
%ADD26RoundRect,0.237500X-0.237500X0.300000X-0.237500X-0.300000X0.237500X-0.300000X0.237500X0.300000X0*%
%ADD27R,0.909599X0.254800*%
%ADD28R,0.254800X0.909599*%
%ADD29R,3.098800X3.098800*%
%ADD30RoundRect,0.237500X0.237500X-0.300000X0.237500X0.300000X-0.237500X0.300000X-0.237500X-0.300000X0*%
%ADD31RoundRect,0.237500X0.300000X0.237500X-0.300000X0.237500X-0.300000X-0.237500X0.300000X-0.237500X0*%
%ADD32R,2.600000X2.600000*%
%ADD33C,2.600000*%
%ADD34RoundRect,0.237500X0.250000X0.237500X-0.250000X0.237500X-0.250000X-0.237500X0.250000X-0.237500X0*%
%ADD35C,1.500000*%
%ADD36RoundRect,0.237500X-0.250000X-0.237500X0.250000X-0.237500X0.250000X0.237500X-0.250000X0.237500X0*%
G04 APERTURE END LIST*
D10*
X155607142Y-39178571D02*
X156464285Y-39178571D01*
X156035714Y-40678571D02*
X156035714Y-39178571D01*
X156964285Y-40678571D02*
X156964285Y-39178571D01*
X157464285Y-40250000D01*
X157964285Y-39178571D01*
X157964285Y-40678571D01*
X159535714Y-40535714D02*
X159464285Y-40607142D01*
X159250000Y-40678571D01*
X159107142Y-40678571D01*
X158892857Y-40607142D01*
X158750000Y-40464285D01*
X158678571Y-40321428D01*
X158607142Y-40035714D01*
X158607142Y-39821428D01*
X158678571Y-39535714D01*
X158750000Y-39392857D01*
X158892857Y-39250000D01*
X159107142Y-39178571D01*
X159250000Y-39178571D01*
X159464285Y-39250000D01*
X159535714Y-39321428D01*
X160107142Y-39321428D02*
X160178571Y-39250000D01*
X160321428Y-39178571D01*
X160678571Y-39178571D01*
X160821428Y-39250000D01*
X160892857Y-39321428D01*
X160964285Y-39464285D01*
X160964285Y-39607142D01*
X160892857Y-39821428D01*
X160035714Y-40678571D01*
X160964285Y-40678571D01*
X161535714Y-39321428D02*
X161607142Y-39250000D01*
X161750000Y-39178571D01*
X162107142Y-39178571D01*
X162250000Y-39250000D01*
X162321428Y-39321428D01*
X162392857Y-39464285D01*
X162392857Y-39607142D01*
X162321428Y-39821428D01*
X161464285Y-40678571D01*
X162392857Y-40678571D01*
X163321428Y-39178571D02*
X163464285Y-39178571D01*
X163607142Y-39250000D01*
X163678571Y-39321428D01*
X163750000Y-39464285D01*
X163821428Y-39750000D01*
X163821428Y-40107142D01*
X163750000Y-40392857D01*
X163678571Y-40535714D01*
X163607142Y-40607142D01*
X163464285Y-40678571D01*
X163321428Y-40678571D01*
X163178571Y-40607142D01*
X163107142Y-40535714D01*
X163035714Y-40392857D01*
X162964285Y-40107142D01*
X162964285Y-39750000D01*
X163035714Y-39464285D01*
X163107142Y-39321428D01*
X163178571Y-39250000D01*
X163321428Y-39178571D01*
X164678571Y-39821428D02*
X164535714Y-39750000D01*
X164464285Y-39678571D01*
X164392857Y-39535714D01*
X164392857Y-39464285D01*
X164464285Y-39321428D01*
X164535714Y-39250000D01*
X164678571Y-39178571D01*
X164964285Y-39178571D01*
X165107142Y-39250000D01*
X165178571Y-39321428D01*
X165250000Y-39464285D01*
X165250000Y-39535714D01*
X165178571Y-39678571D01*
X165107142Y-39750000D01*
X164964285Y-39821428D01*
X164678571Y-39821428D01*
X164535714Y-39892857D01*
X164464285Y-39964285D01*
X164392857Y-40107142D01*
X164392857Y-40392857D01*
X164464285Y-40535714D01*
X164535714Y-40607142D01*
X164678571Y-40678571D01*
X164964285Y-40678571D01*
X165107142Y-40607142D01*
X165178571Y-40535714D01*
X165250000Y-40392857D01*
X165250000Y-40107142D01*
X165178571Y-39964285D01*
X165107142Y-39892857D01*
X164964285Y-39821428D01*
D11*
%TO.C,STEP1*%
X151904761Y-73345238D02*
X151952380Y-73202380D01*
X151952380Y-72964285D01*
X151904761Y-72869047D01*
X151857142Y-72821428D01*
X151761904Y-72773809D01*
X151666666Y-72773809D01*
X151571428Y-72821428D01*
X151523809Y-72869047D01*
X151476190Y-72964285D01*
X151428571Y-73154761D01*
X151380952Y-73250000D01*
X151333333Y-73297619D01*
X151238095Y-73345238D01*
X151142857Y-73345238D01*
X151047619Y-73297619D01*
X151000000Y-73250000D01*
X150952380Y-73154761D01*
X150952380Y-72916666D01*
X151000000Y-72773809D01*
X150952380Y-72488095D02*
X150952380Y-71916666D01*
X151952380Y-72202380D02*
X150952380Y-72202380D01*
X151428571Y-71583333D02*
X151428571Y-71250000D01*
X151952380Y-71107142D02*
X151952380Y-71583333D01*
X150952380Y-71583333D01*
X150952380Y-71107142D01*
X151952380Y-70678571D02*
X150952380Y-70678571D01*
X150952380Y-70297619D01*
X151000000Y-70202380D01*
X151047619Y-70154761D01*
X151142857Y-70107142D01*
X151285714Y-70107142D01*
X151380952Y-70154761D01*
X151428571Y-70202380D01*
X151476190Y-70297619D01*
X151476190Y-70678571D01*
X151952380Y-69154761D02*
X151952380Y-69726190D01*
X151952380Y-69440476D02*
X150952380Y-69440476D01*
X151095238Y-69535714D01*
X151190476Y-69630952D01*
X151238095Y-69726190D01*
%TO.C,EN1*%
X155428571Y-72464285D02*
X155428571Y-72130952D01*
X155952380Y-71988095D02*
X155952380Y-72464285D01*
X154952380Y-72464285D01*
X154952380Y-71988095D01*
X155952380Y-71559523D02*
X154952380Y-71559523D01*
X155952380Y-70988095D01*
X154952380Y-70988095D01*
X155952380Y-69988095D02*
X155952380Y-70559523D01*
X155952380Y-70273809D02*
X154952380Y-70273809D01*
X155095238Y-70369047D01*
X155190476Y-70464285D01*
X155238095Y-70559523D01*
%TO.C,TP2*%
X148500000Y-44452380D02*
X148500000Y-43452380D01*
X148738095Y-43452380D01*
X148880952Y-43500000D01*
X148976190Y-43595238D01*
X149023809Y-43690476D01*
X149071428Y-43880952D01*
X149071428Y-44023809D01*
X149023809Y-44214285D01*
X148976190Y-44309523D01*
X148880952Y-44404761D01*
X148738095Y-44452380D01*
X148500000Y-44452380D01*
X149500000Y-44452380D02*
X149500000Y-43452380D01*
X150547619Y-44452380D02*
X150214285Y-43976190D01*
X149976190Y-44452380D02*
X149976190Y-43452380D01*
X150357142Y-43452380D01*
X150452380Y-43500000D01*
X150500000Y-43547619D01*
X150547619Y-43642857D01*
X150547619Y-43785714D01*
X150500000Y-43880952D01*
X150452380Y-43928571D01*
X150357142Y-43976190D01*
X149976190Y-43976190D01*
%TO.C,TP4*%
X148614285Y-54552380D02*
X148614285Y-53552380D01*
X148947619Y-54266666D01*
X149280952Y-53552380D01*
X149280952Y-54552380D01*
X149709523Y-54504761D02*
X149852380Y-54552380D01*
X150090476Y-54552380D01*
X150185714Y-54504761D01*
X150233333Y-54457142D01*
X150280952Y-54361904D01*
X150280952Y-54266666D01*
X150233333Y-54171428D01*
X150185714Y-54123809D01*
X150090476Y-54076190D01*
X149900000Y-54028571D01*
X149804761Y-53980952D01*
X149757142Y-53933333D01*
X149709523Y-53838095D01*
X149709523Y-53742857D01*
X149757142Y-53647619D01*
X149804761Y-53600000D01*
X149900000Y-53552380D01*
X150138095Y-53552380D01*
X150280952Y-53600000D01*
X150661904Y-53647619D02*
X150709523Y-53600000D01*
X150804761Y-53552380D01*
X151042857Y-53552380D01*
X151138095Y-53600000D01*
X151185714Y-53647619D01*
X151233333Y-53742857D01*
X151233333Y-53838095D01*
X151185714Y-53980952D01*
X150614285Y-54552380D01*
X151233333Y-54552380D01*
%TO.C,TP6*%
X148571428Y-57052380D02*
X148571428Y-56052380D01*
X148809523Y-56052380D01*
X148952380Y-56100000D01*
X149047619Y-56195238D01*
X149095238Y-56290476D01*
X149142857Y-56480952D01*
X149142857Y-56623809D01*
X149095238Y-56814285D01*
X149047619Y-56909523D01*
X148952380Y-57004761D01*
X148809523Y-57052380D01*
X148571428Y-57052380D01*
X149571428Y-57052380D02*
X149571428Y-56052380D01*
X150000000Y-56766666D02*
X150476190Y-56766666D01*
X149904761Y-57052380D02*
X150238095Y-56052380D01*
X150571428Y-57052380D01*
X151428571Y-56100000D02*
X151333333Y-56052380D01*
X151190476Y-56052380D01*
X151047619Y-56100000D01*
X150952380Y-56195238D01*
X150904761Y-56290476D01*
X150857142Y-56480952D01*
X150857142Y-56623809D01*
X150904761Y-56814285D01*
X150952380Y-56909523D01*
X151047619Y-57004761D01*
X151190476Y-57052380D01*
X151285714Y-57052380D01*
X151428571Y-57004761D01*
X151476190Y-56957142D01*
X151476190Y-56623809D01*
X151285714Y-56623809D01*
%TO.C,TP1*%
X148561904Y-49028571D02*
X148895238Y-49028571D01*
X149038095Y-49552380D02*
X148561904Y-49552380D01*
X148561904Y-48552380D01*
X149038095Y-48552380D01*
X149466666Y-49552380D02*
X149466666Y-48552380D01*
X150038095Y-49552380D01*
X150038095Y-48552380D01*
X150466666Y-48885714D02*
X151180952Y-48885714D01*
X150752380Y-48457142D02*
X150466666Y-49742857D01*
X151085714Y-49314285D02*
X150371428Y-49314285D01*
X150800000Y-49742857D02*
X151085714Y-48457142D01*
%TO.C,U1*%
X153410700Y-58952380D02*
X153410700Y-59190476D01*
X153172604Y-59095238D02*
X153410700Y-59190476D01*
X153648795Y-59095238D01*
X153267842Y-59380952D02*
X153410700Y-59190476D01*
X153553557Y-59380952D01*
%TO.C,TP7*%
X145900000Y-59052380D02*
X145900000Y-58052380D01*
X146376190Y-59052380D02*
X146376190Y-58052380D01*
X146947619Y-59052380D01*
X146947619Y-58052380D01*
X147423809Y-59052380D02*
X147423809Y-58052380D01*
X147661904Y-58052380D01*
X147804761Y-58100000D01*
X147900000Y-58195238D01*
X147947619Y-58290476D01*
X147995238Y-58480952D01*
X147995238Y-58623809D01*
X147947619Y-58814285D01*
X147900000Y-58909523D01*
X147804761Y-59004761D01*
X147661904Y-59052380D01*
X147423809Y-59052380D01*
X148328571Y-58052380D02*
X148995238Y-59052380D01*
X148995238Y-58052380D02*
X148328571Y-59052380D01*
%TO.C,TP5*%
X148480952Y-46904761D02*
X148623809Y-46952380D01*
X148861904Y-46952380D01*
X148957142Y-46904761D01*
X149004761Y-46857142D01*
X149052380Y-46761904D01*
X149052380Y-46666666D01*
X149004761Y-46571428D01*
X148957142Y-46523809D01*
X148861904Y-46476190D01*
X148671428Y-46428571D01*
X148576190Y-46380952D01*
X148528571Y-46333333D01*
X148480952Y-46238095D01*
X148480952Y-46142857D01*
X148528571Y-46047619D01*
X148576190Y-46000000D01*
X148671428Y-45952380D01*
X148909523Y-45952380D01*
X149052380Y-46000000D01*
X149338095Y-45952380D02*
X149909523Y-45952380D01*
X149623809Y-46952380D02*
X149623809Y-45952380D01*
X150242857Y-46428571D02*
X150576190Y-46428571D01*
X150719047Y-46952380D02*
X150242857Y-46952380D01*
X150242857Y-45952380D01*
X150719047Y-45952380D01*
X151147619Y-46952380D02*
X151147619Y-45952380D01*
X151528571Y-45952380D01*
X151623809Y-46000000D01*
X151671428Y-46047619D01*
X151719047Y-46142857D01*
X151719047Y-46285714D01*
X151671428Y-46380952D01*
X151623809Y-46428571D01*
X151528571Y-46476190D01*
X151147619Y-46476190D01*
%TO.C,TP3*%
X148614285Y-52052380D02*
X148614285Y-51052380D01*
X148947619Y-51766666D01*
X149280952Y-51052380D01*
X149280952Y-52052380D01*
X149709523Y-52004761D02*
X149852380Y-52052380D01*
X150090476Y-52052380D01*
X150185714Y-52004761D01*
X150233333Y-51957142D01*
X150280952Y-51861904D01*
X150280952Y-51766666D01*
X150233333Y-51671428D01*
X150185714Y-51623809D01*
X150090476Y-51576190D01*
X149900000Y-51528571D01*
X149804761Y-51480952D01*
X149757142Y-51433333D01*
X149709523Y-51338095D01*
X149709523Y-51242857D01*
X149757142Y-51147619D01*
X149804761Y-51100000D01*
X149900000Y-51052380D01*
X150138095Y-51052380D01*
X150280952Y-51100000D01*
X151233333Y-52052380D02*
X150661904Y-52052380D01*
X150947619Y-52052380D02*
X150947619Y-51052380D01*
X150852380Y-51195238D01*
X150757142Y-51290476D01*
X150661904Y-51338095D01*
%TO.C,TP8*%
X146014285Y-65252380D02*
X146014285Y-64252380D01*
X146395238Y-64252380D01*
X146490476Y-64300000D01*
X146538095Y-64347619D01*
X146585714Y-64442857D01*
X146585714Y-64585714D01*
X146538095Y-64680952D01*
X146490476Y-64728571D01*
X146395238Y-64776190D01*
X146014285Y-64776190D01*
X147014285Y-65252380D02*
X147014285Y-64252380D01*
X147252380Y-64252380D01*
X147395238Y-64300000D01*
X147490476Y-64395238D01*
X147538095Y-64490476D01*
X147585714Y-64680952D01*
X147585714Y-64823809D01*
X147538095Y-65014285D01*
X147490476Y-65109523D01*
X147395238Y-65204761D01*
X147252380Y-65252380D01*
X147014285Y-65252380D01*
X148014285Y-65252380D02*
X148014285Y-64252380D01*
X148585714Y-65252380D01*
X148585714Y-64252380D01*
D12*
%TO.C,TP16*%
X143950000Y-69250000D02*
G75*
G03*
X143950000Y-69250000I-700000J0D01*
G01*
%TO.C,STEP1*%
X154635000Y-73710000D02*
X154635000Y-69650000D01*
X152365000Y-73710000D02*
X154635000Y-73710000D01*
X152365000Y-69650000D02*
X152365000Y-73710000D01*
%TO.C,R10*%
X143522500Y-71245276D02*
X143522500Y-71754724D01*
X142477500Y-71245276D02*
X142477500Y-71754724D01*
%TO.C,R9*%
X144977500Y-71754724D02*
X144977500Y-71245276D01*
X146022500Y-71754724D02*
X146022500Y-71245276D01*
%TO.C,EN1*%
X158635000Y-73710000D02*
X158635000Y-69650000D01*
X156365000Y-73710000D02*
X158635000Y-73710000D01*
X156365000Y-69650000D02*
X156365000Y-73710000D01*
%TO.C,J1*%
X142670000Y-40170000D02*
X144000000Y-40170000D01*
X142670000Y-42770000D02*
X142670000Y-68230000D01*
X142670000Y-68230000D02*
X145330000Y-68230000D01*
X142670000Y-42770000D02*
X145330000Y-42770000D01*
X145330000Y-42770000D02*
X145330000Y-68230000D01*
X142670000Y-41500000D02*
X142670000Y-40170000D01*
%TO.C,C7*%
X155652500Y-50437500D02*
X155652500Y-49650000D01*
X155258750Y-50043750D02*
X156046250Y-50043750D01*
X159845563Y-49410000D02*
X158560000Y-49410000D01*
X154090000Y-48345563D02*
X154090000Y-42590000D01*
X155154437Y-49410000D02*
X154090000Y-48345563D01*
X159845563Y-49410000D02*
X160910000Y-48345563D01*
X155154437Y-49410000D02*
X156440000Y-49410000D01*
X160910000Y-42590000D02*
X158560000Y-42590000D01*
X154090000Y-42590000D02*
X156440000Y-42590000D01*
X160910000Y-48345563D02*
X160910000Y-42590000D01*
%TO.C,TP2*%
X148000000Y-43900000D02*
G75*
G03*
X148000000Y-43900000I-700000J0D01*
G01*
%TO.C,TP20*%
X153200000Y-48400000D02*
X153200000Y-49800000D01*
X151800000Y-49800000D02*
X151800000Y-48400000D01*
X153200000Y-49800000D02*
X151800000Y-49800000D01*
X151800000Y-48400000D02*
X153200000Y-48400000D01*
%TO.C,C4*%
X162853733Y-60490000D02*
X163146267Y-60490000D01*
X162853733Y-61510000D02*
X163146267Y-61510000D01*
%TO.C,TP15*%
X164700000Y-68500000D02*
G75*
G03*
X164700000Y-68500000I-700000J0D01*
G01*
%TO.C,TP4*%
X148000000Y-54100000D02*
G75*
G03*
X148000000Y-54100000I-700000J0D01*
G01*
%TO.C,J3*%
X166775000Y-55950000D02*
X166775000Y-61500000D01*
X171225000Y-64500000D02*
X171975000Y-64500000D01*
X166775000Y-67050000D02*
X166775000Y-61500000D01*
X169725000Y-67050000D02*
X166775000Y-67050000D01*
X166015000Y-55190000D02*
X166015000Y-67810000D01*
X166015000Y-67810000D02*
X171985000Y-67810000D01*
X172275000Y-54900000D02*
X171025000Y-54900000D01*
X169725000Y-67800000D02*
X169725000Y-67050000D01*
X169725000Y-55950000D02*
X166775000Y-55950000D01*
X171975000Y-66000000D02*
X171225000Y-66000000D01*
X169725000Y-55200000D02*
X169725000Y-55950000D01*
X171985000Y-67810000D02*
X171985000Y-55190000D01*
X171225000Y-67800000D02*
X171975000Y-67800000D01*
X171975000Y-55200000D02*
X171225000Y-55200000D01*
X171225000Y-58500000D02*
X171225000Y-64500000D01*
X171225000Y-66000000D02*
X171225000Y-67800000D01*
X171225000Y-55200000D02*
X171225000Y-57000000D01*
X171985000Y-55190000D02*
X166015000Y-55190000D01*
X171975000Y-64500000D02*
X171975000Y-58500000D01*
X171975000Y-58500000D02*
X171225000Y-58500000D01*
X171225000Y-57000000D02*
X171975000Y-57000000D01*
X172275000Y-56150000D02*
X172275000Y-54900000D01*
X171975000Y-67800000D02*
X171975000Y-66000000D01*
X171975000Y-57000000D02*
X171975000Y-55200000D01*
%TO.C,TP6*%
X148000000Y-56600000D02*
G75*
G03*
X148000000Y-56600000I-700000J0D01*
G01*
%TO.C,TP19*%
X161900000Y-70300000D02*
X163300000Y-70300000D01*
X161900000Y-71700000D02*
X161900000Y-70300000D01*
X163300000Y-70300000D02*
X163300000Y-71700000D01*
X163300000Y-71700000D02*
X161900000Y-71700000D01*
%TO.C,R6*%
X159977500Y-66745276D02*
X159977500Y-67254724D01*
X161022500Y-66745276D02*
X161022500Y-67254724D01*
%TO.C,C1*%
X156260000Y-66853733D02*
X156260000Y-67146267D01*
X155240000Y-66853733D02*
X155240000Y-67146267D01*
%TO.C,TP1*%
X148000000Y-49100000D02*
G75*
G03*
X148000000Y-49100000I-700000J0D01*
G01*
%TO.C,U1*%
X159628900Y-63628900D02*
X159628900Y-62960140D01*
X158960140Y-63628900D02*
X159628900Y-63628900D01*
X154371100Y-62960140D02*
X154371100Y-63628900D01*
X159628900Y-59039860D02*
X159628900Y-58371100D01*
X154371100Y-58371100D02*
X154371100Y-59039860D01*
X155039860Y-58371100D02*
X154371100Y-58371100D01*
X154371100Y-63628900D02*
X155039860Y-63628900D01*
X159628900Y-58371100D02*
X158960140Y-58371100D01*
G36*
X160309899Y-60190499D02*
G01*
X160055899Y-60190499D01*
X160055899Y-59809499D01*
X160309899Y-59809499D01*
X160309899Y-60190499D01*
G37*
D13*
X160309899Y-60190499D02*
X160055899Y-60190499D01*
X160055899Y-59809499D01*
X160309899Y-59809499D01*
X160309899Y-60190499D01*
G36*
X156690501Y-64309899D02*
G01*
X156309501Y-64309899D01*
X156309501Y-64055899D01*
X156690501Y-64055899D01*
X156690501Y-64309899D01*
G37*
X156690501Y-64309899D02*
X156309501Y-64309899D01*
X156309501Y-64055899D01*
X156690501Y-64055899D01*
X156690501Y-64309899D01*
D12*
%TO.C,R3*%
X158772500Y-54745276D02*
X158772500Y-55254724D01*
X157727500Y-54745276D02*
X157727500Y-55254724D01*
%TO.C,R8*%
X152727500Y-66745276D02*
X152727500Y-67254724D01*
X153772500Y-66745276D02*
X153772500Y-67254724D01*
%TO.C,C5*%
X153760000Y-55146267D02*
X153760000Y-54853733D01*
X152740000Y-55146267D02*
X152740000Y-54853733D01*
%TO.C,TP7*%
X148000000Y-60500000D02*
G75*
G03*
X148000000Y-60500000I-700000J0D01*
G01*
%TO.C,R2*%
X155227500Y-55254724D02*
X155227500Y-54745276D01*
X156272500Y-55254724D02*
X156272500Y-54745276D01*
%TO.C,C3*%
X151146267Y-62990000D02*
X150853733Y-62990000D01*
X151146267Y-64010000D02*
X150853733Y-64010000D01*
%TO.C,TP5*%
X148000000Y-46500000D02*
G75*
G03*
X148000000Y-46500000I-700000J0D01*
G01*
%TO.C,R1*%
X148977500Y-60754724D02*
X148977500Y-60245276D01*
X150022500Y-60754724D02*
X150022500Y-60245276D01*
%TO.C,R7*%
X158772500Y-67254724D02*
X158772500Y-66745276D01*
X157727500Y-67254724D02*
X157727500Y-66745276D01*
%TO.C,C2*%
X151490000Y-60646267D02*
X151490000Y-60353733D01*
X152510000Y-60646267D02*
X152510000Y-60353733D01*
%TO.C,J4*%
X165004000Y-54060000D02*
X165004000Y-43940000D01*
X162044000Y-43940000D02*
X171965000Y-43940000D01*
X171965000Y-54060000D02*
X171965000Y-43940000D01*
X168328000Y-47727000D02*
X168374000Y-47774000D01*
X169905000Y-54060000D02*
X169905000Y-43940000D01*
X172205000Y-54300000D02*
X172205000Y-53800000D01*
X171405000Y-54060000D02*
X171405000Y-43940000D01*
X166236000Y-45225000D02*
X166282000Y-45272000D01*
X166030000Y-45430000D02*
X166066000Y-45465000D01*
X168544000Y-47534000D02*
X168579000Y-47569000D01*
X162044000Y-54060000D02*
X162044000Y-43940000D01*
X171465000Y-54300000D02*
X172205000Y-54300000D01*
X162044000Y-54060000D02*
X171965000Y-54060000D01*
X168840000Y-52184000D02*
G75*
G03*
X168985253Y-51471195I-1535001J683999D01*
G01*
X166621000Y-53035000D02*
G75*
G03*
X167988042Y-53035427I684001J1534993D01*
G01*
X168985000Y-51500000D02*
G75*
G03*
X168839756Y-50816682I-1680000J0D01*
G01*
X165770000Y-50816000D02*
G75*
G03*
X165769573Y-52183042I1534993J-684001D01*
G01*
X167989000Y-49964999D02*
G75*
G03*
X166621958Y-49964573I-684000J-1535001D01*
G01*
X168985000Y-46500000D02*
G75*
G03*
X168985000Y-46500000I-1680000J0D01*
G01*
%TO.C,TP3*%
X148000000Y-51600000D02*
G75*
G03*
X148000000Y-51600000I-700000J0D01*
G01*
%TO.C,C6*%
X160240000Y-55146267D02*
X160240000Y-54853733D01*
X161260000Y-55146267D02*
X161260000Y-54853733D01*
%TO.C,TP14*%
X153200000Y-51600000D02*
G75*
G03*
X153200000Y-51600000I-700000J0D01*
G01*
%TO.C,R5*%
X163254724Y-57977500D02*
X162745276Y-57977500D01*
X163254724Y-59022500D02*
X162745276Y-59022500D01*
%TO.C,TP12*%
X160900000Y-71000000D02*
G75*
G03*
X160900000Y-71000000I-700000J0D01*
G01*
%TO.C,TP18*%
X146700000Y-66700000D02*
X148100000Y-66700000D01*
X148100000Y-68100000D02*
X146700000Y-68100000D01*
X146700000Y-68100000D02*
X146700000Y-66700000D01*
X148100000Y-66700000D02*
X148100000Y-68100000D01*
%TO.C,R4*%
X162745276Y-64022500D02*
X163254724Y-64022500D01*
X162745276Y-62977500D02*
X163254724Y-62977500D01*
%TO.C,TP8*%
X148000000Y-62900000D02*
G75*
G03*
X148000000Y-62900000I-700000J0D01*
G01*
%TD*%
%LPC*%
D14*
%TO.C,TP16*%
X143250000Y-69250000D03*
%TD*%
D15*
%TO.C,STEP1*%
X153500000Y-72737500D03*
X153500000Y-69762500D03*
%TD*%
D16*
%TO.C,R10*%
X143000000Y-70587500D03*
X143000000Y-72412500D03*
%TD*%
D17*
%TO.C,R9*%
X145500000Y-72412500D03*
X145500000Y-70587500D03*
%TD*%
D15*
%TO.C,EN1*%
X157500000Y-72737500D03*
X157500000Y-69762500D03*
%TD*%
D18*
%TO.C,J1*%
X144000000Y-41500000D03*
D19*
X144000000Y-44040000D03*
X144000000Y-46580000D03*
X144000000Y-49120000D03*
X144000000Y-51660000D03*
X144000000Y-54200000D03*
X144000000Y-56740000D03*
X144000000Y-59280000D03*
X144000000Y-61820000D03*
X144000000Y-64360000D03*
X144000000Y-66900000D03*
%TD*%
D20*
%TO.C,C7*%
X157500000Y-48800000D03*
X157500000Y-43200000D03*
%TD*%
D14*
%TO.C,TP2*%
X147300000Y-43900000D03*
%TD*%
D21*
%TO.C,TP20*%
X152500000Y-49100000D03*
%TD*%
D22*
%TO.C,H2*%
X149500000Y-71000000D03*
%TD*%
D23*
%TO.C,C4*%
X162137500Y-61000000D03*
X163862500Y-61000000D03*
%TD*%
D14*
%TO.C,TP15*%
X164000000Y-68500000D03*
%TD*%
%TO.C,TP4*%
X147300000Y-54100000D03*
%TD*%
D24*
%TO.C,J3*%
X169525000Y-57750000D03*
D25*
X169525000Y-60250000D03*
X169525000Y-62750000D03*
X169525000Y-65250000D03*
%TD*%
D14*
%TO.C,TP6*%
X147300000Y-56600000D03*
%TD*%
D21*
%TO.C,TP19*%
X162600000Y-71000000D03*
%TD*%
D16*
%TO.C,R6*%
X160500000Y-66087500D03*
X160500000Y-67912500D03*
%TD*%
D26*
%TO.C,C1*%
X155750000Y-66137500D03*
X155750000Y-67862500D03*
%TD*%
D22*
%TO.C,H1*%
X149500000Y-41000000D03*
%TD*%
D14*
%TO.C,TP1*%
X147300000Y-49100000D03*
%TD*%
D27*
%TO.C,U1*%
X154652900Y-59500000D03*
X154652900Y-59999999D03*
X154652900Y-60500001D03*
X154652900Y-61000000D03*
X154652900Y-61499999D03*
X154652900Y-62000001D03*
X154652900Y-62500000D03*
D28*
X155500000Y-63347100D03*
X155999999Y-63347100D03*
X156500001Y-63347100D03*
X157000000Y-63347100D03*
X157499999Y-63347100D03*
X158000001Y-63347100D03*
X158500000Y-63347100D03*
D27*
X159347100Y-62500000D03*
X159347100Y-62000001D03*
X159347100Y-61499999D03*
X159347100Y-61000000D03*
X159347100Y-60500001D03*
X159347100Y-59999999D03*
X159347100Y-59500000D03*
D28*
X158500000Y-58652900D03*
X158000001Y-58652900D03*
X157499999Y-58652900D03*
X157000000Y-58652900D03*
X156500001Y-58652900D03*
X155999999Y-58652900D03*
X155500000Y-58652900D03*
D29*
X157000000Y-61000000D03*
%TD*%
D16*
%TO.C,R3*%
X158250000Y-54087500D03*
X158250000Y-55912500D03*
%TD*%
%TO.C,R8*%
X153250000Y-66087500D03*
X153250000Y-67912500D03*
%TD*%
D30*
%TO.C,C5*%
X153250000Y-55862500D03*
X153250000Y-54137500D03*
%TD*%
D14*
%TO.C,TP7*%
X147300000Y-60500000D03*
%TD*%
D17*
%TO.C,R2*%
X155750000Y-55912500D03*
X155750000Y-54087500D03*
%TD*%
D31*
%TO.C,C3*%
X151862500Y-63500000D03*
X150137500Y-63500000D03*
%TD*%
D14*
%TO.C,TP5*%
X147300000Y-46500000D03*
%TD*%
D17*
%TO.C,R1*%
X149500000Y-61412500D03*
X149500000Y-59587500D03*
%TD*%
%TO.C,R7*%
X158250000Y-67912500D03*
X158250000Y-66087500D03*
%TD*%
D22*
%TO.C,H4*%
X169000000Y-41000000D03*
%TD*%
D30*
%TO.C,C2*%
X152000000Y-61362500D03*
X152000000Y-59637500D03*
%TD*%
D32*
%TO.C,J4*%
X167305000Y-51500000D03*
D33*
X167305000Y-46500000D03*
%TD*%
D14*
%TO.C,TP3*%
X147300000Y-51600000D03*
%TD*%
D30*
%TO.C,C6*%
X160750000Y-55862500D03*
X160750000Y-54137500D03*
%TD*%
D14*
%TO.C,TP14*%
X152500000Y-51600000D03*
%TD*%
D34*
%TO.C,R5*%
X163912500Y-58500000D03*
X162087500Y-58500000D03*
%TD*%
D22*
%TO.C,H3*%
X169000000Y-71000000D03*
%TD*%
D14*
%TO.C,TP12*%
X160200000Y-71000000D03*
%TD*%
D35*
%TO.C,FID1*%
X153500000Y-41000000D03*
%TD*%
D21*
%TO.C,TP18*%
X147400000Y-67400000D03*
%TD*%
D35*
%TO.C,FID2*%
X165000000Y-71000000D03*
%TD*%
D36*
%TO.C,R4*%
X162087500Y-63500000D03*
X163912500Y-63500000D03*
%TD*%
D14*
%TO.C,TP8*%
X147300000Y-62900000D03*
%TD*%
M02*
