%TF.GenerationSoftware,KiCad,Pcbnew,(6.0.6)*%
%TF.CreationDate,2022-06-26T20:43:02+02:00*%
%TF.ProjectId,tmc2208-breakout,746d6332-3230-4382-9d62-7265616b6f75,rev?*%
%TF.SameCoordinates,Original*%
%TF.FileFunction,Paste,Top*%
%TF.FilePolarity,Positive*%
%FSLAX46Y46*%
G04 Gerber Fmt 4.6, Leading zero omitted, Abs format (unit mm)*
G04 Created by KiCad (PCBNEW (6.0.6)) date 2022-06-26 20:43:02*
%MOMM*%
%LPD*%
G01*
G04 APERTURE LIST*
G04 Aperture macros list*
%AMRoundRect*
0 Rectangle with rounded corners*
0 $1 Rounding radius*
0 $2 $3 $4 $5 $6 $7 $8 $9 X,Y pos of 4 corners*
0 Add a 4 corners polygon primitive as box body*
4,1,4,$2,$3,$4,$5,$6,$7,$8,$9,$2,$3,0*
0 Add four circle primitives for the rounded corners*
1,1,$1+$1,$2,$3*
1,1,$1+$1,$4,$5*
1,1,$1+$1,$6,$7*
1,1,$1+$1,$8,$9*
0 Add four rect primitives between the rounded corners*
20,1,$1+$1,$2,$3,$4,$5,0*
20,1,$1+$1,$4,$5,$6,$7,0*
20,1,$1+$1,$6,$7,$8,$9,0*
20,1,$1+$1,$8,$9,$2,$3,0*%
G04 Aperture macros list end*
%ADD10RoundRect,0.237500X-0.300000X-0.237500X0.300000X-0.237500X0.300000X0.237500X-0.300000X0.237500X0*%
%ADD11RoundRect,0.237500X-0.237500X0.250000X-0.237500X-0.250000X0.237500X-0.250000X0.237500X0.250000X0*%
%ADD12RoundRect,0.237500X-0.237500X0.300000X-0.237500X-0.300000X0.237500X-0.300000X0.237500X0.300000X0*%
%ADD13R,0.909599X0.254800*%
%ADD14R,0.254800X0.909599*%
%ADD15R,3.098800X3.098800*%
%ADD16RoundRect,0.237500X0.237500X-0.300000X0.237500X0.300000X-0.237500X0.300000X-0.237500X-0.300000X0*%
%ADD17RoundRect,0.237500X0.237500X-0.250000X0.237500X0.250000X-0.237500X0.250000X-0.237500X-0.250000X0*%
%ADD18RoundRect,0.237500X0.300000X0.237500X-0.300000X0.237500X-0.300000X-0.237500X0.300000X-0.237500X0*%
%ADD19RoundRect,0.250000X0.550000X-1.250000X0.550000X1.250000X-0.550000X1.250000X-0.550000X-1.250000X0*%
%ADD20RoundRect,0.237500X0.250000X0.237500X-0.250000X0.237500X-0.250000X-0.237500X0.250000X-0.237500X0*%
%ADD21RoundRect,0.237500X-0.250000X-0.237500X0.250000X-0.237500X0.250000X0.237500X-0.250000X0.237500X0*%
G04 APERTURE END LIST*
D10*
%TO.C,C4*%
X162137500Y-61000000D03*
X163862500Y-61000000D03*
%TD*%
D11*
%TO.C,R6*%
X160500000Y-66087500D03*
X160500000Y-67912500D03*
%TD*%
D12*
%TO.C,C1*%
X155750000Y-66137500D03*
X155750000Y-67862500D03*
%TD*%
D13*
%TO.C,U1*%
X154652900Y-59500000D03*
X154652900Y-59999999D03*
X154652900Y-60500001D03*
X154652900Y-61000000D03*
X154652900Y-61499999D03*
X154652900Y-62000001D03*
X154652900Y-62500000D03*
D14*
X155500000Y-63347100D03*
X155999999Y-63347100D03*
X156500001Y-63347100D03*
X157000000Y-63347100D03*
X157499999Y-63347100D03*
X158000001Y-63347100D03*
X158500000Y-63347100D03*
D13*
X159347100Y-62500000D03*
X159347100Y-62000001D03*
X159347100Y-61499999D03*
X159347100Y-61000000D03*
X159347100Y-60500001D03*
X159347100Y-59999999D03*
X159347100Y-59500000D03*
D14*
X158500000Y-58652900D03*
X158000001Y-58652900D03*
X157499999Y-58652900D03*
X157000000Y-58652900D03*
X156500001Y-58652900D03*
X155999999Y-58652900D03*
X155500000Y-58652900D03*
D15*
X157000000Y-61000000D03*
%TD*%
D11*
%TO.C,R3*%
X158250000Y-54087500D03*
X158250000Y-55912500D03*
%TD*%
%TO.C,R8*%
X153250000Y-66087500D03*
X153250000Y-67912500D03*
%TD*%
D16*
%TO.C,C5*%
X153250000Y-55862500D03*
X153250000Y-54137500D03*
%TD*%
D17*
%TO.C,R2*%
X155750000Y-55912500D03*
X155750000Y-54087500D03*
%TD*%
D18*
%TO.C,C3*%
X151862500Y-63500000D03*
X150137500Y-63500000D03*
%TD*%
D17*
%TO.C,R1*%
X149500000Y-61412500D03*
X149500000Y-59587500D03*
%TD*%
%TO.C,R7*%
X158250000Y-67912500D03*
X158250000Y-66087500D03*
%TD*%
D16*
%TO.C,C2*%
X152000000Y-61362500D03*
X152000000Y-59637500D03*
%TD*%
D19*
%TO.C,C7*%
X157000000Y-50200000D03*
X157000000Y-45800000D03*
%TD*%
D16*
%TO.C,C6*%
X160750000Y-55862500D03*
X160750000Y-54137500D03*
%TD*%
D20*
%TO.C,R5*%
X163912500Y-58500000D03*
X162087500Y-58500000D03*
%TD*%
D21*
%TO.C,R4*%
X162087500Y-63500000D03*
X163912500Y-63500000D03*
%TD*%
M02*
